G04 #@! TF.FileFunction,Copper,L1,Top,Signal*
%FSLAX46Y46*%
G04 Gerber Fmt 4.6, Leading zero omitted, Abs format (unit mm)*
G04 Created by KiCad (PCBNEW 4.0.4-stable) date 02/13/17 08:57:20*
%MOMM*%
%LPD*%
G01*
G04 APERTURE LIST*
%ADD10C,0.100000*%
%ADD11O,3.048000X1.524000*%
%ADD12C,1.530000*%
%ADD13R,1.651000X0.431800*%
%ADD14C,1.016000*%
%ADD15C,0.254000*%
G04 APERTURE END LIST*
D10*
D11*
X158826100Y-117063600D03*
X158826100Y-114523600D03*
X158826100Y-111983600D03*
X158826100Y-109443600D03*
X158826100Y-106903600D03*
X158826100Y-104363600D03*
X158826100Y-101823600D03*
X158826100Y-99283600D03*
X158826100Y-96743600D03*
D12*
X134696100Y-125953600D03*
X132156100Y-125953600D03*
X134696100Y-123413600D03*
X132156100Y-123413600D03*
X134696100Y-120873600D03*
X132156100Y-120873600D03*
X134696100Y-118333600D03*
X132156100Y-118333600D03*
X134696100Y-115793600D03*
X132156100Y-115793600D03*
X134696100Y-113253600D03*
X132156100Y-113253600D03*
X134696100Y-110713600D03*
X132156100Y-110713600D03*
X134696100Y-108173600D03*
X132156100Y-108173600D03*
X134696100Y-105633600D03*
X132156100Y-105633600D03*
X134696100Y-103093600D03*
X132156100Y-103093600D03*
X134696100Y-100553600D03*
X132156100Y-100553600D03*
X134696100Y-98013600D03*
X132156100Y-98013600D03*
X134696100Y-95473600D03*
X132156100Y-95473600D03*
X134696100Y-92933600D03*
X132156100Y-92933600D03*
X134696100Y-90393600D03*
X132156100Y-90393600D03*
X134696100Y-87853600D03*
X132156100Y-87853600D03*
X134696100Y-85313600D03*
X132156100Y-85313600D03*
D13*
X143763900Y-114752200D03*
X143763900Y-115412600D03*
X143763900Y-116047600D03*
X143763900Y-116708000D03*
X143763900Y-117368400D03*
X143763900Y-118003400D03*
X143763900Y-118663800D03*
X143763900Y-119298800D03*
X143763900Y-119959200D03*
X143763900Y-120619600D03*
X143763900Y-121254600D03*
X143763900Y-121915000D03*
X151028300Y-121915000D03*
X151028300Y-121254600D03*
X151028300Y-120619600D03*
X151028300Y-119959200D03*
X151028300Y-119298800D03*
X151028300Y-118663800D03*
X151028300Y-118003400D03*
X151028300Y-117368400D03*
X151028300Y-116708000D03*
X151028300Y-116047600D03*
X151028300Y-115412600D03*
X151028300Y-114752200D03*
X143763900Y-94432200D03*
X143763900Y-95092600D03*
X143763900Y-95727600D03*
X143763900Y-96388000D03*
X143763900Y-97048400D03*
X143763900Y-97683400D03*
X143763900Y-98343800D03*
X143763900Y-98978800D03*
X143763900Y-99639200D03*
X143763900Y-100299600D03*
X143763900Y-100934600D03*
X143763900Y-101595000D03*
X151028300Y-101595000D03*
X151028300Y-100934600D03*
X151028300Y-100299600D03*
X151028300Y-99639200D03*
X151028300Y-98978800D03*
X151028300Y-98343800D03*
X151028300Y-97683400D03*
X151028300Y-97048400D03*
X151028300Y-96388000D03*
X151028300Y-95727600D03*
X151028300Y-95092600D03*
X151028300Y-94432200D03*
D14*
X148348600Y-100871100D03*
X138506100Y-115476100D03*
X137553600Y-113571100D03*
X139776100Y-115476100D03*
X138506100Y-111983600D03*
X147396100Y-115476100D03*
X147078600Y-112301100D03*
X146761100Y-121826100D03*
X142951100Y-104681100D03*
X131203600Y-111983600D03*
X152793600Y-117381100D03*
X152793600Y-118651100D03*
X149301100Y-118651100D03*
X145491100Y-86583600D03*
X149301100Y-119921100D03*
X162318600Y-96426100D03*
X159778600Y-118651100D03*
X153746100Y-87853600D03*
X140728600Y-100871100D03*
X137553600Y-98331100D03*
X141681100Y-96743600D03*
X141363600Y-85631100D03*
X145491100Y-95791100D03*
X143903600Y-93251100D03*
X140411100Y-93251100D03*
X138823600Y-96743600D03*
X138506100Y-107856100D03*
X139776100Y-95156100D03*
X139776100Y-106586100D03*
X153111100Y-95473600D03*
X154698600Y-96426100D03*
X156921100Y-95791100D03*
X147396100Y-96108600D03*
X147396100Y-102458600D03*
X145491100Y-97061100D03*
X140728600Y-99283600D03*
X146443600Y-98013600D03*
X142633600Y-93251100D03*
X148348600Y-98648600D03*
X148348600Y-91981100D03*
X149301100Y-99601100D03*
X146761100Y-89123600D03*
X152793600Y-98966100D03*
X145491100Y-121826100D03*
X146443600Y-101506100D03*
X155016100Y-114841100D03*
X155968600Y-120556100D03*
X145491100Y-120556100D03*
X145491100Y-100553600D03*
X145491100Y-104363600D03*
X141998600Y-100871100D03*
X141998600Y-120873600D03*
X156921100Y-121508600D03*
X153746100Y-102458600D03*
X152476100Y-102776100D03*
X153746100Y-106903600D03*
X158508600Y-93886100D03*
D15*
X140728600Y-119921100D02*
X143586100Y-119921100D01*
X134696100Y-125953600D02*
X140728600Y-119921100D01*
X143586100Y-119921100D02*
X143763900Y-119959200D01*
X147078600Y-99601100D02*
X143903600Y-99601100D01*
X148348600Y-100871100D02*
X147078600Y-99601100D01*
X143903600Y-99601100D02*
X143763900Y-99639200D01*
X138823600Y-119286100D02*
X143586100Y-119286100D01*
X134696100Y-123413600D02*
X138823600Y-119286100D01*
X143586100Y-119286100D02*
X143763900Y-119298800D01*
X136918600Y-118651100D02*
X143586100Y-118651100D01*
X134696100Y-120873600D02*
X136918600Y-118651100D01*
X143586100Y-118651100D02*
X143763900Y-118663800D01*
X135013600Y-118016100D02*
X143586100Y-118016100D01*
X134696100Y-118333600D02*
X135013600Y-118016100D01*
X143586100Y-118016100D02*
X143763900Y-118003400D01*
X136283600Y-117381100D02*
X143586100Y-117381100D01*
X134696100Y-115793600D02*
X136283600Y-117381100D01*
X143586100Y-117381100D02*
X143763900Y-117368400D01*
X139776100Y-116746100D02*
X143586100Y-116746100D01*
X138506100Y-115476100D02*
X139776100Y-116746100D01*
X137236100Y-113253600D02*
X137553600Y-113571100D01*
X134696100Y-113253600D02*
X137236100Y-113253600D01*
X143586100Y-116746100D02*
X143763900Y-116708000D01*
X140411100Y-116111100D02*
X143586100Y-116111100D01*
X139776100Y-115476100D02*
X140411100Y-116111100D01*
X137236100Y-110713600D02*
X138506100Y-111983600D01*
X134696100Y-110713600D02*
X137236100Y-110713600D01*
X143586100Y-116111100D02*
X143763900Y-116047600D01*
X141046100Y-115476100D02*
X143586100Y-115476100D01*
X140093600Y-114523600D02*
X141046100Y-115476100D01*
X131838600Y-114523600D02*
X140093600Y-114523600D01*
X130251100Y-112936100D02*
X131838600Y-114523600D01*
X130251100Y-109443600D02*
X130251100Y-112936100D01*
X132473600Y-109443600D02*
X130251100Y-109443600D01*
X133743600Y-108173600D02*
X132473600Y-109443600D01*
X134696100Y-108173600D02*
X133743600Y-108173600D01*
X143586100Y-115476100D02*
X143763900Y-115412600D01*
X147396100Y-115476100D02*
X150888600Y-115476100D01*
X140411100Y-105633600D02*
X147078600Y-112301100D01*
X134696100Y-105633600D02*
X140411100Y-105633600D01*
X150888600Y-115476100D02*
X151028300Y-115412600D01*
X149936100Y-116111100D02*
X150888600Y-116111100D01*
X146761100Y-119286100D02*
X149936100Y-116111100D01*
X146761100Y-121826100D02*
X146761100Y-119286100D01*
X141363600Y-103093600D02*
X142951100Y-104681100D01*
X134696100Y-103093600D02*
X141363600Y-103093600D01*
X150888600Y-116111100D02*
X151028300Y-116047600D01*
X152158600Y-116746100D02*
X151206100Y-116746100D01*
X153111100Y-115793600D02*
X152158600Y-116746100D01*
X160096100Y-115793600D02*
X153111100Y-115793600D01*
X160731100Y-115158600D02*
X160096100Y-115793600D01*
X160731100Y-113253600D02*
X160731100Y-115158600D01*
X138506100Y-113253600D02*
X160731100Y-113253600D01*
X137236100Y-111983600D02*
X138506100Y-113253600D01*
X131203600Y-111983600D02*
X137236100Y-111983600D01*
X151206100Y-116746100D02*
X151028300Y-116708000D01*
X152793600Y-117381100D02*
X151206100Y-117381100D01*
X151206100Y-117381100D02*
X151028300Y-117368400D01*
X152158600Y-118016100D02*
X151206100Y-118016100D01*
X152793600Y-118651100D02*
X152158600Y-118016100D01*
X151206100Y-118016100D02*
X151028300Y-118003400D01*
X149301100Y-118651100D02*
X150888600Y-118651100D01*
X131838600Y-86583600D02*
X145491100Y-86583600D01*
X130886100Y-87536100D02*
X131838600Y-86583600D01*
X130886100Y-94203600D02*
X130886100Y-87536100D01*
X132473600Y-94203600D02*
X130886100Y-94203600D01*
X133743600Y-92933600D02*
X132473600Y-94203600D01*
X134696100Y-92933600D02*
X133743600Y-92933600D01*
X150888600Y-118651100D02*
X151028300Y-118663800D01*
X149936100Y-119286100D02*
X150888600Y-119286100D01*
X149301100Y-119921100D02*
X149936100Y-119286100D01*
X156286100Y-90393600D02*
X162318600Y-96426100D01*
X134696100Y-90393600D02*
X156286100Y-90393600D01*
X150888600Y-119286100D02*
X151028300Y-119298800D01*
X155333600Y-119921100D02*
X151206100Y-119921100D01*
X156603600Y-118651100D02*
X155333600Y-119921100D01*
X159778600Y-118651100D02*
X156603600Y-118651100D01*
X134696100Y-87853600D02*
X153746100Y-87853600D01*
X151206100Y-119921100D02*
X151028300Y-119959200D01*
X142633600Y-98966100D02*
X143586100Y-98966100D01*
X140728600Y-100871100D02*
X142633600Y-98966100D01*
X143586100Y-98966100D02*
X143763900Y-98978800D01*
X137553600Y-98331100D02*
X143586100Y-98331100D01*
X143586100Y-98331100D02*
X143763900Y-98343800D01*
X138188600Y-97696100D02*
X143586100Y-97696100D01*
X137236100Y-96743600D02*
X138188600Y-97696100D01*
X131838600Y-96743600D02*
X137236100Y-96743600D01*
X129616100Y-98966100D02*
X131838600Y-96743600D01*
X129616100Y-118333600D02*
X129616100Y-98966100D01*
X132156100Y-118333600D02*
X129616100Y-118333600D01*
X143586100Y-97696100D02*
X143763900Y-97683400D01*
X141998600Y-97061100D02*
X143586100Y-97061100D01*
X141681100Y-96743600D02*
X141998600Y-97061100D01*
X139776100Y-84043600D02*
X141363600Y-85631100D01*
X131838600Y-84043600D02*
X139776100Y-84043600D01*
X128981100Y-86901100D02*
X131838600Y-84043600D01*
X128981100Y-119603600D02*
X128981100Y-86901100D01*
X132473600Y-119603600D02*
X128981100Y-119603600D01*
X133426100Y-118651100D02*
X132473600Y-119603600D01*
X133426100Y-115793600D02*
X133426100Y-118651100D01*
X132156100Y-115793600D02*
X133426100Y-115793600D01*
X143586100Y-97061100D02*
X143763900Y-97048400D01*
X144856100Y-96426100D02*
X143903600Y-96426100D01*
X145491100Y-95791100D02*
X144856100Y-96426100D01*
X142951100Y-92298600D02*
X143903600Y-93251100D01*
X141363600Y-92298600D02*
X142951100Y-92298600D01*
X140411100Y-93251100D02*
X141363600Y-92298600D01*
X143903600Y-96426100D02*
X143763900Y-96388000D01*
X140411100Y-95791100D02*
X143586100Y-95791100D01*
X139458600Y-96743600D02*
X140411100Y-95791100D01*
X138823600Y-96743600D02*
X139458600Y-96743600D01*
X136918600Y-109443600D02*
X138506100Y-107856100D01*
X133426100Y-109443600D02*
X136918600Y-109443600D01*
X132156100Y-110713600D02*
X133426100Y-109443600D01*
X143586100Y-95791100D02*
X143763900Y-95727600D01*
X139776100Y-95156100D02*
X143586100Y-95156100D01*
X139458600Y-106903600D02*
X139776100Y-106586100D01*
X133426100Y-106903600D02*
X139458600Y-106903600D01*
X132156100Y-108173600D02*
X133426100Y-106903600D01*
X143586100Y-95156100D02*
X143763900Y-95092600D01*
X152793600Y-95156100D02*
X151206100Y-95156100D01*
X153111100Y-95473600D02*
X152793600Y-95156100D01*
X151206100Y-95156100D02*
X151028300Y-95092600D01*
X152158600Y-95791100D02*
X151206100Y-95791100D01*
X152793600Y-96426100D02*
X152158600Y-95791100D01*
X154698600Y-96426100D02*
X152793600Y-96426100D01*
X157238600Y-95473600D02*
X156921100Y-95791100D01*
X160096100Y-95473600D02*
X157238600Y-95473600D01*
X161366100Y-96743600D02*
X160096100Y-95473600D01*
X161366100Y-105633600D02*
X161366100Y-96743600D01*
X141363600Y-105633600D02*
X161366100Y-105633600D01*
X140093600Y-104363600D02*
X141363600Y-105633600D01*
X133426100Y-104363600D02*
X140093600Y-104363600D01*
X132156100Y-103093600D02*
X133426100Y-104363600D01*
X151206100Y-95791100D02*
X151028300Y-95727600D01*
X147713600Y-96426100D02*
X150888600Y-96426100D01*
X147396100Y-96108600D02*
X147713600Y-96426100D01*
X135648600Y-102458600D02*
X147396100Y-102458600D01*
X135013600Y-101823600D02*
X135648600Y-102458600D01*
X133426100Y-101823600D02*
X135013600Y-101823600D01*
X132156100Y-100553600D02*
X133426100Y-101823600D01*
X150888600Y-96426100D02*
X151028300Y-96388000D01*
X145491100Y-97061100D02*
X150888600Y-97061100D01*
X133426100Y-99283600D02*
X140728600Y-99283600D01*
X132156100Y-98013600D02*
X133426100Y-99283600D01*
X150888600Y-97061100D02*
X151028300Y-97048400D01*
X146761100Y-97696100D02*
X150888600Y-97696100D01*
X146443600Y-98013600D02*
X146761100Y-97696100D01*
X141681100Y-94203600D02*
X142633600Y-93251100D01*
X133426100Y-94203600D02*
X141681100Y-94203600D01*
X132156100Y-95473600D02*
X133426100Y-94203600D01*
X150888600Y-97696100D02*
X151028300Y-97683400D01*
X148666100Y-98331100D02*
X150888600Y-98331100D01*
X148348600Y-98648600D02*
X148666100Y-98331100D01*
X148031100Y-91663600D02*
X148348600Y-91981100D01*
X133426100Y-91663600D02*
X148031100Y-91663600D01*
X132156100Y-92933600D02*
X133426100Y-91663600D01*
X150888600Y-98331100D02*
X151028300Y-98343800D01*
X149936100Y-98966100D02*
X150888600Y-98966100D01*
X149301100Y-99601100D02*
X149936100Y-98966100D01*
X133426100Y-89123600D02*
X146761100Y-89123600D01*
X132156100Y-90393600D02*
X133426100Y-89123600D01*
X150888600Y-98966100D02*
X151028300Y-98978800D01*
X152158600Y-99601100D02*
X151206100Y-99601100D01*
X152793600Y-98966100D02*
X152158600Y-99601100D01*
X151206100Y-99601100D02*
X151028300Y-99639200D01*
X145491100Y-121826100D02*
X143903600Y-121826100D01*
X143903600Y-101506100D02*
X146443600Y-101506100D01*
X143903600Y-121826100D02*
X143763900Y-121915000D01*
X143903600Y-101506100D02*
X143763900Y-101595000D01*
X160731100Y-98648600D02*
X158826100Y-96743600D01*
X160731100Y-103093600D02*
X160731100Y-98648600D01*
X154381100Y-103093600D02*
X160731100Y-103093600D01*
X153746100Y-103728600D02*
X154381100Y-103093600D01*
X149936100Y-103728600D02*
X153746100Y-103728600D01*
X147713600Y-101506100D02*
X149936100Y-103728600D01*
X146443600Y-101506100D02*
X147713600Y-101506100D01*
X155016100Y-114841100D02*
X151206100Y-114841100D01*
X151206100Y-114841100D02*
X151028300Y-114752200D01*
X154063600Y-94521100D02*
X151206100Y-94521100D01*
X158826100Y-99283600D02*
X154063600Y-94521100D01*
X151206100Y-94521100D02*
X151028300Y-94432200D01*
X155968600Y-120556100D02*
X151206100Y-120556100D01*
X151206100Y-120556100D02*
X151028300Y-120619600D01*
X157238600Y-100236100D02*
X151206100Y-100236100D01*
X158826100Y-101823600D02*
X157238600Y-100236100D01*
X151206100Y-100236100D02*
X151028300Y-100299600D01*
X145491100Y-120556100D02*
X143903600Y-120556100D01*
X145173600Y-100236100D02*
X145491100Y-100553600D01*
X143903600Y-100236100D02*
X145173600Y-100236100D01*
X143903600Y-120556100D02*
X143763900Y-120619600D01*
X143903600Y-100236100D02*
X143763900Y-100299600D01*
X145491100Y-104363600D02*
X158826100Y-104363600D01*
X142951100Y-121191100D02*
X143586100Y-121191100D01*
X142316100Y-121826100D02*
X142633600Y-121508600D01*
X142633600Y-121508600D02*
X142951100Y-121191100D01*
X142316100Y-123096100D02*
X142316100Y-121826100D01*
X157556100Y-123096100D02*
X142316100Y-123096100D01*
X162001100Y-118651100D02*
X157556100Y-123096100D01*
X162001100Y-106903600D02*
X162001100Y-118651100D01*
X158826100Y-106903600D02*
X162001100Y-106903600D01*
X143586100Y-121191100D02*
X143763900Y-121254600D01*
X141998600Y-100871100D02*
X143586100Y-100871100D01*
X142633600Y-121508600D02*
X141998600Y-120873600D01*
X143586100Y-100871100D02*
X143763900Y-100934600D01*
X155333600Y-121191100D02*
X151206100Y-121191100D01*
X155651100Y-121508600D02*
X155333600Y-121191100D01*
X156921100Y-121508600D02*
X155651100Y-121508600D01*
X151206100Y-121191100D02*
X151028300Y-121254600D01*
X152158600Y-100871100D02*
X151206100Y-100871100D01*
X153746100Y-102458600D02*
X152158600Y-100871100D01*
X151206100Y-100871100D02*
X151028300Y-100934600D01*
X151841100Y-122461100D02*
X151206100Y-121826100D01*
X157238600Y-122461100D02*
X151841100Y-122461100D01*
X161366100Y-118333600D02*
X157238600Y-122461100D01*
X161366100Y-111983600D02*
X161366100Y-118333600D01*
X158826100Y-111983600D02*
X161366100Y-111983600D01*
X151206100Y-121826100D02*
X151028300Y-121915000D01*
X152476100Y-102776100D02*
X151206100Y-101506100D01*
X158826100Y-111983600D02*
X153746100Y-106903600D01*
X151206100Y-101506100D02*
X151028300Y-101595000D01*
X144538600Y-93886100D02*
X143903600Y-94521100D01*
X158508600Y-93886100D02*
X144538600Y-93886100D01*
X143903600Y-94521100D02*
X143763900Y-94432200D01*
X144856100Y-113888600D02*
X143903600Y-114841100D01*
X158191100Y-113888600D02*
X144856100Y-113888600D01*
X158826100Y-114523600D02*
X158191100Y-113888600D01*
X143903600Y-114841100D02*
X143763900Y-114752200D01*
M02*
