G04 #@! TF.FileFunction,Copper,L2,Bot,Signal*
%FSLAX46Y46*%
G04 Gerber Fmt 4.6, Leading zero omitted, Abs format (unit mm)*
G04 Created by KiCad (PCBNEW 4.0.4-stable) date 12/23/16 23:51:56*
%MOMM*%
%LPD*%
G01*
G04 APERTURE LIST*
%ADD10C,0.100000*%
%ADD11C,1.320800*%
%ADD12C,1.530000*%
%ADD13C,0.600000*%
%ADD14C,0.250000*%
G04 APERTURE END LIST*
D10*
D11*
X111810800Y-142570200D03*
X111810800Y-147650200D03*
X116179600Y-142697200D03*
X116179600Y-147777200D03*
D12*
X137160000Y-50800000D03*
X137160000Y-53340000D03*
X134620000Y-50800000D03*
X134620000Y-53340000D03*
X132080000Y-50800000D03*
X132080000Y-53340000D03*
X129540000Y-50800000D03*
X129540000Y-53340000D03*
X127000000Y-50800000D03*
X127000000Y-53340000D03*
X124460000Y-50800000D03*
X124460000Y-53340000D03*
X121920000Y-50800000D03*
X121920000Y-53340000D03*
X119380000Y-50800000D03*
X119380000Y-53340000D03*
X116840000Y-50800000D03*
X116840000Y-53340000D03*
X114300000Y-50800000D03*
X114300000Y-53340000D03*
X111760000Y-50800000D03*
X111760000Y-53340000D03*
X109220000Y-50800000D03*
X109220000Y-53340000D03*
X106680000Y-50800000D03*
X106680000Y-53340000D03*
X104140000Y-50800000D03*
X104140000Y-53340000D03*
X101600000Y-50800000D03*
X101600000Y-53340000D03*
X99060000Y-50800000D03*
X99060000Y-53340000D03*
X96520000Y-50800000D03*
X96520000Y-53340000D03*
X175260000Y-88900000D03*
X172720000Y-88900000D03*
X175260000Y-86360000D03*
X172720000Y-86360000D03*
X175260000Y-83820000D03*
X172720000Y-83820000D03*
X175260000Y-81280000D03*
X172720000Y-81280000D03*
X175260000Y-78740000D03*
X172720000Y-78740000D03*
X175260000Y-76200000D03*
X172720000Y-76200000D03*
X175260000Y-73660000D03*
X172720000Y-73660000D03*
X175260000Y-71120000D03*
X172720000Y-71120000D03*
X175260000Y-68580000D03*
X172720000Y-68580000D03*
X175260000Y-66040000D03*
X172720000Y-66040000D03*
X175260000Y-63500000D03*
X172720000Y-63500000D03*
X175260000Y-60960000D03*
X172720000Y-60960000D03*
X175260000Y-58420000D03*
X172720000Y-58420000D03*
X175260000Y-55880000D03*
X172720000Y-55880000D03*
X175260000Y-53340000D03*
X172720000Y-53340000D03*
X175260000Y-50800000D03*
X172720000Y-50800000D03*
X175260000Y-48260000D03*
X172720000Y-48260000D03*
X175260000Y-154940000D03*
X172720000Y-154940000D03*
X175260000Y-152400000D03*
X172720000Y-152400000D03*
X175260000Y-149860000D03*
X172720000Y-149860000D03*
X175260000Y-147320000D03*
X172720000Y-147320000D03*
X175260000Y-144780000D03*
X172720000Y-144780000D03*
X175260000Y-142240000D03*
X172720000Y-142240000D03*
X175260000Y-139700000D03*
X172720000Y-139700000D03*
X175260000Y-137160000D03*
X172720000Y-137160000D03*
X175260000Y-134620000D03*
X172720000Y-134620000D03*
X175260000Y-132080000D03*
X172720000Y-132080000D03*
X175260000Y-129540000D03*
X172720000Y-129540000D03*
X175260000Y-127000000D03*
X172720000Y-127000000D03*
X175260000Y-124460000D03*
X172720000Y-124460000D03*
X175260000Y-121920000D03*
X172720000Y-121920000D03*
X175260000Y-119380000D03*
X172720000Y-119380000D03*
X175260000Y-116840000D03*
X172720000Y-116840000D03*
X175260000Y-114300000D03*
X172720000Y-114300000D03*
X88900000Y-158750000D03*
X88900000Y-156210000D03*
X91440000Y-158750000D03*
X91440000Y-156210000D03*
X93980000Y-158750000D03*
X93980000Y-156210000D03*
X96520000Y-158750000D03*
X96520000Y-156210000D03*
X99060000Y-158750000D03*
X99060000Y-156210000D03*
X101600000Y-158750000D03*
X101600000Y-156210000D03*
X104140000Y-158750000D03*
X104140000Y-156210000D03*
X106680000Y-158750000D03*
X106680000Y-156210000D03*
X109220000Y-158750000D03*
X109220000Y-156210000D03*
X111760000Y-158750000D03*
X111760000Y-156210000D03*
X114300000Y-158750000D03*
X114300000Y-156210000D03*
X116840000Y-158750000D03*
X116840000Y-156210000D03*
X119380000Y-158750000D03*
X119380000Y-156210000D03*
X121920000Y-158750000D03*
X121920000Y-156210000D03*
X124460000Y-158750000D03*
X124460000Y-156210000D03*
X127000000Y-158750000D03*
X127000000Y-156210000D03*
X129540000Y-158750000D03*
X129540000Y-156210000D03*
D11*
X90170000Y-39370000D03*
X90170000Y-46990000D03*
X93980000Y-66040000D03*
X93980000Y-58420000D03*
X93980000Y-39370000D03*
X93980000Y-46990000D03*
X99060000Y-66040000D03*
X99060000Y-58420000D03*
X97790000Y-39370000D03*
X97790000Y-46990000D03*
X102870000Y-66040000D03*
X102870000Y-58420000D03*
X101600000Y-39370000D03*
X101600000Y-46990000D03*
X106680000Y-66040000D03*
X106680000Y-58420000D03*
X105410000Y-39370000D03*
X105410000Y-46990000D03*
X110490000Y-66040000D03*
X110490000Y-58420000D03*
X109220000Y-39370000D03*
X109220000Y-46990000D03*
X114300000Y-66040000D03*
X114300000Y-58420000D03*
X113030000Y-39370000D03*
X113030000Y-46990000D03*
X118110000Y-66040000D03*
X118110000Y-58420000D03*
X116840000Y-39370000D03*
X116840000Y-46990000D03*
X121920000Y-66040000D03*
X121920000Y-58420000D03*
X120650000Y-39370000D03*
X120650000Y-46990000D03*
X125730000Y-66040000D03*
X125730000Y-58420000D03*
X124460000Y-39370000D03*
X124460000Y-46990000D03*
X129540000Y-66040000D03*
X129540000Y-58420000D03*
X128270000Y-39370000D03*
X128270000Y-46990000D03*
X133350000Y-66040000D03*
X133350000Y-58420000D03*
X132080000Y-39370000D03*
X132080000Y-46990000D03*
X137160000Y-66040000D03*
X137160000Y-58420000D03*
X135890000Y-39370000D03*
X135890000Y-46990000D03*
X140970000Y-66040000D03*
X140970000Y-58420000D03*
X139700000Y-39370000D03*
X139700000Y-46990000D03*
X144780000Y-66040000D03*
X144780000Y-58420000D03*
X143510000Y-39370000D03*
X143510000Y-46990000D03*
X148590000Y-66040000D03*
X148590000Y-58420000D03*
X147320000Y-39370000D03*
X147320000Y-46990000D03*
X107873800Y-126187200D03*
X107873800Y-136347200D03*
X119405400Y-125984000D03*
X119405400Y-136144000D03*
X123520200Y-84302600D03*
X123520200Y-94462600D03*
X135407400Y-94183200D03*
X135407400Y-84023200D03*
X104394000Y-110617000D03*
X104394000Y-120777000D03*
X116713000Y-110490000D03*
X116713000Y-120650000D03*
X62230000Y-91440000D03*
X62230000Y-81280000D03*
X72390000Y-81280000D03*
X72390000Y-91440000D03*
X104394000Y-96393000D03*
X104394000Y-106553000D03*
X116713000Y-96012000D03*
X116713000Y-106172000D03*
X104495600Y-81280000D03*
X104495600Y-91440000D03*
X116687600Y-91440000D03*
X116687600Y-81280000D03*
X88519000Y-118237000D03*
X88519000Y-128397000D03*
X99060000Y-118491000D03*
X99060000Y-128651000D03*
X62230000Y-67310000D03*
X62230000Y-77470000D03*
X72390000Y-67310000D03*
X72390000Y-77470000D03*
X62230000Y-96520000D03*
X62230000Y-106680000D03*
X72390000Y-106680000D03*
X72390000Y-96520000D03*
X62230000Y-110490000D03*
X62230000Y-120650000D03*
X72390000Y-110490000D03*
X72390000Y-120650000D03*
X62230000Y-124460000D03*
X62230000Y-134620000D03*
X72390000Y-124460000D03*
X72390000Y-134620000D03*
X62230000Y-53340000D03*
X62230000Y-63500000D03*
X72390000Y-53340000D03*
X72390000Y-63500000D03*
X86385400Y-89941400D03*
X86385400Y-100101400D03*
X95605600Y-89865200D03*
X95605600Y-100025200D03*
X83947000Y-102514400D03*
X83947000Y-112674400D03*
X95554800Y-102870000D03*
X95554800Y-113030000D03*
X86309200Y-76276200D03*
X86309200Y-86436200D03*
X95605600Y-86588600D03*
X95605600Y-76428600D03*
X62230000Y-39370000D03*
X62230000Y-49530000D03*
X72390000Y-49530000D03*
X72390000Y-39370000D03*
X90170000Y-66040000D03*
X90170000Y-58420000D03*
D13*
X102489000Y-141503400D03*
X106756200Y-142544800D03*
X98653600Y-141325600D03*
X100914200Y-136956800D03*
X97790000Y-140970000D03*
X71120000Y-90170000D03*
X102260400Y-139954000D03*
X103682800Y-131241800D03*
X97866200Y-139446000D03*
X102819200Y-130911600D03*
X101219000Y-131241800D03*
X88595200Y-129971800D03*
X100330000Y-133350000D03*
X72390000Y-92710000D03*
X69850000Y-92710000D03*
X64770000Y-78740000D03*
X95250000Y-134620000D03*
X80010000Y-135890000D03*
X67310000Y-135890000D03*
X63500000Y-106680000D03*
X80010000Y-137160000D03*
X67310000Y-137160000D03*
X93980000Y-135890000D03*
X92710000Y-138430000D03*
X80010000Y-138430000D03*
X67310000Y-138430000D03*
X62230000Y-137160000D03*
X92710000Y-139700000D03*
X80010000Y-139700000D03*
X80010000Y-142240000D03*
X63500000Y-64770000D03*
X85775800Y-131851400D03*
X85699600Y-101650800D03*
X88366600Y-87147400D03*
X96748600Y-132410200D03*
X92710000Y-142240000D03*
X66040000Y-95250000D03*
X66040000Y-91440000D03*
X63500000Y-50800000D03*
X103987600Y-150545800D03*
X106553000Y-145669000D03*
X146202400Y-129717800D03*
X152501600Y-133934200D03*
X156210000Y-131546600D03*
X131826000Y-78892400D03*
X136296400Y-78130400D03*
X154889200Y-72694800D03*
X157581600Y-72821800D03*
X123367800Y-99720400D03*
X115036600Y-139573000D03*
X109575600Y-135229600D03*
X128828800Y-89281000D03*
X124790200Y-82067400D03*
X122351800Y-79552800D03*
X119176800Y-81813400D03*
X110540800Y-119862600D03*
X113360200Y-106121200D03*
X111937800Y-93878400D03*
X103047800Y-86131400D03*
X93294200Y-86004400D03*
X90398600Y-127914400D03*
X90271600Y-121767600D03*
X83058000Y-136728200D03*
X86639400Y-136855200D03*
X90297000Y-101473000D03*
X88798400Y-112318800D03*
X90068400Y-99466400D03*
X91694000Y-88620600D03*
X76123800Y-91363800D03*
X67310000Y-134620000D03*
X66040000Y-124460000D03*
X67310000Y-120650000D03*
X67310000Y-123190000D03*
X73660000Y-104140000D03*
X73660000Y-93980000D03*
X67310000Y-82550000D03*
X67310000Y-80010000D03*
X71120000Y-77470000D03*
X71120000Y-71120000D03*
X69850000Y-53340000D03*
X69850000Y-63500000D03*
X158750000Y-77470000D03*
X181610000Y-74930000D03*
X156210000Y-123190000D03*
X166370000Y-128270000D03*
X140970000Y-111760000D03*
X121920000Y-120650000D03*
X116840000Y-125730000D03*
X114300000Y-123190000D03*
X113030000Y-110490000D03*
X115570000Y-106680000D03*
X115570000Y-100330000D03*
X115570000Y-92710000D03*
X107950000Y-82550000D03*
X106680000Y-140970000D03*
X109220000Y-146050000D03*
X149860000Y-149860000D03*
X148590000Y-144780000D03*
X139700000Y-146050000D03*
X139700000Y-143510000D03*
X140970000Y-132080000D03*
X152400000Y-100330000D03*
X189661800Y-143230600D03*
X147751800Y-161213800D03*
X165277800Y-143560800D03*
X165176200Y-136220200D03*
X190500000Y-138684000D03*
X192100200Y-122199400D03*
X127330200Y-85547200D03*
X131521200Y-85267800D03*
X139039600Y-89382600D03*
X150672800Y-91617800D03*
X162229800Y-88925400D03*
X165506400Y-89230200D03*
X165633400Y-86918800D03*
X168325800Y-83362800D03*
X109499400Y-125272800D03*
X106375200Y-110845600D03*
X106222800Y-88696800D03*
X107035600Y-92659200D03*
X106984800Y-96215200D03*
X106527600Y-154533600D03*
X104521000Y-85318600D03*
X92481400Y-146151600D03*
X95300800Y-151003000D03*
X95173800Y-154457400D03*
X99796600Y-154660600D03*
X99949000Y-150495000D03*
X100203000Y-148564600D03*
X84861400Y-105054400D03*
X84861400Y-108940600D03*
X87706200Y-114604800D03*
X91440000Y-118084600D03*
X87757000Y-79375000D03*
X89230200Y-90347800D03*
X87528400Y-95935800D03*
X87604600Y-91363800D03*
X85801200Y-94488000D03*
X81229200Y-93624400D03*
X80746600Y-90144600D03*
X76123800Y-90119200D03*
X74295000Y-90652600D03*
X74295000Y-85115400D03*
X64135000Y-125196600D03*
X64058800Y-111760000D03*
X65455800Y-111404400D03*
X64084200Y-97434400D03*
X63474600Y-93268800D03*
X66954400Y-90652600D03*
X64389000Y-57353200D03*
X64846200Y-54000400D03*
X63906400Y-42799000D03*
X66040000Y-68580000D03*
X72390000Y-85090000D03*
X72390000Y-88900000D03*
X69850000Y-90170000D03*
X114909600Y-111531400D03*
X114884200Y-115900200D03*
X118491000Y-110769400D03*
X121742200Y-111226600D03*
X117627400Y-97155000D03*
X118643400Y-107645200D03*
X97434400Y-88747600D03*
X114071400Y-91338400D03*
X81762600Y-133985000D03*
X97510600Y-118516400D03*
X96901000Y-102793800D03*
X100406200Y-102844600D03*
X96901000Y-95935800D03*
X96774000Y-101473000D03*
X73660000Y-111760000D03*
X74930000Y-93980000D03*
X76200000Y-111760000D03*
X72390000Y-80010000D03*
X74930000Y-78740000D03*
X124256800Y-129362200D03*
X145440400Y-44932600D03*
X125171200Y-134797800D03*
X138125200Y-75971400D03*
X126644400Y-82372200D03*
X141630400Y-43027600D03*
X128371600Y-84861400D03*
X129133600Y-82651600D03*
X111556800Y-108407200D03*
X137617200Y-43103800D03*
X67310000Y-86360000D03*
X85090000Y-67310000D03*
X85090000Y-62230000D03*
X86360000Y-40640000D03*
X88900000Y-40640000D03*
X135890000Y-41910000D03*
X113817400Y-94411800D03*
X119075200Y-94386400D03*
X119253000Y-84785200D03*
X132867400Y-44348400D03*
X112471200Y-81661000D03*
X128244600Y-43078400D03*
X97866200Y-122834400D03*
X100177600Y-122809000D03*
X102438200Y-84201000D03*
X124536200Y-42976800D03*
X68580000Y-66040000D03*
X86360000Y-64770000D03*
X86360000Y-62230000D03*
X86360000Y-57150000D03*
X88900000Y-57150000D03*
X120650000Y-45720000D03*
X77470000Y-93980000D03*
X83820000Y-68580000D03*
X83820000Y-62230000D03*
X83820000Y-55880000D03*
X88900000Y-55880000D03*
X113030000Y-52070000D03*
X115570000Y-50800000D03*
X116840000Y-41910000D03*
X73660000Y-113030000D03*
X82550000Y-69850000D03*
X88900000Y-54610000D03*
X113030000Y-41910000D03*
X73660000Y-121920000D03*
X81280000Y-71120000D03*
X88900000Y-53340000D03*
X109220000Y-41910000D03*
X68580000Y-50800000D03*
X74930000Y-50800000D03*
X92862400Y-94437200D03*
X99009200Y-93929200D03*
X108508800Y-78841600D03*
X119354600Y-43764200D03*
X106629200Y-43307000D03*
X101600000Y-43307000D03*
X91262200Y-107340400D03*
X97688400Y-107289600D03*
X108635800Y-77571600D03*
X118694200Y-44805600D03*
X106680000Y-44805600D03*
X97739200Y-43078400D03*
X108458000Y-76276200D03*
X119583200Y-48158400D03*
X106959400Y-45643800D03*
X94056200Y-43027600D03*
X74930000Y-38100000D03*
X90170000Y-60960000D03*
X95681800Y-68072000D03*
X97180400Y-75946000D03*
X100482400Y-82804000D03*
X99085400Y-68453000D03*
X97561400Y-99568000D03*
X100406200Y-99745800D03*
X101650800Y-82600800D03*
X101930200Y-68630800D03*
X74930000Y-63500000D03*
X106680000Y-63500000D03*
X85090000Y-74930000D03*
X110490000Y-74930000D03*
X77470000Y-134620000D03*
X110490000Y-68580000D03*
X73660000Y-120650000D03*
X78740000Y-120650000D03*
X81280000Y-120650000D03*
X85090000Y-73660000D03*
X114300000Y-73660000D03*
X114300000Y-68580000D03*
X82550000Y-95250000D03*
X83820000Y-69850000D03*
X74930000Y-67310000D03*
X73660000Y-69850000D03*
X111379000Y-77749400D03*
X122656600Y-69850000D03*
X117322600Y-79679800D03*
X126720600Y-70078600D03*
X118389400Y-82600800D03*
X128473200Y-69951600D03*
X118110000Y-71120000D03*
X115570000Y-71120000D03*
X82550000Y-71120000D03*
X81280000Y-88900000D03*
X76200000Y-88900000D03*
X72390000Y-90170000D03*
X175260000Y-101600000D03*
X172720000Y-100330000D03*
X165100000Y-100330000D03*
X177800000Y-83820000D03*
X177800000Y-86360000D03*
X162560000Y-96520000D03*
X177800000Y-82550000D03*
X180340000Y-87630000D03*
X170180000Y-83820000D03*
X167640000Y-85090000D03*
X161290000Y-86360000D03*
X170180000Y-78740000D03*
X167640000Y-78740000D03*
X163830000Y-80010000D03*
X176530000Y-87630000D03*
X168910000Y-87630000D03*
X160020000Y-87630000D03*
X161290000Y-80010000D03*
X154940000Y-67310000D03*
X151130000Y-67310000D03*
X151130000Y-73660000D03*
X158750000Y-66040000D03*
X165100000Y-58420000D03*
X156210000Y-58420000D03*
X160020000Y-64770000D03*
X165100000Y-57150000D03*
X157480000Y-57150000D03*
X160020000Y-63500000D03*
X165100000Y-55880000D03*
X158750000Y-55880000D03*
X161290000Y-63500000D03*
X165100000Y-54610000D03*
X160020000Y-54610000D03*
X161290000Y-62230000D03*
X165100000Y-53340000D03*
X161290000Y-53340000D03*
X162560000Y-62230000D03*
X165100000Y-52070000D03*
X162560000Y-52070000D03*
X162560000Y-60960000D03*
X163830000Y-60960000D03*
X181610000Y-88900000D03*
X184150000Y-80010000D03*
X177800000Y-71120000D03*
X177800000Y-68580000D03*
X177800000Y-67310000D03*
X177800000Y-63500000D03*
X177800000Y-62230000D03*
X177800000Y-60960000D03*
X179070000Y-53340000D03*
X187960000Y-64770000D03*
X187960000Y-71120000D03*
X179070000Y-50800000D03*
X189230000Y-66040000D03*
X189230000Y-69850000D03*
X179070000Y-137160000D03*
X182880000Y-133350000D03*
X180340000Y-132080000D03*
X184150000Y-132080000D03*
X181610000Y-130810000D03*
X185420000Y-130810000D03*
X162560000Y-152400000D03*
X160020000Y-149860000D03*
X162560000Y-149860000D03*
X160020000Y-147320000D03*
X162560000Y-147320000D03*
X158750000Y-144780000D03*
X162560000Y-146050000D03*
X158750000Y-143510000D03*
X162560000Y-144780000D03*
X157480000Y-140970000D03*
X162560000Y-139700000D03*
X157480000Y-139700000D03*
X162560000Y-138430000D03*
X156210000Y-138430000D03*
X158750000Y-133350000D03*
X158750000Y-132080000D03*
X173990000Y-132080000D03*
X173990000Y-137160000D03*
X173990000Y-140970000D03*
X167640000Y-153670000D03*
X165100000Y-153670000D03*
X158750000Y-130810000D03*
X158750000Y-127000000D03*
X165100000Y-127000000D03*
X158750000Y-125730000D03*
X162560000Y-125730000D03*
X158750000Y-123190000D03*
X163830000Y-123190000D03*
X160020000Y-124460000D03*
X162560000Y-124460000D03*
X105410000Y-153670000D03*
X92710000Y-153670000D03*
X99060000Y-151130000D03*
X99060000Y-148590000D03*
X102870000Y-143510000D03*
X93980000Y-151130000D03*
X97790000Y-143510000D03*
X97790000Y-151130000D03*
X104140000Y-148590000D03*
X101600000Y-151130000D03*
X82550000Y-160020000D03*
X187960000Y-78740000D03*
X181610000Y-69850000D03*
X185420000Y-115570000D03*
X184150000Y-123190000D03*
X167640000Y-123190000D03*
X166370000Y-130810000D03*
X114300000Y-152400000D03*
X144780000Y-157480000D03*
X151130000Y-151130000D03*
X152400000Y-132080000D03*
X137160000Y-154940000D03*
X147320000Y-148590000D03*
X147320000Y-139700000D03*
X180340000Y-105410000D03*
X187960000Y-80010000D03*
X180340000Y-138430000D03*
X149860000Y-154940000D03*
X144780000Y-140970000D03*
X189230000Y-72390000D03*
X182880000Y-72390000D03*
X190500000Y-80010000D03*
X190500000Y-125730000D03*
X173990000Y-125730000D03*
X193040000Y-142240000D03*
X190500000Y-144780000D03*
X154940000Y-157480000D03*
X146050000Y-148590000D03*
X165100000Y-93980000D03*
X158750000Y-113030000D03*
X168910000Y-130810000D03*
X158750000Y-118110000D03*
X168910000Y-134620000D03*
X179070000Y-140970000D03*
X181610000Y-140970000D03*
X189230000Y-140970000D03*
X173990000Y-80010000D03*
X163830000Y-116840000D03*
X153670000Y-130810000D03*
X149860000Y-140970000D03*
X191770000Y-124460000D03*
X166370000Y-135890000D03*
X152400000Y-143510000D03*
X181610000Y-135890000D03*
X189230000Y-133350000D03*
X156210000Y-77470000D03*
X165100000Y-129540000D03*
X151130000Y-158750000D03*
X143510000Y-151130000D03*
X98348800Y-142570200D03*
X122504200Y-98221800D03*
D14*
X105714800Y-141503400D02*
X102489000Y-141503400D01*
X106756200Y-142544800D02*
X105714800Y-141503400D01*
X98653600Y-136956800D02*
X98653600Y-141325600D01*
X98831400Y-136779000D02*
X98653600Y-136956800D01*
X100736400Y-136779000D02*
X98831400Y-136779000D01*
X100914200Y-136956800D02*
X100736400Y-136779000D01*
X71120000Y-140970000D02*
X97790000Y-140970000D01*
X71120000Y-90170000D02*
X71120000Y-140970000D01*
X102260400Y-135839200D02*
X102260400Y-139954000D01*
X103428800Y-134670800D02*
X102260400Y-135839200D01*
X103428800Y-131495800D02*
X103428800Y-134670800D01*
X103682800Y-131241800D02*
X103428800Y-131495800D01*
X97866200Y-135305800D02*
X97866200Y-139446000D01*
X98475800Y-134696200D02*
X97866200Y-135305800D01*
X102336600Y-134696200D02*
X98475800Y-134696200D01*
X102793800Y-134239000D02*
X102336600Y-134696200D01*
X102793800Y-130937000D02*
X102793800Y-134239000D01*
X102819200Y-130911600D02*
X102793800Y-130937000D01*
X89865200Y-131241800D02*
X101219000Y-131241800D01*
X88595200Y-129971800D02*
X89865200Y-131241800D01*
X78740000Y-133350000D02*
X100330000Y-133350000D01*
X78740000Y-139700000D02*
X78740000Y-133350000D01*
X72390000Y-139700000D02*
X78740000Y-139700000D01*
X72390000Y-92710000D02*
X72390000Y-139700000D01*
X66040000Y-92710000D02*
X69850000Y-92710000D01*
X64770000Y-91440000D02*
X66040000Y-92710000D01*
X64770000Y-78740000D02*
X64770000Y-91440000D01*
X81280000Y-134620000D02*
X95250000Y-134620000D01*
X80010000Y-135890000D02*
X81280000Y-134620000D01*
X64770000Y-135890000D02*
X67310000Y-135890000D01*
X64770000Y-107950000D02*
X64770000Y-135890000D01*
X63500000Y-106680000D02*
X64770000Y-107950000D01*
X62230000Y-120650000D02*
X63500000Y-121920000D01*
X63500000Y-137160000D02*
X67310000Y-137160000D01*
X63500000Y-121920000D02*
X63500000Y-137160000D01*
X80010000Y-137160000D02*
X81280000Y-135890000D01*
X81280000Y-135890000D02*
X93980000Y-135890000D01*
X80010000Y-138430000D02*
X92710000Y-138430000D01*
X63500000Y-138430000D02*
X67310000Y-138430000D01*
X62230000Y-137160000D02*
X63500000Y-138430000D01*
X80010000Y-139700000D02*
X92710000Y-139700000D01*
X69850000Y-142240000D02*
X80010000Y-142240000D01*
X69850000Y-93980000D02*
X69850000Y-142240000D01*
X66040000Y-93980000D02*
X69850000Y-93980000D01*
X63500000Y-91440000D02*
X66040000Y-93980000D01*
X63500000Y-64770000D02*
X63500000Y-91440000D01*
X85775800Y-101727000D02*
X85775800Y-131851400D01*
X85699600Y-101650800D02*
X85775800Y-101727000D01*
X88366600Y-100685600D02*
X88366600Y-87147400D01*
X86690200Y-102362000D02*
X88366600Y-100685600D01*
X86690200Y-132029200D02*
X86690200Y-102362000D01*
X86995000Y-132334000D02*
X86690200Y-132029200D01*
X96672400Y-132334000D02*
X86995000Y-132334000D01*
X96748600Y-132410200D02*
X96672400Y-132334000D01*
X81280000Y-142240000D02*
X92710000Y-142240000D01*
X81280000Y-143510000D02*
X81280000Y-142240000D01*
X68580000Y-143510000D02*
X81280000Y-143510000D01*
X68580000Y-95250000D02*
X68580000Y-143510000D01*
X66040000Y-95250000D02*
X68580000Y-95250000D01*
X66040000Y-78740000D02*
X66040000Y-91440000D01*
X64770000Y-77470000D02*
X66040000Y-78740000D01*
X64770000Y-64770000D02*
X64770000Y-77470000D01*
X63500000Y-63500000D02*
X64770000Y-64770000D01*
X63500000Y-50800000D02*
X63500000Y-63500000D01*
X105435400Y-149098000D02*
X103987600Y-150545800D01*
X105435400Y-146786600D02*
X105435400Y-149098000D01*
X106553000Y-145669000D02*
X105435400Y-146786600D01*
X138785600Y-137134600D02*
X122529600Y-137134600D01*
X146202400Y-129717800D02*
X138785600Y-137134600D01*
X153822400Y-133934200D02*
X152501600Y-133934200D01*
X156210000Y-131546600D02*
X153822400Y-133934200D01*
X135534400Y-78892400D02*
X131826000Y-78892400D01*
X136296400Y-78130400D02*
X135534400Y-78892400D01*
X157454600Y-72694800D02*
X154889200Y-72694800D01*
X157581600Y-72821800D02*
X157454600Y-72694800D01*
X123367800Y-99720400D02*
X123291600Y-99796600D01*
X123291600Y-99796600D02*
X123291600Y-127330200D01*
X123291600Y-127330200D02*
X122580400Y-128041400D01*
X122580400Y-128041400D02*
X122580400Y-137083800D01*
X122580400Y-137083800D02*
X122529600Y-137134600D01*
X122529600Y-137134600D02*
X120091200Y-139573000D01*
X120091200Y-139573000D02*
X115036600Y-139573000D01*
X110159800Y-120243600D02*
X110540800Y-119862600D01*
X109575600Y-135229600D02*
X110159800Y-134645400D01*
X110159800Y-134645400D02*
X110159800Y-120243600D01*
X128828800Y-89281000D02*
X124790200Y-85242400D01*
X124790200Y-85242400D02*
X124790200Y-82067400D01*
X122351800Y-79552800D02*
X120091200Y-81813400D01*
X120091200Y-81813400D02*
X119176800Y-81813400D01*
X113360200Y-106578400D02*
X113360200Y-106121200D01*
X112649000Y-107289600D02*
X113360200Y-106578400D01*
X110820200Y-107289600D02*
X112649000Y-107289600D01*
X110261400Y-107848400D02*
X110820200Y-107289600D01*
X110261400Y-119583200D02*
X110261400Y-107848400D01*
X110540800Y-119862600D02*
X110261400Y-119583200D01*
X113360200Y-95300800D02*
X113360200Y-106121200D01*
X111937800Y-93878400D02*
X113360200Y-95300800D01*
X103047800Y-86131400D02*
X101041200Y-84124800D01*
X101041200Y-84124800D02*
X95173800Y-84124800D01*
X95173800Y-84124800D02*
X93294200Y-86004400D01*
X90398600Y-121894600D02*
X90398600Y-127914400D01*
X90271600Y-121767600D02*
X90398600Y-121894600D01*
X86512400Y-136728200D02*
X83058000Y-136728200D01*
X86639400Y-136855200D02*
X86512400Y-136728200D01*
X90297000Y-110820200D02*
X90297000Y-101473000D01*
X88798400Y-112318800D02*
X90297000Y-110820200D01*
X90068400Y-99466400D02*
X91694000Y-97840800D01*
X91694000Y-97840800D02*
X91694000Y-88620600D01*
X76098400Y-91541600D02*
X73660000Y-93980000D01*
X76098400Y-91389200D02*
X76098400Y-91541600D01*
X76123800Y-91363800D02*
X76098400Y-91389200D01*
X67310000Y-125730000D02*
X67310000Y-134620000D01*
X66040000Y-124460000D02*
X67310000Y-125730000D01*
X67310000Y-123190000D02*
X67310000Y-120650000D01*
X73660000Y-93980000D02*
X73660000Y-104140000D01*
X67310000Y-80010000D02*
X67310000Y-82550000D01*
X71120000Y-71120000D02*
X71120000Y-77470000D01*
X69850000Y-53340000D02*
X69850000Y-63500000D01*
X158750000Y-78740000D02*
X158750000Y-77470000D01*
X161290000Y-81280000D02*
X158750000Y-78740000D01*
X168910000Y-81280000D02*
X161290000Y-81280000D01*
X168910000Y-76200000D02*
X168910000Y-81280000D01*
X170180000Y-74930000D02*
X168910000Y-76200000D01*
X181610000Y-74930000D02*
X170180000Y-74930000D01*
X158750000Y-120650000D02*
X156210000Y-123190000D01*
X166370000Y-120650000D02*
X158750000Y-120650000D01*
X166370000Y-128270000D02*
X166370000Y-120650000D01*
X116840000Y-125730000D02*
X121920000Y-120650000D01*
X113030000Y-121920000D02*
X114300000Y-123190000D01*
X113030000Y-110490000D02*
X113030000Y-121920000D01*
X115570000Y-100330000D02*
X115570000Y-106680000D01*
X115570000Y-90170000D02*
X115570000Y-92710000D01*
X107950000Y-90170000D02*
X115570000Y-90170000D01*
X107950000Y-83820000D02*
X107950000Y-90170000D01*
X106680000Y-82550000D02*
X107950000Y-83820000D01*
X107950000Y-82550000D02*
X106680000Y-82550000D01*
X106680000Y-140970000D02*
X109220000Y-140970000D01*
X109220000Y-140970000D02*
X109220000Y-146050000D01*
X149860000Y-146050000D02*
X149860000Y-149860000D01*
X148590000Y-144780000D02*
X149860000Y-146050000D01*
X139700000Y-143510000D02*
X139700000Y-146050000D01*
X140970000Y-111760000D02*
X140970000Y-132080000D01*
X152400000Y-100330000D02*
X140970000Y-111760000D01*
X189661800Y-143230600D02*
X189357000Y-143535400D01*
X189357000Y-143535400D02*
X189357000Y-146177000D01*
X189357000Y-146177000D02*
X189560200Y-146380200D01*
X189560200Y-146380200D02*
X189560200Y-153238200D01*
X189560200Y-153238200D02*
X181584600Y-161213800D01*
X181584600Y-161213800D02*
X147751800Y-161213800D01*
X165277800Y-143560800D02*
X165176200Y-143459200D01*
X165176200Y-143459200D02*
X165176200Y-136220200D01*
X193014600Y-136169400D02*
X190500000Y-138684000D01*
X193014600Y-123113800D02*
X193014600Y-136169400D01*
X192100200Y-122199400D02*
X193014600Y-123113800D01*
X131241800Y-85547200D02*
X127330200Y-85547200D01*
X131521200Y-85267800D02*
X131241800Y-85547200D01*
X148437600Y-89382600D02*
X139039600Y-89382600D01*
X150672800Y-91617800D02*
X148437600Y-89382600D01*
X165201600Y-88925400D02*
X162229800Y-88925400D01*
X165506400Y-89230200D02*
X165201600Y-88925400D01*
X167030400Y-86918800D02*
X165633400Y-86918800D01*
X169418000Y-84531200D02*
X167030400Y-86918800D01*
X169418000Y-84455000D02*
X169418000Y-84531200D01*
X168325800Y-83362800D02*
X169418000Y-84455000D01*
X106375200Y-122148600D02*
X106375200Y-110845600D01*
X109499400Y-125272800D02*
X106375200Y-122148600D01*
X106984800Y-110236000D02*
X106984800Y-96215200D01*
X106375200Y-110845600D02*
X106984800Y-110236000D01*
X106146600Y-86944200D02*
X104521000Y-85318600D01*
X106146600Y-88620600D02*
X106146600Y-86944200D01*
X106222800Y-88696800D02*
X106146600Y-88620600D01*
X107035600Y-96164400D02*
X107035600Y-92659200D01*
X106984800Y-96215200D02*
X107035600Y-96164400D01*
X106400600Y-154660600D02*
X99796600Y-154660600D01*
X106527600Y-154533600D02*
X106400600Y-154660600D01*
X90779600Y-86715600D02*
X89230200Y-86715600D01*
X91795600Y-87731600D02*
X90779600Y-86715600D01*
X103251000Y-87731600D02*
X91795600Y-87731600D01*
X103708200Y-87274400D02*
X103251000Y-87731600D01*
X103708200Y-86131400D02*
X103708200Y-87274400D01*
X104521000Y-85318600D02*
X103708200Y-86131400D01*
X92481400Y-148183600D02*
X92481400Y-146151600D01*
X95300800Y-151003000D02*
X92481400Y-148183600D01*
X99593400Y-154457400D02*
X95173800Y-154457400D01*
X99796600Y-154660600D02*
X99593400Y-154457400D01*
X99949000Y-148818600D02*
X99949000Y-150495000D01*
X100203000Y-148564600D02*
X99949000Y-148818600D01*
X84861400Y-108940600D02*
X84861400Y-105054400D01*
X87960200Y-114604800D02*
X87706200Y-114604800D01*
X91440000Y-118084600D02*
X87960200Y-114604800D01*
X87833200Y-79451200D02*
X87757000Y-79375000D01*
X87833200Y-84937600D02*
X87833200Y-79451200D01*
X89230200Y-86334600D02*
X87833200Y-84937600D01*
X89230200Y-90347800D02*
X89230200Y-86715600D01*
X89230200Y-86715600D02*
X89230200Y-86334600D01*
X86080600Y-94488000D02*
X85801200Y-94488000D01*
X87528400Y-95935800D02*
X86080600Y-94488000D01*
X87604600Y-91363800D02*
X85801200Y-93167200D01*
X85801200Y-93167200D02*
X85801200Y-94488000D01*
X81229200Y-93624400D02*
X80746600Y-93141800D01*
X80746600Y-93141800D02*
X80746600Y-90144600D01*
X76123800Y-90119200D02*
X75590400Y-90652600D01*
X75590400Y-90652600D02*
X74295000Y-90652600D01*
X74295000Y-85115400D02*
X74269600Y-85090000D01*
X74269600Y-85090000D02*
X72390000Y-85090000D01*
X64135000Y-125196600D02*
X64058800Y-125120400D01*
X64058800Y-125120400D02*
X64058800Y-111760000D01*
X64084200Y-105511600D02*
X64084200Y-97434400D01*
X65582800Y-107010200D02*
X64084200Y-105511600D01*
X65582800Y-111277400D02*
X65582800Y-107010200D01*
X65455800Y-111404400D02*
X65582800Y-111277400D01*
X64084200Y-97434400D02*
X63982600Y-97332800D01*
X63982600Y-97332800D02*
X63982600Y-94691200D01*
X63982600Y-94691200D02*
X63474600Y-94183200D01*
X63474600Y-94183200D02*
X63474600Y-93268800D01*
X66954400Y-90652600D02*
X67030600Y-90728800D01*
X67030600Y-90728800D02*
X69291200Y-90728800D01*
X69291200Y-90728800D02*
X69850000Y-90170000D01*
X66040000Y-65049400D02*
X66040000Y-68580000D01*
X64287400Y-63296800D02*
X66040000Y-65049400D01*
X64287400Y-57454800D02*
X64287400Y-63296800D01*
X64389000Y-57353200D02*
X64287400Y-57454800D01*
X64160400Y-53314600D02*
X64846200Y-54000400D01*
X64160400Y-43053000D02*
X64160400Y-53314600D01*
X63906400Y-42799000D02*
X64160400Y-43053000D01*
X66040000Y-68580000D02*
X67310000Y-69850000D01*
X67310000Y-69850000D02*
X67310000Y-77470000D01*
X67310000Y-77470000D02*
X68580000Y-78740000D01*
X68580000Y-78740000D02*
X68580000Y-81280000D01*
X68580000Y-81280000D02*
X72390000Y-85090000D01*
X72390000Y-88900000D02*
X71120000Y-88900000D01*
X71120000Y-88900000D02*
X69850000Y-90170000D01*
X114909600Y-115874800D02*
X114909600Y-111531400D01*
X114884200Y-115900200D02*
X114909600Y-115874800D01*
X121285000Y-110769400D02*
X118491000Y-110769400D01*
X121742200Y-111226600D02*
X121285000Y-110769400D01*
X118948200Y-98475800D02*
X117627400Y-97155000D01*
X118948200Y-107340400D02*
X118948200Y-98475800D01*
X118643400Y-107645200D02*
X118948200Y-107340400D01*
X104114600Y-88747600D02*
X97434400Y-88747600D01*
X106781600Y-91414600D02*
X104114600Y-88747600D01*
X113995200Y-91414600D02*
X106781600Y-91414600D01*
X114071400Y-91338400D02*
X113995200Y-91414600D01*
X102057200Y-133985000D02*
X81762600Y-133985000D01*
X102158800Y-133883400D02*
X102057200Y-133985000D01*
X102158800Y-130683000D02*
X102158800Y-133883400D01*
X101930200Y-130454400D02*
X102158800Y-130683000D01*
X97688400Y-130454400D02*
X101930200Y-130454400D01*
X96824800Y-129590800D02*
X97688400Y-130454400D01*
X96824800Y-119202200D02*
X96824800Y-129590800D01*
X97510600Y-118516400D02*
X96824800Y-119202200D01*
X100355400Y-102793800D02*
X96901000Y-102793800D01*
X100406200Y-102844600D02*
X100355400Y-102793800D01*
X96901000Y-101346000D02*
X96901000Y-95935800D01*
X96774000Y-101473000D02*
X96901000Y-101346000D01*
X74930000Y-110490000D02*
X74930000Y-109220000D01*
X73660000Y-111760000D02*
X74930000Y-110490000D01*
X74930000Y-93980000D02*
X74930000Y-105410000D01*
X74930000Y-105410000D02*
X74930000Y-109220000D01*
X74930000Y-109220000D02*
X76200000Y-110490000D01*
X76200000Y-110490000D02*
X76200000Y-111760000D01*
X73660000Y-80010000D02*
X72390000Y-80010000D01*
X74930000Y-78740000D02*
X73660000Y-80010000D01*
X124256800Y-107111800D02*
X124256800Y-129362200D01*
X137134600Y-94234000D02*
X124256800Y-107111800D01*
X137134600Y-74422000D02*
X137134600Y-94234000D01*
X142570200Y-68986400D02*
X137134600Y-74422000D01*
X142570200Y-58343800D02*
X142570200Y-68986400D01*
X145211800Y-55702200D02*
X142570200Y-58343800D01*
X145211800Y-45161200D02*
X145211800Y-55702200D01*
X145440400Y-44932600D02*
X145211800Y-45161200D01*
X125171200Y-107670600D02*
X125171200Y-134797800D01*
X138049000Y-94792800D02*
X125171200Y-107670600D01*
X138049000Y-76047600D02*
X138049000Y-94792800D01*
X138125200Y-75971400D02*
X138049000Y-76047600D01*
X126873000Y-82372200D02*
X126644400Y-82372200D01*
X138887200Y-70358000D02*
X126873000Y-82372200D01*
X138887200Y-63957200D02*
X138887200Y-70358000D01*
X138912600Y-63931800D02*
X138887200Y-63957200D01*
X138912600Y-50469800D02*
X138912600Y-63931800D01*
X141198600Y-48183800D02*
X138912600Y-50469800D01*
X141198600Y-43459400D02*
X141198600Y-48183800D01*
X141630400Y-43027600D02*
X141198600Y-43459400D01*
X128371600Y-83413600D02*
X128371600Y-84861400D01*
X129133600Y-82651600D02*
X128371600Y-83413600D01*
X119608600Y-108407200D02*
X111556800Y-108407200D01*
X120243600Y-107772200D02*
X119608600Y-108407200D01*
X120243600Y-97663000D02*
X120243600Y-107772200D01*
X120751600Y-97155000D02*
X120243600Y-97663000D01*
X120751600Y-84124800D02*
X120751600Y-97155000D01*
X129286000Y-75590400D02*
X120751600Y-84124800D01*
X135483600Y-69392800D02*
X129286000Y-75590400D01*
X135483600Y-66446400D02*
X135483600Y-69392800D01*
X135559800Y-66370200D02*
X135483600Y-66446400D01*
X135559800Y-54660800D02*
X135559800Y-66370200D01*
X135839200Y-54381400D02*
X135559800Y-54660800D01*
X135839200Y-49758600D02*
X135839200Y-54381400D01*
X137287000Y-48310800D02*
X135839200Y-49758600D01*
X137287000Y-43434000D02*
X137287000Y-48310800D01*
X137617200Y-43103800D02*
X137287000Y-43434000D01*
X74930000Y-86360000D02*
X67310000Y-86360000D01*
X76200000Y-87630000D02*
X74930000Y-86360000D01*
X76200000Y-67310000D02*
X76200000Y-87630000D01*
X85090000Y-67310000D02*
X76200000Y-67310000D01*
X85090000Y-41910000D02*
X85090000Y-62230000D01*
X86360000Y-40640000D02*
X85090000Y-41910000D01*
X134620000Y-40640000D02*
X88900000Y-40640000D01*
X135890000Y-41910000D02*
X134620000Y-40640000D01*
X119049800Y-94411800D02*
X113817400Y-94411800D01*
X119075200Y-94386400D02*
X119049800Y-94411800D01*
X125425200Y-78613000D02*
X119253000Y-84785200D01*
X125425200Y-78536800D02*
X125425200Y-78613000D01*
X134874000Y-69088000D02*
X125425200Y-78536800D01*
X134874000Y-56718200D02*
X134874000Y-69088000D01*
X133324600Y-55168800D02*
X134874000Y-56718200D01*
X133324600Y-49707800D02*
X133324600Y-55168800D01*
X133629400Y-49403000D02*
X133324600Y-49707800D01*
X133629400Y-45110400D02*
X133629400Y-49403000D01*
X132867400Y-44348400D02*
X133629400Y-45110400D01*
X113715800Y-81661000D02*
X112471200Y-81661000D01*
X115925600Y-83870800D02*
X113715800Y-81661000D01*
X118948200Y-83870800D02*
X115925600Y-83870800D01*
X131114800Y-71704200D02*
X118948200Y-83870800D01*
X131114800Y-57531000D02*
X131114800Y-71704200D01*
X130810000Y-57226200D02*
X131114800Y-57531000D01*
X130810000Y-49733200D02*
X130810000Y-57226200D01*
X130479800Y-49403000D02*
X130810000Y-49733200D01*
X130479800Y-45313600D02*
X130479800Y-49403000D01*
X128244600Y-43078400D02*
X130479800Y-45313600D01*
X100152200Y-122834400D02*
X97866200Y-122834400D01*
X100177600Y-122809000D02*
X100152200Y-122834400D01*
X102438200Y-80695800D02*
X102438200Y-84201000D01*
X103886000Y-79248000D02*
X102438200Y-80695800D01*
X105587800Y-79248000D02*
X103886000Y-79248000D01*
X106959400Y-80619600D02*
X105587800Y-79248000D01*
X114909600Y-80619600D02*
X106959400Y-80619600D01*
X128143000Y-67386200D02*
X114909600Y-80619600D01*
X128143000Y-49199800D02*
X128143000Y-67386200D01*
X128574800Y-48768000D02*
X128143000Y-49199800D01*
X129387600Y-48768000D02*
X128574800Y-48768000D01*
X129946400Y-48209200D02*
X129387600Y-48768000D01*
X129946400Y-46710600D02*
X129946400Y-48209200D01*
X127254000Y-44018200D02*
X129946400Y-46710600D01*
X127203200Y-44018200D02*
X127254000Y-44018200D01*
X126161800Y-42976800D02*
X127203200Y-44018200D01*
X124536200Y-42976800D02*
X126161800Y-42976800D01*
X85090000Y-66040000D02*
X68580000Y-66040000D01*
X86360000Y-64770000D02*
X85090000Y-66040000D01*
X86360000Y-57150000D02*
X86360000Y-62230000D01*
X115570000Y-57150000D02*
X88900000Y-57150000D01*
X115570000Y-52070000D02*
X115570000Y-57150000D01*
X118110000Y-52070000D02*
X115570000Y-52070000D01*
X118110000Y-46990000D02*
X118110000Y-52070000D01*
X119380000Y-45720000D02*
X118110000Y-46990000D01*
X120650000Y-45720000D02*
X119380000Y-45720000D01*
X77470000Y-68580000D02*
X77470000Y-93980000D01*
X83820000Y-68580000D02*
X77470000Y-68580000D01*
X83820000Y-55880000D02*
X83820000Y-62230000D01*
X113030000Y-55880000D02*
X88900000Y-55880000D01*
X113030000Y-52070000D02*
X113030000Y-55880000D01*
X115570000Y-43180000D02*
X115570000Y-50800000D01*
X116840000Y-41910000D02*
X115570000Y-43180000D01*
X78740000Y-113030000D02*
X73660000Y-113030000D01*
X78740000Y-69850000D02*
X78740000Y-113030000D01*
X82550000Y-69850000D02*
X78740000Y-69850000D01*
X110490000Y-54610000D02*
X88900000Y-54610000D01*
X110490000Y-49530000D02*
X110490000Y-54610000D01*
X111760000Y-48260000D02*
X110490000Y-49530000D01*
X111760000Y-41910000D02*
X111760000Y-48260000D01*
X113030000Y-41910000D02*
X111760000Y-41910000D01*
X80010000Y-121920000D02*
X73660000Y-121920000D01*
X80010000Y-71120000D02*
X80010000Y-121920000D01*
X81280000Y-71120000D02*
X80010000Y-71120000D01*
X93980000Y-53340000D02*
X88900000Y-53340000D01*
X95250000Y-52070000D02*
X93980000Y-53340000D01*
X107950000Y-52070000D02*
X95250000Y-52070000D01*
X107950000Y-41910000D02*
X107950000Y-52070000D01*
X109220000Y-41910000D02*
X107950000Y-41910000D01*
X74930000Y-50800000D02*
X68580000Y-50800000D01*
X98501200Y-94437200D02*
X92862400Y-94437200D01*
X99009200Y-93929200D02*
X98501200Y-94437200D01*
X115849400Y-78841600D02*
X108508800Y-78841600D01*
X127508000Y-67183000D02*
X115849400Y-78841600D01*
X127508000Y-57835800D02*
X127508000Y-67183000D01*
X125679200Y-56007000D02*
X127508000Y-57835800D01*
X125679200Y-48615600D02*
X125679200Y-56007000D01*
X126390400Y-47904400D02*
X125679200Y-48615600D01*
X126390400Y-44475400D02*
X126390400Y-47904400D01*
X125730000Y-43815000D02*
X126390400Y-44475400D01*
X119405400Y-43815000D02*
X125730000Y-43815000D01*
X119354600Y-43764200D02*
X119405400Y-43815000D01*
X101600000Y-43307000D02*
X106629200Y-43307000D01*
X97637600Y-107340400D02*
X91262200Y-107340400D01*
X97688400Y-107289600D02*
X97637600Y-107340400D01*
X110032800Y-76174600D02*
X108635800Y-77571600D01*
X110972600Y-76174600D02*
X110032800Y-76174600D01*
X112166400Y-74980800D02*
X110972600Y-76174600D01*
X115138200Y-74980800D02*
X112166400Y-74980800D01*
X123672600Y-66446400D02*
X115138200Y-74980800D01*
X123672600Y-58166000D02*
X123672600Y-66446400D01*
X123164600Y-57658000D02*
X123672600Y-58166000D01*
X123164600Y-49123600D02*
X123164600Y-57658000D01*
X122758200Y-48717200D02*
X123164600Y-49123600D01*
X122758200Y-45643800D02*
X122758200Y-48717200D01*
X121869200Y-44754800D02*
X122758200Y-45643800D01*
X118745000Y-44754800D02*
X121869200Y-44754800D01*
X118694200Y-44805600D02*
X118745000Y-44754800D01*
X97993200Y-44805600D02*
X106680000Y-44805600D01*
X97967800Y-44780200D02*
X97993200Y-44805600D01*
X97967800Y-43307000D02*
X97967800Y-44780200D01*
X97739200Y-43078400D02*
X97967800Y-43307000D01*
X108458000Y-60909200D02*
X108458000Y-76276200D01*
X109194600Y-60172600D02*
X108458000Y-60909200D01*
X119888000Y-60172600D02*
X109194600Y-60172600D01*
X119913400Y-60198000D02*
X119888000Y-60172600D01*
X119913400Y-57632600D02*
X119913400Y-60198000D01*
X120650000Y-56896000D02*
X119913400Y-57632600D01*
X120650000Y-49225200D02*
X120650000Y-56896000D01*
X119583200Y-48158400D02*
X120650000Y-49225200D01*
X94107000Y-45643800D02*
X106959400Y-45643800D01*
X94056200Y-45593000D02*
X94107000Y-45643800D01*
X94056200Y-43027600D02*
X94056200Y-45593000D01*
X87630000Y-38100000D02*
X74930000Y-38100000D01*
X87630000Y-59690000D02*
X87630000Y-38100000D01*
X88900000Y-59690000D02*
X87630000Y-59690000D01*
X90170000Y-60960000D02*
X88900000Y-59690000D01*
X95681800Y-74447400D02*
X95681800Y-68072000D01*
X97180400Y-75946000D02*
X95681800Y-74447400D01*
X100812600Y-82473800D02*
X100482400Y-82804000D01*
X100812600Y-70180200D02*
X100812600Y-82473800D01*
X99085400Y-68453000D02*
X100812600Y-70180200D01*
X100228400Y-99568000D02*
X97561400Y-99568000D01*
X100406200Y-99745800D02*
X100228400Y-99568000D01*
X101650800Y-68910200D02*
X101650800Y-82600800D01*
X101930200Y-68630800D02*
X101650800Y-68910200D01*
X106680000Y-63500000D02*
X74930000Y-63500000D01*
X85090000Y-97790000D02*
X82550000Y-97790000D01*
X85090000Y-74930000D02*
X85090000Y-97790000D01*
X110490000Y-68580000D02*
X110490000Y-74930000D01*
X77470000Y-123190000D02*
X77470000Y-134620000D01*
X81280000Y-123190000D02*
X77470000Y-123190000D01*
X81280000Y-121920000D02*
X81280000Y-123190000D01*
X82550000Y-121920000D02*
X81280000Y-121920000D01*
X82550000Y-97790000D02*
X82550000Y-121920000D01*
X78740000Y-120650000D02*
X73660000Y-120650000D01*
X81280000Y-96520000D02*
X81280000Y-120650000D01*
X83820000Y-96520000D02*
X81280000Y-96520000D01*
X83820000Y-74930000D02*
X83820000Y-96520000D01*
X85090000Y-73660000D02*
X83820000Y-74930000D01*
X114300000Y-68580000D02*
X114300000Y-73660000D01*
X82550000Y-73660000D02*
X82550000Y-95250000D01*
X83820000Y-73660000D02*
X82550000Y-73660000D01*
X83820000Y-69850000D02*
X83820000Y-73660000D01*
X74930000Y-68580000D02*
X74930000Y-67310000D01*
X73660000Y-69850000D02*
X74930000Y-68580000D01*
X112649000Y-76479400D02*
X111379000Y-77749400D01*
X116027200Y-76479400D02*
X112649000Y-76479400D01*
X122656600Y-69850000D02*
X116027200Y-76479400D01*
X117322600Y-79476600D02*
X117322600Y-79679800D01*
X126720600Y-70078600D02*
X117322600Y-79476600D01*
X118389400Y-80035400D02*
X118389400Y-82600800D01*
X128473200Y-69951600D02*
X118389400Y-80035400D01*
X115570000Y-71120000D02*
X118110000Y-71120000D01*
X82550000Y-72390000D02*
X82550000Y-71120000D01*
X81280000Y-73660000D02*
X82550000Y-72390000D01*
X81280000Y-88900000D02*
X81280000Y-73660000D01*
X73660000Y-88900000D02*
X76200000Y-88900000D01*
X72390000Y-90170000D02*
X73660000Y-88900000D01*
X175260000Y-101600000D02*
X175260000Y-88900000D01*
X172720000Y-100330000D02*
X172720000Y-88900000D01*
X171450000Y-87630000D02*
X172720000Y-86360000D01*
X171450000Y-100330000D02*
X171450000Y-87630000D01*
X165100000Y-100330000D02*
X171450000Y-100330000D01*
X177800000Y-86360000D02*
X177800000Y-83820000D01*
X171450000Y-83820000D02*
X172720000Y-83820000D01*
X170180000Y-85090000D02*
X171450000Y-83820000D01*
X170180000Y-96520000D02*
X170180000Y-85090000D01*
X162560000Y-96520000D02*
X170180000Y-96520000D01*
X179070000Y-83820000D02*
X177800000Y-82550000D01*
X179070000Y-86360000D02*
X179070000Y-83820000D01*
X180340000Y-87630000D02*
X179070000Y-86360000D01*
X170180000Y-83820000D02*
X172720000Y-81280000D01*
X166370000Y-85090000D02*
X167640000Y-85090000D01*
X165100000Y-86360000D02*
X166370000Y-85090000D01*
X161290000Y-86360000D02*
X165100000Y-86360000D01*
X170180000Y-78740000D02*
X172720000Y-78740000D01*
X167640000Y-80010000D02*
X167640000Y-78740000D01*
X163830000Y-80010000D02*
X167640000Y-80010000D01*
X172720000Y-77470000D02*
X172720000Y-76200000D01*
X176530000Y-77470000D02*
X172720000Y-77470000D01*
X176530000Y-87630000D02*
X176530000Y-77470000D01*
X160020000Y-87630000D02*
X168910000Y-87630000D01*
X160020000Y-73660000D02*
X172720000Y-73660000D01*
X162560000Y-78740000D02*
X160020000Y-73660000D01*
X161290000Y-80010000D02*
X162560000Y-78740000D01*
X170180000Y-71120000D02*
X172720000Y-71120000D01*
X170180000Y-67310000D02*
X170180000Y-71120000D01*
X154940000Y-67310000D02*
X170180000Y-67310000D01*
X151130000Y-73660000D02*
X151130000Y-67310000D01*
X171450000Y-67310000D02*
X172720000Y-68580000D01*
X171450000Y-66040000D02*
X171450000Y-67310000D01*
X158750000Y-66040000D02*
X171450000Y-66040000D01*
X171450000Y-64770000D02*
X172720000Y-66040000D01*
X171450000Y-63500000D02*
X171450000Y-64770000D01*
X167640000Y-63500000D02*
X171450000Y-63500000D01*
X167640000Y-58420000D02*
X167640000Y-63500000D01*
X165100000Y-58420000D02*
X167640000Y-58420000D01*
X156210000Y-60960000D02*
X156210000Y-58420000D01*
X160020000Y-64770000D02*
X156210000Y-60960000D01*
X171450000Y-62230000D02*
X172720000Y-63500000D01*
X168910000Y-62230000D02*
X171450000Y-62230000D01*
X168910000Y-57150000D02*
X168910000Y-62230000D01*
X165100000Y-57150000D02*
X168910000Y-57150000D01*
X157480000Y-60960000D02*
X157480000Y-57150000D01*
X160020000Y-63500000D02*
X157480000Y-60960000D01*
X170180000Y-60960000D02*
X172720000Y-60960000D01*
X170180000Y-55880000D02*
X170180000Y-60960000D01*
X165100000Y-55880000D02*
X170180000Y-55880000D01*
X158750000Y-60960000D02*
X158750000Y-55880000D01*
X161290000Y-63500000D02*
X158750000Y-60960000D01*
X171450000Y-57150000D02*
X172720000Y-58420000D01*
X171450000Y-55880000D02*
X171450000Y-57150000D01*
X170180000Y-54610000D02*
X171450000Y-55880000D01*
X165100000Y-54610000D02*
X170180000Y-54610000D01*
X160020000Y-60960000D02*
X160020000Y-54610000D01*
X161290000Y-62230000D02*
X160020000Y-60960000D01*
X170180000Y-53340000D02*
X172720000Y-55880000D01*
X165100000Y-53340000D02*
X170180000Y-53340000D01*
X161290000Y-60960000D02*
X161290000Y-53340000D01*
X162560000Y-62230000D02*
X161290000Y-60960000D01*
X171450000Y-52070000D02*
X172720000Y-53340000D01*
X165100000Y-52070000D02*
X171450000Y-52070000D01*
X162560000Y-60960000D02*
X162560000Y-52070000D01*
X163830000Y-50800000D02*
X172720000Y-50800000D01*
X163830000Y-60960000D02*
X163830000Y-50800000D01*
X176530000Y-76200000D02*
X175260000Y-76200000D01*
X177800000Y-77470000D02*
X176530000Y-76200000D01*
X177800000Y-81280000D02*
X177800000Y-77470000D01*
X180340000Y-83820000D02*
X177800000Y-81280000D01*
X180340000Y-86360000D02*
X180340000Y-83820000D01*
X181610000Y-87630000D02*
X180340000Y-86360000D01*
X182880000Y-87630000D02*
X181610000Y-87630000D01*
X181610000Y-88900000D02*
X182880000Y-87630000D01*
X176530000Y-71120000D02*
X175260000Y-71120000D01*
X176530000Y-73660000D02*
X176530000Y-71120000D01*
X184150000Y-73660000D02*
X176530000Y-73660000D01*
X184150000Y-80010000D02*
X184150000Y-73660000D01*
X176530000Y-69850000D02*
X175260000Y-68580000D01*
X177800000Y-71120000D02*
X176530000Y-69850000D01*
X177800000Y-68580000D02*
X175260000Y-66040000D01*
X176530000Y-64770000D02*
X175260000Y-63500000D01*
X176530000Y-66040000D02*
X176530000Y-64770000D01*
X177800000Y-67310000D02*
X176530000Y-66040000D01*
X177800000Y-63500000D02*
X175260000Y-60960000D01*
X176530000Y-59690000D02*
X175260000Y-58420000D01*
X176530000Y-60960000D02*
X176530000Y-59690000D01*
X177800000Y-62230000D02*
X176530000Y-60960000D01*
X177800000Y-58420000D02*
X175260000Y-55880000D01*
X177800000Y-60960000D02*
X177800000Y-58420000D01*
X179070000Y-53340000D02*
X175260000Y-53340000D01*
X187960000Y-68580000D02*
X187960000Y-64770000D01*
X187960000Y-71120000D02*
X187960000Y-68580000D01*
X179070000Y-50800000D02*
X175260000Y-50800000D01*
X189230000Y-69850000D02*
X189230000Y-66040000D01*
X182880000Y-133350000D02*
X179070000Y-137160000D01*
X184150000Y-132080000D02*
X180340000Y-132080000D01*
X185420000Y-130810000D02*
X181610000Y-130810000D01*
X160020000Y-149860000D02*
X162560000Y-152400000D01*
X160020000Y-147320000D02*
X162560000Y-149860000D01*
X161290000Y-147320000D02*
X162560000Y-147320000D01*
X158750000Y-144780000D02*
X161290000Y-147320000D01*
X161290000Y-146050000D02*
X162560000Y-146050000D01*
X158750000Y-143510000D02*
X161290000Y-146050000D01*
X161290000Y-144780000D02*
X162560000Y-144780000D01*
X157480000Y-140970000D02*
X161290000Y-144780000D01*
X157480000Y-139700000D02*
X162560000Y-139700000D01*
X156210000Y-138430000D02*
X162560000Y-138430000D01*
X158750000Y-133350000D02*
X170180000Y-133350000D01*
X170180000Y-133350000D02*
X171450000Y-134620000D01*
X171450000Y-134620000D02*
X172720000Y-134620000D01*
X158750000Y-132080000D02*
X172720000Y-132080000D01*
X173990000Y-137160000D02*
X173990000Y-132080000D01*
X168910000Y-140970000D02*
X173990000Y-140970000D01*
X168910000Y-152400000D02*
X168910000Y-140970000D01*
X167640000Y-153670000D02*
X168910000Y-152400000D01*
X161290000Y-153670000D02*
X165100000Y-153670000D01*
X156210000Y-148590000D02*
X161290000Y-153670000D01*
X156210000Y-142240000D02*
X156210000Y-148590000D01*
X152400000Y-138430000D02*
X156210000Y-142240000D01*
X152400000Y-137160000D02*
X152400000Y-138430000D01*
X158750000Y-130810000D02*
X152400000Y-137160000D01*
X165100000Y-127000000D02*
X158750000Y-127000000D01*
X162560000Y-125730000D02*
X158750000Y-125730000D01*
X163830000Y-123190000D02*
X158750000Y-123190000D01*
X162560000Y-124460000D02*
X160020000Y-124460000D01*
X92710000Y-153670000D02*
X105410000Y-153670000D01*
X99060000Y-148590000D02*
X99060000Y-151130000D01*
X102870000Y-148590000D02*
X102870000Y-143510000D01*
X99060000Y-152400000D02*
X102870000Y-148590000D01*
X95250000Y-152400000D02*
X99060000Y-152400000D01*
X93980000Y-151130000D02*
X95250000Y-152400000D01*
X97790000Y-151130000D02*
X97790000Y-143510000D01*
X101600000Y-151130000D02*
X104140000Y-148590000D01*
X191770000Y-59690000D02*
X191770000Y-43180000D01*
X85090000Y-162560000D02*
X82550000Y-160020000D01*
X106680000Y-162560000D02*
X85090000Y-162560000D01*
X107950000Y-161290000D02*
X106680000Y-162560000D01*
X107950000Y-149860000D02*
X107950000Y-161290000D01*
X140970000Y-149860000D02*
X107950000Y-149860000D01*
X140970000Y-140970000D02*
X140970000Y-149860000D01*
X146050000Y-135890000D02*
X140970000Y-140970000D01*
X146050000Y-132080000D02*
X146050000Y-135890000D01*
X149860000Y-128270000D02*
X146050000Y-132080000D01*
X149860000Y-115570000D02*
X149860000Y-128270000D01*
X153670000Y-111760000D02*
X149860000Y-115570000D01*
X153670000Y-64770000D02*
X153670000Y-111760000D01*
X153670000Y-43180000D02*
X153670000Y-64770000D01*
X191770000Y-43180000D02*
X153670000Y-43180000D01*
X191770000Y-78740000D02*
X187960000Y-78740000D01*
X191770000Y-69850000D02*
X191770000Y-78740000D01*
X191770000Y-59690000D02*
X191770000Y-69850000D01*
X184150000Y-67310000D02*
X191770000Y-59690000D01*
X181610000Y-69850000D02*
X184150000Y-67310000D01*
X185420000Y-121920000D02*
X185420000Y-115570000D01*
X184150000Y-123190000D02*
X185420000Y-121920000D01*
X167640000Y-129540000D02*
X167640000Y-123190000D01*
X166370000Y-130810000D02*
X167640000Y-129540000D01*
X139700000Y-152400000D02*
X114300000Y-152400000D01*
X144780000Y-157480000D02*
X139700000Y-152400000D01*
X151130000Y-133350000D02*
X151130000Y-151130000D01*
X152400000Y-132080000D02*
X151130000Y-133350000D01*
X135890000Y-156210000D02*
X137160000Y-154940000D01*
X147320000Y-148590000D02*
X147320000Y-139700000D01*
X180340000Y-105410000D02*
X181610000Y-104140000D01*
X181610000Y-104140000D02*
X181610000Y-93980000D01*
X181610000Y-93980000D02*
X190500000Y-85090000D01*
X190500000Y-85090000D02*
X190500000Y-81280000D01*
X190500000Y-81280000D02*
X187960000Y-80010000D01*
X180340000Y-138430000D02*
X180340000Y-160020000D01*
X180340000Y-160020000D02*
X139700000Y-160020000D01*
X139700000Y-160020000D02*
X135890000Y-156210000D01*
X135890000Y-156210000D02*
X129540000Y-156210000D01*
X144780000Y-149860000D02*
X149860000Y-154940000D01*
X144780000Y-140970000D02*
X144780000Y-149860000D01*
X182880000Y-72390000D02*
X189230000Y-72390000D01*
X190500000Y-125730000D02*
X190500000Y-86360000D01*
X191770000Y-81280000D02*
X190500000Y-80010000D01*
X191770000Y-85090000D02*
X191770000Y-81280000D01*
X190500000Y-86360000D02*
X191770000Y-85090000D01*
X173990000Y-125730000D02*
X190500000Y-125730000D01*
X190500000Y-144780000D02*
X193040000Y-142240000D01*
X146050000Y-148590000D02*
X154940000Y-157480000D01*
X158750000Y-96520000D02*
X158750000Y-113030000D01*
X161290000Y-93980000D02*
X158750000Y-96520000D01*
X165100000Y-93980000D02*
X161290000Y-93980000D01*
X158750000Y-113030000D02*
X158750000Y-118110000D01*
X168910000Y-118110000D02*
X168910000Y-130810000D01*
X158750000Y-118110000D02*
X168910000Y-118110000D01*
X168910000Y-134620000D02*
X168910000Y-138430000D01*
X168910000Y-138430000D02*
X179070000Y-138430000D01*
X179070000Y-138430000D02*
X179070000Y-140970000D01*
X181610000Y-140970000D02*
X189230000Y-140970000D01*
X173990000Y-101600000D02*
X173990000Y-80010000D01*
X163830000Y-101600000D02*
X173990000Y-101600000D01*
X163830000Y-116840000D02*
X163830000Y-101600000D01*
X152400000Y-130810000D02*
X153670000Y-130810000D01*
X149860000Y-133350000D02*
X152400000Y-130810000D01*
X149860000Y-140970000D02*
X149860000Y-133350000D01*
X190500000Y-133350000D02*
X189230000Y-133350000D01*
X191770000Y-132080000D02*
X190500000Y-133350000D01*
X191770000Y-124460000D02*
X191770000Y-132080000D01*
X166370000Y-156210000D02*
X166370000Y-135890000D01*
X162560000Y-156210000D02*
X166370000Y-156210000D01*
X153670000Y-147320000D02*
X162560000Y-156210000D01*
X153670000Y-142240000D02*
X153670000Y-147320000D01*
X152400000Y-143510000D02*
X153670000Y-142240000D01*
X181610000Y-135890000D02*
X184150000Y-133350000D01*
X184150000Y-133350000D02*
X189230000Y-133350000D01*
X151130000Y-129540000D02*
X151130000Y-116840000D01*
X156210000Y-111760000D02*
X156210000Y-77470000D01*
X151130000Y-116840000D02*
X156210000Y-111760000D01*
X143510000Y-151130000D02*
X143510000Y-146050000D01*
X151130000Y-129540000D02*
X165100000Y-129540000D01*
X148590000Y-132080000D02*
X151130000Y-129540000D01*
X148590000Y-135890000D02*
X148590000Y-132080000D01*
X143510000Y-140970000D02*
X148590000Y-135890000D01*
X143510000Y-146050000D02*
X143510000Y-140970000D01*
X143510000Y-151130000D02*
X151130000Y-158750000D01*
X100177600Y-140741400D02*
X98348800Y-142570200D01*
X105587800Y-140741400D02*
X100177600Y-140741400D01*
X110921800Y-135407400D02*
X105587800Y-140741400D01*
X110921800Y-129184400D02*
X110921800Y-135407400D01*
X120853200Y-119253000D02*
X110921800Y-129184400D01*
X120853200Y-114884200D02*
X120853200Y-119253000D01*
X122453400Y-113284000D02*
X120853200Y-114884200D01*
X122453400Y-98272600D02*
X122453400Y-113284000D01*
X122504200Y-98221800D02*
X122453400Y-98272600D01*
M02*
