G04 #@! TF.FileFunction,Soldermask,Bot*
%FSLAX46Y46*%
G04 Gerber Fmt 4.6, Leading zero omitted, Abs format (unit mm)*
G04 Created by KiCad (PCBNEW 4.0.4-stable) date 02/13/17 09:14:57*
%MOMM*%
%LPD*%
G01*
G04 APERTURE LIST*
%ADD10C,0.100000*%
%ADD11O,3.448000X1.924000*%
%ADD12C,1.930000*%
G04 APERTURE END LIST*
D10*
D11*
X158826100Y-117063600D03*
X158826100Y-114523600D03*
X158826100Y-111983600D03*
X158826100Y-109443600D03*
X158826100Y-106903600D03*
X158826100Y-104363600D03*
X158826100Y-101823600D03*
X158826100Y-99283600D03*
X158826100Y-96743600D03*
D12*
X134696100Y-125953600D03*
X132156100Y-125953600D03*
X134696100Y-123413600D03*
X132156100Y-123413600D03*
X134696100Y-120873600D03*
X132156100Y-120873600D03*
X134696100Y-118333600D03*
X132156100Y-118333600D03*
X134696100Y-115793600D03*
X132156100Y-115793600D03*
X134696100Y-113253600D03*
X132156100Y-113253600D03*
X134696100Y-110713600D03*
X132156100Y-110713600D03*
X134696100Y-108173600D03*
X132156100Y-108173600D03*
X134696100Y-105633600D03*
X132156100Y-105633600D03*
X134696100Y-103093600D03*
X132156100Y-103093600D03*
X134696100Y-100553600D03*
X132156100Y-100553600D03*
X134696100Y-98013600D03*
X132156100Y-98013600D03*
X134696100Y-95473600D03*
X132156100Y-95473600D03*
X134696100Y-92933600D03*
X132156100Y-92933600D03*
X134696100Y-90393600D03*
X132156100Y-90393600D03*
X134696100Y-87853600D03*
X132156100Y-87853600D03*
X134696100Y-85313600D03*
X132156100Y-85313600D03*
M02*
