G04 #@! TF.FileFunction,Legend,Top*
%FSLAX46Y46*%
G04 Gerber Fmt 4.6, Leading zero omitted, Abs format (unit mm)*
G04 Created by KiCad (PCBNEW 4.0.4-stable) date 02/13/17 09:14:57*
%MOMM*%
%LPD*%
G01*
G04 APERTURE LIST*
%ADD10C,0.100000*%
%ADD11C,0.152400*%
%ADD12C,0.127000*%
%ADD13C,0.101600*%
%ADD14C,0.208280*%
%ADD15C,0.076200*%
G04 APERTURE END LIST*
D10*
D11*
X157556100Y-102458600D02*
X157556100Y-101188600D01*
X157556100Y-101188600D02*
X158191100Y-100553600D01*
X158191100Y-100553600D02*
X159461100Y-100553600D01*
X159461100Y-100553600D02*
X160096100Y-101188600D01*
X158191100Y-100553600D02*
X157556100Y-99918600D01*
X157556100Y-99918600D02*
X157556100Y-98648600D01*
X157556100Y-98648600D02*
X158191100Y-98013600D01*
X158191100Y-98013600D02*
X159461100Y-98013600D01*
X159461100Y-98013600D02*
X160096100Y-98648600D01*
X160096100Y-98648600D02*
X160096100Y-99918600D01*
X160096100Y-99918600D02*
X159461100Y-100553600D01*
X158191100Y-105633600D02*
X157556100Y-104998600D01*
X157556100Y-104998600D02*
X157556100Y-103728600D01*
X157556100Y-103728600D02*
X158191100Y-103093600D01*
X158191100Y-103093600D02*
X159461100Y-103093600D01*
X159461100Y-103093600D02*
X160096100Y-103728600D01*
X160096100Y-103728600D02*
X160096100Y-104998600D01*
X160096100Y-104998600D02*
X159461100Y-105633600D01*
X157556100Y-102458600D02*
X158191100Y-103093600D01*
X159461100Y-103093600D02*
X160096100Y-102458600D01*
X160096100Y-101188600D02*
X160096100Y-102458600D01*
X157556100Y-110078600D02*
X157556100Y-108808600D01*
X157556100Y-108808600D02*
X158191100Y-108173600D01*
X158191100Y-108173600D02*
X159461100Y-108173600D01*
X159461100Y-108173600D02*
X160096100Y-108808600D01*
X158191100Y-108173600D02*
X157556100Y-107538600D01*
X157556100Y-107538600D02*
X157556100Y-106268600D01*
X157556100Y-106268600D02*
X158191100Y-105633600D01*
X158191100Y-105633600D02*
X159461100Y-105633600D01*
X159461100Y-105633600D02*
X160096100Y-106268600D01*
X160096100Y-106268600D02*
X160096100Y-107538600D01*
X160096100Y-107538600D02*
X159461100Y-108173600D01*
X158191100Y-113253600D02*
X157556100Y-112618600D01*
X157556100Y-112618600D02*
X157556100Y-111348600D01*
X157556100Y-111348600D02*
X158191100Y-110713600D01*
X158191100Y-110713600D02*
X159461100Y-110713600D01*
X159461100Y-110713600D02*
X160096100Y-111348600D01*
X160096100Y-111348600D02*
X160096100Y-112618600D01*
X160096100Y-112618600D02*
X159461100Y-113253600D01*
X157556100Y-110078600D02*
X158191100Y-110713600D01*
X159461100Y-110713600D02*
X160096100Y-110078600D01*
X160096100Y-108808600D02*
X160096100Y-110078600D01*
X157556100Y-117698600D02*
X157556100Y-116428600D01*
X157556100Y-116428600D02*
X158191100Y-115793600D01*
X158191100Y-115793600D02*
X159461100Y-115793600D01*
X159461100Y-115793600D02*
X160096100Y-116428600D01*
X158191100Y-115793600D02*
X157556100Y-115158600D01*
X157556100Y-115158600D02*
X157556100Y-113888600D01*
X157556100Y-113888600D02*
X158191100Y-113253600D01*
X158191100Y-113253600D02*
X159461100Y-113253600D01*
X159461100Y-113253600D02*
X160096100Y-113888600D01*
X160096100Y-113888600D02*
X160096100Y-115158600D01*
X160096100Y-115158600D02*
X159461100Y-115793600D01*
X158191100Y-118333600D02*
X159461100Y-118333600D01*
X157556100Y-117698600D02*
X158191100Y-118333600D01*
X159461100Y-118333600D02*
X160096100Y-117698600D01*
X160096100Y-116428600D02*
X160096100Y-117698600D01*
X157556100Y-97378600D02*
X157556100Y-96108600D01*
X157556100Y-96108600D02*
X158191100Y-95473600D01*
X158191100Y-95473600D02*
X159461100Y-95473600D01*
X159461100Y-95473600D02*
X160096100Y-96108600D01*
X157556100Y-97378600D02*
X158191100Y-98013600D01*
X159461100Y-98013600D02*
X160096100Y-97378600D01*
X160096100Y-96108600D02*
X160096100Y-97378600D01*
D12*
X130426100Y-129948600D02*
X130426100Y-81318600D01*
X130426100Y-81318600D02*
X136426100Y-81318600D01*
X136426100Y-81318600D02*
X136426100Y-129948600D01*
X136426100Y-129948600D02*
X130426100Y-129948600D01*
D11*
X152171300Y-117317600D02*
X153187300Y-117317600D01*
X141604900Y-120619600D02*
X142620900Y-120619600D01*
X144602100Y-122575400D02*
X150190100Y-122575400D01*
X150190100Y-114091800D02*
X147700900Y-114091800D01*
X147700900Y-114091800D02*
X147091300Y-114091800D01*
X147091300Y-114091800D02*
X144602100Y-114091800D01*
X147091300Y-114091800D02*
G75*
G03X147700900Y-114091800I304800J0D01*
G01*
X152171300Y-96997600D02*
X153187300Y-96997600D01*
X141604900Y-100299600D02*
X142620900Y-100299600D01*
X144602100Y-102255400D02*
X150190100Y-102255400D01*
X150190100Y-93771800D02*
X147700900Y-93771800D01*
X147700900Y-93771800D02*
X147091300Y-93771800D01*
X147091300Y-93771800D02*
X144602100Y-93771800D01*
X147091300Y-93771800D02*
G75*
G03X147700900Y-93771800I304800J0D01*
G01*
D12*
X155733348Y-117777824D02*
X156595133Y-117777824D01*
X156767490Y-117835276D01*
X156882395Y-117950181D01*
X156939848Y-118122538D01*
X156939848Y-118237443D01*
X156939848Y-117203300D02*
X155733348Y-117203300D01*
X155733348Y-116743681D01*
X155790800Y-116628776D01*
X155848252Y-116571324D01*
X155963157Y-116513872D01*
X156135514Y-116513872D01*
X156250419Y-116571324D01*
X156307871Y-116628776D01*
X156365324Y-116743681D01*
X156365324Y-117203300D01*
X156939848Y-115364824D02*
X156939848Y-116054252D01*
X156939848Y-115709538D02*
X155733348Y-115709538D01*
X155905705Y-115824443D01*
X156020610Y-115939348D01*
X156078062Y-116054252D01*
D13*
X129558648Y-107886338D02*
X128352148Y-107886338D01*
X129558648Y-107196910D02*
X128869219Y-107713981D01*
X128352148Y-107196910D02*
X129041576Y-107886338D01*
X129558648Y-106047862D02*
X129558648Y-106737290D01*
X129558648Y-106392576D02*
X128352148Y-106392576D01*
X128524505Y-106507481D01*
X128639410Y-106622386D01*
X128696862Y-106737290D01*
X137242148Y-107369267D02*
X137242148Y-107599076D01*
X137299600Y-107713981D01*
X137357052Y-107771433D01*
X137529410Y-107886338D01*
X137759219Y-107943790D01*
X138218838Y-107943790D01*
X138333743Y-107886338D01*
X138391195Y-107828886D01*
X138448648Y-107713981D01*
X138448648Y-107484171D01*
X138391195Y-107369267D01*
X138333743Y-107311814D01*
X138218838Y-107254362D01*
X137931576Y-107254362D01*
X137816671Y-107311814D01*
X137759219Y-107369267D01*
X137701767Y-107484171D01*
X137701767Y-107713981D01*
X137759219Y-107828886D01*
X137816671Y-107886338D01*
X137931576Y-107943790D01*
X138448648Y-106105314D02*
X138448648Y-106794742D01*
X138448648Y-106450028D02*
X137242148Y-106450028D01*
X137414505Y-106564933D01*
X137529410Y-106679838D01*
X137586862Y-106794742D01*
X137357052Y-105645694D02*
X137299600Y-105588242D01*
X137242148Y-105473337D01*
X137242148Y-105186075D01*
X137299600Y-105071171D01*
X137357052Y-105013718D01*
X137471957Y-104956266D01*
X137586862Y-104956266D01*
X137759219Y-105013718D01*
X138448648Y-105703147D01*
X138448648Y-104956266D01*
X137242148Y-104209385D02*
X137242148Y-104094480D01*
X137299600Y-103979575D01*
X137357052Y-103922123D01*
X137471957Y-103864670D01*
X137701767Y-103807218D01*
X137989029Y-103807218D01*
X138218838Y-103864670D01*
X138333743Y-103922123D01*
X138391195Y-103979575D01*
X138448648Y-104094480D01*
X138448648Y-104209385D01*
X138391195Y-104324289D01*
X138333743Y-104381742D01*
X138218838Y-104439194D01*
X137989029Y-104496646D01*
X137701767Y-104496646D01*
X137471957Y-104439194D01*
X137357052Y-104381742D01*
X137299600Y-104324289D01*
X137242148Y-104209385D01*
X137242148Y-103405051D02*
X137242148Y-102658170D01*
X137701767Y-103060337D01*
X137701767Y-102887979D01*
X137759219Y-102773075D01*
X137816671Y-102715622D01*
X137931576Y-102658170D01*
X138218838Y-102658170D01*
X138333743Y-102715622D01*
X138391195Y-102773075D01*
X138448648Y-102887979D01*
X138448648Y-103232694D01*
X138391195Y-103347598D01*
X138333743Y-103405051D01*
X137644314Y-101624027D02*
X138448648Y-101624027D01*
X137184695Y-101911289D02*
X138046481Y-102198550D01*
X138046481Y-101451670D01*
X137357052Y-101049502D02*
X137299600Y-100992050D01*
X137242148Y-100877145D01*
X137242148Y-100589883D01*
X137299600Y-100474979D01*
X137357052Y-100417526D01*
X137471957Y-100360074D01*
X137586862Y-100360074D01*
X137759219Y-100417526D01*
X138448648Y-101106955D01*
X138448648Y-100360074D01*
X137357052Y-99900454D02*
X137299600Y-99843002D01*
X137242148Y-99728097D01*
X137242148Y-99440835D01*
X137299600Y-99325931D01*
X137357052Y-99268478D01*
X137471957Y-99211026D01*
X137586862Y-99211026D01*
X137759219Y-99268478D01*
X138448648Y-99957907D01*
X138448648Y-99211026D01*
X137242148Y-98808859D02*
X137242148Y-98061978D01*
X137701767Y-98464145D01*
X137701767Y-98291787D01*
X137759219Y-98176883D01*
X137816671Y-98119430D01*
X137931576Y-98061978D01*
X138218838Y-98061978D01*
X138333743Y-98119430D01*
X138391195Y-98176883D01*
X138448648Y-98291787D01*
X138448648Y-98636502D01*
X138391195Y-98751406D01*
X138333743Y-98808859D01*
X137357052Y-97602358D02*
X137299600Y-97544906D01*
X137242148Y-97430001D01*
X137242148Y-97142739D01*
X137299600Y-97027835D01*
X137357052Y-96970382D01*
X137471957Y-96912930D01*
X137586862Y-96912930D01*
X137759219Y-96970382D01*
X138448648Y-97659811D01*
X138448648Y-96912930D01*
X137242148Y-96510763D02*
X137242148Y-95763882D01*
X137701767Y-96166049D01*
X137701767Y-95993691D01*
X137759219Y-95878787D01*
X137816671Y-95821334D01*
X137931576Y-95763882D01*
X138218838Y-95763882D01*
X138333743Y-95821334D01*
X138391195Y-95878787D01*
X138448648Y-95993691D01*
X138448648Y-96338406D01*
X138391195Y-96453310D01*
X138333743Y-96510763D01*
D14*
X144412810Y-111307718D02*
X144412810Y-112909490D01*
X144507031Y-113097934D01*
X144601253Y-113192156D01*
X144789697Y-113286378D01*
X145166585Y-113286378D01*
X145355029Y-113192156D01*
X145449250Y-113097934D01*
X145543472Y-112909490D01*
X145543472Y-111307718D01*
X147522132Y-113286378D02*
X146391470Y-113286378D01*
X146956801Y-113286378D02*
X146956801Y-111307718D01*
X146768357Y-111590384D01*
X146579913Y-111778828D01*
X146391470Y-111873050D01*
X141301772Y-127987334D02*
X141207550Y-128081556D01*
X140924885Y-128175778D01*
X140736441Y-128175778D01*
X140453775Y-128081556D01*
X140265331Y-127893112D01*
X140171110Y-127704669D01*
X140076888Y-127327781D01*
X140076888Y-127045115D01*
X140171110Y-126668228D01*
X140265331Y-126479784D01*
X140453775Y-126291340D01*
X140736441Y-126197118D01*
X140924885Y-126197118D01*
X141207550Y-126291340D01*
X141301772Y-126385562D01*
X142149770Y-128175778D02*
X142149770Y-126197118D01*
X142620879Y-126197118D01*
X142903545Y-126291340D01*
X143091989Y-126479784D01*
X143186210Y-126668228D01*
X143280432Y-127045115D01*
X143280432Y-127327781D01*
X143186210Y-127704669D01*
X143091989Y-127893112D01*
X142903545Y-128081556D01*
X142620879Y-128175778D01*
X142149770Y-128175778D01*
X143939986Y-126197118D02*
X145259092Y-126197118D01*
X144411095Y-128175778D01*
X146860865Y-126856671D02*
X146860865Y-128175778D01*
X146389755Y-126102896D02*
X145918646Y-127516225D01*
X147143530Y-127516225D01*
X147897306Y-128175778D02*
X147897306Y-126197118D01*
X147897306Y-127139337D02*
X149027968Y-127139337D01*
X149027968Y-128175778D02*
X149027968Y-126197118D01*
X151100850Y-127987334D02*
X151006628Y-128081556D01*
X150723963Y-128175778D01*
X150535519Y-128175778D01*
X150252853Y-128081556D01*
X150064409Y-127893112D01*
X149970188Y-127704669D01*
X149875966Y-127327781D01*
X149875966Y-127045115D01*
X149970188Y-126668228D01*
X150064409Y-126479784D01*
X150252853Y-126291340D01*
X150535519Y-126197118D01*
X150723963Y-126197118D01*
X151006628Y-126291340D01*
X151100850Y-126385562D01*
X152796845Y-126856671D02*
X152796845Y-128175778D01*
X152325735Y-126102896D02*
X151854626Y-127516225D01*
X153079510Y-127516225D01*
X154210173Y-126197118D02*
X154398617Y-126197118D01*
X154587061Y-126291340D01*
X154681283Y-126385562D01*
X154775505Y-126574006D01*
X154869726Y-126950893D01*
X154869726Y-127422003D01*
X154775505Y-127798890D01*
X154681283Y-127987334D01*
X154587061Y-128081556D01*
X154398617Y-128175778D01*
X154210173Y-128175778D01*
X154021729Y-128081556D01*
X153927507Y-127987334D01*
X153833286Y-127798890D01*
X153739064Y-127422003D01*
X153739064Y-126950893D01*
X153833286Y-126574006D01*
X153927507Y-126385562D01*
X154021729Y-126291340D01*
X154210173Y-126197118D01*
X156565721Y-126197118D02*
X156188833Y-126197118D01*
X156000389Y-126291340D01*
X155906167Y-126385562D01*
X155717724Y-126668228D01*
X155623502Y-127045115D01*
X155623502Y-127798890D01*
X155717724Y-127987334D01*
X155811945Y-128081556D01*
X156000389Y-128175778D01*
X156377277Y-128175778D01*
X156565721Y-128081556D01*
X156659943Y-127987334D01*
X156754164Y-127798890D01*
X156754164Y-127327781D01*
X156659943Y-127139337D01*
X156565721Y-127045115D01*
X156377277Y-126950893D01*
X156000389Y-126950893D01*
X155811945Y-127045115D01*
X155717724Y-127139337D01*
X155623502Y-127327781D01*
X157413718Y-126197118D02*
X158732824Y-126197118D01*
X157884827Y-128175778D01*
X159392378Y-128081556D02*
X159675043Y-128175778D01*
X160146153Y-128175778D01*
X160334597Y-128081556D01*
X160428819Y-127987334D01*
X160523040Y-127798890D01*
X160523040Y-127610447D01*
X160428819Y-127422003D01*
X160334597Y-127327781D01*
X160146153Y-127233559D01*
X159769265Y-127139337D01*
X159580821Y-127045115D01*
X159486600Y-126950893D01*
X159392378Y-126762450D01*
X159392378Y-126574006D01*
X159486600Y-126385562D01*
X159580821Y-126291340D01*
X159769265Y-126197118D01*
X160240375Y-126197118D01*
X160523040Y-126291340D01*
X161371038Y-128175778D02*
X161371038Y-126197118D01*
X162030591Y-127610447D01*
X162690144Y-126197118D01*
X162690144Y-128175778D01*
X163726585Y-128175778D02*
X164103473Y-128175778D01*
X164291917Y-128081556D01*
X164386139Y-127987334D01*
X164574583Y-127704669D01*
X164668804Y-127327781D01*
X164668804Y-126574006D01*
X164574583Y-126385562D01*
X164480361Y-126291340D01*
X164291917Y-126197118D01*
X163915029Y-126197118D01*
X163726585Y-126291340D01*
X163632364Y-126385562D01*
X163538142Y-126574006D01*
X163538142Y-127045115D01*
X163632364Y-127233559D01*
X163726585Y-127327781D01*
X163915029Y-127422003D01*
X164291917Y-127422003D01*
X164480361Y-127327781D01*
X164574583Y-127233559D01*
X164668804Y-127045115D01*
X166364799Y-126197118D02*
X165987911Y-126197118D01*
X165799467Y-126291340D01*
X165705245Y-126385562D01*
X165516802Y-126668228D01*
X165422580Y-127045115D01*
X165422580Y-127798890D01*
X165516802Y-127987334D01*
X165611023Y-128081556D01*
X165799467Y-128175778D01*
X166176355Y-128175778D01*
X166364799Y-128081556D01*
X166459021Y-127987334D01*
X166553242Y-127798890D01*
X166553242Y-127327781D01*
X166459021Y-127139337D01*
X166364799Y-127045115D01*
X166176355Y-126950893D01*
X165799467Y-126950893D01*
X165611023Y-127045115D01*
X165516802Y-127139337D01*
X165422580Y-127327781D01*
D15*
X143410719Y-113183448D02*
X143410719Y-113470710D01*
X143123457Y-113355805D02*
X143410719Y-113470710D01*
X143697981Y-113355805D01*
X143238362Y-113700519D02*
X143410719Y-113470710D01*
X143583076Y-113700519D01*
D14*
X144412810Y-90987718D02*
X144412810Y-92589490D01*
X144507031Y-92777934D01*
X144601253Y-92872156D01*
X144789697Y-92966378D01*
X145166585Y-92966378D01*
X145355029Y-92872156D01*
X145449250Y-92777934D01*
X145543472Y-92589490D01*
X145543472Y-90987718D01*
X146391470Y-91176162D02*
X146485692Y-91081940D01*
X146674135Y-90987718D01*
X147145245Y-90987718D01*
X147333689Y-91081940D01*
X147427911Y-91176162D01*
X147522132Y-91364606D01*
X147522132Y-91553050D01*
X147427911Y-91835715D01*
X146297248Y-92966378D01*
X147522132Y-92966378D01*
X166087334Y-102538228D02*
X166181556Y-102632450D01*
X166275778Y-102915115D01*
X166275778Y-103103559D01*
X166181556Y-103386225D01*
X165993112Y-103574669D01*
X165804669Y-103668890D01*
X165427781Y-103763112D01*
X165145115Y-103763112D01*
X164768228Y-103668890D01*
X164579784Y-103574669D01*
X164391340Y-103386225D01*
X164297118Y-103103559D01*
X164297118Y-102915115D01*
X164391340Y-102632450D01*
X164485562Y-102538228D01*
X166275778Y-101690230D02*
X164297118Y-101690230D01*
X164297118Y-101219121D01*
X164391340Y-100936455D01*
X164579784Y-100748011D01*
X164768228Y-100653790D01*
X165145115Y-100559568D01*
X165427781Y-100559568D01*
X165804669Y-100653790D01*
X165993112Y-100748011D01*
X166181556Y-100936455D01*
X166275778Y-101219121D01*
X166275778Y-101690230D01*
X164297118Y-99900014D02*
X164297118Y-98580908D01*
X166275778Y-99428905D01*
X164956671Y-96979135D02*
X166275778Y-96979135D01*
X164202896Y-97450245D02*
X165616225Y-97921354D01*
X165616225Y-96696470D01*
X166275778Y-95942694D02*
X164297118Y-95942694D01*
X165239337Y-95942694D02*
X165239337Y-94812032D01*
X166275778Y-94812032D02*
X164297118Y-94812032D01*
X166087334Y-92739150D02*
X166181556Y-92833372D01*
X166275778Y-93116037D01*
X166275778Y-93304481D01*
X166181556Y-93587147D01*
X165993112Y-93775591D01*
X165804669Y-93869812D01*
X165427781Y-93964034D01*
X165145115Y-93964034D01*
X164768228Y-93869812D01*
X164579784Y-93775591D01*
X164391340Y-93587147D01*
X164297118Y-93304481D01*
X164297118Y-93116037D01*
X164391340Y-92833372D01*
X164485562Y-92739150D01*
X164956671Y-91043155D02*
X166275778Y-91043155D01*
X164202896Y-91514265D02*
X165616225Y-91985374D01*
X165616225Y-90760490D01*
X164297118Y-89629827D02*
X164297118Y-89441383D01*
X164391340Y-89252939D01*
X164485562Y-89158717D01*
X164674006Y-89064495D01*
X165050893Y-88970274D01*
X165522003Y-88970274D01*
X165898890Y-89064495D01*
X166087334Y-89158717D01*
X166181556Y-89252939D01*
X166275778Y-89441383D01*
X166275778Y-89629827D01*
X166181556Y-89818271D01*
X166087334Y-89912493D01*
X165898890Y-90006714D01*
X165522003Y-90100936D01*
X165050893Y-90100936D01*
X164674006Y-90006714D01*
X164485562Y-89912493D01*
X164391340Y-89818271D01*
X164297118Y-89629827D01*
X164297118Y-87274279D02*
X164297118Y-87651167D01*
X164391340Y-87839611D01*
X164485562Y-87933833D01*
X164768228Y-88122276D01*
X165145115Y-88216498D01*
X165898890Y-88216498D01*
X166087334Y-88122276D01*
X166181556Y-88028055D01*
X166275778Y-87839611D01*
X166275778Y-87462723D01*
X166181556Y-87274279D01*
X166087334Y-87180057D01*
X165898890Y-87085836D01*
X165427781Y-87085836D01*
X165239337Y-87180057D01*
X165145115Y-87274279D01*
X165050893Y-87462723D01*
X165050893Y-87839611D01*
X165145115Y-88028055D01*
X165239337Y-88122276D01*
X165427781Y-88216498D01*
X164297118Y-86426282D02*
X164297118Y-85107176D01*
X166275778Y-85955173D01*
X166181556Y-84447622D02*
X166275778Y-84164957D01*
X166275778Y-83693847D01*
X166181556Y-83505403D01*
X166087334Y-83411181D01*
X165898890Y-83316960D01*
X165710447Y-83316960D01*
X165522003Y-83411181D01*
X165427781Y-83505403D01*
X165333559Y-83693847D01*
X165239337Y-84070735D01*
X165145115Y-84259179D01*
X165050893Y-84353400D01*
X164862450Y-84447622D01*
X164674006Y-84447622D01*
X164485562Y-84353400D01*
X164391340Y-84259179D01*
X164297118Y-84070735D01*
X164297118Y-83599625D01*
X164391340Y-83316960D01*
X166275778Y-82468962D02*
X164297118Y-82468962D01*
X165710447Y-81809409D01*
X164297118Y-81149856D01*
X166275778Y-81149856D01*
X166275778Y-80113415D02*
X166275778Y-79736527D01*
X166181556Y-79548083D01*
X166087334Y-79453861D01*
X165804669Y-79265417D01*
X165427781Y-79171196D01*
X164674006Y-79171196D01*
X164485562Y-79265417D01*
X164391340Y-79359639D01*
X164297118Y-79548083D01*
X164297118Y-79924971D01*
X164391340Y-80113415D01*
X164485562Y-80207636D01*
X164674006Y-80301858D01*
X165145115Y-80301858D01*
X165333559Y-80207636D01*
X165427781Y-80113415D01*
X165522003Y-79924971D01*
X165522003Y-79548083D01*
X165427781Y-79359639D01*
X165333559Y-79265417D01*
X165145115Y-79171196D01*
X164297118Y-77475201D02*
X164297118Y-77852089D01*
X164391340Y-78040533D01*
X164485562Y-78134755D01*
X164768228Y-78323198D01*
X165145115Y-78417420D01*
X165898890Y-78417420D01*
X166087334Y-78323198D01*
X166181556Y-78228977D01*
X166275778Y-78040533D01*
X166275778Y-77663645D01*
X166181556Y-77475201D01*
X166087334Y-77380979D01*
X165898890Y-77286758D01*
X165427781Y-77286758D01*
X165239337Y-77380979D01*
X165145115Y-77475201D01*
X165050893Y-77663645D01*
X165050893Y-78040533D01*
X165145115Y-78228977D01*
X165239337Y-78323198D01*
X165427781Y-78417420D01*
D15*
X143410719Y-92863448D02*
X143410719Y-93150710D01*
X143123457Y-93035805D02*
X143410719Y-93150710D01*
X143697981Y-93035805D01*
X143238362Y-93380519D02*
X143410719Y-93150710D01*
X143583076Y-93380519D01*
M02*
