M48
INCH,TZ
T1C0.024
T2C0.040
T3C0.040
%
G90
G05
T1
X5.1655Y-4.4088
X5.4155Y-3.8713
X5.4155Y-4.4713
X5.453Y-4.2463
X5.453Y-4.4088
X5.453Y-4.5463
X5.4655Y-3.8088
X5.503Y-3.7463
X5.503Y-4.1963
X5.503Y-4.5463
X5.528Y-3.6713
X5.5405Y-3.9088
X5.5405Y-3.9713
X5.5655Y-3.3713
X5.578Y-3.8088
X5.5905Y-3.9713
X5.5905Y-4.7588
X5.6155Y-3.6713
X5.628Y-4.1213
X5.6655Y-3.6713
X5.728Y-3.4088
X5.728Y-3.7713
X5.728Y-3.8213
X5.728Y-3.9588
X5.728Y-4.1088
X5.728Y-4.7463
X5.728Y-4.7963
X5.7655Y-3.8588
X5.7655Y-3.9963
X5.778Y-3.5088
X5.778Y-4.7963
X5.7905Y-4.4213
X5.803Y-3.7838
X5.803Y-4.0338
X5.803Y-4.5463
X5.8405Y-3.6213
X5.8405Y-3.8838
X5.8405Y-3.9713
X5.878Y-3.9213
X5.878Y-4.6713
X5.878Y-4.7213
X6.003Y-4.0463
X6.0155Y-3.8963
X6.0155Y-4.6213
X6.0155Y-4.6713
X6.028Y-3.7588
X6.053Y-3.4588
X6.053Y-4.0338
X6.053Y-4.2088
X6.0905Y-3.7963
X6.103Y-4.5213
X6.1405Y-4.7463
X6.178Y-3.7713
X6.178Y-4.7838
X6.2405Y-3.6963
X6.2905Y-4.6713
X6.3905Y-3.7963
T2
X6.253Y-3.8088
X6.253Y-3.9088
X6.253Y-4.0088
X6.253Y-4.1088
X6.253Y-4.2088
X6.253Y-4.3088
X6.253Y-4.4088
X6.253Y-4.5088
X6.253Y-4.6088
T3
X5.203Y-3.3588
X5.203Y-3.4588
X5.203Y-3.5588
X5.203Y-3.6588
X5.203Y-3.7588
X5.203Y-3.8588
X5.203Y-3.9588
X5.203Y-4.0588
X5.203Y-4.1588
X5.203Y-4.2588
X5.203Y-4.3588
X5.203Y-4.4588
X5.203Y-4.5588
X5.203Y-4.6588
X5.203Y-4.7588
X5.203Y-4.8588
X5.203Y-4.9588
X5.303Y-3.3588
X5.303Y-3.4588
X5.303Y-3.5588
X5.303Y-3.6588
X5.303Y-3.7588
X5.303Y-3.8588
X5.303Y-3.9588
X5.303Y-4.0588
X5.303Y-4.1588
X5.303Y-4.2588
X5.303Y-4.3588
X5.303Y-4.4588
X5.303Y-4.5588
X5.303Y-4.6588
X5.303Y-4.7588
X5.303Y-4.8588
X5.303Y-4.9588
T0
M30
