%
M48
M72
T01C0.02400
T02C0.04000
T03C0.04016
%
T01
X46000Y77250
X51000Y77250
X42250Y84750
X46000Y91000
X46000Y107250
X51000Y112250
X63500Y119750
X73500Y121000
X81000Y128500
X77250Y132250
X73500Y136000
X77250Y146000
X73500Y149750
X73500Y154750
X81000Y153500
X84750Y143500
X88500Y139750
X84750Y134750
X101000Y127250
X106000Y128500
X102250Y142250
X109750Y152250
X103500Y156000
X118500Y154750
X124750Y162250
X139750Y152250
X106000Y186000
X84750Y169750
X78500Y181000
X73500Y191000
X57250Y194750
X53500Y164750
X51000Y157250
X47250Y151000
X42250Y144750
X54750Y141000
X54750Y134750
X59750Y134750
X58500Y151000
X62250Y164750
X67250Y164750
X106000Y111000
X111000Y79750
X102250Y69750
X102250Y64750
X88500Y64750
X88500Y59750
X78500Y52250
X73500Y52250
X73500Y57250
X59750Y56000
X81000Y77250
X79750Y89750
X114750Y57250
X118500Y53500
X129750Y64750
X17250Y91000
T02
X126000Y91000
X126000Y81000
X126000Y71000
X126000Y101000
X126000Y111000
X126000Y121000
X126000Y131000
X126000Y141000
X126000Y151000
T03
X21000Y36000
X21000Y46000
X21000Y56000
X21000Y66000
X21000Y76000
X21000Y86000
X21000Y96000
X21000Y106000
X21000Y116000
X21000Y126000
X21000Y136000
X21000Y146000
X21000Y156000
X21000Y166000
X21000Y176000
X21000Y186000
X21000Y196000
X31000Y196000
X31000Y186000
X31000Y176000
X31000Y166000
X31000Y156000
X31000Y146000
X31000Y136000
X31000Y126000
X31000Y116000
X31000Y106000
X31000Y96000
X31000Y86000
X31000Y76000
X31000Y66000
X31000Y56000
X31000Y46000
X31000Y36000
M30
