G75*
%MOIN*%
%OFA0B0*%
%FSLAX25Y25*%
%IPPOS*%
%LPD*%
%AMOC8*
5,1,8,0,0,1.08239X$1,22.5*
%
%ADD10C,0.00000*%
%ADD11C,0.00600*%
%ADD12C,0.00500*%
%ADD13C,0.00400*%
%ADD14C,0.00300*%
%ADD15C,0.00800*%
D10*
X0001000Y0001000D02*
X0001000Y0235961D01*
X0169701Y0235961D01*
X0169701Y0001000D01*
X0001000Y0001000D01*
D11*
X0058200Y0057000D02*
X0062200Y0057000D01*
X0070000Y0049300D02*
X0092000Y0049300D01*
X0099800Y0070000D02*
X0103800Y0070000D01*
X0092000Y0082700D02*
X0082200Y0082700D01*
X0079800Y0082700D01*
X0070000Y0082700D01*
X0079800Y0082700D02*
X0079802Y0082631D01*
X0079808Y0082563D01*
X0079818Y0082495D01*
X0079831Y0082428D01*
X0079849Y0082362D01*
X0079870Y0082297D01*
X0079895Y0082233D01*
X0079923Y0082171D01*
X0079955Y0082110D01*
X0079990Y0082051D01*
X0080029Y0081995D01*
X0080071Y0081940D01*
X0080116Y0081889D01*
X0080164Y0081839D01*
X0080214Y0081793D01*
X0080267Y0081750D01*
X0080323Y0081709D01*
X0080380Y0081672D01*
X0080440Y0081639D01*
X0080502Y0081608D01*
X0080565Y0081582D01*
X0080629Y0081559D01*
X0080695Y0081539D01*
X0080762Y0081524D01*
X0080829Y0081512D01*
X0080897Y0081504D01*
X0080966Y0081500D01*
X0081034Y0081500D01*
X0081103Y0081504D01*
X0081171Y0081512D01*
X0081238Y0081524D01*
X0081305Y0081539D01*
X0081371Y0081559D01*
X0081435Y0081582D01*
X0081498Y0081608D01*
X0081560Y0081639D01*
X0081620Y0081672D01*
X0081677Y0081709D01*
X0081733Y0081750D01*
X0081786Y0081793D01*
X0081836Y0081839D01*
X0081884Y0081889D01*
X0081929Y0081940D01*
X0081971Y0081995D01*
X0082010Y0082051D01*
X0082045Y0082110D01*
X0082077Y0082171D01*
X0082105Y0082233D01*
X0082130Y0082297D01*
X0082151Y0082362D01*
X0082169Y0082428D01*
X0082182Y0082495D01*
X0082192Y0082563D01*
X0082198Y0082631D01*
X0082200Y0082700D01*
X0092000Y0129300D02*
X0070000Y0129300D01*
X0062200Y0137000D02*
X0058200Y0137000D01*
X0070000Y0162700D02*
X0079800Y0162700D01*
X0082200Y0162700D01*
X0092000Y0162700D01*
X0099800Y0150000D02*
X0103800Y0150000D01*
X0121000Y0148500D02*
X0123500Y0146000D01*
X0128500Y0146000D01*
X0131000Y0148500D01*
X0131000Y0153500D01*
X0128500Y0156000D01*
X0123500Y0156000D01*
X0121000Y0153500D01*
X0121000Y0148500D01*
X0123500Y0146000D02*
X0121000Y0143500D01*
X0121000Y0138500D01*
X0123500Y0136000D01*
X0128500Y0136000D01*
X0131000Y0138500D01*
X0131000Y0143500D01*
X0128500Y0146000D01*
X0128500Y0136000D02*
X0131000Y0133500D01*
X0131000Y0128500D01*
X0128500Y0126000D01*
X0131000Y0123500D01*
X0131000Y0118500D01*
X0128500Y0116000D01*
X0131000Y0113500D01*
X0131000Y0108500D01*
X0128500Y0106000D01*
X0131000Y0103500D01*
X0131000Y0098500D01*
X0128500Y0096000D01*
X0131000Y0093500D01*
X0131000Y0088500D01*
X0128500Y0086000D01*
X0131000Y0083500D01*
X0131000Y0078500D01*
X0128500Y0076000D01*
X0131000Y0073500D01*
X0131000Y0068500D01*
X0128500Y0066000D01*
X0123500Y0066000D01*
X0121000Y0068500D01*
X0121000Y0073500D01*
X0123500Y0076000D01*
X0121000Y0078500D01*
X0121000Y0083500D01*
X0123500Y0086000D01*
X0128500Y0086000D01*
X0123500Y0086000D02*
X0121000Y0088500D01*
X0121000Y0093500D01*
X0123500Y0096000D01*
X0121000Y0098500D01*
X0121000Y0103500D01*
X0123500Y0106000D01*
X0121000Y0108500D01*
X0121000Y0113500D01*
X0123500Y0116000D01*
X0128500Y0116000D01*
X0123500Y0116000D02*
X0121000Y0118500D01*
X0121000Y0123500D01*
X0123500Y0126000D01*
X0121000Y0128500D01*
X0121000Y0133500D01*
X0123500Y0136000D01*
X0123500Y0126000D02*
X0128500Y0126000D01*
X0128500Y0106000D02*
X0123500Y0106000D01*
X0123500Y0096000D02*
X0128500Y0096000D01*
X0128500Y0076000D02*
X0123500Y0076000D01*
X0082200Y0162700D02*
X0082198Y0162631D01*
X0082192Y0162563D01*
X0082182Y0162495D01*
X0082169Y0162428D01*
X0082151Y0162362D01*
X0082130Y0162297D01*
X0082105Y0162233D01*
X0082077Y0162171D01*
X0082045Y0162110D01*
X0082010Y0162051D01*
X0081971Y0161995D01*
X0081929Y0161940D01*
X0081884Y0161889D01*
X0081836Y0161839D01*
X0081786Y0161793D01*
X0081733Y0161750D01*
X0081677Y0161709D01*
X0081620Y0161672D01*
X0081560Y0161639D01*
X0081498Y0161608D01*
X0081435Y0161582D01*
X0081371Y0161559D01*
X0081305Y0161539D01*
X0081238Y0161524D01*
X0081171Y0161512D01*
X0081103Y0161504D01*
X0081034Y0161500D01*
X0080966Y0161500D01*
X0080897Y0161504D01*
X0080829Y0161512D01*
X0080762Y0161524D01*
X0080695Y0161539D01*
X0080629Y0161559D01*
X0080565Y0161582D01*
X0080502Y0161608D01*
X0080440Y0161639D01*
X0080380Y0161672D01*
X0080323Y0161709D01*
X0080267Y0161750D01*
X0080214Y0161793D01*
X0080164Y0161839D01*
X0080116Y0161889D01*
X0080071Y0161940D01*
X0080029Y0161995D01*
X0079990Y0162051D01*
X0079955Y0162110D01*
X0079923Y0162171D01*
X0079895Y0162233D01*
X0079870Y0162297D01*
X0079849Y0162362D01*
X0079831Y0162428D01*
X0079818Y0162495D01*
X0079808Y0162563D01*
X0079802Y0162631D01*
X0079800Y0162700D01*
D12*
X0037811Y0211728D02*
X0037811Y0020272D01*
X0014189Y0020272D01*
X0014189Y0211728D01*
X0037811Y0211728D01*
X0114046Y0076659D02*
X0118550Y0076659D01*
X0118550Y0075158D02*
X0118550Y0078160D01*
X0115547Y0075158D02*
X0114046Y0076659D01*
X0114797Y0073556D02*
X0116298Y0073556D01*
X0117049Y0072806D01*
X0117049Y0070554D01*
X0118550Y0070554D02*
X0114046Y0070554D01*
X0114046Y0072806D01*
X0114797Y0073556D01*
X0114046Y0068953D02*
X0114046Y0067451D01*
X0114046Y0068202D02*
X0117799Y0068202D01*
X0118550Y0067451D01*
X0118550Y0066701D01*
X0117799Y0065950D01*
D13*
X0010800Y0106200D02*
X0006196Y0106200D01*
X0008498Y0106967D02*
X0010800Y0109269D01*
X0010800Y0110804D02*
X0010800Y0113873D01*
X0010800Y0112339D02*
X0006196Y0112339D01*
X0007731Y0110804D01*
X0006196Y0109269D02*
X0009265Y0106200D01*
D14*
X0063650Y0085370D02*
X0066786Y0082234D01*
X0066786Y0083802D02*
X0063650Y0083802D01*
X0063650Y0082234D02*
X0066786Y0085370D01*
X0065218Y0085370D02*
X0065218Y0082234D01*
X0065218Y0162234D02*
X0065218Y0165370D01*
X0063650Y0165370D02*
X0066786Y0162234D01*
X0066786Y0163802D02*
X0063650Y0163802D01*
X0063650Y0162234D02*
X0066786Y0165370D01*
D15*
X0067800Y0167134D02*
X0069034Y0165900D01*
X0071503Y0165900D01*
X0072738Y0167134D01*
X0072738Y0173306D01*
X0075350Y0172072D02*
X0076585Y0173306D01*
X0079054Y0173306D01*
X0080288Y0172072D01*
X0080288Y0170838D01*
X0075350Y0165900D01*
X0080288Y0165900D01*
X0067800Y0167134D02*
X0067800Y0173306D01*
X0067800Y0093306D02*
X0067800Y0087134D01*
X0069034Y0085900D01*
X0071503Y0085900D01*
X0072738Y0087134D01*
X0072738Y0093306D01*
X0075350Y0090838D02*
X0077819Y0093306D01*
X0077819Y0085900D01*
X0075350Y0085900D02*
X0080288Y0085900D01*
M02*
