G75*
%MOIN*%
%OFA0B0*%
%FSLAX25Y25*%
%IPPOS*%
%LPD*%
%AMOC8*
5,1,8,0,0,1.08239X$1,22.5*
%
%ADD10C,0.06000*%
%ADD11C,0.06024*%
%ADD12C,0.01000*%
%ADD13C,0.04000*%
D10*
X0123000Y0071000D02*
X0129000Y0071000D01*
X0129000Y0081000D02*
X0123000Y0081000D01*
X0123000Y0091000D02*
X0129000Y0091000D01*
X0129000Y0101000D02*
X0123000Y0101000D01*
X0123000Y0111000D02*
X0129000Y0111000D01*
X0129000Y0121000D02*
X0123000Y0121000D01*
X0123000Y0131000D02*
X0129000Y0131000D01*
X0129000Y0141000D02*
X0123000Y0141000D01*
X0123000Y0151000D02*
X0129000Y0151000D01*
D11*
X0021000Y0036000D03*
X0021000Y0046000D03*
X0021000Y0056000D03*
X0021000Y0066000D03*
X0021000Y0076000D03*
X0021000Y0086000D03*
X0021000Y0096000D03*
X0021000Y0106000D03*
X0021000Y0116000D03*
X0021000Y0126000D03*
X0021000Y0136000D03*
X0021000Y0146000D03*
X0021000Y0156000D03*
X0021000Y0166000D03*
X0021000Y0176000D03*
X0021000Y0186000D03*
X0021000Y0196000D03*
X0031000Y0196000D03*
X0031000Y0186000D03*
X0031000Y0176000D03*
X0031000Y0166000D03*
X0031000Y0156000D03*
X0031000Y0146000D03*
X0031000Y0136000D03*
X0031000Y0126000D03*
X0031000Y0116000D03*
X0031000Y0106000D03*
X0031000Y0096000D03*
X0031000Y0086000D03*
X0031000Y0076000D03*
X0031000Y0066000D03*
X0031000Y0056000D03*
X0031000Y0046000D03*
X0031000Y0036000D03*
D12*
X0021000Y0036000D02*
X0021000Y0041000D01*
X0072250Y0041000D01*
X0084750Y0053500D01*
X0084750Y0134750D01*
X0081000Y0128500D02*
X0081000Y0153500D01*
X0077250Y0159750D02*
X0077250Y0146000D01*
X0073500Y0149750D02*
X0062250Y0149750D01*
X0062250Y0148500D01*
X0054750Y0141000D01*
X0054750Y0134750D02*
X0054750Y0073500D01*
X0032250Y0051000D01*
X0021000Y0051000D01*
X0021000Y0046000D01*
X0021000Y0056000D02*
X0021000Y0061000D01*
X0032250Y0061000D01*
X0038500Y0067250D01*
X0038500Y0141000D01*
X0042250Y0144750D01*
X0046000Y0149750D02*
X0046000Y0107250D01*
X0051000Y0112250D02*
X0051000Y0157250D01*
X0047250Y0151000D02*
X0046000Y0149750D01*
X0038500Y0163500D02*
X0031000Y0156000D01*
X0032250Y0161000D02*
X0026000Y0161000D01*
X0026000Y0151000D01*
X0031000Y0146000D01*
X0036000Y0147250D02*
X0036000Y0094750D01*
X0032250Y0091000D01*
X0021000Y0091000D01*
X0021000Y0086000D01*
X0017250Y0091000D02*
X0016000Y0092250D01*
X0016000Y0107250D01*
X0019750Y0111000D01*
X0026000Y0111000D01*
X0026000Y0131000D01*
X0031000Y0136000D01*
X0036000Y0147250D02*
X0053500Y0164750D01*
X0062250Y0164750D02*
X0062250Y0168500D01*
X0068500Y0168500D01*
X0077250Y0159750D01*
X0073500Y0154750D02*
X0067250Y0161000D01*
X0067250Y0164750D01*
X0057250Y0152250D02*
X0058500Y0151000D01*
X0057250Y0152250D02*
X0057250Y0194750D01*
X0071000Y0198500D02*
X0038500Y0198500D01*
X0038500Y0163500D01*
X0036000Y0164750D02*
X0032250Y0161000D01*
X0036000Y0164750D02*
X0036000Y0201000D01*
X0072250Y0201000D01*
X0097250Y0176000D01*
X0097250Y0074750D01*
X0102250Y0069750D01*
X0102250Y0064750D02*
X0094750Y0072250D01*
X0094750Y0174750D01*
X0071000Y0198500D01*
X0074750Y0203500D02*
X0026000Y0203500D01*
X0026000Y0191000D01*
X0021000Y0186000D01*
X0016000Y0206000D02*
X0016000Y0121000D01*
X0021000Y0116000D01*
X0042250Y0084750D02*
X0042250Y0081000D01*
X0046000Y0077250D01*
X0046000Y0082250D02*
X0046000Y0091000D01*
X0046000Y0082250D02*
X0051000Y0077250D01*
X0059750Y0056000D02*
X0059750Y0134750D01*
X0063500Y0119750D02*
X0063500Y0048500D01*
X0074750Y0048500D01*
X0078500Y0052250D01*
X0077250Y0056000D02*
X0077250Y0087250D01*
X0076000Y0088500D01*
X0076000Y0118500D01*
X0077250Y0119750D01*
X0077250Y0132250D01*
X0073500Y0136000D02*
X0073500Y0121000D01*
X0073500Y0057250D01*
X0077250Y0056000D02*
X0073500Y0052250D01*
X0088500Y0059750D02*
X0104750Y0043500D01*
X0139750Y0043500D01*
X0139750Y0152250D01*
X0136000Y0156000D02*
X0106000Y0186000D01*
X0102250Y0179750D02*
X0076000Y0206000D01*
X0016000Y0206000D01*
X0073500Y0191000D02*
X0092250Y0172250D01*
X0092250Y0068500D01*
X0088500Y0064750D01*
X0081000Y0077250D02*
X0079750Y0078500D01*
X0079750Y0089750D01*
X0106000Y0111000D02*
X0106000Y0122250D01*
X0101000Y0127250D01*
X0106000Y0128500D02*
X0109750Y0124750D01*
X0109750Y0083500D01*
X0107250Y0081000D01*
X0107250Y0059750D01*
X0113500Y0053500D01*
X0118500Y0053500D01*
X0118500Y0093500D01*
X0126000Y0101000D01*
X0113500Y0082250D02*
X0113500Y0128500D01*
X0126000Y0141000D01*
X0126000Y0131000D02*
X0116000Y0121000D01*
X0116000Y0058500D01*
X0114750Y0057250D01*
X0126000Y0071000D02*
X0133500Y0078500D01*
X0133500Y0153500D01*
X0124750Y0162250D01*
X0118500Y0154750D02*
X0118500Y0152250D01*
X0109750Y0152250D01*
X0103500Y0156000D02*
X0102250Y0157250D01*
X0102250Y0179750D01*
X0099750Y0178500D02*
X0074750Y0203500D01*
X0078500Y0181000D02*
X0088500Y0171000D01*
X0088500Y0139750D01*
X0084750Y0143500D02*
X0084750Y0169750D01*
X0099750Y0178500D02*
X0099750Y0144750D01*
X0102250Y0142250D01*
X0136000Y0156000D02*
X0136000Y0071000D01*
X0129750Y0064750D01*
X0113500Y0082250D02*
X0111000Y0079750D01*
D13*
X0111000Y0079750D03*
X0102250Y0069750D03*
X0102250Y0064750D03*
X0088500Y0064750D03*
X0088500Y0059750D03*
X0078500Y0052250D03*
X0073500Y0052250D03*
X0073500Y0057250D03*
X0059750Y0056000D03*
X0051000Y0077250D03*
X0046000Y0077250D03*
X0042250Y0084750D03*
X0046000Y0091000D03*
X0046000Y0107250D03*
X0051000Y0112250D03*
X0063500Y0119750D03*
X0073500Y0121000D03*
X0081000Y0128500D03*
X0077250Y0132250D03*
X0073500Y0136000D03*
X0077250Y0146000D03*
X0073500Y0149750D03*
X0073500Y0154750D03*
X0081000Y0153500D03*
X0084750Y0143500D03*
X0088500Y0139750D03*
X0084750Y0134750D03*
X0101000Y0127250D03*
X0106000Y0128500D03*
X0102250Y0142250D03*
X0109750Y0152250D03*
X0103500Y0156000D03*
X0118500Y0154750D03*
X0124750Y0162250D03*
X0139750Y0152250D03*
X0106000Y0186000D03*
X0084750Y0169750D03*
X0078500Y0181000D03*
X0073500Y0191000D03*
X0057250Y0194750D03*
X0053500Y0164750D03*
X0051000Y0157250D03*
X0047250Y0151000D03*
X0042250Y0144750D03*
X0054750Y0141000D03*
X0054750Y0134750D03*
X0059750Y0134750D03*
X0058500Y0151000D03*
X0062250Y0164750D03*
X0067250Y0164750D03*
X0106000Y0111000D03*
X0079750Y0089750D03*
X0081000Y0077250D03*
X0114750Y0057250D03*
X0118500Y0053500D03*
X0129750Y0064750D03*
X0017250Y0091000D03*
M02*
