G04 #@! TF.FileFunction,Copper,L1,Top,Signal*
%FSLAX46Y46*%
G04 Gerber Fmt 4.6, Leading zero omitted, Abs format (unit mm)*
G04 Created by KiCad (PCBNEW 4.0.4-stable) date 01/02/17 01:37:36*
%MOMM*%
%LPD*%
G01*
G04 APERTURE LIST*
%ADD10C,0.100000*%
%ADD11R,0.431800X1.651000*%
%ADD12C,1.320800*%
%ADD13C,1.530000*%
%ADD14R,0.558800X1.981200*%
%ADD15R,1.981200X0.355600*%
%ADD16C,0.600000*%
%ADD17C,0.250000*%
G04 APERTURE END LIST*
D10*
D11*
X183108600Y-82372200D03*
X183769000Y-82372200D03*
X184404000Y-82372200D03*
X185064400Y-82372200D03*
X185724800Y-82372200D03*
X186359800Y-82372200D03*
X187020200Y-82372200D03*
X187655200Y-82372200D03*
X188315600Y-82372200D03*
X188976000Y-82372200D03*
X189611000Y-82372200D03*
X190271400Y-82372200D03*
X190271400Y-75107800D03*
X189611000Y-75107800D03*
X188976000Y-75107800D03*
X188315600Y-75107800D03*
X187655200Y-75107800D03*
X187020200Y-75107800D03*
X186359800Y-75107800D03*
X185724800Y-75107800D03*
X185064400Y-75107800D03*
X184404000Y-75107800D03*
X183769000Y-75107800D03*
X183108600Y-75107800D03*
X156438600Y-135712200D03*
X157099000Y-135712200D03*
X157734000Y-135712200D03*
X158394400Y-135712200D03*
X159054800Y-135712200D03*
X159689800Y-135712200D03*
X160350200Y-135712200D03*
X160985200Y-135712200D03*
X161645600Y-135712200D03*
X162306000Y-135712200D03*
X162941000Y-135712200D03*
X163601400Y-135712200D03*
X163601400Y-128447800D03*
X162941000Y-128447800D03*
X162306000Y-128447800D03*
X161645600Y-128447800D03*
X160985200Y-128447800D03*
X160350200Y-128447800D03*
X159689800Y-128447800D03*
X159054800Y-128447800D03*
X158394400Y-128447800D03*
X157734000Y-128447800D03*
X157099000Y-128447800D03*
X156438600Y-128447800D03*
D12*
X111810800Y-142570200D03*
X111810800Y-147650200D03*
X116179600Y-142697200D03*
X116179600Y-147777200D03*
D13*
X137160000Y-50800000D03*
X137160000Y-53340000D03*
X134620000Y-50800000D03*
X134620000Y-53340000D03*
X132080000Y-50800000D03*
X132080000Y-53340000D03*
X129540000Y-50800000D03*
X129540000Y-53340000D03*
X127000000Y-50800000D03*
X127000000Y-53340000D03*
X124460000Y-50800000D03*
X124460000Y-53340000D03*
X121920000Y-50800000D03*
X121920000Y-53340000D03*
X119380000Y-50800000D03*
X119380000Y-53340000D03*
X116840000Y-50800000D03*
X116840000Y-53340000D03*
X114300000Y-50800000D03*
X114300000Y-53340000D03*
X111760000Y-50800000D03*
X111760000Y-53340000D03*
X109220000Y-50800000D03*
X109220000Y-53340000D03*
X106680000Y-50800000D03*
X106680000Y-53340000D03*
X104140000Y-50800000D03*
X104140000Y-53340000D03*
X101600000Y-50800000D03*
X101600000Y-53340000D03*
X99060000Y-50800000D03*
X99060000Y-53340000D03*
X96520000Y-50800000D03*
X96520000Y-53340000D03*
X175260000Y-88900000D03*
X172720000Y-88900000D03*
X175260000Y-86360000D03*
X172720000Y-86360000D03*
X175260000Y-83820000D03*
X172720000Y-83820000D03*
X175260000Y-81280000D03*
X172720000Y-81280000D03*
X175260000Y-78740000D03*
X172720000Y-78740000D03*
X175260000Y-76200000D03*
X172720000Y-76200000D03*
X175260000Y-73660000D03*
X172720000Y-73660000D03*
X175260000Y-71120000D03*
X172720000Y-71120000D03*
X175260000Y-68580000D03*
X172720000Y-68580000D03*
X175260000Y-66040000D03*
X172720000Y-66040000D03*
X175260000Y-63500000D03*
X172720000Y-63500000D03*
X175260000Y-60960000D03*
X172720000Y-60960000D03*
X175260000Y-58420000D03*
X172720000Y-58420000D03*
X175260000Y-55880000D03*
X172720000Y-55880000D03*
X175260000Y-53340000D03*
X172720000Y-53340000D03*
X175260000Y-50800000D03*
X172720000Y-50800000D03*
X175260000Y-48260000D03*
X172720000Y-48260000D03*
X175260000Y-154940000D03*
X172720000Y-154940000D03*
X175260000Y-152400000D03*
X172720000Y-152400000D03*
X175260000Y-149860000D03*
X172720000Y-149860000D03*
X175260000Y-147320000D03*
X172720000Y-147320000D03*
X175260000Y-144780000D03*
X172720000Y-144780000D03*
X175260000Y-142240000D03*
X172720000Y-142240000D03*
X175260000Y-139700000D03*
X172720000Y-139700000D03*
X175260000Y-137160000D03*
X172720000Y-137160000D03*
X175260000Y-134620000D03*
X172720000Y-134620000D03*
X175260000Y-132080000D03*
X172720000Y-132080000D03*
X175260000Y-129540000D03*
X172720000Y-129540000D03*
X175260000Y-127000000D03*
X172720000Y-127000000D03*
X175260000Y-124460000D03*
X172720000Y-124460000D03*
X175260000Y-121920000D03*
X172720000Y-121920000D03*
X175260000Y-119380000D03*
X172720000Y-119380000D03*
X175260000Y-116840000D03*
X172720000Y-116840000D03*
X175260000Y-114300000D03*
X172720000Y-114300000D03*
X88900000Y-158750000D03*
X88900000Y-156210000D03*
X91440000Y-158750000D03*
X91440000Y-156210000D03*
X93980000Y-158750000D03*
X93980000Y-156210000D03*
X96520000Y-158750000D03*
X96520000Y-156210000D03*
X99060000Y-158750000D03*
X99060000Y-156210000D03*
X101600000Y-158750000D03*
X101600000Y-156210000D03*
X104140000Y-158750000D03*
X104140000Y-156210000D03*
X106680000Y-158750000D03*
X106680000Y-156210000D03*
X109220000Y-158750000D03*
X109220000Y-156210000D03*
X111760000Y-158750000D03*
X111760000Y-156210000D03*
X114300000Y-158750000D03*
X114300000Y-156210000D03*
X116840000Y-158750000D03*
X116840000Y-156210000D03*
X119380000Y-158750000D03*
X119380000Y-156210000D03*
X121920000Y-158750000D03*
X121920000Y-156210000D03*
X124460000Y-158750000D03*
X124460000Y-156210000D03*
X127000000Y-158750000D03*
X127000000Y-156210000D03*
X129540000Y-158750000D03*
X129540000Y-156210000D03*
D12*
X90170000Y-39370000D03*
X90170000Y-46990000D03*
X93980000Y-66040000D03*
X93980000Y-58420000D03*
X93980000Y-39370000D03*
X93980000Y-46990000D03*
X99060000Y-66040000D03*
X99060000Y-58420000D03*
X97790000Y-39370000D03*
X97790000Y-46990000D03*
X102870000Y-66040000D03*
X102870000Y-58420000D03*
X101600000Y-39370000D03*
X101600000Y-46990000D03*
X106680000Y-66040000D03*
X106680000Y-58420000D03*
X105410000Y-39370000D03*
X105410000Y-46990000D03*
X110490000Y-66040000D03*
X110490000Y-58420000D03*
X109220000Y-39370000D03*
X109220000Y-46990000D03*
X114300000Y-66040000D03*
X114300000Y-58420000D03*
X113030000Y-39370000D03*
X113030000Y-46990000D03*
X118110000Y-66040000D03*
X118110000Y-58420000D03*
X116840000Y-39370000D03*
X116840000Y-46990000D03*
X121920000Y-66040000D03*
X121920000Y-58420000D03*
X120650000Y-39370000D03*
X120650000Y-46990000D03*
X125730000Y-66040000D03*
X125730000Y-58420000D03*
X124460000Y-39370000D03*
X124460000Y-46990000D03*
X129540000Y-66040000D03*
X129540000Y-58420000D03*
X128270000Y-39370000D03*
X128270000Y-46990000D03*
X133350000Y-66040000D03*
X133350000Y-58420000D03*
X132080000Y-39370000D03*
X132080000Y-46990000D03*
X137160000Y-66040000D03*
X137160000Y-58420000D03*
X135890000Y-39370000D03*
X135890000Y-46990000D03*
X140970000Y-66040000D03*
X140970000Y-58420000D03*
X139700000Y-39370000D03*
X139700000Y-46990000D03*
X144780000Y-66040000D03*
X144780000Y-58420000D03*
X143510000Y-39370000D03*
X143510000Y-46990000D03*
X148590000Y-66040000D03*
X148590000Y-58420000D03*
X147320000Y-39370000D03*
X147320000Y-46990000D03*
X107873800Y-126187200D03*
X107873800Y-136347200D03*
X119405400Y-125984000D03*
X119405400Y-136144000D03*
X123520200Y-84302600D03*
X123520200Y-94462600D03*
X135407400Y-94183200D03*
X135407400Y-84023200D03*
X104394000Y-110617000D03*
X104394000Y-120777000D03*
X116713000Y-110490000D03*
X116713000Y-120650000D03*
X62230000Y-91440000D03*
X62230000Y-81280000D03*
X72390000Y-81280000D03*
X72390000Y-91440000D03*
X104394000Y-96393000D03*
X104394000Y-106553000D03*
X116713000Y-96012000D03*
X116713000Y-106172000D03*
X104495600Y-81280000D03*
X104495600Y-91440000D03*
X116687600Y-91440000D03*
X116687600Y-81280000D03*
X88519000Y-118237000D03*
X88519000Y-128397000D03*
X99060000Y-118491000D03*
X99060000Y-128651000D03*
X62230000Y-67310000D03*
X62230000Y-77470000D03*
X72390000Y-67310000D03*
X72390000Y-77470000D03*
X62230000Y-96520000D03*
X62230000Y-106680000D03*
X72390000Y-106680000D03*
X72390000Y-96520000D03*
X62230000Y-110490000D03*
X62230000Y-120650000D03*
X72390000Y-110490000D03*
X72390000Y-120650000D03*
X62230000Y-124460000D03*
X62230000Y-134620000D03*
X72390000Y-124460000D03*
X72390000Y-134620000D03*
X62230000Y-53340000D03*
X62230000Y-63500000D03*
X72390000Y-53340000D03*
X72390000Y-63500000D03*
X86385400Y-89941400D03*
X86385400Y-100101400D03*
X95605600Y-89865200D03*
X95605600Y-100025200D03*
X83947000Y-102514400D03*
X83947000Y-112674400D03*
X95554800Y-102870000D03*
X95554800Y-113030000D03*
X86309200Y-76276200D03*
X86309200Y-86436200D03*
X95605600Y-86588600D03*
X95605600Y-76428600D03*
X62230000Y-39370000D03*
X62230000Y-49530000D03*
X72390000Y-49530000D03*
X72390000Y-39370000D03*
X90170000Y-66040000D03*
X90170000Y-58420000D03*
D14*
X69215000Y-99237800D03*
X67945000Y-99237800D03*
X66675000Y-99237800D03*
X65405000Y-99237800D03*
X65405000Y-103962200D03*
X66675000Y-103962200D03*
X67945000Y-103962200D03*
X69215000Y-103962200D03*
X112496600Y-83794600D03*
X111226600Y-83794600D03*
X109956600Y-83794600D03*
X108686600Y-83794600D03*
X108686600Y-88519000D03*
X109956600Y-88519000D03*
X111226600Y-88519000D03*
X112496600Y-88519000D03*
X112268000Y-98856800D03*
X110998000Y-98856800D03*
X109728000Y-98856800D03*
X108458000Y-98856800D03*
X108458000Y-103581200D03*
X109728000Y-103581200D03*
X110998000Y-103581200D03*
X112268000Y-103581200D03*
X65405000Y-88722200D03*
X66675000Y-88722200D03*
X67945000Y-88722200D03*
X69215000Y-88722200D03*
X69215000Y-83997800D03*
X67945000Y-83997800D03*
X66675000Y-83997800D03*
X65405000Y-83997800D03*
X69215000Y-42087800D03*
X67945000Y-42087800D03*
X66675000Y-42087800D03*
X65405000Y-42087800D03*
X65405000Y-46812200D03*
X66675000Y-46812200D03*
X67945000Y-46812200D03*
X69215000Y-46812200D03*
X112268000Y-112572800D03*
X110998000Y-112572800D03*
X109728000Y-112572800D03*
X108458000Y-112572800D03*
X108458000Y-117297200D03*
X109728000Y-117297200D03*
X110998000Y-117297200D03*
X112268000Y-117297200D03*
X130962400Y-87299800D03*
X129692400Y-87299800D03*
X128422400Y-87299800D03*
X127152400Y-87299800D03*
X127152400Y-92024200D03*
X128422400Y-92024200D03*
X129692400Y-92024200D03*
X130962400Y-92024200D03*
X115493800Y-128397000D03*
X114223800Y-128397000D03*
X112953800Y-128397000D03*
X111683800Y-128397000D03*
X111683800Y-133121400D03*
X112953800Y-133121400D03*
X114223800Y-133121400D03*
X115493800Y-133121400D03*
X69215000Y-113207800D03*
X67945000Y-113207800D03*
X66675000Y-113207800D03*
X65405000Y-113207800D03*
X65405000Y-117932200D03*
X66675000Y-117932200D03*
X67945000Y-117932200D03*
X69215000Y-117932200D03*
X69215000Y-127177800D03*
X67945000Y-127177800D03*
X66675000Y-127177800D03*
X65405000Y-127177800D03*
X65405000Y-131902200D03*
X66675000Y-131902200D03*
X67945000Y-131902200D03*
X69215000Y-131902200D03*
X69215000Y-56057800D03*
X67945000Y-56057800D03*
X66675000Y-56057800D03*
X65405000Y-56057800D03*
X65405000Y-60782200D03*
X66675000Y-60782200D03*
X67945000Y-60782200D03*
X69215000Y-60782200D03*
X92964000Y-92125800D03*
X91694000Y-92125800D03*
X90424000Y-92125800D03*
X89154000Y-92125800D03*
X89154000Y-96850200D03*
X90424000Y-96850200D03*
X91694000Y-96850200D03*
X92964000Y-96850200D03*
X91262200Y-105308400D03*
X89992200Y-105308400D03*
X88722200Y-105308400D03*
X87452200Y-105308400D03*
X87452200Y-110032800D03*
X88722200Y-110032800D03*
X89992200Y-110032800D03*
X91262200Y-110032800D03*
X92887800Y-79019400D03*
X91617800Y-79019400D03*
X90347800Y-79019400D03*
X89077800Y-79019400D03*
X89077800Y-83743800D03*
X90347800Y-83743800D03*
X91617800Y-83743800D03*
X92887800Y-83743800D03*
X69215000Y-70027800D03*
X67945000Y-70027800D03*
X66675000Y-70027800D03*
X65405000Y-70027800D03*
X65405000Y-74752200D03*
X66675000Y-74752200D03*
X67945000Y-74752200D03*
X69215000Y-74752200D03*
X95504000Y-121208800D03*
X94234000Y-121208800D03*
X92964000Y-121208800D03*
X91694000Y-121208800D03*
X91694000Y-125933200D03*
X92964000Y-125933200D03*
X94234000Y-125933200D03*
X95504000Y-125933200D03*
D15*
X95326200Y-138125200D03*
X95326200Y-138734800D03*
X95326200Y-139395200D03*
X95326200Y-140004800D03*
X95326200Y-140665200D03*
X95326200Y-141274800D03*
X95326200Y-141935200D03*
X95326200Y-142544800D03*
X95326200Y-143205200D03*
X95326200Y-143814800D03*
X95326200Y-144475200D03*
X95326200Y-145084800D03*
X95326200Y-145745200D03*
X95326200Y-146354800D03*
X100253800Y-146354800D03*
X100253800Y-145745200D03*
X100253800Y-145084800D03*
X100253800Y-144475200D03*
X100253800Y-143814800D03*
X100253800Y-143205200D03*
X100253800Y-142544800D03*
X100253800Y-141935200D03*
X100253800Y-141274800D03*
X100253800Y-140665200D03*
X100253800Y-140004800D03*
X100253800Y-139395200D03*
X100253800Y-138734800D03*
X100253800Y-138125200D03*
D11*
X158978600Y-82372200D03*
X159639000Y-82372200D03*
X160274000Y-82372200D03*
X160934400Y-82372200D03*
X161594800Y-82372200D03*
X162229800Y-82372200D03*
X162890200Y-82372200D03*
X163525200Y-82372200D03*
X164185600Y-82372200D03*
X164846000Y-82372200D03*
X165481000Y-82372200D03*
X166141400Y-82372200D03*
X166141400Y-75107800D03*
X165481000Y-75107800D03*
X164846000Y-75107800D03*
X164185600Y-75107800D03*
X163525200Y-75107800D03*
X162890200Y-75107800D03*
X162229800Y-75107800D03*
X161594800Y-75107800D03*
X160934400Y-75107800D03*
X160274000Y-75107800D03*
X159639000Y-75107800D03*
X158978600Y-75107800D03*
X183108600Y-135712200D03*
X183769000Y-135712200D03*
X184404000Y-135712200D03*
X185064400Y-135712200D03*
X185724800Y-135712200D03*
X186359800Y-135712200D03*
X187020200Y-135712200D03*
X187655200Y-135712200D03*
X188315600Y-135712200D03*
X188976000Y-135712200D03*
X189611000Y-135712200D03*
X190271400Y-135712200D03*
X190271400Y-128447800D03*
X189611000Y-128447800D03*
X188976000Y-128447800D03*
X188315600Y-128447800D03*
X187655200Y-128447800D03*
X187020200Y-128447800D03*
X186359800Y-128447800D03*
X185724800Y-128447800D03*
X185064400Y-128447800D03*
X184404000Y-128447800D03*
X183769000Y-128447800D03*
X183108600Y-128447800D03*
D16*
X102489000Y-141503400D03*
X106756200Y-142544800D03*
X98653600Y-141325600D03*
X100914200Y-136956800D03*
X97790000Y-140970000D03*
X71120000Y-90170000D03*
X102260400Y-139954000D03*
X103682800Y-131241800D03*
X97866200Y-139446000D03*
X102819200Y-130911600D03*
X101219000Y-131241800D03*
X88595200Y-129971800D03*
X99923600Y-133172200D03*
X78841600Y-139750800D03*
X95250000Y-134620000D03*
X80010000Y-135890000D03*
X67310000Y-135890000D03*
X63500000Y-106680000D03*
X80010000Y-137160000D03*
X67310000Y-137160000D03*
X93980000Y-135890000D03*
X92710000Y-138430000D03*
X80010000Y-138430000D03*
X67310000Y-138430000D03*
X62230000Y-137160000D03*
X92710000Y-139700000D03*
X80010000Y-139700000D03*
X80010000Y-142240000D03*
X63500000Y-64770000D03*
X85775800Y-131851400D03*
X85699600Y-101650800D03*
X88366600Y-87147400D03*
X96748600Y-132410200D03*
X92710000Y-142240000D03*
X66040000Y-95250000D03*
X66040000Y-91440000D03*
X63500000Y-50800000D03*
X103987600Y-150545800D03*
X106553000Y-145669000D03*
X146202400Y-129717800D03*
X152501600Y-133934200D03*
X156210000Y-131546600D03*
X131826000Y-78892400D03*
X136296400Y-78130400D03*
X154889200Y-72694800D03*
X157581600Y-72821800D03*
X123367800Y-99720400D03*
X115036600Y-139573000D03*
X109575600Y-135229600D03*
X128828800Y-89281000D03*
X124790200Y-82067400D03*
X122351800Y-79552800D03*
X119176800Y-81813400D03*
X110540800Y-119862600D03*
X113360200Y-106121200D03*
X111937800Y-93878400D03*
X103047800Y-86131400D03*
X93294200Y-86004400D03*
X90398600Y-127914400D03*
X90271600Y-121767600D03*
X83058000Y-136728200D03*
X86639400Y-136855200D03*
X90297000Y-101473000D03*
X88798400Y-112318800D03*
X90068400Y-99466400D03*
X91694000Y-88620600D03*
X76123800Y-91363800D03*
X67310000Y-134620000D03*
X66040000Y-124460000D03*
X67310000Y-120650000D03*
X67310000Y-123190000D03*
X73660000Y-104140000D03*
X73660000Y-93980000D03*
X67310000Y-82550000D03*
X67310000Y-80010000D03*
X71120000Y-77470000D03*
X71120000Y-71120000D03*
X69850000Y-53340000D03*
X69850000Y-63500000D03*
X158750000Y-77470000D03*
X181610000Y-74930000D03*
X156210000Y-123190000D03*
X166370000Y-128270000D03*
X140970000Y-111760000D03*
X121920000Y-120650000D03*
X116840000Y-125730000D03*
X114300000Y-123190000D03*
X113030000Y-110490000D03*
X115570000Y-106680000D03*
X115570000Y-100330000D03*
X115570000Y-92710000D03*
X107950000Y-82550000D03*
X106680000Y-140970000D03*
X109220000Y-146050000D03*
X149860000Y-149860000D03*
X148590000Y-144780000D03*
X139700000Y-146050000D03*
X139700000Y-143510000D03*
X140970000Y-132080000D03*
X152400000Y-100330000D03*
X189661800Y-143230600D03*
X147751800Y-161213800D03*
X165277800Y-143560800D03*
X165176200Y-136220200D03*
X190500000Y-138684000D03*
X192100200Y-122199400D03*
X127330200Y-85547200D03*
X131521200Y-85267800D03*
X139039600Y-89382600D03*
X150672800Y-91617800D03*
X162229800Y-88925400D03*
X165506400Y-89230200D03*
X165633400Y-86918800D03*
X168325800Y-83362800D03*
X109499400Y-125272800D03*
X106375200Y-110845600D03*
X106222800Y-88696800D03*
X107035600Y-92659200D03*
X106984800Y-96215200D03*
X106527600Y-154533600D03*
X104521000Y-85318600D03*
X92481400Y-146151600D03*
X95300800Y-151003000D03*
X95173800Y-154457400D03*
X99796600Y-154660600D03*
X99949000Y-150495000D03*
X100203000Y-148564600D03*
X84861400Y-105054400D03*
X84861400Y-108940600D03*
X87706200Y-114604800D03*
X91440000Y-118084600D03*
X87757000Y-79375000D03*
X89230200Y-90347800D03*
X87528400Y-95935800D03*
X87604600Y-91363800D03*
X85801200Y-94488000D03*
X81229200Y-93624400D03*
X80746600Y-90144600D03*
X76123800Y-90119200D03*
X74295000Y-90652600D03*
X74295000Y-85115400D03*
X64135000Y-125196600D03*
X64058800Y-111760000D03*
X65455800Y-111404400D03*
X64084200Y-97434400D03*
X63474600Y-93268800D03*
X66954400Y-90652600D03*
X64389000Y-57353200D03*
X64846200Y-54000400D03*
X63906400Y-42799000D03*
X66040000Y-68580000D03*
X72390000Y-85090000D03*
X72390000Y-88900000D03*
X69850000Y-90170000D03*
X114909600Y-111531400D03*
X114884200Y-115900200D03*
X118491000Y-110769400D03*
X121742200Y-111226600D03*
X117627400Y-97155000D03*
X118643400Y-107645200D03*
X97434400Y-88747600D03*
X114071400Y-91338400D03*
X81762600Y-133985000D03*
X97510600Y-118516400D03*
X96901000Y-102793800D03*
X100406200Y-102844600D03*
X96901000Y-95935800D03*
X96774000Y-101473000D03*
X73660000Y-111760000D03*
X74930000Y-93980000D03*
X76200000Y-111760000D03*
X72390000Y-80010000D03*
X74930000Y-78740000D03*
X124256800Y-129362200D03*
X145440400Y-44932600D03*
X125171200Y-134797800D03*
X138125200Y-75971400D03*
X126644400Y-82372200D03*
X141630400Y-43027600D03*
X128371600Y-84861400D03*
X129133600Y-82651600D03*
X111556800Y-108407200D03*
X137617200Y-43103800D03*
X67310000Y-86360000D03*
X85090000Y-67310000D03*
X85090000Y-62230000D03*
X86360000Y-40640000D03*
X88900000Y-40640000D03*
X135890000Y-41910000D03*
X113817400Y-94411800D03*
X119075200Y-94386400D03*
X119253000Y-84785200D03*
X132867400Y-44348400D03*
X112471200Y-81661000D03*
X128244600Y-43078400D03*
X97866200Y-122834400D03*
X100177600Y-122809000D03*
X102438200Y-84201000D03*
X124536200Y-42976800D03*
X68580000Y-66040000D03*
X86360000Y-64770000D03*
X86360000Y-62230000D03*
X86360000Y-57150000D03*
X88900000Y-57150000D03*
X120650000Y-45720000D03*
X77470000Y-93980000D03*
X83820000Y-68580000D03*
X83820000Y-62230000D03*
X83820000Y-55880000D03*
X88900000Y-55880000D03*
X113030000Y-52070000D03*
X115570000Y-50800000D03*
X116840000Y-41910000D03*
X73660000Y-113030000D03*
X82550000Y-69850000D03*
X88900000Y-54610000D03*
X113030000Y-41910000D03*
X73660000Y-121920000D03*
X81280000Y-71120000D03*
X88900000Y-53340000D03*
X109220000Y-41910000D03*
X68580000Y-50800000D03*
X74930000Y-50800000D03*
X92862400Y-94437200D03*
X99009200Y-93929200D03*
X108508800Y-78841600D03*
X119354600Y-43764200D03*
X106629200Y-43307000D03*
X101600000Y-43307000D03*
X91262200Y-107340400D03*
X97688400Y-107289600D03*
X108635800Y-77571600D03*
X118694200Y-44805600D03*
X106680000Y-44805600D03*
X97739200Y-43078400D03*
X108458000Y-76276200D03*
X119583200Y-48158400D03*
X106959400Y-45643800D03*
X94056200Y-43027600D03*
X74930000Y-38100000D03*
X90170000Y-60960000D03*
X95681800Y-68072000D03*
X97180400Y-75946000D03*
X100482400Y-82804000D03*
X99085400Y-68453000D03*
X97561400Y-99568000D03*
X100406200Y-99745800D03*
X101650800Y-82600800D03*
X101930200Y-68630800D03*
X74930000Y-63500000D03*
X106680000Y-63500000D03*
X85090000Y-74930000D03*
X110490000Y-74930000D03*
X77470000Y-134620000D03*
X110490000Y-68580000D03*
X73660000Y-120650000D03*
X78740000Y-120650000D03*
X81280000Y-120650000D03*
X85090000Y-73660000D03*
X114300000Y-73660000D03*
X114300000Y-68580000D03*
X82550000Y-95250000D03*
X83820000Y-69850000D03*
X74930000Y-67310000D03*
X73660000Y-69850000D03*
X111379000Y-77749400D03*
X122656600Y-69850000D03*
X117322600Y-79679800D03*
X126720600Y-70078600D03*
X118389400Y-82600800D03*
X128473200Y-69951600D03*
X118110000Y-71120000D03*
X115570000Y-71120000D03*
X82550000Y-71120000D03*
X81280000Y-88900000D03*
X76200000Y-88900000D03*
X72390000Y-90170000D03*
X175260000Y-101600000D03*
X172720000Y-100330000D03*
X165100000Y-100330000D03*
X177800000Y-83820000D03*
X177800000Y-86360000D03*
X162560000Y-96520000D03*
X177800000Y-82550000D03*
X180340000Y-87630000D03*
X170180000Y-83820000D03*
X167640000Y-85090000D03*
X161290000Y-86360000D03*
X170180000Y-78740000D03*
X167640000Y-78740000D03*
X163830000Y-80010000D03*
X176530000Y-87630000D03*
X168910000Y-87630000D03*
X160020000Y-87630000D03*
X161290000Y-80010000D03*
X154940000Y-67310000D03*
X151130000Y-67310000D03*
X151130000Y-73660000D03*
X158750000Y-66040000D03*
X165100000Y-58420000D03*
X156210000Y-58420000D03*
X160020000Y-64770000D03*
X165100000Y-57150000D03*
X157480000Y-57150000D03*
X160020000Y-63500000D03*
X165100000Y-55880000D03*
X158750000Y-55880000D03*
X161290000Y-63500000D03*
X165100000Y-54610000D03*
X160020000Y-54610000D03*
X161290000Y-62230000D03*
X165100000Y-53340000D03*
X161290000Y-53340000D03*
X162560000Y-62230000D03*
X165100000Y-52070000D03*
X162560000Y-52070000D03*
X162560000Y-60960000D03*
X163830000Y-60960000D03*
X181610000Y-88900000D03*
X184150000Y-80010000D03*
X177800000Y-71120000D03*
X177800000Y-68580000D03*
X177800000Y-67310000D03*
X177800000Y-63500000D03*
X177800000Y-62230000D03*
X177800000Y-60960000D03*
X179070000Y-53340000D03*
X187960000Y-64770000D03*
X187960000Y-71120000D03*
X179070000Y-50800000D03*
X189230000Y-66040000D03*
X189230000Y-69850000D03*
X179070000Y-137160000D03*
X182880000Y-133350000D03*
X180340000Y-132080000D03*
X184150000Y-132080000D03*
X181610000Y-130810000D03*
X185420000Y-130810000D03*
X162560000Y-152400000D03*
X160020000Y-149860000D03*
X162560000Y-149860000D03*
X160020000Y-147320000D03*
X162560000Y-147320000D03*
X158750000Y-144780000D03*
X162560000Y-146050000D03*
X158750000Y-143510000D03*
X162560000Y-144780000D03*
X157480000Y-140970000D03*
X162560000Y-139700000D03*
X157480000Y-139700000D03*
X162560000Y-138430000D03*
X156210000Y-138430000D03*
X158750000Y-133350000D03*
X158750000Y-132080000D03*
X173990000Y-132080000D03*
X173990000Y-137160000D03*
X173990000Y-140970000D03*
X167640000Y-153670000D03*
X165100000Y-153670000D03*
X158750000Y-130810000D03*
X158750000Y-127000000D03*
X165100000Y-127000000D03*
X158750000Y-125730000D03*
X162560000Y-125730000D03*
X158750000Y-123190000D03*
X163830000Y-123190000D03*
X160020000Y-124460000D03*
X162560000Y-124460000D03*
X105410000Y-153670000D03*
X92710000Y-153670000D03*
X99060000Y-151130000D03*
X99060000Y-148590000D03*
X102870000Y-143510000D03*
X93980000Y-151130000D03*
X97790000Y-143510000D03*
X97790000Y-151130000D03*
X104140000Y-148590000D03*
X101600000Y-151130000D03*
X82550000Y-160020000D03*
X187960000Y-78740000D03*
X181610000Y-69850000D03*
X185420000Y-115570000D03*
X184150000Y-123190000D03*
X167640000Y-123190000D03*
X166370000Y-130810000D03*
X114300000Y-152400000D03*
X144780000Y-157480000D03*
X151130000Y-151130000D03*
X152400000Y-132080000D03*
X137160000Y-154940000D03*
X147320000Y-148590000D03*
X147320000Y-139700000D03*
X180340000Y-105410000D03*
X187960000Y-80010000D03*
X180340000Y-138430000D03*
X149860000Y-154940000D03*
X144780000Y-140970000D03*
X189230000Y-72390000D03*
X182880000Y-72390000D03*
X190500000Y-80010000D03*
X190500000Y-125730000D03*
X173990000Y-125730000D03*
X193040000Y-142240000D03*
X190500000Y-144780000D03*
X154940000Y-157480000D03*
X146050000Y-148590000D03*
X165100000Y-93980000D03*
X158750000Y-113030000D03*
X168910000Y-130810000D03*
X158750000Y-118110000D03*
X168910000Y-134620000D03*
X179070000Y-140970000D03*
X181610000Y-140970000D03*
X189230000Y-140970000D03*
X173990000Y-80010000D03*
X163830000Y-116840000D03*
X153670000Y-130810000D03*
X149860000Y-140970000D03*
X191770000Y-124460000D03*
X166370000Y-135890000D03*
X152400000Y-143510000D03*
X181610000Y-135890000D03*
X189230000Y-133350000D03*
X156210000Y-77470000D03*
X165100000Y-129540000D03*
X151130000Y-158750000D03*
X143510000Y-151130000D03*
X98348800Y-142570200D03*
X122504200Y-98221800D03*
D17*
X107873800Y-136347200D02*
X107873800Y-141427200D01*
X101447600Y-142544800D02*
X100253800Y-142544800D01*
X102489000Y-141503400D02*
X101447600Y-142544800D01*
X107873800Y-141427200D02*
X106756200Y-142544800D01*
X107873800Y-136347200D02*
X107873800Y-132334000D01*
X112953800Y-131089400D02*
X112953800Y-133121400D01*
X112699800Y-130835400D02*
X112953800Y-131089400D01*
X108889800Y-130835400D02*
X112699800Y-130835400D01*
X107975400Y-131749800D02*
X108889800Y-130835400D01*
X107975400Y-132232400D02*
X107975400Y-131749800D01*
X107873800Y-132334000D02*
X107975400Y-132232400D01*
X104394000Y-120777000D02*
X104394000Y-130378200D01*
X98704400Y-141274800D02*
X100253800Y-141274800D01*
X98653600Y-141325600D02*
X98704400Y-141274800D01*
X102793800Y-136956800D02*
X100914200Y-136956800D01*
X103047800Y-137210800D02*
X102793800Y-136956800D01*
X103047800Y-136347200D02*
X103047800Y-137210800D01*
X104444800Y-134950200D02*
X103047800Y-136347200D01*
X104444800Y-130429000D02*
X104444800Y-134950200D01*
X104394000Y-130378200D02*
X104444800Y-130429000D01*
X104394000Y-120777000D02*
X104394000Y-116357400D01*
X109728000Y-115138200D02*
X109728000Y-117297200D01*
X109601000Y-115011200D02*
X109728000Y-115138200D01*
X105384600Y-115011200D02*
X109601000Y-115011200D01*
X104876600Y-115519200D02*
X105384600Y-115011200D01*
X104876600Y-115874800D02*
X104876600Y-115519200D01*
X104394000Y-116357400D02*
X104876600Y-115874800D01*
X67945000Y-83997800D02*
X67945000Y-85725000D01*
X98094800Y-140665200D02*
X100253800Y-140665200D01*
X97790000Y-140970000D02*
X98094800Y-140665200D01*
X71120000Y-86360000D02*
X71120000Y-90170000D01*
X68580000Y-86360000D02*
X71120000Y-86360000D01*
X67945000Y-85725000D02*
X68580000Y-86360000D01*
X62230000Y-81280000D02*
X67310000Y-81280000D01*
X67945000Y-81915000D02*
X67945000Y-83997800D01*
X67310000Y-81280000D02*
X67945000Y-81915000D01*
X102209600Y-140004800D02*
X100253800Y-140004800D01*
X102260400Y-139954000D02*
X102209600Y-140004800D01*
X103682800Y-130276600D02*
X103682800Y-131241800D01*
X102971600Y-129565400D02*
X103682800Y-130276600D01*
X102971600Y-108407200D02*
X102971600Y-129565400D01*
X104394000Y-106984800D02*
X102971600Y-108407200D01*
X104394000Y-106553000D02*
X104394000Y-106984800D01*
X104394000Y-106553000D02*
X104394000Y-102768400D01*
X109728000Y-101396800D02*
X109728000Y-103581200D01*
X109575600Y-101244400D02*
X109728000Y-101396800D01*
X105740200Y-101244400D02*
X109575600Y-101244400D01*
X104775000Y-102209600D02*
X105740200Y-101244400D01*
X104775000Y-102387400D02*
X104775000Y-102209600D01*
X104394000Y-102768400D02*
X104775000Y-102387400D01*
X104495600Y-91440000D02*
X103632000Y-91440000D01*
X97917000Y-139395200D02*
X100253800Y-139395200D01*
X97866200Y-139446000D02*
X97917000Y-139395200D01*
X102819200Y-130327400D02*
X102819200Y-130911600D01*
X102489000Y-129997200D02*
X102819200Y-130327400D01*
X102489000Y-103225600D02*
X102489000Y-129997200D01*
X102438200Y-103174800D02*
X102489000Y-103225600D01*
X102438200Y-92633800D02*
X102438200Y-103174800D01*
X103632000Y-91440000D02*
X102438200Y-92633800D01*
X104495600Y-91440000D02*
X104495600Y-87376000D01*
X109956600Y-87299800D02*
X109956600Y-88519000D01*
X109728000Y-87071200D02*
X109956600Y-87299800D01*
X104800400Y-87071200D02*
X109728000Y-87071200D01*
X104495600Y-87376000D02*
X104800400Y-87071200D01*
X88519000Y-128397000D02*
X88519000Y-129895600D01*
X97586800Y-138734800D02*
X100253800Y-138734800D01*
X97459800Y-138607800D02*
X97586800Y-138734800D01*
X97459800Y-132969000D02*
X97459800Y-138607800D01*
X98018600Y-132410200D02*
X97459800Y-132969000D01*
X100050600Y-132410200D02*
X98018600Y-132410200D01*
X101219000Y-131241800D02*
X100050600Y-132410200D01*
X88519000Y-129895600D02*
X88595200Y-129971800D01*
X88519000Y-128397000D02*
X88519000Y-124968000D01*
X92964000Y-124231400D02*
X92964000Y-125933200D01*
X92557600Y-123825000D02*
X92964000Y-124231400D01*
X89154000Y-123825000D02*
X92557600Y-123825000D01*
X88798400Y-124180600D02*
X89154000Y-123825000D01*
X88798400Y-124688600D02*
X88798400Y-124180600D01*
X88519000Y-124968000D02*
X88798400Y-124688600D01*
X66675000Y-74752200D02*
X66675000Y-77114400D01*
X100253800Y-133502400D02*
X100253800Y-138125200D01*
X99923600Y-133172200D02*
X100253800Y-133502400D01*
X63017400Y-139750800D02*
X78841600Y-139750800D01*
X60579000Y-137312400D02*
X63017400Y-139750800D01*
X60579000Y-80060800D02*
X60579000Y-137312400D01*
X61391800Y-79248000D02*
X60579000Y-80060800D01*
X64541400Y-79248000D02*
X61391800Y-79248000D01*
X66675000Y-77114400D02*
X64541400Y-79248000D01*
X62230000Y-77470000D02*
X62230000Y-73660000D01*
X66675000Y-73025000D02*
X66675000Y-74752200D01*
X66040000Y-72390000D02*
X66675000Y-73025000D01*
X63500000Y-72390000D02*
X66040000Y-72390000D01*
X62230000Y-73660000D02*
X63500000Y-72390000D01*
X62230000Y-106680000D02*
X63500000Y-106680000D01*
X95326200Y-134696200D02*
X95326200Y-138125200D01*
X95250000Y-134620000D02*
X95326200Y-134696200D01*
X67310000Y-135890000D02*
X80010000Y-135890000D01*
X62230000Y-106680000D02*
X62230000Y-102870000D01*
X66675000Y-102235000D02*
X66675000Y-103962200D01*
X66040000Y-101600000D02*
X66675000Y-102235000D01*
X63500000Y-101600000D02*
X66040000Y-101600000D01*
X62230000Y-102870000D02*
X63500000Y-101600000D01*
X67310000Y-137160000D02*
X80010000Y-137160000D01*
X94284800Y-138734800D02*
X95326200Y-138734800D01*
X93980000Y-138430000D02*
X94284800Y-138734800D01*
X93980000Y-135890000D02*
X93980000Y-138430000D01*
X62230000Y-120650000D02*
X62230000Y-116840000D01*
X66675000Y-116205000D02*
X66675000Y-117932200D01*
X66040000Y-115570000D02*
X66675000Y-116205000D01*
X63500000Y-115570000D02*
X66040000Y-115570000D01*
X62230000Y-116840000D02*
X63500000Y-115570000D01*
X62230000Y-134620000D02*
X66040000Y-134620000D01*
X66675000Y-133985000D02*
X66675000Y-131902200D01*
X66040000Y-134620000D02*
X66675000Y-133985000D01*
X62230000Y-134620000D02*
X62230000Y-137160000D01*
X93675200Y-139395200D02*
X95326200Y-139395200D01*
X92710000Y-138430000D02*
X93675200Y-139395200D01*
X67310000Y-138430000D02*
X80010000Y-138430000D01*
X62230000Y-63500000D02*
X63500000Y-64770000D01*
X93014800Y-140004800D02*
X95326200Y-140004800D01*
X92710000Y-139700000D02*
X93014800Y-140004800D01*
X80010000Y-142240000D02*
X80010000Y-139700000D01*
X62230000Y-63500000D02*
X62230000Y-58420000D01*
X66675000Y-59055000D02*
X66675000Y-60782200D01*
X66040000Y-58420000D02*
X66675000Y-59055000D01*
X62230000Y-58420000D02*
X66040000Y-58420000D01*
X86385400Y-100101400D02*
X86385400Y-95681800D01*
X90424000Y-95199200D02*
X90424000Y-96850200D01*
X89992200Y-94767400D02*
X90424000Y-95199200D01*
X86639400Y-94767400D02*
X89992200Y-94767400D01*
X86588600Y-94818200D02*
X86639400Y-94767400D01*
X86588600Y-95478600D02*
X86588600Y-94818200D01*
X86385400Y-95681800D02*
X86588600Y-95478600D01*
X86385400Y-100101400D02*
X86385400Y-100965000D01*
X93903800Y-140665200D02*
X95326200Y-140665200D01*
X93776800Y-140538200D02*
X93903800Y-140665200D01*
X85725000Y-140538200D02*
X93776800Y-140538200D01*
X85598000Y-140411200D02*
X85725000Y-140538200D01*
X85598000Y-132029200D02*
X85598000Y-140411200D01*
X85775800Y-131851400D02*
X85598000Y-132029200D01*
X86385400Y-100965000D02*
X85699600Y-101650800D01*
X83947000Y-112674400D02*
X83947000Y-140919200D01*
X93624400Y-141274800D02*
X95326200Y-141274800D01*
X93294200Y-141605000D02*
X93624400Y-141274800D01*
X84632800Y-141605000D02*
X93294200Y-141605000D01*
X83947000Y-140919200D02*
X84632800Y-141605000D01*
X83947000Y-112674400D02*
X83947000Y-108915200D01*
X88722200Y-108153200D02*
X88722200Y-110032800D01*
X88366600Y-107797600D02*
X88722200Y-108153200D01*
X84480400Y-107797600D02*
X88366600Y-107797600D01*
X84023200Y-108254800D02*
X84480400Y-107797600D01*
X84023200Y-108839000D02*
X84023200Y-108254800D01*
X83947000Y-108915200D02*
X84023200Y-108839000D01*
X95326200Y-141935200D02*
X96951800Y-141935200D01*
X87655400Y-86436200D02*
X86309200Y-86436200D01*
X88366600Y-87147400D02*
X87655400Y-86436200D01*
X96748600Y-141732000D02*
X96748600Y-132410200D01*
X96951800Y-141935200D02*
X96748600Y-141732000D01*
X86309200Y-86436200D02*
X86309200Y-82626200D01*
X90347800Y-82143600D02*
X90347800Y-83743800D01*
X89890600Y-81686400D02*
X90347800Y-82143600D01*
X86842600Y-81686400D02*
X89890600Y-81686400D01*
X86283800Y-82245200D02*
X86842600Y-81686400D01*
X86283800Y-82600800D02*
X86283800Y-82245200D01*
X86309200Y-82626200D02*
X86283800Y-82600800D01*
X63500000Y-49530000D02*
X63500000Y-50800000D01*
X93014800Y-142544800D02*
X95326200Y-142544800D01*
X92710000Y-142240000D02*
X93014800Y-142544800D01*
X66040000Y-91440000D02*
X66040000Y-95250000D01*
X62230000Y-49530000D02*
X63500000Y-49530000D01*
X63500000Y-49530000D02*
X66040000Y-49530000D01*
X66675000Y-48895000D02*
X66675000Y-46812200D01*
X66040000Y-49530000D02*
X66675000Y-48895000D01*
X111810800Y-142570200D02*
X109651800Y-142570200D01*
X103949500Y-150583900D02*
X103949500Y-152209500D01*
X103987600Y-150545800D02*
X103949500Y-150583900D01*
X109651800Y-142570200D02*
X106553000Y-145669000D01*
X116179600Y-142697200D02*
X111937800Y-142697200D01*
X111937800Y-142697200D02*
X111810800Y-142570200D01*
X156438600Y-128447800D02*
X156438600Y-131318000D01*
X148285200Y-129717800D02*
X146202400Y-129717800D01*
X152501600Y-133934200D02*
X148285200Y-129717800D01*
X156438600Y-131318000D02*
X156210000Y-131546600D01*
X158978600Y-75107800D02*
X158978600Y-74218800D01*
X126111000Y-80746600D02*
X124790200Y-82067400D01*
X129971800Y-80746600D02*
X126111000Y-80746600D01*
X131826000Y-78892400D02*
X129971800Y-80746600D01*
X138734800Y-78130400D02*
X136296400Y-78130400D01*
X139242800Y-77622400D02*
X138734800Y-78130400D01*
X139242800Y-74955400D02*
X139242800Y-77622400D01*
X141554200Y-72644000D02*
X139242800Y-74955400D01*
X154838400Y-72644000D02*
X141554200Y-72644000D01*
X154889200Y-72694800D02*
X154838400Y-72644000D01*
X158978600Y-74218800D02*
X157581600Y-72821800D01*
X129692400Y-92024200D02*
X129692400Y-93395800D01*
X129692400Y-93395800D02*
X123367800Y-99720400D01*
X113665000Y-138201400D02*
X113665000Y-135229600D01*
X115036600Y-139573000D02*
X113665000Y-138201400D01*
X114223800Y-133121400D02*
X114223800Y-134670800D01*
X114223800Y-134670800D02*
X113665000Y-135229600D01*
X113665000Y-135229600D02*
X109575600Y-135229600D01*
X129692400Y-92024200D02*
X129692400Y-90144600D01*
X129692400Y-90144600D02*
X128828800Y-89281000D01*
X111226600Y-86969600D02*
X111226600Y-87401400D01*
X124790200Y-82067400D02*
X122351800Y-79629000D01*
X122351800Y-79629000D02*
X122351800Y-79552800D01*
X119176800Y-81813400D02*
X119100600Y-81737200D01*
X119100600Y-81737200D02*
X118033800Y-81737200D01*
X118033800Y-81737200D02*
X117475000Y-82296000D01*
X117475000Y-82296000D02*
X117475000Y-84378800D01*
X117475000Y-84378800D02*
X115138200Y-86715600D01*
X115138200Y-86715600D02*
X111480600Y-86715600D01*
X111480600Y-86715600D02*
X111226600Y-86969600D01*
X110998000Y-117297200D02*
X110998000Y-119405400D01*
X110998000Y-119405400D02*
X110540800Y-119862600D01*
X111226600Y-88519000D02*
X111226600Y-93167200D01*
X110998000Y-105740200D02*
X110998000Y-103581200D01*
X111404400Y-106146600D02*
X110998000Y-105740200D01*
X113334800Y-106146600D02*
X111404400Y-106146600D01*
X113360200Y-106121200D02*
X113334800Y-106146600D01*
X111226600Y-93167200D02*
X111937800Y-93878400D01*
X111226600Y-88519000D02*
X111226600Y-87579200D01*
X111226600Y-87579200D02*
X109778800Y-86131400D01*
X109778800Y-86131400D02*
X103047800Y-86131400D01*
X93294200Y-86004400D02*
X92303600Y-86995000D01*
X92303600Y-86995000D02*
X91617800Y-86995000D01*
X89992200Y-110032800D02*
X89992200Y-113131600D01*
X90576400Y-128092200D02*
X90576400Y-130479800D01*
X90398600Y-127914400D02*
X90576400Y-128092200D01*
X90271600Y-113411000D02*
X90271600Y-121767600D01*
X89992200Y-113131600D02*
X90271600Y-113411000D01*
X94234000Y-125933200D02*
X94234000Y-126822200D01*
X94234000Y-126822200D02*
X90576400Y-130479800D01*
X90576400Y-130479800D02*
X90576400Y-136398000D01*
X83667600Y-143510000D02*
X87630000Y-143510000D01*
X82600800Y-142443200D02*
X83667600Y-143510000D01*
X82600800Y-137185400D02*
X82600800Y-142443200D01*
X83058000Y-136728200D02*
X82600800Y-137185400D01*
X90119200Y-136855200D02*
X86639400Y-136855200D01*
X90576400Y-136398000D02*
X90119200Y-136855200D01*
X89992200Y-110032800D02*
X89992200Y-111125000D01*
X90068400Y-101244400D02*
X90068400Y-99466400D01*
X90297000Y-101473000D02*
X90068400Y-101244400D01*
X89992200Y-111125000D02*
X88798400Y-112318800D01*
X91694000Y-96850200D02*
X91694000Y-97840800D01*
X91694000Y-97840800D02*
X90068400Y-99466400D01*
X91694000Y-88620600D02*
X91617800Y-88544400D01*
X91617800Y-88544400D02*
X91617800Y-86995000D01*
X91617800Y-83743800D02*
X91617800Y-86995000D01*
X91617800Y-86995000D02*
X91617800Y-87045800D01*
X80645000Y-91363800D02*
X76123800Y-91363800D01*
X83769200Y-88239600D02*
X80645000Y-91363800D01*
X90424000Y-88239600D02*
X83769200Y-88239600D01*
X91617800Y-87045800D02*
X90424000Y-88239600D01*
X67310000Y-123190000D02*
X66040000Y-124460000D01*
X67945000Y-133985000D02*
X67945000Y-131902200D01*
X67310000Y-134620000D02*
X67945000Y-133985000D01*
X73660000Y-104140000D02*
X73660000Y-110490000D01*
X67945000Y-120015000D02*
X67945000Y-117932200D01*
X67310000Y-120650000D02*
X67945000Y-120015000D01*
X74930000Y-123190000D02*
X67310000Y-123190000D01*
X74930000Y-111760000D02*
X74930000Y-123190000D01*
X73660000Y-110490000D02*
X74930000Y-111760000D01*
X71120000Y-78740000D02*
X72390000Y-78740000D01*
X67945000Y-106045000D02*
X67945000Y-103962200D01*
X68580000Y-106680000D02*
X67945000Y-106045000D01*
X71120000Y-106680000D02*
X68580000Y-106680000D01*
X71120000Y-104140000D02*
X71120000Y-106680000D01*
X73660000Y-104140000D02*
X71120000Y-104140000D01*
X73660000Y-80010000D02*
X73660000Y-93980000D01*
X72390000Y-78740000D02*
X73660000Y-80010000D01*
X71120000Y-77470000D02*
X71120000Y-78740000D01*
X67310000Y-82550000D02*
X66675000Y-83185000D01*
X69850000Y-80010000D02*
X67310000Y-80010000D01*
X71120000Y-78740000D02*
X69850000Y-80010000D01*
X66675000Y-83185000D02*
X66675000Y-83997800D01*
X69850000Y-63500000D02*
X69850000Y-67310000D01*
X67945000Y-76835000D02*
X67945000Y-74752200D01*
X68580000Y-77470000D02*
X67945000Y-76835000D01*
X71120000Y-77470000D02*
X68580000Y-77470000D01*
X71120000Y-68580000D02*
X71120000Y-71120000D01*
X69850000Y-67310000D02*
X71120000Y-68580000D01*
X67945000Y-46812200D02*
X67945000Y-47625000D01*
X67945000Y-47625000D02*
X69850000Y-49530000D01*
X69850000Y-49530000D02*
X69850000Y-53340000D01*
X69850000Y-63500000D02*
X68580000Y-63500000D01*
X68580000Y-63500000D02*
X67945000Y-62865000D01*
X67945000Y-62865000D02*
X67945000Y-60782200D01*
X183108600Y-75107800D02*
X181787800Y-75107800D01*
X158978600Y-77241400D02*
X158978600Y-75107800D01*
X158750000Y-77470000D02*
X158978600Y-77241400D01*
X181787800Y-75107800D02*
X181610000Y-74930000D01*
X95326200Y-144475200D02*
X87630000Y-144475200D01*
X104140000Y-156210000D02*
X104140000Y-152400000D01*
X104140000Y-152400000D02*
X103949500Y-152209500D01*
X87934800Y-143205200D02*
X95326200Y-143205200D01*
X87630000Y-143510000D02*
X87934800Y-143205200D01*
X87630000Y-144780000D02*
X87630000Y-144475200D01*
X103949500Y-152209500D02*
X101600000Y-149860000D01*
X101600000Y-149860000D02*
X92710000Y-149860000D01*
X92710000Y-149860000D02*
X87630000Y-144780000D01*
X87630000Y-144475200D02*
X87630000Y-143510000D01*
X183108600Y-128447800D02*
X166547800Y-128447800D01*
X156438600Y-123418600D02*
X156438600Y-128447800D01*
X156210000Y-123190000D02*
X156438600Y-123418600D01*
X166547800Y-128447800D02*
X166370000Y-128270000D01*
X108686600Y-83794600D02*
X108686600Y-83286600D01*
X108686600Y-83286600D02*
X107950000Y-82550000D01*
X130810000Y-111760000D02*
X140970000Y-111760000D01*
X121920000Y-120650000D02*
X130810000Y-111760000D01*
X114300000Y-123190000D02*
X116840000Y-125730000D01*
X114300000Y-110490000D02*
X113030000Y-110490000D01*
X115570000Y-109220000D02*
X114300000Y-110490000D01*
X115570000Y-106680000D02*
X115570000Y-109220000D01*
X115570000Y-92710000D02*
X115570000Y-100330000D01*
X111480600Y-147320000D02*
X109220000Y-147320000D01*
X109588300Y-126631700D02*
X105410000Y-130810000D01*
X105410000Y-130810000D02*
X105410000Y-139700000D01*
X105410000Y-139700000D02*
X106680000Y-140970000D01*
X109220000Y-146050000D02*
X109220000Y-147320000D01*
X109588300Y-126631700D02*
X109588300Y-125361700D01*
X111480600Y-147320000D02*
X111810800Y-147650200D01*
X162229800Y-88925400D02*
X162229800Y-90500200D01*
X152400000Y-149860000D02*
X152400000Y-156260800D01*
X149860000Y-149860000D02*
X152400000Y-149860000D01*
X147320000Y-146050000D02*
X148590000Y-144780000D01*
X139700000Y-146050000D02*
X147320000Y-146050000D01*
X139700000Y-133350000D02*
X139700000Y-143510000D01*
X140970000Y-132080000D02*
X139700000Y-133350000D01*
X162229800Y-90500200D02*
X152400000Y-100330000D01*
X111810800Y-147650200D02*
X108610400Y-147650200D01*
X106527600Y-149733000D02*
X106527600Y-154533600D01*
X108610400Y-147650200D02*
X106527600Y-149733000D01*
X116179600Y-147777200D02*
X111937800Y-147777200D01*
X111937800Y-147777200D02*
X111810800Y-147650200D01*
X190500000Y-138684000D02*
X190500000Y-142392400D01*
X190500000Y-142392400D02*
X189661800Y-143230600D01*
X147751800Y-161213800D02*
X148488400Y-160477200D01*
X148488400Y-160477200D02*
X148488400Y-160172400D01*
X148488400Y-160172400D02*
X152400000Y-156260800D01*
X164668200Y-135712200D02*
X163601400Y-135712200D01*
X152400000Y-156260800D02*
X152679400Y-155981400D01*
X152679400Y-155981400D02*
X160477200Y-155981400D01*
X160477200Y-155981400D02*
X161290000Y-156794200D01*
X161290000Y-156794200D02*
X173532800Y-156794200D01*
X173532800Y-156794200D02*
X173964600Y-156362400D01*
X173964600Y-156362400D02*
X173964600Y-143891000D01*
X173964600Y-143891000D02*
X173634400Y-143560800D01*
X173634400Y-143560800D02*
X165277800Y-143560800D01*
X165176200Y-136220200D02*
X164668200Y-135712200D01*
X190271400Y-82372200D02*
X190271400Y-85318600D01*
X190271400Y-138455400D02*
X190271400Y-135712200D01*
X190500000Y-138684000D02*
X190271400Y-138455400D01*
X192100200Y-87147400D02*
X192100200Y-122199400D01*
X190271400Y-85318600D02*
X192100200Y-87147400D01*
X166141400Y-82372200D02*
X167335200Y-82372200D01*
X127152400Y-85725000D02*
X127152400Y-87299800D01*
X127330200Y-85547200D02*
X127152400Y-85725000D01*
X134112000Y-87858600D02*
X131521200Y-85267800D01*
X137515600Y-87858600D02*
X134112000Y-87858600D01*
X139039600Y-89382600D02*
X137515600Y-87858600D01*
X159537400Y-91617800D02*
X150672800Y-91617800D01*
X162229800Y-88925400D02*
X159537400Y-91617800D01*
X165506400Y-87045800D02*
X165506400Y-89230200D01*
X165633400Y-86918800D02*
X165506400Y-87045800D01*
X167335200Y-82372200D02*
X168325800Y-83362800D01*
X111683800Y-128397000D02*
X111683800Y-127457200D01*
X111683800Y-127457200D02*
X109588300Y-125361700D01*
X109588300Y-125361700D02*
X109499400Y-125272800D01*
X108458000Y-112572800D02*
X108102400Y-112572800D01*
X108102400Y-112572800D02*
X106375200Y-110845600D01*
X108458000Y-98856800D02*
X108458000Y-97688400D01*
X106222800Y-91846400D02*
X106222800Y-88696800D01*
X107035600Y-92659200D02*
X106222800Y-91846400D01*
X108458000Y-97688400D02*
X106984800Y-96215200D01*
X106680000Y-156210000D02*
X106680000Y-154686000D01*
X106680000Y-154686000D02*
X106527600Y-154533600D01*
X108686600Y-83794600D02*
X106045000Y-83794600D01*
X106045000Y-83794600D02*
X104521000Y-85318600D01*
X95326200Y-145084800D02*
X96824800Y-145084800D01*
X96977200Y-143814800D02*
X95326200Y-143814800D01*
X97002600Y-143840200D02*
X96977200Y-143814800D01*
X97002600Y-144907000D02*
X97002600Y-143840200D01*
X96824800Y-145084800D02*
X97002600Y-144907000D01*
X100253800Y-146354800D02*
X100253800Y-148513800D01*
X93548200Y-145084800D02*
X95326200Y-145084800D01*
X92481400Y-146151600D02*
X93548200Y-145084800D01*
X95300800Y-154330400D02*
X95300800Y-151003000D01*
X95173800Y-154457400D02*
X95300800Y-154330400D01*
X99796600Y-150647400D02*
X99796600Y-154660600D01*
X99949000Y-150495000D02*
X99796600Y-150647400D01*
X100253800Y-148513800D02*
X100203000Y-148564600D01*
X91694000Y-121208800D02*
X91694000Y-118338600D01*
X85115400Y-105308400D02*
X87452200Y-105308400D01*
X84861400Y-105054400D02*
X85115400Y-105308400D01*
X84861400Y-109347000D02*
X84861400Y-108940600D01*
X85547200Y-110032800D02*
X84861400Y-109347000D01*
X85547200Y-112445800D02*
X85547200Y-110032800D01*
X87706200Y-114604800D02*
X85547200Y-112445800D01*
X91694000Y-118338600D02*
X91440000Y-118084600D01*
X89154000Y-92125800D02*
X89154000Y-90424000D01*
X88112600Y-79019400D02*
X89077800Y-79019400D01*
X87757000Y-79375000D02*
X88112600Y-79019400D01*
X89154000Y-90424000D02*
X89230200Y-90347800D01*
X87452200Y-105308400D02*
X87452200Y-96012000D01*
X87452200Y-96012000D02*
X87528400Y-95935800D01*
X89154000Y-92125800D02*
X89154000Y-91414600D01*
X89154000Y-91414600D02*
X89103200Y-91363800D01*
X89103200Y-91363800D02*
X87604600Y-91363800D01*
X85801200Y-94488000D02*
X84937600Y-93624400D01*
X84937600Y-93624400D02*
X81229200Y-93624400D01*
X80746600Y-90144600D02*
X80721200Y-90119200D01*
X80721200Y-90119200D02*
X76123800Y-90119200D01*
X74295000Y-90652600D02*
X74295000Y-85115400D01*
X65405000Y-127177800D02*
X65405000Y-126466600D01*
X65405000Y-126466600D02*
X64135000Y-125196600D01*
X64058800Y-111760000D02*
X64414400Y-111404400D01*
X64414400Y-111404400D02*
X65455800Y-111404400D01*
X65405000Y-113207800D02*
X65405000Y-111455200D01*
X65405000Y-111455200D02*
X65455800Y-111404400D01*
X65405000Y-99237800D02*
X65405000Y-98323400D01*
X65405000Y-98323400D02*
X64516000Y-97434400D01*
X64516000Y-97434400D02*
X64084200Y-97434400D01*
X63474600Y-93268800D02*
X65278000Y-91465400D01*
X65278000Y-91465400D02*
X65278000Y-90779600D01*
X65278000Y-90779600D02*
X65405000Y-90652600D01*
X65405000Y-90652600D02*
X66954400Y-90652600D01*
X65405000Y-56057800D02*
X65405000Y-56337200D01*
X65405000Y-56337200D02*
X64389000Y-57353200D01*
X65405000Y-42087800D02*
X64617600Y-42087800D01*
X65405000Y-54559200D02*
X65405000Y-56057800D01*
X64846200Y-54000400D02*
X65405000Y-54559200D01*
X64617600Y-42087800D02*
X63906400Y-42799000D01*
X65405000Y-70027800D02*
X65405000Y-69215000D01*
X65405000Y-69215000D02*
X66040000Y-68580000D01*
X72390000Y-85090000D02*
X72390000Y-88900000D01*
X69850000Y-90170000D02*
X69215000Y-89535000D01*
X69215000Y-89535000D02*
X69215000Y-88722200D01*
X119405400Y-125984000D02*
X119405400Y-124968000D01*
X115951000Y-110490000D02*
X116713000Y-110490000D01*
X114909600Y-111531400D02*
X115951000Y-110490000D01*
X114884200Y-120446800D02*
X114884200Y-115900200D01*
X119405400Y-124968000D02*
X114884200Y-120446800D01*
X135407400Y-94183200D02*
X134086600Y-94183200D01*
X118211600Y-110490000D02*
X116713000Y-110490000D01*
X118491000Y-110769400D02*
X118211600Y-110490000D01*
X121742200Y-101574600D02*
X121742200Y-111226600D01*
X122605800Y-100711000D02*
X121742200Y-101574600D01*
X127558800Y-100711000D02*
X122605800Y-100711000D01*
X134086600Y-94183200D02*
X127558800Y-100711000D01*
X116713000Y-110490000D02*
X117449600Y-110490000D01*
X117627400Y-97155000D02*
X116713000Y-96240600D01*
X118643400Y-109296200D02*
X118643400Y-107645200D01*
X117449600Y-110490000D02*
X118643400Y-109296200D01*
X116713000Y-96240600D02*
X116713000Y-96012000D01*
X116687600Y-91440000D02*
X114173000Y-91440000D01*
X96316800Y-89865200D02*
X95605600Y-89865200D01*
X97434400Y-88747600D02*
X96316800Y-89865200D01*
X114173000Y-91440000D02*
X114071400Y-91338400D01*
X116687600Y-91440000D02*
X116687600Y-95986600D01*
X116687600Y-95986600D02*
X116713000Y-96012000D01*
X99060000Y-118491000D02*
X97536000Y-118491000D01*
X88671400Y-161518600D02*
X91440000Y-158750000D01*
X81407000Y-161518600D02*
X88671400Y-161518600D01*
X80187800Y-160299400D02*
X81407000Y-161518600D01*
X80187800Y-150749000D02*
X80187800Y-160299400D01*
X81788000Y-149148800D02*
X80187800Y-150749000D01*
X81788000Y-134010400D02*
X81788000Y-149148800D01*
X81762600Y-133985000D02*
X81788000Y-134010400D01*
X97536000Y-118491000D02*
X97510600Y-118516400D01*
X99060000Y-118491000D02*
X99060000Y-111379000D01*
X96824800Y-102870000D02*
X95554800Y-102870000D01*
X96901000Y-102793800D02*
X96824800Y-102870000D01*
X100406200Y-110032800D02*
X100406200Y-102844600D01*
X99060000Y-111379000D02*
X100406200Y-110032800D01*
X95554800Y-102870000D02*
X95554800Y-102692200D01*
X95554800Y-102692200D02*
X96774000Y-101473000D01*
X97409000Y-91668600D02*
X95605600Y-89865200D01*
X97409000Y-95427800D02*
X97409000Y-91668600D01*
X96901000Y-95935800D02*
X97409000Y-95427800D01*
X95605600Y-89865200D02*
X95605600Y-86588600D01*
X95605600Y-89865200D02*
X90424000Y-89865200D01*
X90424000Y-89865200D02*
X89484200Y-88925400D01*
X89484200Y-88925400D02*
X84709000Y-88925400D01*
X84709000Y-88925400D02*
X81076800Y-92557600D01*
X81076800Y-92557600D02*
X76352400Y-92557600D01*
X76352400Y-92557600D02*
X74930000Y-93980000D01*
X72390000Y-110490000D02*
X73660000Y-111760000D01*
X74930000Y-78740000D02*
X74930000Y-93980000D01*
X76200000Y-124460000D02*
X72390000Y-124460000D01*
X76200000Y-111760000D02*
X76200000Y-124460000D01*
X72390000Y-67310000D02*
X73660000Y-67310000D01*
X72390000Y-80010000D02*
X72390000Y-81280000D01*
X74930000Y-68580000D02*
X74930000Y-78740000D01*
X73660000Y-67310000D02*
X74930000Y-68580000D01*
X72390000Y-53340000D02*
X74930000Y-53340000D01*
X72390000Y-66040000D02*
X72390000Y-67310000D01*
X73660000Y-64770000D02*
X72390000Y-66040000D01*
X76200000Y-64770000D02*
X73660000Y-64770000D01*
X76200000Y-62230000D02*
X76200000Y-64770000D01*
X74930000Y-60960000D02*
X76200000Y-62230000D01*
X74930000Y-53340000D02*
X74930000Y-60960000D01*
X72390000Y-110490000D02*
X72390000Y-106680000D01*
X72390000Y-53340000D02*
X72390000Y-49530000D01*
X147320000Y-39370000D02*
X147320000Y-43053000D01*
X114071400Y-124485400D02*
X114071400Y-124460000D01*
X118287800Y-128701800D02*
X114071400Y-124485400D01*
X123596400Y-128701800D02*
X118287800Y-128701800D01*
X124256800Y-129362200D02*
X123596400Y-128701800D01*
X147320000Y-43053000D02*
X145440400Y-44932600D01*
X107873800Y-126187200D02*
X107873800Y-125298200D01*
X114223800Y-124612400D02*
X114223800Y-128397000D01*
X113411000Y-123799600D02*
X114071400Y-124460000D01*
X114071400Y-124460000D02*
X114223800Y-124612400D01*
X109372400Y-123799600D02*
X113411000Y-123799600D01*
X107873800Y-125298200D02*
X109372400Y-123799600D01*
X148590000Y-66040000D02*
X146685000Y-66040000D01*
X123825000Y-136144000D02*
X119405400Y-136144000D01*
X125171200Y-134797800D02*
X123825000Y-136144000D01*
X138125200Y-74599800D02*
X138125200Y-75971400D01*
X146685000Y-66040000D02*
X138125200Y-74599800D01*
X119405400Y-136144000D02*
X119405400Y-132537200D01*
X112953800Y-129997200D02*
X112953800Y-128397000D01*
X113385600Y-130429000D02*
X112953800Y-129997200D01*
X117297200Y-130429000D02*
X113385600Y-130429000D01*
X119405400Y-132537200D02*
X117297200Y-130429000D01*
X143510000Y-39370000D02*
X143510000Y-41148000D01*
X125399800Y-83616800D02*
X125399800Y-83642200D01*
X126644400Y-82372200D02*
X125399800Y-83616800D01*
X143510000Y-41148000D02*
X141630400Y-43027600D01*
X123520200Y-84302600D02*
X124739400Y-84302600D01*
X129692400Y-84505800D02*
X129692400Y-87299800D01*
X128828800Y-83642200D02*
X129692400Y-84505800D01*
X125399800Y-83642200D02*
X128828800Y-83642200D01*
X124739400Y-84302600D02*
X125399800Y-83642200D01*
X135407400Y-84023200D02*
X135407400Y-74930000D01*
X135407400Y-74930000D02*
X144297400Y-66040000D01*
X144297400Y-66040000D02*
X144780000Y-66040000D01*
X135407400Y-84023200D02*
X130505200Y-84023200D01*
X128422400Y-84912200D02*
X128422400Y-87299800D01*
X128371600Y-84861400D02*
X128422400Y-84912200D01*
X130505200Y-84023200D02*
X129133600Y-82651600D01*
X139700000Y-39370000D02*
X139700000Y-41021000D01*
X111010700Y-108953300D02*
X110553500Y-108953300D01*
X111556800Y-108407200D02*
X111010700Y-108953300D01*
X139700000Y-41021000D02*
X137617200Y-43103800D01*
X104394000Y-110617000D02*
X104394000Y-109956600D01*
X104394000Y-109956600D02*
X105562400Y-108788200D01*
X105562400Y-108788200D02*
X110388400Y-108788200D01*
X110388400Y-108788200D02*
X110553500Y-108953300D01*
X110553500Y-108953300D02*
X110998000Y-109397800D01*
X110998000Y-109397800D02*
X110998000Y-112572800D01*
X135890000Y-39370000D02*
X135890000Y-41910000D01*
X67310000Y-86360000D02*
X66675000Y-86995000D01*
X85090000Y-62230000D02*
X85090000Y-67310000D01*
X88900000Y-40640000D02*
X86360000Y-40640000D01*
X66675000Y-86995000D02*
X66675000Y-87630000D01*
X62230000Y-91440000D02*
X62230000Y-87630000D01*
X66675000Y-86995000D02*
X66675000Y-87630000D01*
X66675000Y-87630000D02*
X66675000Y-88722200D01*
X66040000Y-86360000D02*
X66675000Y-86995000D01*
X63500000Y-86360000D02*
X66040000Y-86360000D01*
X62230000Y-87630000D02*
X63500000Y-86360000D01*
X132080000Y-39370000D02*
X132080000Y-43561000D01*
X112814100Y-95415100D02*
X110985300Y-95415100D01*
X113817400Y-94411800D02*
X112814100Y-95415100D01*
X119075200Y-84963000D02*
X119075200Y-94386400D01*
X119253000Y-84785200D02*
X119075200Y-84963000D01*
X132080000Y-43561000D02*
X132867400Y-44348400D01*
X104394000Y-96393000D02*
X104851200Y-96393000D01*
X104851200Y-96393000D02*
X106451400Y-94792800D01*
X106451400Y-94792800D02*
X110363000Y-94792800D01*
X110363000Y-94792800D02*
X110985300Y-95415100D01*
X110985300Y-95415100D02*
X110998000Y-95427800D01*
X110998000Y-95427800D02*
X110998000Y-98856800D01*
X128270000Y-39370000D02*
X128270000Y-43053000D01*
X112255300Y-81876900D02*
X111137700Y-81876900D01*
X112471200Y-81661000D02*
X112255300Y-81876900D01*
X128270000Y-43053000D02*
X128244600Y-43078400D01*
X104495600Y-81280000D02*
X110540800Y-81280000D01*
X111226600Y-81965800D02*
X111226600Y-83794600D01*
X110540800Y-81280000D02*
X111137700Y-81876900D01*
X111137700Y-81876900D02*
X111226600Y-81965800D01*
X124460000Y-39370000D02*
X124460000Y-42900600D01*
X97663000Y-123037600D02*
X93573600Y-123037600D01*
X97866200Y-122834400D02*
X97663000Y-123037600D01*
X101930200Y-121056400D02*
X100177600Y-122809000D01*
X101930200Y-107162600D02*
X101930200Y-121056400D01*
X101955600Y-107137200D02*
X101930200Y-107162600D01*
X101955600Y-84683600D02*
X101955600Y-107137200D01*
X102438200Y-84201000D02*
X101955600Y-84683600D01*
X124460000Y-42900600D02*
X124536200Y-42976800D01*
X88519000Y-118237000D02*
X88519000Y-122453400D01*
X94234000Y-122377200D02*
X94234000Y-121208800D01*
X93497400Y-123113800D02*
X93573600Y-123037600D01*
X93573600Y-123037600D02*
X93624400Y-122986800D01*
X93624400Y-122986800D02*
X94234000Y-122377200D01*
X89179400Y-123113800D02*
X93497400Y-123113800D01*
X88519000Y-122453400D02*
X89179400Y-123113800D01*
X120650000Y-39370000D02*
X120650000Y-45720000D01*
X68580000Y-66040000D02*
X67310000Y-67310000D01*
X86360000Y-62230000D02*
X86360000Y-64770000D01*
X88900000Y-57150000D02*
X86360000Y-57150000D01*
X62230000Y-67310000D02*
X67310000Y-67310000D01*
X67945000Y-67945000D02*
X67945000Y-70027800D01*
X67310000Y-67310000D02*
X67945000Y-67945000D01*
X116840000Y-39370000D02*
X116840000Y-41910000D01*
X68580000Y-95250000D02*
X67310000Y-96520000D01*
X76200000Y-95250000D02*
X68580000Y-95250000D01*
X77470000Y-93980000D02*
X76200000Y-95250000D01*
X83820000Y-62230000D02*
X83820000Y-68580000D01*
X88900000Y-55880000D02*
X83820000Y-55880000D01*
X115570000Y-52070000D02*
X113030000Y-52070000D01*
X115570000Y-50800000D02*
X115570000Y-52070000D01*
X62230000Y-96520000D02*
X67310000Y-96520000D01*
X67945000Y-97155000D02*
X67945000Y-99237800D01*
X67310000Y-96520000D02*
X67945000Y-97155000D01*
X113030000Y-39370000D02*
X113030000Y-41910000D01*
X68580000Y-110490000D02*
X67310000Y-110490000D01*
X71120000Y-113030000D02*
X68580000Y-110490000D01*
X73660000Y-113030000D02*
X71120000Y-113030000D01*
X82550000Y-54610000D02*
X82550000Y-69850000D01*
X88900000Y-54610000D02*
X82550000Y-54610000D01*
X62230000Y-110490000D02*
X67310000Y-110490000D01*
X67945000Y-111125000D02*
X67945000Y-113207800D01*
X67310000Y-110490000D02*
X67945000Y-111125000D01*
X62230000Y-124460000D02*
X62230000Y-128270000D01*
X67945000Y-128905000D02*
X67945000Y-127177800D01*
X67310000Y-129540000D02*
X67945000Y-128905000D01*
X63500000Y-129540000D02*
X67310000Y-129540000D01*
X62230000Y-128270000D02*
X63500000Y-129540000D01*
X109220000Y-39370000D02*
X109220000Y-41910000D01*
X62230000Y-123190000D02*
X62230000Y-124460000D01*
X63500000Y-121920000D02*
X62230000Y-123190000D01*
X73660000Y-121920000D02*
X63500000Y-121920000D01*
X81280000Y-53340000D02*
X81280000Y-71120000D01*
X88900000Y-53340000D02*
X81280000Y-53340000D01*
X105410000Y-39370000D02*
X105410000Y-43180000D01*
X67310000Y-52070000D02*
X67310000Y-53340000D01*
X68580000Y-50800000D02*
X67310000Y-52070000D01*
X74930000Y-46990000D02*
X74930000Y-50800000D01*
X77470000Y-44450000D02*
X74930000Y-46990000D01*
X104140000Y-44450000D02*
X77470000Y-44450000D01*
X105410000Y-43180000D02*
X104140000Y-44450000D01*
X62230000Y-53340000D02*
X67310000Y-53340000D01*
X67945000Y-53975000D02*
X67945000Y-56057800D01*
X67310000Y-53340000D02*
X67945000Y-53975000D01*
X101600000Y-39370000D02*
X101600000Y-43307000D01*
X92062300Y-93637100D02*
X91300300Y-93637100D01*
X92862400Y-94437200D02*
X92062300Y-93637100D01*
X99009200Y-82702400D02*
X99009200Y-93929200D01*
X99974400Y-81737200D02*
X99009200Y-82702400D01*
X99974400Y-78714600D02*
X99974400Y-81737200D01*
X100126800Y-78562200D02*
X99974400Y-78714600D01*
X108229400Y-78562200D02*
X100126800Y-78562200D01*
X108508800Y-78841600D02*
X108229400Y-78562200D01*
X107086400Y-43764200D02*
X119354600Y-43764200D01*
X106629200Y-43307000D02*
X107086400Y-43764200D01*
X86385400Y-89941400D02*
X86385400Y-93548200D01*
X91414600Y-93522800D02*
X91414600Y-92405200D01*
X91287600Y-93649800D02*
X91300300Y-93637100D01*
X91300300Y-93637100D02*
X91414600Y-93522800D01*
X86487000Y-93649800D02*
X91287600Y-93649800D01*
X86385400Y-93548200D02*
X86487000Y-93649800D01*
X91414600Y-92405200D02*
X91694000Y-92125800D01*
X97790000Y-39370000D02*
X97790000Y-43027600D01*
X90652600Y-106730800D02*
X89509600Y-106730800D01*
X91262200Y-107340400D02*
X90652600Y-106730800D01*
X97688400Y-101523800D02*
X97688400Y-107289600D01*
X98298000Y-100914200D02*
X97688400Y-101523800D01*
X98298000Y-81965800D02*
X98298000Y-100914200D01*
X98958400Y-81305400D02*
X98298000Y-81965800D01*
X98958400Y-77495400D02*
X98958400Y-81305400D01*
X108559600Y-77495400D02*
X98958400Y-77495400D01*
X108635800Y-77571600D02*
X108559600Y-77495400D01*
X106680000Y-44805600D02*
X118694200Y-44805600D01*
X97790000Y-43027600D02*
X97739200Y-43078400D01*
X83947000Y-102514400D02*
X83947000Y-106578400D01*
X89509600Y-105791000D02*
X89992200Y-105308400D01*
X89509600Y-106934000D02*
X89509600Y-106730800D01*
X89509600Y-106730800D02*
X89509600Y-105791000D01*
X89408000Y-106832400D02*
X89509600Y-106934000D01*
X84201000Y-106832400D02*
X89408000Y-106832400D01*
X83947000Y-106578400D02*
X84201000Y-106832400D01*
X93980000Y-39370000D02*
X93980000Y-42951400D01*
X97612200Y-80924400D02*
X91313000Y-80924400D01*
X97967800Y-80568800D02*
X97612200Y-80924400D01*
X97967800Y-77114400D02*
X97967800Y-80568800D01*
X98907600Y-76174600D02*
X97967800Y-77114400D01*
X108356400Y-76174600D02*
X98907600Y-76174600D01*
X108458000Y-76276200D02*
X108356400Y-76174600D01*
X116967000Y-45542200D02*
X119583200Y-48158400D01*
X107061000Y-45542200D02*
X116967000Y-45542200D01*
X106959400Y-45643800D02*
X107061000Y-45542200D01*
X93980000Y-42951400D02*
X94056200Y-43027600D01*
X86309200Y-76276200D02*
X86309200Y-80137000D01*
X91617800Y-80619600D02*
X91617800Y-79019400D01*
X91211400Y-81026000D02*
X91313000Y-80924400D01*
X91313000Y-80924400D02*
X91617800Y-80619600D01*
X87198200Y-81026000D02*
X91211400Y-81026000D01*
X86309200Y-80137000D02*
X87198200Y-81026000D01*
X90170000Y-39370000D02*
X76200000Y-39370000D01*
X74930000Y-44450000D02*
X67310000Y-44450000D01*
X74930000Y-40640000D02*
X74930000Y-44450000D01*
X76200000Y-39370000D02*
X74930000Y-40640000D01*
X62230000Y-39370000D02*
X62230000Y-44450000D01*
X67945000Y-43815000D02*
X67945000Y-42087800D01*
X67310000Y-44450000D02*
X67945000Y-43815000D01*
X62230000Y-44450000D02*
X67310000Y-44450000D01*
X90170000Y-66040000D02*
X90170000Y-60960000D01*
X73660000Y-39370000D02*
X72390000Y-39370000D01*
X74930000Y-38100000D02*
X73660000Y-39370000D01*
X72390000Y-39370000D02*
X67310000Y-39370000D01*
X66675000Y-40005000D02*
X66675000Y-42087800D01*
X67310000Y-39370000D02*
X66675000Y-40005000D01*
X95605600Y-76428600D02*
X96697800Y-76428600D01*
X95681800Y-68072000D02*
X93980000Y-66370200D01*
X96697800Y-76428600D02*
X97180400Y-75946000D01*
X93980000Y-66370200D02*
X93980000Y-66040000D01*
X95605600Y-76428600D02*
X90830400Y-76428600D01*
X90347800Y-76809600D02*
X90347800Y-79019400D01*
X90703400Y-76454000D02*
X90347800Y-76809600D01*
X90703400Y-76555600D02*
X90703400Y-76454000D01*
X90830400Y-76428600D02*
X90703400Y-76555600D01*
X99060000Y-66040000D02*
X99060000Y-68427600D01*
X99644200Y-109499400D02*
X96113600Y-113030000D01*
X99644200Y-83642200D02*
X99644200Y-109499400D01*
X100482400Y-82804000D02*
X99644200Y-83642200D01*
X99060000Y-68427600D02*
X99085400Y-68453000D01*
X96113600Y-113030000D02*
X95554800Y-113030000D01*
X95554800Y-113030000D02*
X95554800Y-106654600D01*
X88722200Y-103251000D02*
X88722200Y-105308400D01*
X89001600Y-102971600D02*
X88722200Y-103251000D01*
X91871800Y-102971600D02*
X89001600Y-102971600D01*
X95554800Y-106654600D02*
X91871800Y-102971600D01*
X102870000Y-66040000D02*
X102870000Y-67691000D01*
X97104200Y-100025200D02*
X95605600Y-100025200D01*
X97561400Y-99568000D02*
X97104200Y-100025200D01*
X100634800Y-99517200D02*
X100406200Y-99745800D01*
X100634800Y-83616800D02*
X100634800Y-99517200D01*
X101650800Y-82600800D02*
X100634800Y-83616800D01*
X102870000Y-67691000D02*
X101930200Y-68630800D01*
X95605600Y-100025200D02*
X95605600Y-93421200D01*
X90424000Y-90601800D02*
X90424000Y-92125800D01*
X90678000Y-90347800D02*
X90424000Y-90601800D01*
X93980000Y-90347800D02*
X90678000Y-90347800D01*
X94183200Y-90551000D02*
X93980000Y-90347800D01*
X94183200Y-91998800D02*
X94183200Y-90551000D01*
X95605600Y-93421200D02*
X94183200Y-91998800D01*
X106680000Y-66040000D02*
X106680000Y-63500000D01*
X74930000Y-63500000D02*
X72390000Y-63500000D01*
X72390000Y-63500000D02*
X72390000Y-59690000D01*
X66675000Y-57785000D02*
X66675000Y-56057800D01*
X67310000Y-58420000D02*
X66675000Y-57785000D01*
X71120000Y-58420000D02*
X67310000Y-58420000D01*
X72390000Y-59690000D02*
X71120000Y-58420000D01*
X110490000Y-74930000D02*
X85090000Y-74930000D01*
X110490000Y-66040000D02*
X110490000Y-68580000D01*
X77470000Y-134620000D02*
X72390000Y-134620000D01*
X72390000Y-134620000D02*
X72390000Y-130810000D01*
X66675000Y-125095000D02*
X66675000Y-127177800D01*
X67310000Y-124460000D02*
X66675000Y-125095000D01*
X69850000Y-124460000D02*
X67310000Y-124460000D01*
X71120000Y-125730000D02*
X69850000Y-124460000D01*
X71120000Y-129540000D02*
X71120000Y-125730000D01*
X72390000Y-130810000D02*
X71120000Y-129540000D01*
X114300000Y-66040000D02*
X114300000Y-68580000D01*
X73660000Y-120650000D02*
X72390000Y-120650000D01*
X81280000Y-120650000D02*
X78740000Y-120650000D01*
X114300000Y-73660000D02*
X85090000Y-73660000D01*
X72390000Y-120650000D02*
X72390000Y-116840000D01*
X66675000Y-114935000D02*
X66675000Y-113207800D01*
X67310000Y-115570000D02*
X66675000Y-114935000D01*
X71120000Y-115570000D02*
X67310000Y-115570000D01*
X72390000Y-116840000D02*
X71120000Y-115570000D01*
X118110000Y-66040000D02*
X118110000Y-68580000D01*
X77470000Y-96520000D02*
X72390000Y-96520000D01*
X77470000Y-95250000D02*
X77470000Y-96520000D01*
X82550000Y-95250000D02*
X77470000Y-95250000D01*
X116840000Y-69850000D02*
X83820000Y-69850000D01*
X118110000Y-68580000D02*
X116840000Y-69850000D01*
X72390000Y-96520000D02*
X72390000Y-100330000D01*
X66675000Y-100965000D02*
X66675000Y-99237800D01*
X67310000Y-101600000D02*
X66675000Y-100965000D01*
X71120000Y-101600000D02*
X67310000Y-101600000D01*
X72390000Y-100330000D02*
X71120000Y-101600000D01*
X71120000Y-72390000D02*
X72390000Y-72390000D01*
X115570000Y-72390000D02*
X121920000Y-66040000D01*
X80010000Y-72390000D02*
X115570000Y-72390000D01*
X74930000Y-67310000D02*
X80010000Y-72390000D01*
X73660000Y-71120000D02*
X73660000Y-69850000D01*
X72390000Y-72390000D02*
X73660000Y-71120000D01*
X72390000Y-77470000D02*
X72390000Y-73660000D01*
X66675000Y-71755000D02*
X66675000Y-70027800D01*
X67310000Y-72390000D02*
X66675000Y-71755000D01*
X71120000Y-72390000D02*
X67310000Y-72390000D01*
X72390000Y-73660000D02*
X71120000Y-72390000D01*
X125730000Y-66040000D02*
X125730000Y-66776600D01*
X101193600Y-119481600D02*
X99060000Y-121615200D01*
X101193600Y-84251800D02*
X101193600Y-119481600D01*
X102362000Y-83083400D02*
X101193600Y-84251800D01*
X102362000Y-80721200D02*
X102362000Y-83083400D01*
X103124000Y-79959200D02*
X102362000Y-80721200D01*
X109169200Y-79959200D02*
X103124000Y-79959200D01*
X111379000Y-77749400D02*
X109169200Y-79959200D01*
X125730000Y-66776600D02*
X122656600Y-69850000D01*
X99060000Y-128651000D02*
X99060000Y-121615200D01*
X92964000Y-118999000D02*
X92964000Y-121208800D01*
X93700600Y-118262400D02*
X92964000Y-118999000D01*
X95707200Y-118262400D02*
X93700600Y-118262400D01*
X99060000Y-121615200D02*
X95707200Y-118262400D01*
X129540000Y-66040000D02*
X129540000Y-67259200D01*
X116687600Y-80314800D02*
X116687600Y-81280000D01*
X117322600Y-79679800D02*
X116687600Y-80314800D01*
X129540000Y-67259200D02*
X126720600Y-70078600D01*
X116687600Y-81280000D02*
X116687600Y-84023200D01*
X109956600Y-85242400D02*
X109956600Y-83794600D01*
X110566200Y-85852000D02*
X109956600Y-85242400D01*
X114858800Y-85852000D02*
X110566200Y-85852000D01*
X116687600Y-84023200D02*
X114858800Y-85852000D01*
X116713000Y-106172000D02*
X116713000Y-105892600D01*
X116713000Y-105892600D02*
X118313200Y-104292400D01*
X118313200Y-104292400D02*
X118313200Y-99847400D01*
X133350000Y-66040000D02*
X132384800Y-66040000D01*
X116713000Y-101447600D02*
X116713000Y-103022400D01*
X118338600Y-99822000D02*
X118313200Y-99847400D01*
X118313200Y-99847400D02*
X116713000Y-101447600D01*
X118338600Y-82651600D02*
X118338600Y-99822000D01*
X118389400Y-82600800D02*
X118338600Y-82651600D01*
X132384800Y-66040000D02*
X128473200Y-69951600D01*
X109728000Y-100228400D02*
X109728000Y-98856800D01*
X110794800Y-101295200D02*
X109728000Y-100228400D01*
X114808000Y-101295200D02*
X110794800Y-101295200D01*
X116713000Y-103200200D02*
X114808000Y-101295200D01*
X116713000Y-106172000D02*
X116713000Y-103200200D01*
X72390000Y-91440000D02*
X72390000Y-90170000D01*
X137160000Y-68580000D02*
X137160000Y-66040000D01*
X134620000Y-71120000D02*
X137160000Y-68580000D01*
X118110000Y-71120000D02*
X134620000Y-71120000D01*
X82550000Y-71120000D02*
X115570000Y-71120000D01*
X76200000Y-88900000D02*
X81280000Y-88900000D01*
X72390000Y-91440000D02*
X68580000Y-91440000D01*
X67945000Y-90805000D02*
X67945000Y-88722200D01*
X68580000Y-91440000D02*
X67945000Y-90805000D01*
X140970000Y-66040000D02*
X140970000Y-67284600D01*
X120167400Y-117195600D02*
X116713000Y-120650000D01*
X120167400Y-109118400D02*
X120167400Y-117195600D01*
X121005600Y-108280200D02*
X120167400Y-109118400D01*
X121005600Y-98044000D02*
X121005600Y-108280200D01*
X121437400Y-97612200D02*
X121005600Y-98044000D01*
X121437400Y-79552800D02*
X121437400Y-97612200D01*
X127939800Y-73050400D02*
X121437400Y-79552800D01*
X135204200Y-73050400D02*
X127939800Y-73050400D01*
X140970000Y-67284600D02*
X135204200Y-73050400D01*
X140970000Y-66040000D02*
X140970000Y-66065400D01*
X140970000Y-66065400D02*
X134975600Y-72059800D01*
X134975600Y-72059800D02*
X127812800Y-72059800D01*
X127812800Y-72059800D02*
X120015000Y-79857600D01*
X120015000Y-79857600D02*
X120015000Y-92532200D01*
X120015000Y-92532200D02*
X120015000Y-95758000D01*
X120015000Y-95758000D02*
X119532400Y-96240600D01*
X119532400Y-96240600D02*
X119532400Y-105841800D01*
X119532400Y-105841800D02*
X119481600Y-105892600D01*
X119481600Y-105892600D02*
X119481600Y-111379000D01*
X119481600Y-111379000D02*
X115747800Y-115112800D01*
X116713000Y-120650000D02*
X116713000Y-116255800D01*
X116713000Y-116255800D02*
X115519200Y-115062000D01*
X115519200Y-115062000D02*
X110921800Y-115062000D01*
X110921800Y-115062000D02*
X109728000Y-113868200D01*
X109728000Y-113868200D02*
X109728000Y-112572800D01*
X147320000Y-46990000D02*
X146050000Y-46990000D01*
X142240000Y-50800000D02*
X137160000Y-50800000D01*
X146050000Y-46990000D02*
X142240000Y-50800000D01*
X144780000Y-58420000D02*
X144780000Y-57150000D01*
X137160000Y-55880000D02*
X134620000Y-53340000D01*
X143510000Y-55880000D02*
X137160000Y-55880000D01*
X144780000Y-57150000D02*
X143510000Y-55880000D01*
X143510000Y-46990000D02*
X142240000Y-46990000D01*
X135890000Y-49530000D02*
X134620000Y-50800000D01*
X137160000Y-49530000D02*
X135890000Y-49530000D01*
X138430000Y-48260000D02*
X137160000Y-49530000D01*
X140970000Y-48260000D02*
X138430000Y-48260000D01*
X142240000Y-46990000D02*
X140970000Y-48260000D01*
X140970000Y-58420000D02*
X139700000Y-57150000D01*
X133350000Y-54610000D02*
X132080000Y-53340000D01*
X134620000Y-54610000D02*
X133350000Y-54610000D01*
X137160000Y-57150000D02*
X134620000Y-54610000D01*
X139700000Y-57150000D02*
X137160000Y-57150000D01*
X139700000Y-46990000D02*
X138430000Y-46990000D01*
X134620000Y-48260000D02*
X132080000Y-50800000D01*
X137160000Y-48260000D02*
X134620000Y-48260000D01*
X138430000Y-46990000D02*
X137160000Y-48260000D01*
X137160000Y-58420000D02*
X135890000Y-58420000D01*
X132080000Y-55880000D02*
X129540000Y-53340000D01*
X133350000Y-55880000D02*
X132080000Y-55880000D01*
X135890000Y-58420000D02*
X133350000Y-55880000D01*
X135890000Y-46990000D02*
X134620000Y-46990000D01*
X132080000Y-48260000D02*
X129540000Y-50800000D01*
X133350000Y-48260000D02*
X132080000Y-48260000D01*
X134620000Y-46990000D02*
X133350000Y-48260000D01*
X133350000Y-58420000D02*
X132080000Y-58420000D01*
X132080000Y-58420000D02*
X127000000Y-53340000D01*
X132080000Y-46990000D02*
X130810000Y-46990000D01*
X130810000Y-46990000D02*
X127000000Y-50800000D01*
X129540000Y-58420000D02*
X124460000Y-53340000D01*
X128270000Y-46990000D02*
X124460000Y-50800000D01*
X125730000Y-58420000D02*
X125730000Y-57150000D01*
X125730000Y-57150000D02*
X121920000Y-53340000D01*
X121920000Y-58420000D02*
X121920000Y-55880000D01*
X121920000Y-55880000D02*
X119380000Y-53340000D01*
X120650000Y-46990000D02*
X120650000Y-49530000D01*
X120650000Y-49530000D02*
X119380000Y-50800000D01*
X118110000Y-58420000D02*
X118110000Y-54610000D01*
X118110000Y-54610000D02*
X116840000Y-53340000D01*
X116840000Y-46990000D02*
X116840000Y-50800000D01*
X114300000Y-58420000D02*
X114300000Y-53340000D01*
X110490000Y-58420000D02*
X110490000Y-54610000D01*
X110490000Y-54610000D02*
X111760000Y-53340000D01*
X109220000Y-46990000D02*
X109220000Y-48260000D01*
X109220000Y-48260000D02*
X111760000Y-50800000D01*
X106680000Y-58420000D02*
X106680000Y-55880000D01*
X106680000Y-55880000D02*
X109220000Y-53340000D01*
X102870000Y-58420000D02*
X102870000Y-57150000D01*
X102870000Y-57150000D02*
X106680000Y-53340000D01*
X101600000Y-46990000D02*
X102870000Y-46990000D01*
X102870000Y-46990000D02*
X106680000Y-50800000D01*
X105410000Y-46990000D02*
X109220000Y-50800000D01*
X99060000Y-58420000D02*
X104140000Y-53340000D01*
X97790000Y-46990000D02*
X99060000Y-46990000D01*
X101600000Y-48260000D02*
X104140000Y-50800000D01*
X100330000Y-48260000D02*
X101600000Y-48260000D01*
X99060000Y-46990000D02*
X100330000Y-48260000D01*
X93980000Y-58420000D02*
X96520000Y-58420000D01*
X96520000Y-58420000D02*
X101600000Y-53340000D01*
X93980000Y-46990000D02*
X95250000Y-46990000D01*
X99060000Y-48260000D02*
X101600000Y-50800000D01*
X96520000Y-48260000D02*
X99060000Y-48260000D01*
X95250000Y-46990000D02*
X96520000Y-48260000D01*
X90170000Y-58420000D02*
X90170000Y-57150000D01*
X96520000Y-55880000D02*
X99060000Y-53340000D01*
X91440000Y-55880000D02*
X96520000Y-55880000D01*
X90170000Y-57150000D02*
X91440000Y-55880000D01*
X90170000Y-46990000D02*
X90170000Y-48260000D01*
X97790000Y-52070000D02*
X99060000Y-50800000D01*
X93980000Y-52070000D02*
X97790000Y-52070000D01*
X90170000Y-48260000D02*
X93980000Y-52070000D01*
X188315600Y-82372200D02*
X188315600Y-101244400D01*
X187960000Y-101600000D02*
X175260000Y-101600000D01*
X188315600Y-101244400D02*
X187960000Y-101600000D01*
X164185600Y-82372200D02*
X164185600Y-98145600D01*
X166370000Y-100330000D02*
X172720000Y-100330000D01*
X164185600Y-98145600D02*
X166370000Y-100330000D01*
X187655200Y-82372200D02*
X187655200Y-99364800D01*
X176530000Y-86360000D02*
X175260000Y-86360000D01*
X177800000Y-87630000D02*
X176530000Y-86360000D01*
X176530000Y-88900000D02*
X177800000Y-87630000D01*
X176530000Y-100330000D02*
X176530000Y-88900000D01*
X186690000Y-100330000D02*
X176530000Y-100330000D01*
X187655200Y-99364800D02*
X186690000Y-100330000D01*
X163525200Y-82372200D02*
X163525200Y-98755200D01*
X163525200Y-98755200D02*
X165100000Y-100330000D01*
X187020200Y-82372200D02*
X187020200Y-97459800D01*
X177800000Y-83820000D02*
X175260000Y-83820000D01*
X179070000Y-87630000D02*
X177800000Y-86360000D01*
X177800000Y-88900000D02*
X179070000Y-87630000D01*
X177800000Y-99060000D02*
X177800000Y-88900000D01*
X185420000Y-99060000D02*
X177800000Y-99060000D01*
X187020200Y-97459800D02*
X185420000Y-99060000D01*
X162890200Y-82372200D02*
X162890200Y-96189800D01*
X162890200Y-96189800D02*
X162560000Y-96520000D01*
X186359800Y-82372200D02*
X186359800Y-96850200D01*
X176530000Y-81280000D02*
X175260000Y-81280000D01*
X177800000Y-82550000D02*
X176530000Y-81280000D01*
X179070000Y-88900000D02*
X180340000Y-87630000D01*
X179070000Y-97790000D02*
X179070000Y-88900000D01*
X185420000Y-97790000D02*
X179070000Y-97790000D01*
X186359800Y-96850200D02*
X185420000Y-97790000D01*
X162229800Y-82372200D02*
X162229800Y-85420200D01*
X168910000Y-83820000D02*
X170180000Y-83820000D01*
X167640000Y-85090000D02*
X168910000Y-83820000D01*
X162229800Y-85420200D02*
X161290000Y-86360000D01*
X185724800Y-82372200D02*
X185724800Y-96215200D01*
X180340000Y-83820000D02*
X175260000Y-78740000D01*
X180340000Y-86360000D02*
X180340000Y-83820000D01*
X181610000Y-87630000D02*
X180340000Y-86360000D01*
X180340000Y-88900000D02*
X181610000Y-87630000D01*
X180340000Y-96520000D02*
X180340000Y-88900000D01*
X185420000Y-96520000D02*
X180340000Y-96520000D01*
X185724800Y-96215200D02*
X185420000Y-96520000D01*
X161594800Y-82372200D02*
X161594800Y-80975200D01*
X167640000Y-78740000D02*
X170180000Y-78740000D01*
X162560000Y-80010000D02*
X163830000Y-80010000D01*
X161594800Y-80975200D02*
X162560000Y-80010000D01*
X160934400Y-82372200D02*
X160934400Y-84175600D01*
X168910000Y-87630000D02*
X176530000Y-87630000D01*
X160020000Y-85090000D02*
X160020000Y-87630000D01*
X160934400Y-84175600D02*
X160020000Y-85090000D01*
X160274000Y-82372200D02*
X160274000Y-81026000D01*
X160274000Y-81026000D02*
X161290000Y-80010000D01*
X159639000Y-82372200D02*
X159639000Y-80899000D01*
X151130000Y-67310000D02*
X154940000Y-67310000D01*
X151130000Y-80010000D02*
X151130000Y-73660000D01*
X158750000Y-80010000D02*
X151130000Y-80010000D01*
X159639000Y-80899000D02*
X158750000Y-80010000D01*
X159639000Y-75107800D02*
X159639000Y-66929000D01*
X159639000Y-66929000D02*
X158750000Y-66040000D01*
X160274000Y-75107800D02*
X160274000Y-65024000D01*
X156210000Y-58420000D02*
X165100000Y-58420000D01*
X160274000Y-65024000D02*
X160020000Y-64770000D01*
X160934400Y-75107800D02*
X160934400Y-64414400D01*
X157480000Y-57150000D02*
X165100000Y-57150000D01*
X160934400Y-64414400D02*
X160020000Y-63500000D01*
X161594800Y-75107800D02*
X161594800Y-63804800D01*
X158750000Y-55880000D02*
X165100000Y-55880000D01*
X161594800Y-63804800D02*
X161290000Y-63500000D01*
X162229800Y-75107800D02*
X162229800Y-63169800D01*
X160020000Y-54610000D02*
X165100000Y-54610000D01*
X162229800Y-63169800D02*
X161290000Y-62230000D01*
X162890200Y-75107800D02*
X162890200Y-62560200D01*
X161290000Y-53340000D02*
X165100000Y-53340000D01*
X162890200Y-62560200D02*
X162560000Y-62230000D01*
X163525200Y-75107800D02*
X163525200Y-61925200D01*
X162560000Y-52070000D02*
X165100000Y-52070000D01*
X163525200Y-61925200D02*
X162560000Y-60960000D01*
X164185600Y-75107800D02*
X164185600Y-61315600D01*
X164185600Y-61315600D02*
X163830000Y-60960000D01*
X185064400Y-82372200D02*
X185064400Y-94335600D01*
X181610000Y-95250000D02*
X181610000Y-88900000D01*
X184150000Y-95250000D02*
X181610000Y-95250000D01*
X185064400Y-94335600D02*
X184150000Y-95250000D01*
X184404000Y-82372200D02*
X184404000Y-84836000D01*
X179070000Y-73660000D02*
X175260000Y-73660000D01*
X179070000Y-81280000D02*
X179070000Y-73660000D01*
X181610000Y-83820000D02*
X179070000Y-81280000D01*
X181610000Y-86360000D02*
X181610000Y-83820000D01*
X182880000Y-86360000D02*
X181610000Y-86360000D01*
X184404000Y-84836000D02*
X182880000Y-86360000D01*
X183769000Y-82372200D02*
X183769000Y-80391000D01*
X183769000Y-80391000D02*
X184150000Y-80010000D01*
X183769000Y-75107800D02*
X183769000Y-72009000D01*
X182880000Y-71120000D02*
X177800000Y-71120000D01*
X183769000Y-72009000D02*
X182880000Y-71120000D01*
X184404000Y-75107800D02*
X184404000Y-71374000D01*
X181610000Y-68580000D02*
X177800000Y-68580000D01*
X184404000Y-71374000D02*
X181610000Y-68580000D01*
X185064400Y-75107800D02*
X185064400Y-70764400D01*
X181610000Y-67310000D02*
X177800000Y-67310000D01*
X185064400Y-70764400D02*
X181610000Y-67310000D01*
X185724800Y-75107800D02*
X185724800Y-70154800D01*
X177800000Y-66040000D02*
X177800000Y-63500000D01*
X181610000Y-66040000D02*
X177800000Y-66040000D01*
X185724800Y-70154800D02*
X181610000Y-66040000D01*
X186359800Y-75107800D02*
X186359800Y-69519800D01*
X179070000Y-63500000D02*
X177800000Y-62230000D01*
X179070000Y-64770000D02*
X179070000Y-63500000D01*
X181610000Y-64770000D02*
X179070000Y-64770000D01*
X186359800Y-69519800D02*
X181610000Y-64770000D01*
X187020200Y-75107800D02*
X187020200Y-68910200D01*
X180340000Y-63500000D02*
X177800000Y-60960000D01*
X181610000Y-63500000D02*
X180340000Y-63500000D01*
X187020200Y-68910200D02*
X181610000Y-63500000D01*
X187655200Y-75107800D02*
X187655200Y-71424800D01*
X179070000Y-58420000D02*
X179070000Y-53340000D01*
X187960000Y-64770000D02*
X179070000Y-58420000D01*
X187655200Y-71424800D02*
X187960000Y-71120000D01*
X188315600Y-75107800D02*
X188315600Y-72034400D01*
X187960000Y-50800000D02*
X179070000Y-50800000D01*
X190500000Y-53340000D02*
X187960000Y-50800000D01*
X190500000Y-64770000D02*
X190500000Y-53340000D01*
X189230000Y-66040000D02*
X190500000Y-64770000D01*
X189230000Y-71120000D02*
X189230000Y-69850000D01*
X188315600Y-72034400D02*
X189230000Y-71120000D01*
X188315600Y-135712200D02*
X188315600Y-149504400D01*
X182880000Y-154940000D02*
X175260000Y-154940000D01*
X188315600Y-149504400D02*
X182880000Y-154940000D01*
X187655200Y-135712200D02*
X187655200Y-147624800D01*
X182880000Y-152400000D02*
X175260000Y-152400000D01*
X187655200Y-147624800D02*
X182880000Y-152400000D01*
X187020200Y-135712200D02*
X187020200Y-145719800D01*
X182880000Y-149860000D02*
X175260000Y-149860000D01*
X187020200Y-145719800D02*
X182880000Y-149860000D01*
X186359800Y-135712200D02*
X186359800Y-142570200D01*
X181610000Y-147320000D02*
X175260000Y-147320000D01*
X186359800Y-142570200D02*
X181610000Y-147320000D01*
X185724800Y-135712200D02*
X185724800Y-140665200D01*
X181610000Y-144780000D02*
X175260000Y-144780000D01*
X185724800Y-140665200D02*
X181610000Y-144780000D01*
X185064400Y-135712200D02*
X185064400Y-138785600D01*
X181610000Y-142240000D02*
X175260000Y-142240000D01*
X185064400Y-138785600D02*
X181610000Y-142240000D01*
X184404000Y-135712200D02*
X184404000Y-136906000D01*
X181610000Y-139700000D02*
X175260000Y-139700000D01*
X184404000Y-136906000D02*
X181610000Y-139700000D01*
X183769000Y-135712200D02*
X183769000Y-134239000D01*
X179070000Y-137160000D02*
X175260000Y-137160000D01*
X183769000Y-134239000D02*
X182880000Y-133350000D01*
X183769000Y-128447800D02*
X183769000Y-129921000D01*
X179070000Y-134620000D02*
X175260000Y-134620000D01*
X183769000Y-129921000D02*
X179070000Y-134620000D01*
X184404000Y-128447800D02*
X184404000Y-131826000D01*
X180340000Y-132080000D02*
X175260000Y-132080000D01*
X184404000Y-131826000D02*
X184150000Y-132080000D01*
X185064400Y-128447800D02*
X185064400Y-130454400D01*
X180340000Y-129540000D02*
X175260000Y-129540000D01*
X181610000Y-130810000D02*
X180340000Y-129540000D01*
X185064400Y-130454400D02*
X185420000Y-130810000D01*
X185724800Y-128447800D02*
X185724800Y-127304800D01*
X176530000Y-125730000D02*
X175260000Y-127000000D01*
X184150000Y-125730000D02*
X176530000Y-125730000D01*
X185724800Y-127304800D02*
X184150000Y-125730000D01*
X186359800Y-128447800D02*
X186359800Y-125399800D01*
X185420000Y-124460000D02*
X175260000Y-124460000D01*
X186359800Y-125399800D02*
X185420000Y-124460000D01*
X187020200Y-128447800D02*
X187020200Y-123520200D01*
X185420000Y-121920000D02*
X175260000Y-121920000D01*
X187020200Y-123520200D02*
X185420000Y-121920000D01*
X187655200Y-128447800D02*
X187655200Y-121615200D01*
X185420000Y-119380000D02*
X175260000Y-119380000D01*
X187655200Y-121615200D02*
X185420000Y-119380000D01*
X188315600Y-128447800D02*
X188315600Y-119735600D01*
X185420000Y-116840000D02*
X175260000Y-116840000D01*
X188315600Y-119735600D02*
X185420000Y-116840000D01*
X161645600Y-135712200D02*
X161645600Y-152755600D01*
X163830000Y-154940000D02*
X172720000Y-154940000D01*
X161645600Y-152755600D02*
X163830000Y-154940000D01*
X160985200Y-135712200D02*
X160985200Y-148894800D01*
X162560000Y-152400000D02*
X172720000Y-152400000D01*
X160985200Y-148894800D02*
X160020000Y-149860000D01*
X160350200Y-135712200D02*
X160350200Y-146989800D01*
X162560000Y-149860000D02*
X172720000Y-149860000D01*
X160350200Y-146989800D02*
X160020000Y-147320000D01*
X159689800Y-135712200D02*
X159689800Y-143840200D01*
X162560000Y-147320000D02*
X172720000Y-147320000D01*
X159689800Y-143840200D02*
X158750000Y-144780000D01*
X159054800Y-135712200D02*
X159054800Y-143205200D01*
X163830000Y-144780000D02*
X172720000Y-144780000D01*
X162560000Y-146050000D02*
X163830000Y-144780000D01*
X159054800Y-143205200D02*
X158750000Y-143510000D01*
X158394400Y-135712200D02*
X158394400Y-140055600D01*
X165100000Y-142240000D02*
X172720000Y-142240000D01*
X162560000Y-144780000D02*
X165100000Y-142240000D01*
X158394400Y-140055600D02*
X157480000Y-140970000D01*
X157734000Y-135712200D02*
X157734000Y-139446000D01*
X162560000Y-139700000D02*
X172720000Y-139700000D01*
X157734000Y-139446000D02*
X157480000Y-139700000D01*
X157099000Y-135712200D02*
X157099000Y-137541000D01*
X163830000Y-137160000D02*
X172720000Y-137160000D01*
X162560000Y-138430000D02*
X163830000Y-137160000D01*
X157099000Y-137541000D02*
X156210000Y-138430000D01*
X157099000Y-128447800D02*
X157099000Y-131699000D01*
X157099000Y-131699000D02*
X158750000Y-133350000D01*
X157734000Y-128447800D02*
X157734000Y-131064000D01*
X157734000Y-131064000D02*
X158750000Y-132080000D01*
X158394400Y-128447800D02*
X158394400Y-130454400D01*
X173990000Y-129540000D02*
X172720000Y-129540000D01*
X173990000Y-132080000D02*
X173990000Y-129540000D01*
X173990000Y-140970000D02*
X173990000Y-137160000D01*
X165100000Y-153670000D02*
X167640000Y-153670000D01*
X158394400Y-130454400D02*
X158750000Y-130810000D01*
X172720000Y-127000000D02*
X170180000Y-127000000D01*
X159054800Y-127304800D02*
X159054800Y-128447800D01*
X158750000Y-127000000D02*
X159054800Y-127304800D01*
X170180000Y-127000000D02*
X165100000Y-127000000D01*
X172720000Y-124460000D02*
X163830000Y-124460000D01*
X159689800Y-126669800D02*
X159689800Y-128447800D01*
X158750000Y-125730000D02*
X159689800Y-126669800D01*
X163830000Y-124460000D02*
X162560000Y-125730000D01*
X172720000Y-121920000D02*
X165100000Y-121920000D01*
X160350200Y-126060200D02*
X160350200Y-128447800D01*
X158750000Y-124460000D02*
X160350200Y-126060200D01*
X158750000Y-123190000D02*
X158750000Y-124460000D01*
X165100000Y-121920000D02*
X163830000Y-123190000D01*
X172720000Y-119380000D02*
X165100000Y-119380000D01*
X160985200Y-125425200D02*
X160985200Y-128447800D01*
X160020000Y-124460000D02*
X160985200Y-125425200D01*
X162560000Y-121920000D02*
X162560000Y-124460000D01*
X165100000Y-119380000D02*
X162560000Y-121920000D01*
X172720000Y-116840000D02*
X166370000Y-116840000D01*
X161645600Y-121564400D02*
X161645600Y-128447800D01*
X166370000Y-116840000D02*
X161645600Y-121564400D01*
X124460000Y-46990000D02*
X124460000Y-48260000D01*
X124460000Y-48260000D02*
X121920000Y-50800000D01*
X148590000Y-58420000D02*
X148590000Y-55880000D01*
X146050000Y-53340000D02*
X137160000Y-53340000D01*
X148590000Y-55880000D02*
X146050000Y-53340000D01*
X113030000Y-46990000D02*
X113030000Y-49530000D01*
X113030000Y-49530000D02*
X114300000Y-50800000D01*
X88900000Y-158750000D02*
X90170000Y-157480000D01*
X101295200Y-143814800D02*
X100253800Y-143814800D01*
X104140000Y-140970000D02*
X101295200Y-143814800D01*
X105410000Y-140970000D02*
X104140000Y-140970000D01*
X105410000Y-153670000D02*
X105410000Y-140970000D01*
X92710000Y-157480000D02*
X92710000Y-153670000D01*
X90170000Y-157480000D02*
X92710000Y-157480000D01*
X100253800Y-145745200D02*
X98094800Y-145745200D01*
X95250000Y-157480000D02*
X93980000Y-158750000D01*
X97790000Y-157480000D02*
X95250000Y-157480000D01*
X97790000Y-152400000D02*
X97790000Y-157480000D01*
X99060000Y-151130000D02*
X97790000Y-152400000D01*
X97790000Y-147320000D02*
X99060000Y-148590000D01*
X97790000Y-146050000D02*
X97790000Y-147320000D01*
X98094800Y-145745200D02*
X97790000Y-146050000D01*
X91440000Y-156210000D02*
X91440000Y-153670000D01*
X101904800Y-144475200D02*
X100253800Y-144475200D01*
X102870000Y-143510000D02*
X101904800Y-144475200D01*
X91440000Y-153670000D02*
X93980000Y-151130000D01*
X96520000Y-156210000D02*
X96520000Y-152400000D01*
X98094800Y-143205200D02*
X100253800Y-143205200D01*
X97790000Y-143510000D02*
X98094800Y-143205200D01*
X96520000Y-152400000D02*
X97790000Y-151130000D01*
X101600000Y-156210000D02*
X101600000Y-151130000D01*
X103835200Y-145084800D02*
X100253800Y-145084800D01*
X104140000Y-144780000D02*
X103835200Y-145084800D01*
X104140000Y-148590000D02*
X104140000Y-144780000D01*
X82550000Y-156210000D02*
X88900000Y-156210000D01*
X82550000Y-160020000D02*
X82550000Y-156210000D01*
X164846000Y-75107800D02*
X164846000Y-72644000D01*
X188976000Y-76454000D02*
X188976000Y-75107800D01*
X187960000Y-78740000D02*
X188976000Y-76454000D01*
X167640000Y-69850000D02*
X181610000Y-69850000D01*
X164846000Y-72644000D02*
X167640000Y-69850000D01*
X162306000Y-128447800D02*
X162306000Y-130556000D01*
X167640000Y-123190000D02*
X184150000Y-123190000D01*
X162560000Y-130810000D02*
X166370000Y-130810000D01*
X162306000Y-130556000D02*
X162560000Y-130810000D01*
X188976000Y-128447800D02*
X188976000Y-119126000D01*
X114300000Y-152400000D02*
X114300000Y-156210000D01*
X151130000Y-151130000D02*
X144780000Y-157480000D01*
X152400000Y-120650000D02*
X152400000Y-132080000D01*
X157480000Y-115570000D02*
X152400000Y-120650000D01*
X185420000Y-115570000D02*
X157480000Y-115570000D01*
X188976000Y-119126000D02*
X185420000Y-115570000D01*
X137160000Y-154940000D02*
X138430000Y-153670000D01*
X138430000Y-153670000D02*
X142240000Y-153670000D01*
X142240000Y-153670000D02*
X147320000Y-148590000D01*
X147320000Y-139700000D02*
X144780000Y-137160000D01*
X144780000Y-137160000D02*
X144780000Y-129540000D01*
X144780000Y-129540000D02*
X144780000Y-116840000D01*
X144780000Y-116840000D02*
X152400000Y-109220000D01*
X152400000Y-109220000D02*
X152400000Y-105410000D01*
X152400000Y-105410000D02*
X180340000Y-105410000D01*
X187960000Y-80010000D02*
X185420000Y-78740000D01*
X185420000Y-78740000D02*
X182880000Y-78740000D01*
X182880000Y-78740000D02*
X183108600Y-82372200D01*
X183108600Y-135712200D02*
X183057800Y-135712200D01*
X183057800Y-135712200D02*
X180340000Y-138430000D01*
X142240000Y-158750000D02*
X139700000Y-158750000D01*
X149860000Y-109220000D02*
X142240000Y-116840000D01*
X151307800Y-82372200D02*
X149860000Y-83820000D01*
X149860000Y-83820000D02*
X149860000Y-109220000D01*
X158978600Y-82372200D02*
X151307800Y-82372200D01*
X146050000Y-158750000D02*
X142240000Y-158750000D01*
X148590000Y-156210000D02*
X146050000Y-158750000D01*
X149860000Y-154940000D02*
X148590000Y-156210000D01*
X142240000Y-138430000D02*
X144780000Y-140970000D01*
X142240000Y-116840000D02*
X142240000Y-138430000D01*
X129540000Y-158750000D02*
X139700000Y-158750000D01*
X154940000Y-137210800D02*
X156438600Y-135712200D01*
X154940000Y-143510000D02*
X154940000Y-137210800D01*
X139700000Y-158750000D02*
X154940000Y-143510000D01*
X165481000Y-75107800D02*
X165481000Y-73279000D01*
X189611000Y-72771000D02*
X189611000Y-75107800D01*
X189230000Y-72390000D02*
X189611000Y-72771000D01*
X166370000Y-72390000D02*
X182880000Y-72390000D01*
X165481000Y-73279000D02*
X166370000Y-72390000D01*
X189611000Y-78359000D02*
X189611000Y-75107800D01*
X190500000Y-80010000D02*
X189611000Y-78359000D01*
X162941000Y-128447800D02*
X162941000Y-126619000D01*
X163830000Y-125730000D02*
X173990000Y-125730000D01*
X162941000Y-126619000D02*
X163830000Y-125730000D01*
X121920000Y-156210000D02*
X121920000Y-152400000D01*
X189611000Y-126619000D02*
X189611000Y-128447800D01*
X190500000Y-125730000D02*
X189611000Y-126619000D01*
X191770000Y-125730000D02*
X190500000Y-125730000D01*
X193040000Y-127000000D02*
X191770000Y-125730000D01*
X193040000Y-142240000D02*
X193040000Y-127000000D01*
X190500000Y-148590000D02*
X190500000Y-144780000D01*
X181610000Y-157480000D02*
X190500000Y-148590000D01*
X154940000Y-157480000D02*
X181610000Y-157480000D01*
X125730000Y-148590000D02*
X146050000Y-148590000D01*
X121920000Y-152400000D02*
X125730000Y-148590000D01*
X167640000Y-86360000D02*
X167640000Y-87630000D01*
X166370000Y-92710000D02*
X165100000Y-93980000D01*
X166370000Y-88900000D02*
X166370000Y-92710000D01*
X167640000Y-87630000D02*
X166370000Y-88900000D01*
X164846000Y-82372200D02*
X164846000Y-84836000D01*
X166370000Y-86360000D02*
X167640000Y-86360000D01*
X164846000Y-84836000D02*
X166370000Y-86360000D01*
X188976000Y-82372200D02*
X188976000Y-103124000D01*
X188976000Y-103124000D02*
X182880000Y-109220000D01*
X182880000Y-109220000D02*
X162560000Y-109220000D01*
X162560000Y-109220000D02*
X158750000Y-113030000D01*
X116840000Y-156210000D02*
X116840000Y-152400000D01*
X168910000Y-130810000D02*
X168910000Y-134620000D01*
X154940000Y-121920000D02*
X158750000Y-118110000D01*
X154940000Y-133350000D02*
X154940000Y-121920000D01*
X143510000Y-144780000D02*
X154940000Y-133350000D01*
X124460000Y-144780000D02*
X143510000Y-144780000D01*
X116840000Y-152400000D02*
X124460000Y-144780000D01*
X162306000Y-135712200D02*
X162306000Y-132334000D01*
X162306000Y-132334000D02*
X162560000Y-132080000D01*
X162560000Y-132080000D02*
X163830000Y-132080000D01*
X163830000Y-132080000D02*
X166370000Y-134620000D01*
X166370000Y-134620000D02*
X168910000Y-134620000D01*
X179070000Y-140970000D02*
X181610000Y-140970000D01*
X189230000Y-140970000D02*
X188976000Y-140716000D01*
X188976000Y-140716000D02*
X188976000Y-135712200D01*
X152400000Y-143510000D02*
X149860000Y-140970000D01*
X165481000Y-80899000D02*
X165481000Y-82372200D01*
X166370000Y-80010000D02*
X165481000Y-80899000D01*
X167640000Y-80010000D02*
X166370000Y-80010000D01*
X171450000Y-80010000D02*
X167640000Y-80010000D01*
X173990000Y-80010000D02*
X171450000Y-80010000D01*
X157480000Y-116840000D02*
X163830000Y-116840000D01*
X153670000Y-120650000D02*
X157480000Y-116840000D01*
X153670000Y-130810000D02*
X153670000Y-120650000D01*
X189611000Y-82372200D02*
X189611000Y-122301000D01*
X189611000Y-122301000D02*
X191770000Y-124460000D01*
X119380000Y-156210000D02*
X119380000Y-152400000D01*
X148590000Y-147320000D02*
X152400000Y-143510000D01*
X124460000Y-147320000D02*
X148590000Y-147320000D01*
X119380000Y-152400000D02*
X124460000Y-147320000D01*
X162941000Y-135712200D02*
X162941000Y-134239000D01*
X162941000Y-134239000D02*
X163830000Y-133350000D01*
X163830000Y-133350000D02*
X166370000Y-135890000D01*
X166370000Y-135890000D02*
X181610000Y-135890000D01*
X189230000Y-133350000D02*
X189611000Y-133731000D01*
X189611000Y-133731000D02*
X189611000Y-135712200D01*
X163601400Y-128447800D02*
X164007800Y-128447800D01*
X164007800Y-128447800D02*
X165100000Y-129540000D01*
X165100000Y-128270000D02*
X163830000Y-128270000D01*
X165100000Y-129540000D02*
X165100000Y-128270000D01*
X190271400Y-75107800D02*
X190500000Y-68580000D01*
X190500000Y-68580000D02*
X178612800Y-59690000D01*
X178612800Y-59690000D02*
X162560000Y-59690000D01*
X162560000Y-59690000D02*
X156210000Y-66040000D01*
X156210000Y-66040000D02*
X156210000Y-77470000D01*
X166141400Y-78511400D02*
X166141400Y-75107800D01*
X156210000Y-77470000D02*
X157480000Y-78740000D01*
X157480000Y-78740000D02*
X166370000Y-78740000D01*
X166370000Y-78740000D02*
X166141400Y-78511400D01*
X124460000Y-156210000D02*
X124460000Y-152400000D01*
X191770000Y-129946400D02*
X190271400Y-128447800D01*
X191770000Y-149860000D02*
X191770000Y-129946400D01*
X182880000Y-158750000D02*
X191770000Y-149860000D01*
X151130000Y-158750000D02*
X182880000Y-158750000D01*
X125730000Y-151130000D02*
X143510000Y-151130000D01*
X124460000Y-152400000D02*
X125730000Y-151130000D01*
X123520200Y-94462600D02*
X123520200Y-97205800D01*
X98983800Y-141935200D02*
X100253800Y-141935200D01*
X98348800Y-142570200D02*
X98983800Y-141935200D01*
X123520200Y-97205800D02*
X122504200Y-98221800D01*
X123520200Y-94462600D02*
X123520200Y-91135200D01*
X128422400Y-90271600D02*
X128422400Y-92024200D01*
X127914400Y-89763600D02*
X128422400Y-90271600D01*
X124891800Y-89763600D02*
X127914400Y-89763600D01*
X123520200Y-91135200D02*
X124891800Y-89763600D01*
M02*
