G04 #@! TF.FileFunction,Soldermask,Bot*
%FSLAX46Y46*%
G04 Gerber Fmt 4.6, Leading zero omitted, Abs format (unit mm)*
G04 Created by KiCad (PCBNEW 4.0.4-stable) date 01/02/17 01:37:36*
%MOMM*%
%LPD*%
G01*
G04 APERTURE LIST*
%ADD10C,0.100000*%
%ADD11C,1.720800*%
%ADD12C,1.930000*%
G04 APERTURE END LIST*
D10*
D11*
X111810800Y-142570200D03*
X111810800Y-147650200D03*
X116179600Y-142697200D03*
X116179600Y-147777200D03*
D12*
X137160000Y-50800000D03*
X137160000Y-53340000D03*
X134620000Y-50800000D03*
X134620000Y-53340000D03*
X132080000Y-50800000D03*
X132080000Y-53340000D03*
X129540000Y-50800000D03*
X129540000Y-53340000D03*
X127000000Y-50800000D03*
X127000000Y-53340000D03*
X124460000Y-50800000D03*
X124460000Y-53340000D03*
X121920000Y-50800000D03*
X121920000Y-53340000D03*
X119380000Y-50800000D03*
X119380000Y-53340000D03*
X116840000Y-50800000D03*
X116840000Y-53340000D03*
X114300000Y-50800000D03*
X114300000Y-53340000D03*
X111760000Y-50800000D03*
X111760000Y-53340000D03*
X109220000Y-50800000D03*
X109220000Y-53340000D03*
X106680000Y-50800000D03*
X106680000Y-53340000D03*
X104140000Y-50800000D03*
X104140000Y-53340000D03*
X101600000Y-50800000D03*
X101600000Y-53340000D03*
X99060000Y-50800000D03*
X99060000Y-53340000D03*
X96520000Y-50800000D03*
X96520000Y-53340000D03*
X175260000Y-88900000D03*
X172720000Y-88900000D03*
X175260000Y-86360000D03*
X172720000Y-86360000D03*
X175260000Y-83820000D03*
X172720000Y-83820000D03*
X175260000Y-81280000D03*
X172720000Y-81280000D03*
X175260000Y-78740000D03*
X172720000Y-78740000D03*
X175260000Y-76200000D03*
X172720000Y-76200000D03*
X175260000Y-73660000D03*
X172720000Y-73660000D03*
X175260000Y-71120000D03*
X172720000Y-71120000D03*
X175260000Y-68580000D03*
X172720000Y-68580000D03*
X175260000Y-66040000D03*
X172720000Y-66040000D03*
X175260000Y-63500000D03*
X172720000Y-63500000D03*
X175260000Y-60960000D03*
X172720000Y-60960000D03*
X175260000Y-58420000D03*
X172720000Y-58420000D03*
X175260000Y-55880000D03*
X172720000Y-55880000D03*
X175260000Y-53340000D03*
X172720000Y-53340000D03*
X175260000Y-50800000D03*
X172720000Y-50800000D03*
X175260000Y-48260000D03*
X172720000Y-48260000D03*
X175260000Y-154940000D03*
X172720000Y-154940000D03*
X175260000Y-152400000D03*
X172720000Y-152400000D03*
X175260000Y-149860000D03*
X172720000Y-149860000D03*
X175260000Y-147320000D03*
X172720000Y-147320000D03*
X175260000Y-144780000D03*
X172720000Y-144780000D03*
X175260000Y-142240000D03*
X172720000Y-142240000D03*
X175260000Y-139700000D03*
X172720000Y-139700000D03*
X175260000Y-137160000D03*
X172720000Y-137160000D03*
X175260000Y-134620000D03*
X172720000Y-134620000D03*
X175260000Y-132080000D03*
X172720000Y-132080000D03*
X175260000Y-129540000D03*
X172720000Y-129540000D03*
X175260000Y-127000000D03*
X172720000Y-127000000D03*
X175260000Y-124460000D03*
X172720000Y-124460000D03*
X175260000Y-121920000D03*
X172720000Y-121920000D03*
X175260000Y-119380000D03*
X172720000Y-119380000D03*
X175260000Y-116840000D03*
X172720000Y-116840000D03*
X175260000Y-114300000D03*
X172720000Y-114300000D03*
X88900000Y-158750000D03*
X88900000Y-156210000D03*
X91440000Y-158750000D03*
X91440000Y-156210000D03*
X93980000Y-158750000D03*
X93980000Y-156210000D03*
X96520000Y-158750000D03*
X96520000Y-156210000D03*
X99060000Y-158750000D03*
X99060000Y-156210000D03*
X101600000Y-158750000D03*
X101600000Y-156210000D03*
X104140000Y-158750000D03*
X104140000Y-156210000D03*
X106680000Y-158750000D03*
X106680000Y-156210000D03*
X109220000Y-158750000D03*
X109220000Y-156210000D03*
X111760000Y-158750000D03*
X111760000Y-156210000D03*
X114300000Y-158750000D03*
X114300000Y-156210000D03*
X116840000Y-158750000D03*
X116840000Y-156210000D03*
X119380000Y-158750000D03*
X119380000Y-156210000D03*
X121920000Y-158750000D03*
X121920000Y-156210000D03*
X124460000Y-158750000D03*
X124460000Y-156210000D03*
X127000000Y-158750000D03*
X127000000Y-156210000D03*
X129540000Y-158750000D03*
X129540000Y-156210000D03*
D11*
X90170000Y-39370000D03*
X90170000Y-46990000D03*
X93980000Y-66040000D03*
X93980000Y-58420000D03*
X93980000Y-39370000D03*
X93980000Y-46990000D03*
X99060000Y-66040000D03*
X99060000Y-58420000D03*
X97790000Y-39370000D03*
X97790000Y-46990000D03*
X102870000Y-66040000D03*
X102870000Y-58420000D03*
X101600000Y-39370000D03*
X101600000Y-46990000D03*
X106680000Y-66040000D03*
X106680000Y-58420000D03*
X105410000Y-39370000D03*
X105410000Y-46990000D03*
X110490000Y-66040000D03*
X110490000Y-58420000D03*
X109220000Y-39370000D03*
X109220000Y-46990000D03*
X114300000Y-66040000D03*
X114300000Y-58420000D03*
X113030000Y-39370000D03*
X113030000Y-46990000D03*
X118110000Y-66040000D03*
X118110000Y-58420000D03*
X116840000Y-39370000D03*
X116840000Y-46990000D03*
X121920000Y-66040000D03*
X121920000Y-58420000D03*
X120650000Y-39370000D03*
X120650000Y-46990000D03*
X125730000Y-66040000D03*
X125730000Y-58420000D03*
X124460000Y-39370000D03*
X124460000Y-46990000D03*
X129540000Y-66040000D03*
X129540000Y-58420000D03*
X128270000Y-39370000D03*
X128270000Y-46990000D03*
X133350000Y-66040000D03*
X133350000Y-58420000D03*
X132080000Y-39370000D03*
X132080000Y-46990000D03*
X137160000Y-66040000D03*
X137160000Y-58420000D03*
X135890000Y-39370000D03*
X135890000Y-46990000D03*
X140970000Y-66040000D03*
X140970000Y-58420000D03*
X139700000Y-39370000D03*
X139700000Y-46990000D03*
X144780000Y-66040000D03*
X144780000Y-58420000D03*
X143510000Y-39370000D03*
X143510000Y-46990000D03*
X148590000Y-66040000D03*
X148590000Y-58420000D03*
X147320000Y-39370000D03*
X147320000Y-46990000D03*
X107873800Y-126187200D03*
X107873800Y-136347200D03*
X119405400Y-125984000D03*
X119405400Y-136144000D03*
X123520200Y-84302600D03*
X123520200Y-94462600D03*
X135407400Y-94183200D03*
X135407400Y-84023200D03*
X104394000Y-110617000D03*
X104394000Y-120777000D03*
X116713000Y-110490000D03*
X116713000Y-120650000D03*
X62230000Y-91440000D03*
X62230000Y-81280000D03*
X72390000Y-81280000D03*
X72390000Y-91440000D03*
X104394000Y-96393000D03*
X104394000Y-106553000D03*
X116713000Y-96012000D03*
X116713000Y-106172000D03*
X104495600Y-81280000D03*
X104495600Y-91440000D03*
X116687600Y-91440000D03*
X116687600Y-81280000D03*
X88519000Y-118237000D03*
X88519000Y-128397000D03*
X99060000Y-118491000D03*
X99060000Y-128651000D03*
X62230000Y-67310000D03*
X62230000Y-77470000D03*
X72390000Y-67310000D03*
X72390000Y-77470000D03*
X62230000Y-96520000D03*
X62230000Y-106680000D03*
X72390000Y-106680000D03*
X72390000Y-96520000D03*
X62230000Y-110490000D03*
X62230000Y-120650000D03*
X72390000Y-110490000D03*
X72390000Y-120650000D03*
X62230000Y-124460000D03*
X62230000Y-134620000D03*
X72390000Y-124460000D03*
X72390000Y-134620000D03*
X62230000Y-53340000D03*
X62230000Y-63500000D03*
X72390000Y-53340000D03*
X72390000Y-63500000D03*
X86385400Y-89941400D03*
X86385400Y-100101400D03*
X95605600Y-89865200D03*
X95605600Y-100025200D03*
X83947000Y-102514400D03*
X83947000Y-112674400D03*
X95554800Y-102870000D03*
X95554800Y-113030000D03*
X86309200Y-76276200D03*
X86309200Y-86436200D03*
X95605600Y-86588600D03*
X95605600Y-76428600D03*
X62230000Y-39370000D03*
X62230000Y-49530000D03*
X72390000Y-49530000D03*
X72390000Y-39370000D03*
X90170000Y-66040000D03*
X90170000Y-58420000D03*
M02*
