M48
;DRILL file {KiCad 4.0.4-stable} date 01/02/17 01:37:46
;FORMAT={-:-/ absolute / inch / decimal}
FMAT,2
INCH,TZ
T1C0.016
T2C0.032
T3C0.040
%
G90
G05
M72
T1
X2.45Y-5.4
X2.499Y-3.672
X2.5Y-2.
X2.5Y-2.55
X2.5Y-4.2
X2.516Y-1.685
X2.522Y-4.4
X2.523Y-3.836
X2.525Y-4.929
X2.535Y-2.258
X2.553Y-2.126
X2.577Y-4.386
X2.6Y-2.7
X2.6Y-3.6
X2.6Y-3.75
X2.6Y-4.9
X2.636Y-3.569
X2.65Y-3.15
X2.65Y-3.25
X2.65Y-3.4
X2.65Y-4.75
X2.65Y-4.85
X2.65Y-5.3
X2.65Y-5.35
X2.65Y-5.4
X2.65Y-5.45
X2.7Y-2.
X2.7Y-2.6
X2.75Y-2.1
X2.75Y-2.5
X2.75Y-3.55
X2.8Y-2.8
X2.8Y-3.05
X2.8Y-3.55
X2.85Y-3.15
X2.85Y-3.35
X2.85Y-3.5
X2.85Y-3.55
X2.9Y-2.75
X2.9Y-3.7
X2.9Y-4.1
X2.9Y-4.4
X2.9Y-4.45
X2.9Y-4.75
X2.9Y-4.8
X2.925Y-3.351
X2.925Y-3.569
X2.95Y-1.5
X2.95Y-2.
X2.95Y-2.5
X2.95Y-2.65
X2.95Y-3.1
X2.95Y-3.7
X2.997Y-3.548
X2.997Y-3.597
X3.Y-3.5
X3.Y-4.4
X3.05Y-3.7
X3.05Y-5.3
X3.1Y-4.75
X3.104Y-5.502
X3.15Y-5.35
X3.15Y-5.4
X3.15Y-5.45
X3.15Y-5.5
X3.15Y-5.6
X3.179Y-3.549
X3.198Y-3.686
X3.2Y-2.8
X3.2Y-3.5
X3.2Y-4.75
X3.219Y-5.275
X3.25Y-2.75
X3.25Y-2.8
X3.25Y-3.75
X3.25Y-6.3
X3.27Y-5.383
X3.3Y-2.2
X3.3Y-2.45
X3.3Y-2.7
X3.3Y-2.75
X3.341Y-4.136
X3.341Y-4.289
X3.35Y-2.45
X3.35Y-2.65
X3.35Y-2.9
X3.35Y-2.95
X3.374Y-4.002
X3.377Y-5.191
X3.378Y-3.72
X3.4Y-1.6
X3.4Y-2.25
X3.4Y-2.45
X3.4Y-2.55
X3.411Y-5.388
X3.446Y-3.777
X3.449Y-3.597
X3.453Y-4.512
X3.455Y-3.125
X3.479Y-3.431
X3.488Y-5.117
X3.496Y-4.422
X3.5Y-1.6
X3.5Y-2.1
X3.5Y-2.15
X3.5Y-2.2
X3.5Y-2.25
X3.513Y-3.557
X3.546Y-3.916
X3.55Y-2.4
X3.554Y-4.794
X3.555Y-3.995
X3.559Y-5.036
X3.593Y-4.226
X3.6Y-4.649
X3.61Y-3.489
X3.641Y-5.754
X3.65Y-5.45
X3.65Y-5.5
X3.65Y-5.6
X3.65Y-6.05
X3.656Y-3.718
X3.673Y-3.386
X3.7Y-5.35
X3.7Y-5.95
X3.703Y-1.694
X3.747Y-6.081
X3.75Y-5.3
X3.752Y-5.945
X3.767Y-2.68
X3.809Y-5.213
X3.81Y-3.995
X3.815Y-3.777
X3.815Y-4.047
X3.826Y-2.99
X3.836Y-3.494
X3.839Y-4.666
X3.841Y-3.92
X3.846Y-4.224
X3.848Y-1.696
X3.85Y-5.55
X3.85Y-5.65
X3.85Y-5.95
X3.853Y-4.836
X3.853Y-5.49
X3.872Y-5.613
X3.884Y-5.564
X3.898Y-3.698
X3.9Y-5.85
X3.9Y-5.95
X3.901Y-2.695
X3.929Y-6.089
X3.934Y-5.243
X3.935Y-5.925
X3.944Y-4.835
X3.945Y-5.849
X3.953Y-3.927
X3.953Y-4.049
X3.956Y-3.26
X3.973Y-5.392
X3.985Y-5.167
X4.Y-1.705
X4.Y-5.95
X4.002Y-3.252
X4.013Y-2.702
X4.026Y-5.51
X4.033Y-3.315
X4.035Y-5.571
X4.048Y-5.154
X4.05Y-5.65
X4.057Y-3.391
X4.082Y-5.167
X4.094Y-5.927
X4.1Y-5.85
X4.115Y-3.359
X4.15Y-6.05
X4.182Y-3.492
X4.188Y-4.364
X4.194Y-6.084
X4.195Y-5.735
X4.198Y-1.705
X4.2Y-1.764
X4.2Y-2.5
X4.2Y-5.55
X4.203Y-5.612
X4.211Y-1.797
X4.212Y-3.788
X4.214Y-3.648
X4.25Y-3.25
X4.27Y-3.003
X4.272Y-3.104
X4.277Y-3.054
X4.3Y-1.65
X4.3Y-5.75
X4.311Y-4.932
X4.314Y-5.324
X4.35Y-2.7
X4.35Y-2.95
X4.352Y-4.719
X4.385Y-3.061
X4.392Y-4.268
X4.407Y-3.696
X4.428Y-3.215
X4.45Y-1.65
X4.45Y-2.05
X4.45Y-4.35
X4.463Y-4.178
X4.481Y-3.717
X4.491Y-3.596
X4.5Y-2.7
X4.5Y-2.9
X4.5Y-4.85
X4.5Y-6.
X4.523Y-4.563
X4.524Y-4.391
X4.529Y-5.495
X4.55Y-2.
X4.55Y-2.8
X4.55Y-3.65
X4.55Y-3.95
X4.55Y-4.2
X4.6Y-1.65
X4.6Y-4.95
X4.619Y-3.137
X4.631Y-3.825
X4.65Y-2.8
X4.661Y-3.252
X4.665Y-4.361
X4.671Y-4.238
X4.673Y-1.764
X4.688Y-3.716
X4.692Y-3.221
X4.695Y-3.338
X4.699Y-1.723
X4.708Y-1.896
X4.75Y-1.8
X4.793Y-4.379
X4.8Y-4.75
X4.817Y-3.132
X4.823Y-3.867
X4.829Y-2.75
X4.857Y-3.926
X4.892Y-5.093
X4.903Y-1.692
X4.913Y-3.231
X4.928Y-5.307
X4.986Y-3.243
X4.989Y-2.759
X5.013Y-3.368
X5.049Y-1.696
X5.054Y-3.341
X5.058Y-2.754
X5.072Y-3.515
X5.084Y-3.254
X5.178Y-3.357
X5.19Y-3.106
X5.231Y-1.746
X5.35Y-1.65
X5.366Y-3.076
X5.4Y-6.1
X5.418Y-1.697
X5.438Y-2.991
X5.474Y-3.519
X5.5Y-5.65
X5.5Y-5.75
X5.55Y-4.4
X5.55Y-5.2
X5.576Y-1.694
X5.65Y-5.95
X5.7Y-5.55
X5.7Y-6.2
X5.726Y-1.769
X5.75Y-5.85
X5.756Y-5.107
X5.8Y-5.5
X5.8Y-5.85
X5.817Y-6.347
X5.85Y-5.7
X5.9Y-5.55
X5.9Y-5.9
X5.9Y-6.1
X5.932Y-3.607
X5.95Y-2.65
X5.95Y-2.9
X5.95Y-5.95
X5.95Y-6.25
X6.Y-3.95
X6.Y-5.2
X6.Y-5.65
X6.004Y-5.273
X6.05Y-5.15
X6.098Y-2.862
X6.1Y-2.65
X6.1Y-6.2
X6.15Y-2.3
X6.15Y-3.05
X6.15Y-4.85
X6.15Y-5.179
X6.15Y-5.45
X6.2Y-2.25
X6.2Y-5.5
X6.2Y-5.55
X6.204Y-2.867
X6.25Y-2.2
X6.25Y-2.6
X6.25Y-3.05
X6.25Y-4.45
X6.25Y-4.65
X6.25Y-4.85
X6.25Y-4.95
X6.25Y-5.
X6.25Y-5.15
X6.25Y-5.2
X6.25Y-5.25
X6.25Y-5.65
X6.25Y-5.7
X6.3Y-2.15
X6.3Y-2.5
X6.3Y-2.55
X6.3Y-3.45
X6.3Y-4.9
X6.3Y-5.8
X6.3Y-5.9
X6.35Y-2.1
X6.35Y-2.45
X6.35Y-2.5
X6.35Y-3.15
X6.35Y-3.4
X6.387Y-3.501
X6.4Y-2.05
X6.4Y-2.4
X6.4Y-2.45
X6.4Y-3.8
X6.4Y-4.9
X6.4Y-4.95
X6.4Y-5.45
X6.4Y-5.5
X6.4Y-5.7
X6.4Y-5.75
X6.4Y-5.8
X6.4Y-5.9
X6.4Y-6.
X6.45Y-2.4
X6.45Y-3.15
X6.45Y-4.6
X6.45Y-4.85
X6.5Y-2.05
X6.5Y-2.1
X6.5Y-2.15
X6.5Y-2.2
X6.5Y-2.25
X6.5Y-2.3
X6.5Y-3.7
X6.5Y-3.95
X6.5Y-5.
X6.5Y-5.1
X6.5Y-6.05
X6.503Y-5.363
X6.507Y-5.652
X6.516Y-3.513
X6.521Y-3.422
X6.55Y-5.05
X6.55Y-5.15
X6.55Y-5.35
X6.6Y-3.1
X6.6Y-3.35
X6.6Y-4.85
X6.6Y-6.05
X6.627Y-3.282
X6.65Y-3.45
X6.65Y-5.15
X6.65Y-5.3
X6.7Y-3.1
X6.7Y-3.3
X6.8Y-3.95
X6.85Y-3.15
X6.85Y-4.95
X6.85Y-5.2
X6.85Y-5.4
X6.85Y-5.55
X6.9Y-4.
X6.95Y-3.45
X7.Y-2.4
X7.Y-2.45
X7.Y-2.5
X7.Y-2.65
X7.Y-2.7
X7.Y-2.8
X7.Y-3.25
X7.Y-3.3
X7.Y-3.4
X7.05Y-2.
X7.05Y-2.1
X7.05Y-5.4
X7.05Y-5.55
X7.1Y-3.45
X7.1Y-4.15
X7.1Y-5.2
X7.1Y-5.45
X7.15Y-2.75
X7.15Y-2.95
X7.15Y-3.5
X7.15Y-5.15
X7.15Y-5.35
X7.15Y-5.55
X7.2Y-2.85
X7.2Y-5.25
X7.25Y-3.15
X7.25Y-4.85
X7.25Y-5.2
X7.3Y-4.55
X7.3Y-5.15
X7.4Y-2.55
X7.4Y-2.8
X7.4Y-3.1
X7.4Y-3.15
X7.45Y-2.6
X7.45Y-2.75
X7.45Y-2.85
X7.45Y-5.25
X7.45Y-5.55
X7.467Y-5.639
X7.5Y-3.15
X7.5Y-4.95
X7.5Y-5.46
X7.5Y-5.7
X7.55Y-4.9
X7.563Y-4.811
X7.6Y-5.6
T2
X2.45Y-1.55
X2.45Y-1.95
X2.45Y-2.1
X2.45Y-2.5
X2.45Y-2.65
X2.45Y-3.05
X2.45Y-3.2
X2.45Y-3.6
X2.45Y-3.8
X2.45Y-4.2
X2.45Y-4.35
X2.45Y-4.75
X2.45Y-4.9
X2.45Y-5.3
X2.85Y-1.55
X2.85Y-1.95
X2.85Y-2.1
X2.85Y-2.5
X2.85Y-2.65
X2.85Y-3.05
X2.85Y-3.2
X2.85Y-3.6
X2.85Y-3.8
X2.85Y-4.2
X2.85Y-4.35
X2.85Y-4.75
X2.85Y-4.9
X2.85Y-5.3
X3.305Y-4.036
X3.305Y-4.436
X3.398Y-3.003
X3.398Y-3.403
X3.401Y-3.541
X3.401Y-3.941
X3.485Y-4.655
X3.485Y-5.055
X3.55Y-1.55
X3.55Y-1.85
X3.55Y-2.3
X3.55Y-2.6
X3.7Y-1.55
X3.7Y-1.85
X3.7Y-2.3
X3.7Y-2.6
X3.762Y-4.05
X3.762Y-4.45
X3.764Y-3.009
X3.764Y-3.409
X3.764Y-3.538
X3.764Y-3.938
X3.85Y-1.55
X3.85Y-1.85
X3.9Y-2.3
X3.9Y-2.6
X3.9Y-4.665
X3.9Y-5.065
X4.Y-1.55
X4.Y-1.85
X4.05Y-2.3
X4.05Y-2.6
X4.11Y-3.795
X4.11Y-4.195
X4.11Y-4.355
X4.11Y-4.755
X4.114Y-3.2
X4.114Y-3.6
X4.15Y-1.55
X4.15Y-1.85
X4.2Y-2.3
X4.2Y-2.6
X4.247Y-4.968
X4.247Y-5.368
X4.3Y-1.55
X4.3Y-1.85
X4.35Y-2.3
X4.35Y-2.6
X4.402Y-5.613
X4.402Y-5.813
X4.45Y-1.55
X4.45Y-1.85
X4.5Y-2.3
X4.5Y-2.6
X4.574Y-5.618
X4.574Y-5.818
X4.594Y-3.2
X4.594Y-3.6
X4.595Y-3.78
X4.595Y-4.18
X4.595Y-4.35
X4.595Y-4.75
X4.6Y-1.55
X4.6Y-1.85
X4.65Y-2.3
X4.65Y-2.6
X4.701Y-4.96
X4.701Y-5.36
X4.75Y-1.55
X4.75Y-1.85
X4.8Y-2.3
X4.8Y-2.6
X4.863Y-3.319
X4.863Y-3.719
X4.9Y-1.55
X4.9Y-1.85
X4.95Y-2.3
X4.95Y-2.6
X5.05Y-1.55
X5.05Y-1.85
X5.1Y-2.3
X5.1Y-2.6
X5.2Y-1.55
X5.2Y-1.85
X5.25Y-2.3
X5.25Y-2.6
X5.331Y-3.308
X5.331Y-3.708
X5.35Y-1.55
X5.35Y-1.85
X5.4Y-2.3
X5.4Y-2.6
X5.5Y-1.55
X5.5Y-1.85
X5.55Y-2.3
X5.55Y-2.6
X5.65Y-1.55
X5.65Y-1.85
X5.7Y-2.3
X5.7Y-2.6
X5.8Y-1.55
X5.8Y-1.85
X5.85Y-2.3
X5.85Y-2.6
T3
X3.5Y-6.15
X3.5Y-6.25
X3.6Y-6.15
X3.6Y-6.25
X3.7Y-6.15
X3.7Y-6.25
X3.8Y-2.
X3.8Y-2.1
X3.8Y-6.15
X3.8Y-6.25
X3.9Y-2.
X3.9Y-2.1
X3.9Y-6.15
X3.9Y-6.25
X4.Y-2.
X4.Y-2.1
X4.Y-6.15
X4.Y-6.25
X4.1Y-2.
X4.1Y-2.1
X4.1Y-6.15
X4.1Y-6.25
X4.2Y-2.
X4.2Y-2.1
X4.2Y-6.15
X4.2Y-6.25
X4.3Y-2.
X4.3Y-2.1
X4.3Y-6.15
X4.3Y-6.25
X4.4Y-2.
X4.4Y-2.1
X4.4Y-6.15
X4.4Y-6.25
X4.5Y-2.
X4.5Y-2.1
X4.5Y-6.15
X4.5Y-6.25
X4.6Y-2.
X4.6Y-2.1
X4.6Y-6.15
X4.6Y-6.25
X4.7Y-2.
X4.7Y-2.1
X4.7Y-6.15
X4.7Y-6.25
X4.8Y-2.
X4.8Y-2.1
X4.8Y-6.15
X4.8Y-6.25
X4.9Y-2.
X4.9Y-2.1
X4.9Y-6.15
X4.9Y-6.25
X5.Y-2.
X5.Y-2.1
X5.Y-6.15
X5.Y-6.25
X5.1Y-2.
X5.1Y-2.1
X5.1Y-6.15
X5.1Y-6.25
X5.2Y-2.
X5.2Y-2.1
X5.3Y-2.
X5.3Y-2.1
X5.4Y-2.
X5.4Y-2.1
X6.8Y-1.9
X6.8Y-2.
X6.8Y-2.1
X6.8Y-2.2
X6.8Y-2.3
X6.8Y-2.4
X6.8Y-2.5
X6.8Y-2.6
X6.8Y-2.7
X6.8Y-2.8
X6.8Y-2.9
X6.8Y-3.
X6.8Y-3.1
X6.8Y-3.2
X6.8Y-3.3
X6.8Y-3.4
X6.8Y-3.5
X6.8Y-4.5
X6.8Y-4.6
X6.8Y-4.7
X6.8Y-4.8
X6.8Y-4.9
X6.8Y-5.
X6.8Y-5.1
X6.8Y-5.2
X6.8Y-5.3
X6.8Y-5.4
X6.8Y-5.5
X6.8Y-5.6
X6.8Y-5.7
X6.8Y-5.8
X6.8Y-5.9
X6.8Y-6.
X6.8Y-6.1
X6.9Y-1.9
X6.9Y-2.
X6.9Y-2.1
X6.9Y-2.2
X6.9Y-2.3
X6.9Y-2.4
X6.9Y-2.5
X6.9Y-2.6
X6.9Y-2.7
X6.9Y-2.8
X6.9Y-2.9
X6.9Y-3.
X6.9Y-3.1
X6.9Y-3.2
X6.9Y-3.3
X6.9Y-3.4
X6.9Y-3.5
X6.9Y-4.5
X6.9Y-4.6
X6.9Y-4.7
X6.9Y-4.8
X6.9Y-4.9
X6.9Y-5.
X6.9Y-5.1
X6.9Y-5.2
X6.9Y-5.3
X6.9Y-5.4
X6.9Y-5.5
X6.9Y-5.6
X6.9Y-5.7
X6.9Y-5.8
X6.9Y-5.9
X6.9Y-6.
X6.9Y-6.1
T0
M30
