G04 #@! TF.FileFunction,Legend,Top*
%FSLAX46Y46*%
G04 Gerber Fmt 4.6, Leading zero omitted, Abs format (unit mm)*
G04 Created by KiCad (PCBNEW 4.0.4-stable) date 12/23/16 23:50:51*
%MOMM*%
%LPD*%
G01*
G04 APERTURE LIST*
%ADD10C,0.100000*%
%ADD11C,0.152400*%
%ADD12C,0.304800*%
%ADD13C,0.127000*%
%ADD14C,0.208280*%
%ADD15C,0.076200*%
%ADD16C,0.101600*%
G04 APERTURE END LIST*
D10*
D11*
X185674000Y-73964800D02*
X185674000Y-72948800D01*
X188976000Y-84531200D02*
X188976000Y-83515200D01*
X190931800Y-81534000D02*
X190931800Y-75946000D01*
X182448200Y-75946000D02*
X182448200Y-78435200D01*
X182448200Y-78435200D02*
X182448200Y-79044800D01*
X182448200Y-79044800D02*
X182448200Y-81534000D01*
X182448200Y-79044800D02*
G75*
G03X182448200Y-78435200I0J304800D01*
G01*
X159004000Y-127304800D02*
X159004000Y-126288800D01*
X162306000Y-137871200D02*
X162306000Y-136855200D01*
X164261800Y-134874000D02*
X164261800Y-129286000D01*
X155778200Y-129286000D02*
X155778200Y-131775200D01*
X155778200Y-131775200D02*
X155778200Y-132384800D01*
X155778200Y-132384800D02*
X155778200Y-134874000D01*
X155778200Y-132384800D02*
G75*
G03X155778200Y-131775200I0J304800D01*
G01*
D12*
X112445800Y-144805400D02*
X111810800Y-144805400D01*
X111810800Y-144805400D02*
X111175800Y-144805400D01*
D11*
X111810800Y-144805400D02*
X111810800Y-143586200D01*
D12*
X112445800Y-145440400D02*
X111810800Y-145440400D01*
X111810800Y-145440400D02*
X111175800Y-145440400D01*
D11*
X111810800Y-145440400D02*
X111810800Y-146634200D01*
X113080800Y-141427200D02*
X110540800Y-141427200D01*
X110286800Y-141681200D02*
X110286800Y-148539200D01*
X110540800Y-148793200D02*
X113080800Y-148793200D01*
X113334800Y-148539200D02*
X113334800Y-141681200D01*
X113080800Y-148793200D02*
G75*
G03X113334800Y-148539200I0J254000D01*
G01*
X110540800Y-148793200D02*
G75*
G02X110286800Y-148539200I0J254000D01*
G01*
X110286800Y-141681200D02*
G75*
G02X110540800Y-141427200I254000J0D01*
G01*
X113334800Y-141681200D02*
G75*
G03X113080800Y-141427200I-254000J0D01*
G01*
D12*
X116814600Y-144932400D02*
X116179600Y-144932400D01*
X116179600Y-144932400D02*
X115544600Y-144932400D01*
D11*
X116179600Y-144932400D02*
X116179600Y-143713200D01*
D12*
X116814600Y-145567400D02*
X116179600Y-145567400D01*
X116179600Y-145567400D02*
X115544600Y-145567400D01*
D11*
X116179600Y-145567400D02*
X116179600Y-146761200D01*
X117449600Y-141554200D02*
X114909600Y-141554200D01*
X114655600Y-141808200D02*
X114655600Y-148666200D01*
X114909600Y-148920200D02*
X117449600Y-148920200D01*
X117703600Y-148666200D02*
X117703600Y-141808200D01*
X117449600Y-148920200D02*
G75*
G03X117703600Y-148666200I0J254000D01*
G01*
X114909600Y-148920200D02*
G75*
G02X114655600Y-148666200I0J254000D01*
G01*
X114655600Y-141808200D02*
G75*
G02X114909600Y-141554200I254000J0D01*
G01*
X117703600Y-141808200D02*
G75*
G03X117449600Y-141554200I-254000J0D01*
G01*
D13*
X141155000Y-55070000D02*
X92525000Y-55070000D01*
X92525000Y-55070000D02*
X92525000Y-49070000D01*
X92525000Y-49070000D02*
X141155000Y-49070000D01*
X141155000Y-49070000D02*
X141155000Y-55070000D01*
X170990000Y-92895000D02*
X170990000Y-44265000D01*
X170990000Y-44265000D02*
X176990000Y-44265000D01*
X176990000Y-44265000D02*
X176990000Y-92895000D01*
X176990000Y-92895000D02*
X170990000Y-92895000D01*
X170990000Y-158935000D02*
X170990000Y-110305000D01*
X170990000Y-110305000D02*
X176990000Y-110305000D01*
X176990000Y-110305000D02*
X176990000Y-158935000D01*
X176990000Y-158935000D02*
X170990000Y-158935000D01*
X84905000Y-154480000D02*
X133535000Y-154480000D01*
X133535000Y-154480000D02*
X133535000Y-160480000D01*
X133535000Y-160480000D02*
X84905000Y-160480000D01*
X84905000Y-160480000D02*
X84905000Y-154480000D01*
D11*
X91313000Y-40259000D02*
G75*
G03X91059000Y-40005000I-254000J0D01*
G01*
X89027000Y-40259000D02*
G75*
G02X89281000Y-40005000I254000J0D01*
G01*
X89281000Y-46355000D02*
G75*
G02X89027000Y-46101000I0J254000D01*
G01*
X91059000Y-46355000D02*
G75*
G03X91313000Y-46101000I0J254000D01*
G01*
X91313000Y-40259000D02*
X91313000Y-40640000D01*
X91186000Y-40767000D02*
X91313000Y-40640000D01*
X89027000Y-40259000D02*
X89027000Y-40640000D01*
X89154000Y-40767000D02*
X89027000Y-40640000D01*
X91186000Y-45593000D02*
X91313000Y-45720000D01*
X91186000Y-45593000D02*
X91186000Y-40767000D01*
X89154000Y-45593000D02*
X89027000Y-45720000D01*
X89154000Y-45593000D02*
X89154000Y-40767000D01*
X91313000Y-46101000D02*
X91313000Y-45720000D01*
X89027000Y-46101000D02*
X89027000Y-45720000D01*
X92837000Y-65151000D02*
G75*
G03X93091000Y-65405000I254000J0D01*
G01*
X95123000Y-65151000D02*
G75*
G02X94869000Y-65405000I-254000J0D01*
G01*
X94869000Y-59055000D02*
G75*
G02X95123000Y-59309000I0J-254000D01*
G01*
X93091000Y-59055000D02*
G75*
G03X92837000Y-59309000I0J-254000D01*
G01*
X92837000Y-65151000D02*
X92837000Y-64770000D01*
X92964000Y-64643000D02*
X92837000Y-64770000D01*
X95123000Y-65151000D02*
X95123000Y-64770000D01*
X94996000Y-64643000D02*
X95123000Y-64770000D01*
X92964000Y-59817000D02*
X92837000Y-59690000D01*
X92964000Y-59817000D02*
X92964000Y-64643000D01*
X94996000Y-59817000D02*
X95123000Y-59690000D01*
X94996000Y-59817000D02*
X94996000Y-64643000D01*
X92837000Y-59309000D02*
X92837000Y-59690000D01*
X95123000Y-59309000D02*
X95123000Y-59690000D01*
X95123000Y-40259000D02*
G75*
G03X94869000Y-40005000I-254000J0D01*
G01*
X92837000Y-40259000D02*
G75*
G02X93091000Y-40005000I254000J0D01*
G01*
X93091000Y-46355000D02*
G75*
G02X92837000Y-46101000I0J254000D01*
G01*
X94869000Y-46355000D02*
G75*
G03X95123000Y-46101000I0J254000D01*
G01*
X95123000Y-40259000D02*
X95123000Y-40640000D01*
X94996000Y-40767000D02*
X95123000Y-40640000D01*
X92837000Y-40259000D02*
X92837000Y-40640000D01*
X92964000Y-40767000D02*
X92837000Y-40640000D01*
X94996000Y-45593000D02*
X95123000Y-45720000D01*
X94996000Y-45593000D02*
X94996000Y-40767000D01*
X92964000Y-45593000D02*
X92837000Y-45720000D01*
X92964000Y-45593000D02*
X92964000Y-40767000D01*
X95123000Y-46101000D02*
X95123000Y-45720000D01*
X92837000Y-46101000D02*
X92837000Y-45720000D01*
X97917000Y-65151000D02*
G75*
G03X98171000Y-65405000I254000J0D01*
G01*
X100203000Y-65151000D02*
G75*
G02X99949000Y-65405000I-254000J0D01*
G01*
X99949000Y-59055000D02*
G75*
G02X100203000Y-59309000I0J-254000D01*
G01*
X98171000Y-59055000D02*
G75*
G03X97917000Y-59309000I0J-254000D01*
G01*
X97917000Y-65151000D02*
X97917000Y-64770000D01*
X98044000Y-64643000D02*
X97917000Y-64770000D01*
X100203000Y-65151000D02*
X100203000Y-64770000D01*
X100076000Y-64643000D02*
X100203000Y-64770000D01*
X98044000Y-59817000D02*
X97917000Y-59690000D01*
X98044000Y-59817000D02*
X98044000Y-64643000D01*
X100076000Y-59817000D02*
X100203000Y-59690000D01*
X100076000Y-59817000D02*
X100076000Y-64643000D01*
X97917000Y-59309000D02*
X97917000Y-59690000D01*
X100203000Y-59309000D02*
X100203000Y-59690000D01*
X98933000Y-40259000D02*
G75*
G03X98679000Y-40005000I-254000J0D01*
G01*
X96647000Y-40259000D02*
G75*
G02X96901000Y-40005000I254000J0D01*
G01*
X96901000Y-46355000D02*
G75*
G02X96647000Y-46101000I0J254000D01*
G01*
X98679000Y-46355000D02*
G75*
G03X98933000Y-46101000I0J254000D01*
G01*
X98933000Y-40259000D02*
X98933000Y-40640000D01*
X98806000Y-40767000D02*
X98933000Y-40640000D01*
X96647000Y-40259000D02*
X96647000Y-40640000D01*
X96774000Y-40767000D02*
X96647000Y-40640000D01*
X98806000Y-45593000D02*
X98933000Y-45720000D01*
X98806000Y-45593000D02*
X98806000Y-40767000D01*
X96774000Y-45593000D02*
X96647000Y-45720000D01*
X96774000Y-45593000D02*
X96774000Y-40767000D01*
X98933000Y-46101000D02*
X98933000Y-45720000D01*
X96647000Y-46101000D02*
X96647000Y-45720000D01*
X101727000Y-65151000D02*
G75*
G03X101981000Y-65405000I254000J0D01*
G01*
X104013000Y-65151000D02*
G75*
G02X103759000Y-65405000I-254000J0D01*
G01*
X103759000Y-59055000D02*
G75*
G02X104013000Y-59309000I0J-254000D01*
G01*
X101981000Y-59055000D02*
G75*
G03X101727000Y-59309000I0J-254000D01*
G01*
X101727000Y-65151000D02*
X101727000Y-64770000D01*
X101854000Y-64643000D02*
X101727000Y-64770000D01*
X104013000Y-65151000D02*
X104013000Y-64770000D01*
X103886000Y-64643000D02*
X104013000Y-64770000D01*
X101854000Y-59817000D02*
X101727000Y-59690000D01*
X101854000Y-59817000D02*
X101854000Y-64643000D01*
X103886000Y-59817000D02*
X104013000Y-59690000D01*
X103886000Y-59817000D02*
X103886000Y-64643000D01*
X101727000Y-59309000D02*
X101727000Y-59690000D01*
X104013000Y-59309000D02*
X104013000Y-59690000D01*
X102743000Y-40259000D02*
G75*
G03X102489000Y-40005000I-254000J0D01*
G01*
X100457000Y-40259000D02*
G75*
G02X100711000Y-40005000I254000J0D01*
G01*
X100711000Y-46355000D02*
G75*
G02X100457000Y-46101000I0J254000D01*
G01*
X102489000Y-46355000D02*
G75*
G03X102743000Y-46101000I0J254000D01*
G01*
X102743000Y-40259000D02*
X102743000Y-40640000D01*
X102616000Y-40767000D02*
X102743000Y-40640000D01*
X100457000Y-40259000D02*
X100457000Y-40640000D01*
X100584000Y-40767000D02*
X100457000Y-40640000D01*
X102616000Y-45593000D02*
X102743000Y-45720000D01*
X102616000Y-45593000D02*
X102616000Y-40767000D01*
X100584000Y-45593000D02*
X100457000Y-45720000D01*
X100584000Y-45593000D02*
X100584000Y-40767000D01*
X102743000Y-46101000D02*
X102743000Y-45720000D01*
X100457000Y-46101000D02*
X100457000Y-45720000D01*
X105537000Y-65151000D02*
G75*
G03X105791000Y-65405000I254000J0D01*
G01*
X107823000Y-65151000D02*
G75*
G02X107569000Y-65405000I-254000J0D01*
G01*
X107569000Y-59055000D02*
G75*
G02X107823000Y-59309000I0J-254000D01*
G01*
X105791000Y-59055000D02*
G75*
G03X105537000Y-59309000I0J-254000D01*
G01*
X105537000Y-65151000D02*
X105537000Y-64770000D01*
X105664000Y-64643000D02*
X105537000Y-64770000D01*
X107823000Y-65151000D02*
X107823000Y-64770000D01*
X107696000Y-64643000D02*
X107823000Y-64770000D01*
X105664000Y-59817000D02*
X105537000Y-59690000D01*
X105664000Y-59817000D02*
X105664000Y-64643000D01*
X107696000Y-59817000D02*
X107823000Y-59690000D01*
X107696000Y-59817000D02*
X107696000Y-64643000D01*
X105537000Y-59309000D02*
X105537000Y-59690000D01*
X107823000Y-59309000D02*
X107823000Y-59690000D01*
X106553000Y-40259000D02*
G75*
G03X106299000Y-40005000I-254000J0D01*
G01*
X104267000Y-40259000D02*
G75*
G02X104521000Y-40005000I254000J0D01*
G01*
X104521000Y-46355000D02*
G75*
G02X104267000Y-46101000I0J254000D01*
G01*
X106299000Y-46355000D02*
G75*
G03X106553000Y-46101000I0J254000D01*
G01*
X106553000Y-40259000D02*
X106553000Y-40640000D01*
X106426000Y-40767000D02*
X106553000Y-40640000D01*
X104267000Y-40259000D02*
X104267000Y-40640000D01*
X104394000Y-40767000D02*
X104267000Y-40640000D01*
X106426000Y-45593000D02*
X106553000Y-45720000D01*
X106426000Y-45593000D02*
X106426000Y-40767000D01*
X104394000Y-45593000D02*
X104267000Y-45720000D01*
X104394000Y-45593000D02*
X104394000Y-40767000D01*
X106553000Y-46101000D02*
X106553000Y-45720000D01*
X104267000Y-46101000D02*
X104267000Y-45720000D01*
X109347000Y-65151000D02*
G75*
G03X109601000Y-65405000I254000J0D01*
G01*
X111633000Y-65151000D02*
G75*
G02X111379000Y-65405000I-254000J0D01*
G01*
X111379000Y-59055000D02*
G75*
G02X111633000Y-59309000I0J-254000D01*
G01*
X109601000Y-59055000D02*
G75*
G03X109347000Y-59309000I0J-254000D01*
G01*
X109347000Y-65151000D02*
X109347000Y-64770000D01*
X109474000Y-64643000D02*
X109347000Y-64770000D01*
X111633000Y-65151000D02*
X111633000Y-64770000D01*
X111506000Y-64643000D02*
X111633000Y-64770000D01*
X109474000Y-59817000D02*
X109347000Y-59690000D01*
X109474000Y-59817000D02*
X109474000Y-64643000D01*
X111506000Y-59817000D02*
X111633000Y-59690000D01*
X111506000Y-59817000D02*
X111506000Y-64643000D01*
X109347000Y-59309000D02*
X109347000Y-59690000D01*
X111633000Y-59309000D02*
X111633000Y-59690000D01*
X110363000Y-40259000D02*
G75*
G03X110109000Y-40005000I-254000J0D01*
G01*
X108077000Y-40259000D02*
G75*
G02X108331000Y-40005000I254000J0D01*
G01*
X108331000Y-46355000D02*
G75*
G02X108077000Y-46101000I0J254000D01*
G01*
X110109000Y-46355000D02*
G75*
G03X110363000Y-46101000I0J254000D01*
G01*
X110363000Y-40259000D02*
X110363000Y-40640000D01*
X110236000Y-40767000D02*
X110363000Y-40640000D01*
X108077000Y-40259000D02*
X108077000Y-40640000D01*
X108204000Y-40767000D02*
X108077000Y-40640000D01*
X110236000Y-45593000D02*
X110363000Y-45720000D01*
X110236000Y-45593000D02*
X110236000Y-40767000D01*
X108204000Y-45593000D02*
X108077000Y-45720000D01*
X108204000Y-45593000D02*
X108204000Y-40767000D01*
X110363000Y-46101000D02*
X110363000Y-45720000D01*
X108077000Y-46101000D02*
X108077000Y-45720000D01*
X113157000Y-65151000D02*
G75*
G03X113411000Y-65405000I254000J0D01*
G01*
X115443000Y-65151000D02*
G75*
G02X115189000Y-65405000I-254000J0D01*
G01*
X115189000Y-59055000D02*
G75*
G02X115443000Y-59309000I0J-254000D01*
G01*
X113411000Y-59055000D02*
G75*
G03X113157000Y-59309000I0J-254000D01*
G01*
X113157000Y-65151000D02*
X113157000Y-64770000D01*
X113284000Y-64643000D02*
X113157000Y-64770000D01*
X115443000Y-65151000D02*
X115443000Y-64770000D01*
X115316000Y-64643000D02*
X115443000Y-64770000D01*
X113284000Y-59817000D02*
X113157000Y-59690000D01*
X113284000Y-59817000D02*
X113284000Y-64643000D01*
X115316000Y-59817000D02*
X115443000Y-59690000D01*
X115316000Y-59817000D02*
X115316000Y-64643000D01*
X113157000Y-59309000D02*
X113157000Y-59690000D01*
X115443000Y-59309000D02*
X115443000Y-59690000D01*
X114173000Y-40259000D02*
G75*
G03X113919000Y-40005000I-254000J0D01*
G01*
X111887000Y-40259000D02*
G75*
G02X112141000Y-40005000I254000J0D01*
G01*
X112141000Y-46355000D02*
G75*
G02X111887000Y-46101000I0J254000D01*
G01*
X113919000Y-46355000D02*
G75*
G03X114173000Y-46101000I0J254000D01*
G01*
X114173000Y-40259000D02*
X114173000Y-40640000D01*
X114046000Y-40767000D02*
X114173000Y-40640000D01*
X111887000Y-40259000D02*
X111887000Y-40640000D01*
X112014000Y-40767000D02*
X111887000Y-40640000D01*
X114046000Y-45593000D02*
X114173000Y-45720000D01*
X114046000Y-45593000D02*
X114046000Y-40767000D01*
X112014000Y-45593000D02*
X111887000Y-45720000D01*
X112014000Y-45593000D02*
X112014000Y-40767000D01*
X114173000Y-46101000D02*
X114173000Y-45720000D01*
X111887000Y-46101000D02*
X111887000Y-45720000D01*
X116967000Y-65151000D02*
G75*
G03X117221000Y-65405000I254000J0D01*
G01*
X119253000Y-65151000D02*
G75*
G02X118999000Y-65405000I-254000J0D01*
G01*
X118999000Y-59055000D02*
G75*
G02X119253000Y-59309000I0J-254000D01*
G01*
X117221000Y-59055000D02*
G75*
G03X116967000Y-59309000I0J-254000D01*
G01*
X116967000Y-65151000D02*
X116967000Y-64770000D01*
X117094000Y-64643000D02*
X116967000Y-64770000D01*
X119253000Y-65151000D02*
X119253000Y-64770000D01*
X119126000Y-64643000D02*
X119253000Y-64770000D01*
X117094000Y-59817000D02*
X116967000Y-59690000D01*
X117094000Y-59817000D02*
X117094000Y-64643000D01*
X119126000Y-59817000D02*
X119253000Y-59690000D01*
X119126000Y-59817000D02*
X119126000Y-64643000D01*
X116967000Y-59309000D02*
X116967000Y-59690000D01*
X119253000Y-59309000D02*
X119253000Y-59690000D01*
X117983000Y-40259000D02*
G75*
G03X117729000Y-40005000I-254000J0D01*
G01*
X115697000Y-40259000D02*
G75*
G02X115951000Y-40005000I254000J0D01*
G01*
X115951000Y-46355000D02*
G75*
G02X115697000Y-46101000I0J254000D01*
G01*
X117729000Y-46355000D02*
G75*
G03X117983000Y-46101000I0J254000D01*
G01*
X117983000Y-40259000D02*
X117983000Y-40640000D01*
X117856000Y-40767000D02*
X117983000Y-40640000D01*
X115697000Y-40259000D02*
X115697000Y-40640000D01*
X115824000Y-40767000D02*
X115697000Y-40640000D01*
X117856000Y-45593000D02*
X117983000Y-45720000D01*
X117856000Y-45593000D02*
X117856000Y-40767000D01*
X115824000Y-45593000D02*
X115697000Y-45720000D01*
X115824000Y-45593000D02*
X115824000Y-40767000D01*
X117983000Y-46101000D02*
X117983000Y-45720000D01*
X115697000Y-46101000D02*
X115697000Y-45720000D01*
X120777000Y-65151000D02*
G75*
G03X121031000Y-65405000I254000J0D01*
G01*
X123063000Y-65151000D02*
G75*
G02X122809000Y-65405000I-254000J0D01*
G01*
X122809000Y-59055000D02*
G75*
G02X123063000Y-59309000I0J-254000D01*
G01*
X121031000Y-59055000D02*
G75*
G03X120777000Y-59309000I0J-254000D01*
G01*
X120777000Y-65151000D02*
X120777000Y-64770000D01*
X120904000Y-64643000D02*
X120777000Y-64770000D01*
X123063000Y-65151000D02*
X123063000Y-64770000D01*
X122936000Y-64643000D02*
X123063000Y-64770000D01*
X120904000Y-59817000D02*
X120777000Y-59690000D01*
X120904000Y-59817000D02*
X120904000Y-64643000D01*
X122936000Y-59817000D02*
X123063000Y-59690000D01*
X122936000Y-59817000D02*
X122936000Y-64643000D01*
X120777000Y-59309000D02*
X120777000Y-59690000D01*
X123063000Y-59309000D02*
X123063000Y-59690000D01*
X121793000Y-40259000D02*
G75*
G03X121539000Y-40005000I-254000J0D01*
G01*
X119507000Y-40259000D02*
G75*
G02X119761000Y-40005000I254000J0D01*
G01*
X119761000Y-46355000D02*
G75*
G02X119507000Y-46101000I0J254000D01*
G01*
X121539000Y-46355000D02*
G75*
G03X121793000Y-46101000I0J254000D01*
G01*
X121793000Y-40259000D02*
X121793000Y-40640000D01*
X121666000Y-40767000D02*
X121793000Y-40640000D01*
X119507000Y-40259000D02*
X119507000Y-40640000D01*
X119634000Y-40767000D02*
X119507000Y-40640000D01*
X121666000Y-45593000D02*
X121793000Y-45720000D01*
X121666000Y-45593000D02*
X121666000Y-40767000D01*
X119634000Y-45593000D02*
X119507000Y-45720000D01*
X119634000Y-45593000D02*
X119634000Y-40767000D01*
X121793000Y-46101000D02*
X121793000Y-45720000D01*
X119507000Y-46101000D02*
X119507000Y-45720000D01*
X124587000Y-65151000D02*
G75*
G03X124841000Y-65405000I254000J0D01*
G01*
X126873000Y-65151000D02*
G75*
G02X126619000Y-65405000I-254000J0D01*
G01*
X126619000Y-59055000D02*
G75*
G02X126873000Y-59309000I0J-254000D01*
G01*
X124841000Y-59055000D02*
G75*
G03X124587000Y-59309000I0J-254000D01*
G01*
X124587000Y-65151000D02*
X124587000Y-64770000D01*
X124714000Y-64643000D02*
X124587000Y-64770000D01*
X126873000Y-65151000D02*
X126873000Y-64770000D01*
X126746000Y-64643000D02*
X126873000Y-64770000D01*
X124714000Y-59817000D02*
X124587000Y-59690000D01*
X124714000Y-59817000D02*
X124714000Y-64643000D01*
X126746000Y-59817000D02*
X126873000Y-59690000D01*
X126746000Y-59817000D02*
X126746000Y-64643000D01*
X124587000Y-59309000D02*
X124587000Y-59690000D01*
X126873000Y-59309000D02*
X126873000Y-59690000D01*
X125603000Y-40259000D02*
G75*
G03X125349000Y-40005000I-254000J0D01*
G01*
X123317000Y-40259000D02*
G75*
G02X123571000Y-40005000I254000J0D01*
G01*
X123571000Y-46355000D02*
G75*
G02X123317000Y-46101000I0J254000D01*
G01*
X125349000Y-46355000D02*
G75*
G03X125603000Y-46101000I0J254000D01*
G01*
X125603000Y-40259000D02*
X125603000Y-40640000D01*
X125476000Y-40767000D02*
X125603000Y-40640000D01*
X123317000Y-40259000D02*
X123317000Y-40640000D01*
X123444000Y-40767000D02*
X123317000Y-40640000D01*
X125476000Y-45593000D02*
X125603000Y-45720000D01*
X125476000Y-45593000D02*
X125476000Y-40767000D01*
X123444000Y-45593000D02*
X123317000Y-45720000D01*
X123444000Y-45593000D02*
X123444000Y-40767000D01*
X125603000Y-46101000D02*
X125603000Y-45720000D01*
X123317000Y-46101000D02*
X123317000Y-45720000D01*
X128397000Y-65151000D02*
G75*
G03X128651000Y-65405000I254000J0D01*
G01*
X130683000Y-65151000D02*
G75*
G02X130429000Y-65405000I-254000J0D01*
G01*
X130429000Y-59055000D02*
G75*
G02X130683000Y-59309000I0J-254000D01*
G01*
X128651000Y-59055000D02*
G75*
G03X128397000Y-59309000I0J-254000D01*
G01*
X128397000Y-65151000D02*
X128397000Y-64770000D01*
X128524000Y-64643000D02*
X128397000Y-64770000D01*
X130683000Y-65151000D02*
X130683000Y-64770000D01*
X130556000Y-64643000D02*
X130683000Y-64770000D01*
X128524000Y-59817000D02*
X128397000Y-59690000D01*
X128524000Y-59817000D02*
X128524000Y-64643000D01*
X130556000Y-59817000D02*
X130683000Y-59690000D01*
X130556000Y-59817000D02*
X130556000Y-64643000D01*
X128397000Y-59309000D02*
X128397000Y-59690000D01*
X130683000Y-59309000D02*
X130683000Y-59690000D01*
X129413000Y-40259000D02*
G75*
G03X129159000Y-40005000I-254000J0D01*
G01*
X127127000Y-40259000D02*
G75*
G02X127381000Y-40005000I254000J0D01*
G01*
X127381000Y-46355000D02*
G75*
G02X127127000Y-46101000I0J254000D01*
G01*
X129159000Y-46355000D02*
G75*
G03X129413000Y-46101000I0J254000D01*
G01*
X129413000Y-40259000D02*
X129413000Y-40640000D01*
X129286000Y-40767000D02*
X129413000Y-40640000D01*
X127127000Y-40259000D02*
X127127000Y-40640000D01*
X127254000Y-40767000D02*
X127127000Y-40640000D01*
X129286000Y-45593000D02*
X129413000Y-45720000D01*
X129286000Y-45593000D02*
X129286000Y-40767000D01*
X127254000Y-45593000D02*
X127127000Y-45720000D01*
X127254000Y-45593000D02*
X127254000Y-40767000D01*
X129413000Y-46101000D02*
X129413000Y-45720000D01*
X127127000Y-46101000D02*
X127127000Y-45720000D01*
X132207000Y-65151000D02*
G75*
G03X132461000Y-65405000I254000J0D01*
G01*
X134493000Y-65151000D02*
G75*
G02X134239000Y-65405000I-254000J0D01*
G01*
X134239000Y-59055000D02*
G75*
G02X134493000Y-59309000I0J-254000D01*
G01*
X132461000Y-59055000D02*
G75*
G03X132207000Y-59309000I0J-254000D01*
G01*
X132207000Y-65151000D02*
X132207000Y-64770000D01*
X132334000Y-64643000D02*
X132207000Y-64770000D01*
X134493000Y-65151000D02*
X134493000Y-64770000D01*
X134366000Y-64643000D02*
X134493000Y-64770000D01*
X132334000Y-59817000D02*
X132207000Y-59690000D01*
X132334000Y-59817000D02*
X132334000Y-64643000D01*
X134366000Y-59817000D02*
X134493000Y-59690000D01*
X134366000Y-59817000D02*
X134366000Y-64643000D01*
X132207000Y-59309000D02*
X132207000Y-59690000D01*
X134493000Y-59309000D02*
X134493000Y-59690000D01*
X133223000Y-40259000D02*
G75*
G03X132969000Y-40005000I-254000J0D01*
G01*
X130937000Y-40259000D02*
G75*
G02X131191000Y-40005000I254000J0D01*
G01*
X131191000Y-46355000D02*
G75*
G02X130937000Y-46101000I0J254000D01*
G01*
X132969000Y-46355000D02*
G75*
G03X133223000Y-46101000I0J254000D01*
G01*
X133223000Y-40259000D02*
X133223000Y-40640000D01*
X133096000Y-40767000D02*
X133223000Y-40640000D01*
X130937000Y-40259000D02*
X130937000Y-40640000D01*
X131064000Y-40767000D02*
X130937000Y-40640000D01*
X133096000Y-45593000D02*
X133223000Y-45720000D01*
X133096000Y-45593000D02*
X133096000Y-40767000D01*
X131064000Y-45593000D02*
X130937000Y-45720000D01*
X131064000Y-45593000D02*
X131064000Y-40767000D01*
X133223000Y-46101000D02*
X133223000Y-45720000D01*
X130937000Y-46101000D02*
X130937000Y-45720000D01*
X136017000Y-65151000D02*
G75*
G03X136271000Y-65405000I254000J0D01*
G01*
X138303000Y-65151000D02*
G75*
G02X138049000Y-65405000I-254000J0D01*
G01*
X138049000Y-59055000D02*
G75*
G02X138303000Y-59309000I0J-254000D01*
G01*
X136271000Y-59055000D02*
G75*
G03X136017000Y-59309000I0J-254000D01*
G01*
X136017000Y-65151000D02*
X136017000Y-64770000D01*
X136144000Y-64643000D02*
X136017000Y-64770000D01*
X138303000Y-65151000D02*
X138303000Y-64770000D01*
X138176000Y-64643000D02*
X138303000Y-64770000D01*
X136144000Y-59817000D02*
X136017000Y-59690000D01*
X136144000Y-59817000D02*
X136144000Y-64643000D01*
X138176000Y-59817000D02*
X138303000Y-59690000D01*
X138176000Y-59817000D02*
X138176000Y-64643000D01*
X136017000Y-59309000D02*
X136017000Y-59690000D01*
X138303000Y-59309000D02*
X138303000Y-59690000D01*
X137033000Y-40259000D02*
G75*
G03X136779000Y-40005000I-254000J0D01*
G01*
X134747000Y-40259000D02*
G75*
G02X135001000Y-40005000I254000J0D01*
G01*
X135001000Y-46355000D02*
G75*
G02X134747000Y-46101000I0J254000D01*
G01*
X136779000Y-46355000D02*
G75*
G03X137033000Y-46101000I0J254000D01*
G01*
X137033000Y-40259000D02*
X137033000Y-40640000D01*
X136906000Y-40767000D02*
X137033000Y-40640000D01*
X134747000Y-40259000D02*
X134747000Y-40640000D01*
X134874000Y-40767000D02*
X134747000Y-40640000D01*
X136906000Y-45593000D02*
X137033000Y-45720000D01*
X136906000Y-45593000D02*
X136906000Y-40767000D01*
X134874000Y-45593000D02*
X134747000Y-45720000D01*
X134874000Y-45593000D02*
X134874000Y-40767000D01*
X137033000Y-46101000D02*
X137033000Y-45720000D01*
X134747000Y-46101000D02*
X134747000Y-45720000D01*
X139827000Y-65151000D02*
G75*
G03X140081000Y-65405000I254000J0D01*
G01*
X142113000Y-65151000D02*
G75*
G02X141859000Y-65405000I-254000J0D01*
G01*
X141859000Y-59055000D02*
G75*
G02X142113000Y-59309000I0J-254000D01*
G01*
X140081000Y-59055000D02*
G75*
G03X139827000Y-59309000I0J-254000D01*
G01*
X139827000Y-65151000D02*
X139827000Y-64770000D01*
X139954000Y-64643000D02*
X139827000Y-64770000D01*
X142113000Y-65151000D02*
X142113000Y-64770000D01*
X141986000Y-64643000D02*
X142113000Y-64770000D01*
X139954000Y-59817000D02*
X139827000Y-59690000D01*
X139954000Y-59817000D02*
X139954000Y-64643000D01*
X141986000Y-59817000D02*
X142113000Y-59690000D01*
X141986000Y-59817000D02*
X141986000Y-64643000D01*
X139827000Y-59309000D02*
X139827000Y-59690000D01*
X142113000Y-59309000D02*
X142113000Y-59690000D01*
X140843000Y-40259000D02*
G75*
G03X140589000Y-40005000I-254000J0D01*
G01*
X138557000Y-40259000D02*
G75*
G02X138811000Y-40005000I254000J0D01*
G01*
X138811000Y-46355000D02*
G75*
G02X138557000Y-46101000I0J254000D01*
G01*
X140589000Y-46355000D02*
G75*
G03X140843000Y-46101000I0J254000D01*
G01*
X140843000Y-40259000D02*
X140843000Y-40640000D01*
X140716000Y-40767000D02*
X140843000Y-40640000D01*
X138557000Y-40259000D02*
X138557000Y-40640000D01*
X138684000Y-40767000D02*
X138557000Y-40640000D01*
X140716000Y-45593000D02*
X140843000Y-45720000D01*
X140716000Y-45593000D02*
X140716000Y-40767000D01*
X138684000Y-45593000D02*
X138557000Y-45720000D01*
X138684000Y-45593000D02*
X138684000Y-40767000D01*
X140843000Y-46101000D02*
X140843000Y-45720000D01*
X138557000Y-46101000D02*
X138557000Y-45720000D01*
X143637000Y-65151000D02*
G75*
G03X143891000Y-65405000I254000J0D01*
G01*
X145923000Y-65151000D02*
G75*
G02X145669000Y-65405000I-254000J0D01*
G01*
X145669000Y-59055000D02*
G75*
G02X145923000Y-59309000I0J-254000D01*
G01*
X143891000Y-59055000D02*
G75*
G03X143637000Y-59309000I0J-254000D01*
G01*
X143637000Y-65151000D02*
X143637000Y-64770000D01*
X143764000Y-64643000D02*
X143637000Y-64770000D01*
X145923000Y-65151000D02*
X145923000Y-64770000D01*
X145796000Y-64643000D02*
X145923000Y-64770000D01*
X143764000Y-59817000D02*
X143637000Y-59690000D01*
X143764000Y-59817000D02*
X143764000Y-64643000D01*
X145796000Y-59817000D02*
X145923000Y-59690000D01*
X145796000Y-59817000D02*
X145796000Y-64643000D01*
X143637000Y-59309000D02*
X143637000Y-59690000D01*
X145923000Y-59309000D02*
X145923000Y-59690000D01*
X144653000Y-40259000D02*
G75*
G03X144399000Y-40005000I-254000J0D01*
G01*
X142367000Y-40259000D02*
G75*
G02X142621000Y-40005000I254000J0D01*
G01*
X142621000Y-46355000D02*
G75*
G02X142367000Y-46101000I0J254000D01*
G01*
X144399000Y-46355000D02*
G75*
G03X144653000Y-46101000I0J254000D01*
G01*
X144653000Y-40259000D02*
X144653000Y-40640000D01*
X144526000Y-40767000D02*
X144653000Y-40640000D01*
X142367000Y-40259000D02*
X142367000Y-40640000D01*
X142494000Y-40767000D02*
X142367000Y-40640000D01*
X144526000Y-45593000D02*
X144653000Y-45720000D01*
X144526000Y-45593000D02*
X144526000Y-40767000D01*
X142494000Y-45593000D02*
X142367000Y-45720000D01*
X142494000Y-45593000D02*
X142494000Y-40767000D01*
X144653000Y-46101000D02*
X144653000Y-45720000D01*
X142367000Y-46101000D02*
X142367000Y-45720000D01*
X147447000Y-65151000D02*
G75*
G03X147701000Y-65405000I254000J0D01*
G01*
X149733000Y-65151000D02*
G75*
G02X149479000Y-65405000I-254000J0D01*
G01*
X149479000Y-59055000D02*
G75*
G02X149733000Y-59309000I0J-254000D01*
G01*
X147701000Y-59055000D02*
G75*
G03X147447000Y-59309000I0J-254000D01*
G01*
X147447000Y-65151000D02*
X147447000Y-64770000D01*
X147574000Y-64643000D02*
X147447000Y-64770000D01*
X149733000Y-65151000D02*
X149733000Y-64770000D01*
X149606000Y-64643000D02*
X149733000Y-64770000D01*
X147574000Y-59817000D02*
X147447000Y-59690000D01*
X147574000Y-59817000D02*
X147574000Y-64643000D01*
X149606000Y-59817000D02*
X149733000Y-59690000D01*
X149606000Y-59817000D02*
X149606000Y-64643000D01*
X147447000Y-59309000D02*
X147447000Y-59690000D01*
X149733000Y-59309000D02*
X149733000Y-59690000D01*
X148463000Y-40259000D02*
G75*
G03X148209000Y-40005000I-254000J0D01*
G01*
X146177000Y-40259000D02*
G75*
G02X146431000Y-40005000I254000J0D01*
G01*
X146431000Y-46355000D02*
G75*
G02X146177000Y-46101000I0J254000D01*
G01*
X148209000Y-46355000D02*
G75*
G03X148463000Y-46101000I0J254000D01*
G01*
X148463000Y-40259000D02*
X148463000Y-40640000D01*
X148336000Y-40767000D02*
X148463000Y-40640000D01*
X146177000Y-40259000D02*
X146177000Y-40640000D01*
X146304000Y-40767000D02*
X146177000Y-40640000D01*
X148336000Y-45593000D02*
X148463000Y-45720000D01*
X148336000Y-45593000D02*
X148336000Y-40767000D01*
X146304000Y-45593000D02*
X146177000Y-45720000D01*
X146304000Y-45593000D02*
X146304000Y-40767000D01*
X148463000Y-46101000D02*
X148463000Y-45720000D01*
X146177000Y-46101000D02*
X146177000Y-45720000D01*
X109016800Y-128346200D02*
G75*
G03X108762800Y-128092200I-254000J0D01*
G01*
X106730800Y-128346200D02*
G75*
G02X106984800Y-128092200I254000J0D01*
G01*
X106984800Y-134442200D02*
G75*
G02X106730800Y-134188200I0J254000D01*
G01*
X108762800Y-134442200D02*
G75*
G03X109016800Y-134188200I0J254000D01*
G01*
X106984800Y-128092200D02*
X108762800Y-128092200D01*
X109016800Y-128346200D02*
X109016800Y-128727200D01*
X108889800Y-128854200D02*
X109016800Y-128727200D01*
X106730800Y-128346200D02*
X106730800Y-128727200D01*
X106857800Y-128854200D02*
X106730800Y-128727200D01*
X108889800Y-133680200D02*
X109016800Y-133807200D01*
X108889800Y-133680200D02*
X108889800Y-128854200D01*
X106857800Y-133680200D02*
X106730800Y-133807200D01*
X106857800Y-133680200D02*
X106857800Y-128854200D01*
X109016800Y-134188200D02*
X109016800Y-133807200D01*
X106730800Y-134188200D02*
X106730800Y-133807200D01*
X106984800Y-134442200D02*
X108762800Y-134442200D01*
D10*
G36*
X107569000Y-134442200D02*
X107569000Y-135305800D01*
X108178600Y-135305800D01*
X108178600Y-134442200D01*
X107569000Y-134442200D01*
G37*
G36*
X107569000Y-127228600D02*
X107569000Y-128092200D01*
X108178600Y-128092200D01*
X108178600Y-127228600D01*
X107569000Y-127228600D01*
G37*
D11*
X120548400Y-128143000D02*
G75*
G03X120294400Y-127889000I-254000J0D01*
G01*
X118262400Y-128143000D02*
G75*
G02X118516400Y-127889000I254000J0D01*
G01*
X118516400Y-134239000D02*
G75*
G02X118262400Y-133985000I0J254000D01*
G01*
X120294400Y-134239000D02*
G75*
G03X120548400Y-133985000I0J254000D01*
G01*
X118516400Y-127889000D02*
X120294400Y-127889000D01*
X120548400Y-128143000D02*
X120548400Y-128524000D01*
X120421400Y-128651000D02*
X120548400Y-128524000D01*
X118262400Y-128143000D02*
X118262400Y-128524000D01*
X118389400Y-128651000D02*
X118262400Y-128524000D01*
X120421400Y-133477000D02*
X120548400Y-133604000D01*
X120421400Y-133477000D02*
X120421400Y-128651000D01*
X118389400Y-133477000D02*
X118262400Y-133604000D01*
X118389400Y-133477000D02*
X118389400Y-128651000D01*
X120548400Y-133985000D02*
X120548400Y-133604000D01*
X118262400Y-133985000D02*
X118262400Y-133604000D01*
X118516400Y-134239000D02*
X120294400Y-134239000D01*
D10*
G36*
X119100600Y-134239000D02*
X119100600Y-135102600D01*
X119710200Y-135102600D01*
X119710200Y-134239000D01*
X119100600Y-134239000D01*
G37*
G36*
X119100600Y-127025400D02*
X119100600Y-127889000D01*
X119710200Y-127889000D01*
X119710200Y-127025400D01*
X119100600Y-127025400D01*
G37*
D11*
X124663200Y-86461600D02*
G75*
G03X124409200Y-86207600I-254000J0D01*
G01*
X122377200Y-86461600D02*
G75*
G02X122631200Y-86207600I254000J0D01*
G01*
X122631200Y-92557600D02*
G75*
G02X122377200Y-92303600I0J254000D01*
G01*
X124409200Y-92557600D02*
G75*
G03X124663200Y-92303600I0J254000D01*
G01*
X122631200Y-86207600D02*
X124409200Y-86207600D01*
X124663200Y-86461600D02*
X124663200Y-86842600D01*
X124536200Y-86969600D02*
X124663200Y-86842600D01*
X122377200Y-86461600D02*
X122377200Y-86842600D01*
X122504200Y-86969600D02*
X122377200Y-86842600D01*
X124536200Y-91795600D02*
X124663200Y-91922600D01*
X124536200Y-91795600D02*
X124536200Y-86969600D01*
X122504200Y-91795600D02*
X122377200Y-91922600D01*
X122504200Y-91795600D02*
X122504200Y-86969600D01*
X124663200Y-92303600D02*
X124663200Y-91922600D01*
X122377200Y-92303600D02*
X122377200Y-91922600D01*
X122631200Y-92557600D02*
X124409200Y-92557600D01*
D10*
G36*
X123215400Y-92557600D02*
X123215400Y-93421200D01*
X123825000Y-93421200D01*
X123825000Y-92557600D01*
X123215400Y-92557600D01*
G37*
G36*
X123215400Y-85344000D02*
X123215400Y-86207600D01*
X123825000Y-86207600D01*
X123825000Y-85344000D01*
X123215400Y-85344000D01*
G37*
D11*
X134264400Y-92024200D02*
G75*
G03X134518400Y-92278200I254000J0D01*
G01*
X136550400Y-92024200D02*
G75*
G02X136296400Y-92278200I-254000J0D01*
G01*
X136296400Y-85928200D02*
G75*
G02X136550400Y-86182200I0J-254000D01*
G01*
X134518400Y-85928200D02*
G75*
G03X134264400Y-86182200I0J-254000D01*
G01*
X136296400Y-92278200D02*
X134518400Y-92278200D01*
X134264400Y-92024200D02*
X134264400Y-91643200D01*
X134391400Y-91516200D02*
X134264400Y-91643200D01*
X136550400Y-92024200D02*
X136550400Y-91643200D01*
X136423400Y-91516200D02*
X136550400Y-91643200D01*
X134391400Y-86690200D02*
X134264400Y-86563200D01*
X134391400Y-86690200D02*
X134391400Y-91516200D01*
X136423400Y-86690200D02*
X136550400Y-86563200D01*
X136423400Y-86690200D02*
X136423400Y-91516200D01*
X134264400Y-86182200D02*
X134264400Y-86563200D01*
X136550400Y-86182200D02*
X136550400Y-86563200D01*
X136296400Y-85928200D02*
X134518400Y-85928200D01*
D10*
G36*
X135712200Y-85928200D02*
X135712200Y-85064600D01*
X135102600Y-85064600D01*
X135102600Y-85928200D01*
X135712200Y-85928200D01*
G37*
G36*
X135712200Y-93141800D02*
X135712200Y-92278200D01*
X135102600Y-92278200D01*
X135102600Y-93141800D01*
X135712200Y-93141800D01*
G37*
D11*
X105537000Y-112776000D02*
G75*
G03X105283000Y-112522000I-254000J0D01*
G01*
X103251000Y-112776000D02*
G75*
G02X103505000Y-112522000I254000J0D01*
G01*
X103505000Y-118872000D02*
G75*
G02X103251000Y-118618000I0J254000D01*
G01*
X105283000Y-118872000D02*
G75*
G03X105537000Y-118618000I0J254000D01*
G01*
X103505000Y-112522000D02*
X105283000Y-112522000D01*
X105537000Y-112776000D02*
X105537000Y-113157000D01*
X105410000Y-113284000D02*
X105537000Y-113157000D01*
X103251000Y-112776000D02*
X103251000Y-113157000D01*
X103378000Y-113284000D02*
X103251000Y-113157000D01*
X105410000Y-118110000D02*
X105537000Y-118237000D01*
X105410000Y-118110000D02*
X105410000Y-113284000D01*
X103378000Y-118110000D02*
X103251000Y-118237000D01*
X103378000Y-118110000D02*
X103378000Y-113284000D01*
X105537000Y-118618000D02*
X105537000Y-118237000D01*
X103251000Y-118618000D02*
X103251000Y-118237000D01*
X103505000Y-118872000D02*
X105283000Y-118872000D01*
D10*
G36*
X104089200Y-118872000D02*
X104089200Y-119735600D01*
X104698800Y-119735600D01*
X104698800Y-118872000D01*
X104089200Y-118872000D01*
G37*
G36*
X104089200Y-111658400D02*
X104089200Y-112522000D01*
X104698800Y-112522000D01*
X104698800Y-111658400D01*
X104089200Y-111658400D01*
G37*
D11*
X117856000Y-112649000D02*
G75*
G03X117602000Y-112395000I-254000J0D01*
G01*
X115570000Y-112649000D02*
G75*
G02X115824000Y-112395000I254000J0D01*
G01*
X115824000Y-118745000D02*
G75*
G02X115570000Y-118491000I0J254000D01*
G01*
X117602000Y-118745000D02*
G75*
G03X117856000Y-118491000I0J254000D01*
G01*
X115824000Y-112395000D02*
X117602000Y-112395000D01*
X117856000Y-112649000D02*
X117856000Y-113030000D01*
X117729000Y-113157000D02*
X117856000Y-113030000D01*
X115570000Y-112649000D02*
X115570000Y-113030000D01*
X115697000Y-113157000D02*
X115570000Y-113030000D01*
X117729000Y-117983000D02*
X117856000Y-118110000D01*
X117729000Y-117983000D02*
X117729000Y-113157000D01*
X115697000Y-117983000D02*
X115570000Y-118110000D01*
X115697000Y-117983000D02*
X115697000Y-113157000D01*
X117856000Y-118491000D02*
X117856000Y-118110000D01*
X115570000Y-118491000D02*
X115570000Y-118110000D01*
X115824000Y-118745000D02*
X117602000Y-118745000D01*
D10*
G36*
X116408200Y-118745000D02*
X116408200Y-119608600D01*
X117017800Y-119608600D01*
X117017800Y-118745000D01*
X116408200Y-118745000D01*
G37*
G36*
X116408200Y-111531400D02*
X116408200Y-112395000D01*
X117017800Y-112395000D01*
X117017800Y-111531400D01*
X116408200Y-111531400D01*
G37*
D11*
X61087000Y-89281000D02*
G75*
G03X61341000Y-89535000I254000J0D01*
G01*
X63373000Y-89281000D02*
G75*
G02X63119000Y-89535000I-254000J0D01*
G01*
X63119000Y-83185000D02*
G75*
G02X63373000Y-83439000I0J-254000D01*
G01*
X61341000Y-83185000D02*
G75*
G03X61087000Y-83439000I0J-254000D01*
G01*
X63119000Y-89535000D02*
X61341000Y-89535000D01*
X61087000Y-89281000D02*
X61087000Y-88900000D01*
X61214000Y-88773000D02*
X61087000Y-88900000D01*
X63373000Y-89281000D02*
X63373000Y-88900000D01*
X63246000Y-88773000D02*
X63373000Y-88900000D01*
X61214000Y-83947000D02*
X61087000Y-83820000D01*
X61214000Y-83947000D02*
X61214000Y-88773000D01*
X63246000Y-83947000D02*
X63373000Y-83820000D01*
X63246000Y-83947000D02*
X63246000Y-88773000D01*
X61087000Y-83439000D02*
X61087000Y-83820000D01*
X63373000Y-83439000D02*
X63373000Y-83820000D01*
X63119000Y-83185000D02*
X61341000Y-83185000D01*
D10*
G36*
X62534800Y-83185000D02*
X62534800Y-82321400D01*
X61925200Y-82321400D01*
X61925200Y-83185000D01*
X62534800Y-83185000D01*
G37*
G36*
X62534800Y-90398600D02*
X62534800Y-89535000D01*
X61925200Y-89535000D01*
X61925200Y-90398600D01*
X62534800Y-90398600D01*
G37*
D11*
X73533000Y-83439000D02*
G75*
G03X73279000Y-83185000I-254000J0D01*
G01*
X71247000Y-83439000D02*
G75*
G02X71501000Y-83185000I254000J0D01*
G01*
X71501000Y-89535000D02*
G75*
G02X71247000Y-89281000I0J254000D01*
G01*
X73279000Y-89535000D02*
G75*
G03X73533000Y-89281000I0J254000D01*
G01*
X71501000Y-83185000D02*
X73279000Y-83185000D01*
X73533000Y-83439000D02*
X73533000Y-83820000D01*
X73406000Y-83947000D02*
X73533000Y-83820000D01*
X71247000Y-83439000D02*
X71247000Y-83820000D01*
X71374000Y-83947000D02*
X71247000Y-83820000D01*
X73406000Y-88773000D02*
X73533000Y-88900000D01*
X73406000Y-88773000D02*
X73406000Y-83947000D01*
X71374000Y-88773000D02*
X71247000Y-88900000D01*
X71374000Y-88773000D02*
X71374000Y-83947000D01*
X73533000Y-89281000D02*
X73533000Y-88900000D01*
X71247000Y-89281000D02*
X71247000Y-88900000D01*
X71501000Y-89535000D02*
X73279000Y-89535000D01*
D10*
G36*
X72085200Y-89535000D02*
X72085200Y-90398600D01*
X72694800Y-90398600D01*
X72694800Y-89535000D01*
X72085200Y-89535000D01*
G37*
G36*
X72085200Y-82321400D02*
X72085200Y-83185000D01*
X72694800Y-83185000D01*
X72694800Y-82321400D01*
X72085200Y-82321400D01*
G37*
D11*
X105537000Y-98552000D02*
G75*
G03X105283000Y-98298000I-254000J0D01*
G01*
X103251000Y-98552000D02*
G75*
G02X103505000Y-98298000I254000J0D01*
G01*
X103505000Y-104648000D02*
G75*
G02X103251000Y-104394000I0J254000D01*
G01*
X105283000Y-104648000D02*
G75*
G03X105537000Y-104394000I0J254000D01*
G01*
X103505000Y-98298000D02*
X105283000Y-98298000D01*
X105537000Y-98552000D02*
X105537000Y-98933000D01*
X105410000Y-99060000D02*
X105537000Y-98933000D01*
X103251000Y-98552000D02*
X103251000Y-98933000D01*
X103378000Y-99060000D02*
X103251000Y-98933000D01*
X105410000Y-103886000D02*
X105537000Y-104013000D01*
X105410000Y-103886000D02*
X105410000Y-99060000D01*
X103378000Y-103886000D02*
X103251000Y-104013000D01*
X103378000Y-103886000D02*
X103378000Y-99060000D01*
X105537000Y-104394000D02*
X105537000Y-104013000D01*
X103251000Y-104394000D02*
X103251000Y-104013000D01*
X103505000Y-104648000D02*
X105283000Y-104648000D01*
D10*
G36*
X104089200Y-104648000D02*
X104089200Y-105511600D01*
X104698800Y-105511600D01*
X104698800Y-104648000D01*
X104089200Y-104648000D01*
G37*
G36*
X104089200Y-97434400D02*
X104089200Y-98298000D01*
X104698800Y-98298000D01*
X104698800Y-97434400D01*
X104089200Y-97434400D01*
G37*
D11*
X117856000Y-98171000D02*
G75*
G03X117602000Y-97917000I-254000J0D01*
G01*
X115570000Y-98171000D02*
G75*
G02X115824000Y-97917000I254000J0D01*
G01*
X115824000Y-104267000D02*
G75*
G02X115570000Y-104013000I0J254000D01*
G01*
X117602000Y-104267000D02*
G75*
G03X117856000Y-104013000I0J254000D01*
G01*
X115824000Y-97917000D02*
X117602000Y-97917000D01*
X117856000Y-98171000D02*
X117856000Y-98552000D01*
X117729000Y-98679000D02*
X117856000Y-98552000D01*
X115570000Y-98171000D02*
X115570000Y-98552000D01*
X115697000Y-98679000D02*
X115570000Y-98552000D01*
X117729000Y-103505000D02*
X117856000Y-103632000D01*
X117729000Y-103505000D02*
X117729000Y-98679000D01*
X115697000Y-103505000D02*
X115570000Y-103632000D01*
X115697000Y-103505000D02*
X115697000Y-98679000D01*
X117856000Y-104013000D02*
X117856000Y-103632000D01*
X115570000Y-104013000D02*
X115570000Y-103632000D01*
X115824000Y-104267000D02*
X117602000Y-104267000D01*
D10*
G36*
X116408200Y-104267000D02*
X116408200Y-105130600D01*
X117017800Y-105130600D01*
X117017800Y-104267000D01*
X116408200Y-104267000D01*
G37*
G36*
X116408200Y-97053400D02*
X116408200Y-97917000D01*
X117017800Y-97917000D01*
X117017800Y-97053400D01*
X116408200Y-97053400D01*
G37*
D11*
X105638600Y-83439000D02*
G75*
G03X105384600Y-83185000I-254000J0D01*
G01*
X103352600Y-83439000D02*
G75*
G02X103606600Y-83185000I254000J0D01*
G01*
X103606600Y-89535000D02*
G75*
G02X103352600Y-89281000I0J254000D01*
G01*
X105384600Y-89535000D02*
G75*
G03X105638600Y-89281000I0J254000D01*
G01*
X103606600Y-83185000D02*
X105384600Y-83185000D01*
X105638600Y-83439000D02*
X105638600Y-83820000D01*
X105511600Y-83947000D02*
X105638600Y-83820000D01*
X103352600Y-83439000D02*
X103352600Y-83820000D01*
X103479600Y-83947000D02*
X103352600Y-83820000D01*
X105511600Y-88773000D02*
X105638600Y-88900000D01*
X105511600Y-88773000D02*
X105511600Y-83947000D01*
X103479600Y-88773000D02*
X103352600Y-88900000D01*
X103479600Y-88773000D02*
X103479600Y-83947000D01*
X105638600Y-89281000D02*
X105638600Y-88900000D01*
X103352600Y-89281000D02*
X103352600Y-88900000D01*
X103606600Y-89535000D02*
X105384600Y-89535000D01*
D10*
G36*
X104190800Y-89535000D02*
X104190800Y-90398600D01*
X104800400Y-90398600D01*
X104800400Y-89535000D01*
X104190800Y-89535000D01*
G37*
G36*
X104190800Y-82321400D02*
X104190800Y-83185000D01*
X104800400Y-83185000D01*
X104800400Y-82321400D01*
X104190800Y-82321400D01*
G37*
D11*
X115544600Y-89281000D02*
G75*
G03X115798600Y-89535000I254000J0D01*
G01*
X117830600Y-89281000D02*
G75*
G02X117576600Y-89535000I-254000J0D01*
G01*
X117576600Y-83185000D02*
G75*
G02X117830600Y-83439000I0J-254000D01*
G01*
X115798600Y-83185000D02*
G75*
G03X115544600Y-83439000I0J-254000D01*
G01*
X117576600Y-89535000D02*
X115798600Y-89535000D01*
X115544600Y-89281000D02*
X115544600Y-88900000D01*
X115671600Y-88773000D02*
X115544600Y-88900000D01*
X117830600Y-89281000D02*
X117830600Y-88900000D01*
X117703600Y-88773000D02*
X117830600Y-88900000D01*
X115671600Y-83947000D02*
X115544600Y-83820000D01*
X115671600Y-83947000D02*
X115671600Y-88773000D01*
X117703600Y-83947000D02*
X117830600Y-83820000D01*
X117703600Y-83947000D02*
X117703600Y-88773000D01*
X115544600Y-83439000D02*
X115544600Y-83820000D01*
X117830600Y-83439000D02*
X117830600Y-83820000D01*
X117576600Y-83185000D02*
X115798600Y-83185000D01*
D10*
G36*
X116992400Y-83185000D02*
X116992400Y-82321400D01*
X116382800Y-82321400D01*
X116382800Y-83185000D01*
X116992400Y-83185000D01*
G37*
G36*
X116992400Y-90398600D02*
X116992400Y-89535000D01*
X116382800Y-89535000D01*
X116382800Y-90398600D01*
X116992400Y-90398600D01*
G37*
D11*
X89662000Y-120396000D02*
G75*
G03X89408000Y-120142000I-254000J0D01*
G01*
X87376000Y-120396000D02*
G75*
G02X87630000Y-120142000I254000J0D01*
G01*
X87630000Y-126492000D02*
G75*
G02X87376000Y-126238000I0J254000D01*
G01*
X89408000Y-126492000D02*
G75*
G03X89662000Y-126238000I0J254000D01*
G01*
X87630000Y-120142000D02*
X89408000Y-120142000D01*
X89662000Y-120396000D02*
X89662000Y-120777000D01*
X89535000Y-120904000D02*
X89662000Y-120777000D01*
X87376000Y-120396000D02*
X87376000Y-120777000D01*
X87503000Y-120904000D02*
X87376000Y-120777000D01*
X89535000Y-125730000D02*
X89662000Y-125857000D01*
X89535000Y-125730000D02*
X89535000Y-120904000D01*
X87503000Y-125730000D02*
X87376000Y-125857000D01*
X87503000Y-125730000D02*
X87503000Y-120904000D01*
X89662000Y-126238000D02*
X89662000Y-125857000D01*
X87376000Y-126238000D02*
X87376000Y-125857000D01*
X87630000Y-126492000D02*
X89408000Y-126492000D01*
D10*
G36*
X88214200Y-126492000D02*
X88214200Y-127355600D01*
X88823800Y-127355600D01*
X88823800Y-126492000D01*
X88214200Y-126492000D01*
G37*
G36*
X88214200Y-119278400D02*
X88214200Y-120142000D01*
X88823800Y-120142000D01*
X88823800Y-119278400D01*
X88214200Y-119278400D01*
G37*
D11*
X100203000Y-120650000D02*
G75*
G03X99949000Y-120396000I-254000J0D01*
G01*
X97917000Y-120650000D02*
G75*
G02X98171000Y-120396000I254000J0D01*
G01*
X98171000Y-126746000D02*
G75*
G02X97917000Y-126492000I0J254000D01*
G01*
X99949000Y-126746000D02*
G75*
G03X100203000Y-126492000I0J254000D01*
G01*
X98171000Y-120396000D02*
X99949000Y-120396000D01*
X100203000Y-120650000D02*
X100203000Y-121031000D01*
X100076000Y-121158000D02*
X100203000Y-121031000D01*
X97917000Y-120650000D02*
X97917000Y-121031000D01*
X98044000Y-121158000D02*
X97917000Y-121031000D01*
X100076000Y-125984000D02*
X100203000Y-126111000D01*
X100076000Y-125984000D02*
X100076000Y-121158000D01*
X98044000Y-125984000D02*
X97917000Y-126111000D01*
X98044000Y-125984000D02*
X98044000Y-121158000D01*
X100203000Y-126492000D02*
X100203000Y-126111000D01*
X97917000Y-126492000D02*
X97917000Y-126111000D01*
X98171000Y-126746000D02*
X99949000Y-126746000D01*
D10*
G36*
X98755200Y-126746000D02*
X98755200Y-127609600D01*
X99364800Y-127609600D01*
X99364800Y-126746000D01*
X98755200Y-126746000D01*
G37*
G36*
X98755200Y-119532400D02*
X98755200Y-120396000D01*
X99364800Y-120396000D01*
X99364800Y-119532400D01*
X98755200Y-119532400D01*
G37*
D11*
X63373000Y-69469000D02*
G75*
G03X63119000Y-69215000I-254000J0D01*
G01*
X61087000Y-69469000D02*
G75*
G02X61341000Y-69215000I254000J0D01*
G01*
X61341000Y-75565000D02*
G75*
G02X61087000Y-75311000I0J254000D01*
G01*
X63119000Y-75565000D02*
G75*
G03X63373000Y-75311000I0J254000D01*
G01*
X61341000Y-69215000D02*
X63119000Y-69215000D01*
X63373000Y-69469000D02*
X63373000Y-69850000D01*
X63246000Y-69977000D02*
X63373000Y-69850000D01*
X61087000Y-69469000D02*
X61087000Y-69850000D01*
X61214000Y-69977000D02*
X61087000Y-69850000D01*
X63246000Y-74803000D02*
X63373000Y-74930000D01*
X63246000Y-74803000D02*
X63246000Y-69977000D01*
X61214000Y-74803000D02*
X61087000Y-74930000D01*
X61214000Y-74803000D02*
X61214000Y-69977000D01*
X63373000Y-75311000D02*
X63373000Y-74930000D01*
X61087000Y-75311000D02*
X61087000Y-74930000D01*
X61341000Y-75565000D02*
X63119000Y-75565000D01*
D10*
G36*
X61925200Y-75565000D02*
X61925200Y-76428600D01*
X62534800Y-76428600D01*
X62534800Y-75565000D01*
X61925200Y-75565000D01*
G37*
G36*
X61925200Y-68351400D02*
X61925200Y-69215000D01*
X62534800Y-69215000D01*
X62534800Y-68351400D01*
X61925200Y-68351400D01*
G37*
D11*
X73533000Y-69469000D02*
G75*
G03X73279000Y-69215000I-254000J0D01*
G01*
X71247000Y-69469000D02*
G75*
G02X71501000Y-69215000I254000J0D01*
G01*
X71501000Y-75565000D02*
G75*
G02X71247000Y-75311000I0J254000D01*
G01*
X73279000Y-75565000D02*
G75*
G03X73533000Y-75311000I0J254000D01*
G01*
X71501000Y-69215000D02*
X73279000Y-69215000D01*
X73533000Y-69469000D02*
X73533000Y-69850000D01*
X73406000Y-69977000D02*
X73533000Y-69850000D01*
X71247000Y-69469000D02*
X71247000Y-69850000D01*
X71374000Y-69977000D02*
X71247000Y-69850000D01*
X73406000Y-74803000D02*
X73533000Y-74930000D01*
X73406000Y-74803000D02*
X73406000Y-69977000D01*
X71374000Y-74803000D02*
X71247000Y-74930000D01*
X71374000Y-74803000D02*
X71374000Y-69977000D01*
X73533000Y-75311000D02*
X73533000Y-74930000D01*
X71247000Y-75311000D02*
X71247000Y-74930000D01*
X71501000Y-75565000D02*
X73279000Y-75565000D01*
D10*
G36*
X72085200Y-75565000D02*
X72085200Y-76428600D01*
X72694800Y-76428600D01*
X72694800Y-75565000D01*
X72085200Y-75565000D01*
G37*
G36*
X72085200Y-68351400D02*
X72085200Y-69215000D01*
X72694800Y-69215000D01*
X72694800Y-68351400D01*
X72085200Y-68351400D01*
G37*
D11*
X63373000Y-98679000D02*
G75*
G03X63119000Y-98425000I-254000J0D01*
G01*
X61087000Y-98679000D02*
G75*
G02X61341000Y-98425000I254000J0D01*
G01*
X61341000Y-104775000D02*
G75*
G02X61087000Y-104521000I0J254000D01*
G01*
X63119000Y-104775000D02*
G75*
G03X63373000Y-104521000I0J254000D01*
G01*
X61341000Y-98425000D02*
X63119000Y-98425000D01*
X63373000Y-98679000D02*
X63373000Y-99060000D01*
X63246000Y-99187000D02*
X63373000Y-99060000D01*
X61087000Y-98679000D02*
X61087000Y-99060000D01*
X61214000Y-99187000D02*
X61087000Y-99060000D01*
X63246000Y-104013000D02*
X63373000Y-104140000D01*
X63246000Y-104013000D02*
X63246000Y-99187000D01*
X61214000Y-104013000D02*
X61087000Y-104140000D01*
X61214000Y-104013000D02*
X61214000Y-99187000D01*
X63373000Y-104521000D02*
X63373000Y-104140000D01*
X61087000Y-104521000D02*
X61087000Y-104140000D01*
X61341000Y-104775000D02*
X63119000Y-104775000D01*
D10*
G36*
X61925200Y-104775000D02*
X61925200Y-105638600D01*
X62534800Y-105638600D01*
X62534800Y-104775000D01*
X61925200Y-104775000D01*
G37*
G36*
X61925200Y-97561400D02*
X61925200Y-98425000D01*
X62534800Y-98425000D01*
X62534800Y-97561400D01*
X61925200Y-97561400D01*
G37*
D11*
X71247000Y-104521000D02*
G75*
G03X71501000Y-104775000I254000J0D01*
G01*
X73533000Y-104521000D02*
G75*
G02X73279000Y-104775000I-254000J0D01*
G01*
X73279000Y-98425000D02*
G75*
G02X73533000Y-98679000I0J-254000D01*
G01*
X71501000Y-98425000D02*
G75*
G03X71247000Y-98679000I0J-254000D01*
G01*
X73279000Y-104775000D02*
X71501000Y-104775000D01*
X71247000Y-104521000D02*
X71247000Y-104140000D01*
X71374000Y-104013000D02*
X71247000Y-104140000D01*
X73533000Y-104521000D02*
X73533000Y-104140000D01*
X73406000Y-104013000D02*
X73533000Y-104140000D01*
X71374000Y-99187000D02*
X71247000Y-99060000D01*
X71374000Y-99187000D02*
X71374000Y-104013000D01*
X73406000Y-99187000D02*
X73533000Y-99060000D01*
X73406000Y-99187000D02*
X73406000Y-104013000D01*
X71247000Y-98679000D02*
X71247000Y-99060000D01*
X73533000Y-98679000D02*
X73533000Y-99060000D01*
X73279000Y-98425000D02*
X71501000Y-98425000D01*
D10*
G36*
X72694800Y-98425000D02*
X72694800Y-97561400D01*
X72085200Y-97561400D01*
X72085200Y-98425000D01*
X72694800Y-98425000D01*
G37*
G36*
X72694800Y-105638600D02*
X72694800Y-104775000D01*
X72085200Y-104775000D01*
X72085200Y-105638600D01*
X72694800Y-105638600D01*
G37*
D11*
X63373000Y-112649000D02*
G75*
G03X63119000Y-112395000I-254000J0D01*
G01*
X61087000Y-112649000D02*
G75*
G02X61341000Y-112395000I254000J0D01*
G01*
X61341000Y-118745000D02*
G75*
G02X61087000Y-118491000I0J254000D01*
G01*
X63119000Y-118745000D02*
G75*
G03X63373000Y-118491000I0J254000D01*
G01*
X61341000Y-112395000D02*
X63119000Y-112395000D01*
X63373000Y-112649000D02*
X63373000Y-113030000D01*
X63246000Y-113157000D02*
X63373000Y-113030000D01*
X61087000Y-112649000D02*
X61087000Y-113030000D01*
X61214000Y-113157000D02*
X61087000Y-113030000D01*
X63246000Y-117983000D02*
X63373000Y-118110000D01*
X63246000Y-117983000D02*
X63246000Y-113157000D01*
X61214000Y-117983000D02*
X61087000Y-118110000D01*
X61214000Y-117983000D02*
X61214000Y-113157000D01*
X63373000Y-118491000D02*
X63373000Y-118110000D01*
X61087000Y-118491000D02*
X61087000Y-118110000D01*
X61341000Y-118745000D02*
X63119000Y-118745000D01*
D10*
G36*
X61925200Y-118745000D02*
X61925200Y-119608600D01*
X62534800Y-119608600D01*
X62534800Y-118745000D01*
X61925200Y-118745000D01*
G37*
G36*
X61925200Y-111531400D02*
X61925200Y-112395000D01*
X62534800Y-112395000D01*
X62534800Y-111531400D01*
X61925200Y-111531400D01*
G37*
D11*
X73533000Y-112649000D02*
G75*
G03X73279000Y-112395000I-254000J0D01*
G01*
X71247000Y-112649000D02*
G75*
G02X71501000Y-112395000I254000J0D01*
G01*
X71501000Y-118745000D02*
G75*
G02X71247000Y-118491000I0J254000D01*
G01*
X73279000Y-118745000D02*
G75*
G03X73533000Y-118491000I0J254000D01*
G01*
X71501000Y-112395000D02*
X73279000Y-112395000D01*
X73533000Y-112649000D02*
X73533000Y-113030000D01*
X73406000Y-113157000D02*
X73533000Y-113030000D01*
X71247000Y-112649000D02*
X71247000Y-113030000D01*
X71374000Y-113157000D02*
X71247000Y-113030000D01*
X73406000Y-117983000D02*
X73533000Y-118110000D01*
X73406000Y-117983000D02*
X73406000Y-113157000D01*
X71374000Y-117983000D02*
X71247000Y-118110000D01*
X71374000Y-117983000D02*
X71374000Y-113157000D01*
X73533000Y-118491000D02*
X73533000Y-118110000D01*
X71247000Y-118491000D02*
X71247000Y-118110000D01*
X71501000Y-118745000D02*
X73279000Y-118745000D01*
D10*
G36*
X72085200Y-118745000D02*
X72085200Y-119608600D01*
X72694800Y-119608600D01*
X72694800Y-118745000D01*
X72085200Y-118745000D01*
G37*
G36*
X72085200Y-111531400D02*
X72085200Y-112395000D01*
X72694800Y-112395000D01*
X72694800Y-111531400D01*
X72085200Y-111531400D01*
G37*
D11*
X63373000Y-126619000D02*
G75*
G03X63119000Y-126365000I-254000J0D01*
G01*
X61087000Y-126619000D02*
G75*
G02X61341000Y-126365000I254000J0D01*
G01*
X61341000Y-132715000D02*
G75*
G02X61087000Y-132461000I0J254000D01*
G01*
X63119000Y-132715000D02*
G75*
G03X63373000Y-132461000I0J254000D01*
G01*
X61341000Y-126365000D02*
X63119000Y-126365000D01*
X63373000Y-126619000D02*
X63373000Y-127000000D01*
X63246000Y-127127000D02*
X63373000Y-127000000D01*
X61087000Y-126619000D02*
X61087000Y-127000000D01*
X61214000Y-127127000D02*
X61087000Y-127000000D01*
X63246000Y-131953000D02*
X63373000Y-132080000D01*
X63246000Y-131953000D02*
X63246000Y-127127000D01*
X61214000Y-131953000D02*
X61087000Y-132080000D01*
X61214000Y-131953000D02*
X61214000Y-127127000D01*
X63373000Y-132461000D02*
X63373000Y-132080000D01*
X61087000Y-132461000D02*
X61087000Y-132080000D01*
X61341000Y-132715000D02*
X63119000Y-132715000D01*
D10*
G36*
X61925200Y-132715000D02*
X61925200Y-133578600D01*
X62534800Y-133578600D01*
X62534800Y-132715000D01*
X61925200Y-132715000D01*
G37*
G36*
X61925200Y-125501400D02*
X61925200Y-126365000D01*
X62534800Y-126365000D01*
X62534800Y-125501400D01*
X61925200Y-125501400D01*
G37*
D11*
X73533000Y-126619000D02*
G75*
G03X73279000Y-126365000I-254000J0D01*
G01*
X71247000Y-126619000D02*
G75*
G02X71501000Y-126365000I254000J0D01*
G01*
X71501000Y-132715000D02*
G75*
G02X71247000Y-132461000I0J254000D01*
G01*
X73279000Y-132715000D02*
G75*
G03X73533000Y-132461000I0J254000D01*
G01*
X71501000Y-126365000D02*
X73279000Y-126365000D01*
X73533000Y-126619000D02*
X73533000Y-127000000D01*
X73406000Y-127127000D02*
X73533000Y-127000000D01*
X71247000Y-126619000D02*
X71247000Y-127000000D01*
X71374000Y-127127000D02*
X71247000Y-127000000D01*
X73406000Y-131953000D02*
X73533000Y-132080000D01*
X73406000Y-131953000D02*
X73406000Y-127127000D01*
X71374000Y-131953000D02*
X71247000Y-132080000D01*
X71374000Y-131953000D02*
X71374000Y-127127000D01*
X73533000Y-132461000D02*
X73533000Y-132080000D01*
X71247000Y-132461000D02*
X71247000Y-132080000D01*
X71501000Y-132715000D02*
X73279000Y-132715000D01*
D10*
G36*
X72085200Y-132715000D02*
X72085200Y-133578600D01*
X72694800Y-133578600D01*
X72694800Y-132715000D01*
X72085200Y-132715000D01*
G37*
G36*
X72085200Y-125501400D02*
X72085200Y-126365000D01*
X72694800Y-126365000D01*
X72694800Y-125501400D01*
X72085200Y-125501400D01*
G37*
D11*
X63373000Y-55499000D02*
G75*
G03X63119000Y-55245000I-254000J0D01*
G01*
X61087000Y-55499000D02*
G75*
G02X61341000Y-55245000I254000J0D01*
G01*
X61341000Y-61595000D02*
G75*
G02X61087000Y-61341000I0J254000D01*
G01*
X63119000Y-61595000D02*
G75*
G03X63373000Y-61341000I0J254000D01*
G01*
X61341000Y-55245000D02*
X63119000Y-55245000D01*
X63373000Y-55499000D02*
X63373000Y-55880000D01*
X63246000Y-56007000D02*
X63373000Y-55880000D01*
X61087000Y-55499000D02*
X61087000Y-55880000D01*
X61214000Y-56007000D02*
X61087000Y-55880000D01*
X63246000Y-60833000D02*
X63373000Y-60960000D01*
X63246000Y-60833000D02*
X63246000Y-56007000D01*
X61214000Y-60833000D02*
X61087000Y-60960000D01*
X61214000Y-60833000D02*
X61214000Y-56007000D01*
X63373000Y-61341000D02*
X63373000Y-60960000D01*
X61087000Y-61341000D02*
X61087000Y-60960000D01*
X61341000Y-61595000D02*
X63119000Y-61595000D01*
D10*
G36*
X61925200Y-61595000D02*
X61925200Y-62458600D01*
X62534800Y-62458600D01*
X62534800Y-61595000D01*
X61925200Y-61595000D01*
G37*
G36*
X61925200Y-54381400D02*
X61925200Y-55245000D01*
X62534800Y-55245000D01*
X62534800Y-54381400D01*
X61925200Y-54381400D01*
G37*
D11*
X73533000Y-55499000D02*
G75*
G03X73279000Y-55245000I-254000J0D01*
G01*
X71247000Y-55499000D02*
G75*
G02X71501000Y-55245000I254000J0D01*
G01*
X71501000Y-61595000D02*
G75*
G02X71247000Y-61341000I0J254000D01*
G01*
X73279000Y-61595000D02*
G75*
G03X73533000Y-61341000I0J254000D01*
G01*
X71501000Y-55245000D02*
X73279000Y-55245000D01*
X73533000Y-55499000D02*
X73533000Y-55880000D01*
X73406000Y-56007000D02*
X73533000Y-55880000D01*
X71247000Y-55499000D02*
X71247000Y-55880000D01*
X71374000Y-56007000D02*
X71247000Y-55880000D01*
X73406000Y-60833000D02*
X73533000Y-60960000D01*
X73406000Y-60833000D02*
X73406000Y-56007000D01*
X71374000Y-60833000D02*
X71247000Y-60960000D01*
X71374000Y-60833000D02*
X71374000Y-56007000D01*
X73533000Y-61341000D02*
X73533000Y-60960000D01*
X71247000Y-61341000D02*
X71247000Y-60960000D01*
X71501000Y-61595000D02*
X73279000Y-61595000D01*
D10*
G36*
X72085200Y-61595000D02*
X72085200Y-62458600D01*
X72694800Y-62458600D01*
X72694800Y-61595000D01*
X72085200Y-61595000D01*
G37*
G36*
X72085200Y-54381400D02*
X72085200Y-55245000D01*
X72694800Y-55245000D01*
X72694800Y-54381400D01*
X72085200Y-54381400D01*
G37*
D11*
X87528400Y-92100400D02*
G75*
G03X87274400Y-91846400I-254000J0D01*
G01*
X85242400Y-92100400D02*
G75*
G02X85496400Y-91846400I254000J0D01*
G01*
X85496400Y-98196400D02*
G75*
G02X85242400Y-97942400I0J254000D01*
G01*
X87274400Y-98196400D02*
G75*
G03X87528400Y-97942400I0J254000D01*
G01*
X85496400Y-91846400D02*
X87274400Y-91846400D01*
X87528400Y-92100400D02*
X87528400Y-92481400D01*
X87401400Y-92608400D02*
X87528400Y-92481400D01*
X85242400Y-92100400D02*
X85242400Y-92481400D01*
X85369400Y-92608400D02*
X85242400Y-92481400D01*
X87401400Y-97434400D02*
X87528400Y-97561400D01*
X87401400Y-97434400D02*
X87401400Y-92608400D01*
X85369400Y-97434400D02*
X85242400Y-97561400D01*
X85369400Y-97434400D02*
X85369400Y-92608400D01*
X87528400Y-97942400D02*
X87528400Y-97561400D01*
X85242400Y-97942400D02*
X85242400Y-97561400D01*
X85496400Y-98196400D02*
X87274400Y-98196400D01*
D10*
G36*
X86080600Y-98196400D02*
X86080600Y-99060000D01*
X86690200Y-99060000D01*
X86690200Y-98196400D01*
X86080600Y-98196400D01*
G37*
G36*
X86080600Y-90982800D02*
X86080600Y-91846400D01*
X86690200Y-91846400D01*
X86690200Y-90982800D01*
X86080600Y-90982800D01*
G37*
D11*
X96748600Y-92024200D02*
G75*
G03X96494600Y-91770200I-254000J0D01*
G01*
X94462600Y-92024200D02*
G75*
G02X94716600Y-91770200I254000J0D01*
G01*
X94716600Y-98120200D02*
G75*
G02X94462600Y-97866200I0J254000D01*
G01*
X96494600Y-98120200D02*
G75*
G03X96748600Y-97866200I0J254000D01*
G01*
X94716600Y-91770200D02*
X96494600Y-91770200D01*
X96748600Y-92024200D02*
X96748600Y-92405200D01*
X96621600Y-92532200D02*
X96748600Y-92405200D01*
X94462600Y-92024200D02*
X94462600Y-92405200D01*
X94589600Y-92532200D02*
X94462600Y-92405200D01*
X96621600Y-97358200D02*
X96748600Y-97485200D01*
X96621600Y-97358200D02*
X96621600Y-92532200D01*
X94589600Y-97358200D02*
X94462600Y-97485200D01*
X94589600Y-97358200D02*
X94589600Y-92532200D01*
X96748600Y-97866200D02*
X96748600Y-97485200D01*
X94462600Y-97866200D02*
X94462600Y-97485200D01*
X94716600Y-98120200D02*
X96494600Y-98120200D01*
D10*
G36*
X95300800Y-98120200D02*
X95300800Y-98983800D01*
X95910400Y-98983800D01*
X95910400Y-98120200D01*
X95300800Y-98120200D01*
G37*
G36*
X95300800Y-90906600D02*
X95300800Y-91770200D01*
X95910400Y-91770200D01*
X95910400Y-90906600D01*
X95300800Y-90906600D01*
G37*
D11*
X85090000Y-104673400D02*
G75*
G03X84836000Y-104419400I-254000J0D01*
G01*
X82804000Y-104673400D02*
G75*
G02X83058000Y-104419400I254000J0D01*
G01*
X83058000Y-110769400D02*
G75*
G02X82804000Y-110515400I0J254000D01*
G01*
X84836000Y-110769400D02*
G75*
G03X85090000Y-110515400I0J254000D01*
G01*
X83058000Y-104419400D02*
X84836000Y-104419400D01*
X85090000Y-104673400D02*
X85090000Y-105054400D01*
X84963000Y-105181400D02*
X85090000Y-105054400D01*
X82804000Y-104673400D02*
X82804000Y-105054400D01*
X82931000Y-105181400D02*
X82804000Y-105054400D01*
X84963000Y-110007400D02*
X85090000Y-110134400D01*
X84963000Y-110007400D02*
X84963000Y-105181400D01*
X82931000Y-110007400D02*
X82804000Y-110134400D01*
X82931000Y-110007400D02*
X82931000Y-105181400D01*
X85090000Y-110515400D02*
X85090000Y-110134400D01*
X82804000Y-110515400D02*
X82804000Y-110134400D01*
X83058000Y-110769400D02*
X84836000Y-110769400D01*
D10*
G36*
X83642200Y-110769400D02*
X83642200Y-111633000D01*
X84251800Y-111633000D01*
X84251800Y-110769400D01*
X83642200Y-110769400D01*
G37*
G36*
X83642200Y-103555800D02*
X83642200Y-104419400D01*
X84251800Y-104419400D01*
X84251800Y-103555800D01*
X83642200Y-103555800D01*
G37*
D11*
X96697800Y-105029000D02*
G75*
G03X96443800Y-104775000I-254000J0D01*
G01*
X94411800Y-105029000D02*
G75*
G02X94665800Y-104775000I254000J0D01*
G01*
X94665800Y-111125000D02*
G75*
G02X94411800Y-110871000I0J254000D01*
G01*
X96443800Y-111125000D02*
G75*
G03X96697800Y-110871000I0J254000D01*
G01*
X94665800Y-104775000D02*
X96443800Y-104775000D01*
X96697800Y-105029000D02*
X96697800Y-105410000D01*
X96570800Y-105537000D02*
X96697800Y-105410000D01*
X94411800Y-105029000D02*
X94411800Y-105410000D01*
X94538800Y-105537000D02*
X94411800Y-105410000D01*
X96570800Y-110363000D02*
X96697800Y-110490000D01*
X96570800Y-110363000D02*
X96570800Y-105537000D01*
X94538800Y-110363000D02*
X94411800Y-110490000D01*
X94538800Y-110363000D02*
X94538800Y-105537000D01*
X96697800Y-110871000D02*
X96697800Y-110490000D01*
X94411800Y-110871000D02*
X94411800Y-110490000D01*
X94665800Y-111125000D02*
X96443800Y-111125000D01*
D10*
G36*
X95250000Y-111125000D02*
X95250000Y-111988600D01*
X95859600Y-111988600D01*
X95859600Y-111125000D01*
X95250000Y-111125000D01*
G37*
G36*
X95250000Y-103911400D02*
X95250000Y-104775000D01*
X95859600Y-104775000D01*
X95859600Y-103911400D01*
X95250000Y-103911400D01*
G37*
D11*
X87452200Y-78435200D02*
G75*
G03X87198200Y-78181200I-254000J0D01*
G01*
X85166200Y-78435200D02*
G75*
G02X85420200Y-78181200I254000J0D01*
G01*
X85420200Y-84531200D02*
G75*
G02X85166200Y-84277200I0J254000D01*
G01*
X87198200Y-84531200D02*
G75*
G03X87452200Y-84277200I0J254000D01*
G01*
X85420200Y-78181200D02*
X87198200Y-78181200D01*
X87452200Y-78435200D02*
X87452200Y-78816200D01*
X87325200Y-78943200D02*
X87452200Y-78816200D01*
X85166200Y-78435200D02*
X85166200Y-78816200D01*
X85293200Y-78943200D02*
X85166200Y-78816200D01*
X87325200Y-83769200D02*
X87452200Y-83896200D01*
X87325200Y-83769200D02*
X87325200Y-78943200D01*
X85293200Y-83769200D02*
X85166200Y-83896200D01*
X85293200Y-83769200D02*
X85293200Y-78943200D01*
X87452200Y-84277200D02*
X87452200Y-83896200D01*
X85166200Y-84277200D02*
X85166200Y-83896200D01*
X85420200Y-84531200D02*
X87198200Y-84531200D01*
D10*
G36*
X86004400Y-84531200D02*
X86004400Y-85394800D01*
X86614000Y-85394800D01*
X86614000Y-84531200D01*
X86004400Y-84531200D01*
G37*
G36*
X86004400Y-77317600D02*
X86004400Y-78181200D01*
X86614000Y-78181200D01*
X86614000Y-77317600D01*
X86004400Y-77317600D01*
G37*
D11*
X94462600Y-84429600D02*
G75*
G03X94716600Y-84683600I254000J0D01*
G01*
X96748600Y-84429600D02*
G75*
G02X96494600Y-84683600I-254000J0D01*
G01*
X96494600Y-78333600D02*
G75*
G02X96748600Y-78587600I0J-254000D01*
G01*
X94716600Y-78333600D02*
G75*
G03X94462600Y-78587600I0J-254000D01*
G01*
X96494600Y-84683600D02*
X94716600Y-84683600D01*
X94462600Y-84429600D02*
X94462600Y-84048600D01*
X94589600Y-83921600D02*
X94462600Y-84048600D01*
X96748600Y-84429600D02*
X96748600Y-84048600D01*
X96621600Y-83921600D02*
X96748600Y-84048600D01*
X94589600Y-79095600D02*
X94462600Y-78968600D01*
X94589600Y-79095600D02*
X94589600Y-83921600D01*
X96621600Y-79095600D02*
X96748600Y-78968600D01*
X96621600Y-79095600D02*
X96621600Y-83921600D01*
X94462600Y-78587600D02*
X94462600Y-78968600D01*
X96748600Y-78587600D02*
X96748600Y-78968600D01*
X96494600Y-78333600D02*
X94716600Y-78333600D01*
D10*
G36*
X95910400Y-78333600D02*
X95910400Y-77470000D01*
X95300800Y-77470000D01*
X95300800Y-78333600D01*
X95910400Y-78333600D01*
G37*
G36*
X95910400Y-85547200D02*
X95910400Y-84683600D01*
X95300800Y-84683600D01*
X95300800Y-85547200D01*
X95910400Y-85547200D01*
G37*
D11*
X63373000Y-41529000D02*
G75*
G03X63119000Y-41275000I-254000J0D01*
G01*
X61087000Y-41529000D02*
G75*
G02X61341000Y-41275000I254000J0D01*
G01*
X61341000Y-47625000D02*
G75*
G02X61087000Y-47371000I0J254000D01*
G01*
X63119000Y-47625000D02*
G75*
G03X63373000Y-47371000I0J254000D01*
G01*
X61341000Y-41275000D02*
X63119000Y-41275000D01*
X63373000Y-41529000D02*
X63373000Y-41910000D01*
X63246000Y-42037000D02*
X63373000Y-41910000D01*
X61087000Y-41529000D02*
X61087000Y-41910000D01*
X61214000Y-42037000D02*
X61087000Y-41910000D01*
X63246000Y-46863000D02*
X63373000Y-46990000D01*
X63246000Y-46863000D02*
X63246000Y-42037000D01*
X61214000Y-46863000D02*
X61087000Y-46990000D01*
X61214000Y-46863000D02*
X61214000Y-42037000D01*
X63373000Y-47371000D02*
X63373000Y-46990000D01*
X61087000Y-47371000D02*
X61087000Y-46990000D01*
X61341000Y-47625000D02*
X63119000Y-47625000D01*
D10*
G36*
X61925200Y-47625000D02*
X61925200Y-48488600D01*
X62534800Y-48488600D01*
X62534800Y-47625000D01*
X61925200Y-47625000D01*
G37*
G36*
X61925200Y-40411400D02*
X61925200Y-41275000D01*
X62534800Y-41275000D01*
X62534800Y-40411400D01*
X61925200Y-40411400D01*
G37*
D11*
X71247000Y-47371000D02*
G75*
G03X71501000Y-47625000I254000J0D01*
G01*
X73533000Y-47371000D02*
G75*
G02X73279000Y-47625000I-254000J0D01*
G01*
X73279000Y-41275000D02*
G75*
G02X73533000Y-41529000I0J-254000D01*
G01*
X71501000Y-41275000D02*
G75*
G03X71247000Y-41529000I0J-254000D01*
G01*
X73279000Y-47625000D02*
X71501000Y-47625000D01*
X71247000Y-47371000D02*
X71247000Y-46990000D01*
X71374000Y-46863000D02*
X71247000Y-46990000D01*
X73533000Y-47371000D02*
X73533000Y-46990000D01*
X73406000Y-46863000D02*
X73533000Y-46990000D01*
X71374000Y-42037000D02*
X71247000Y-41910000D01*
X71374000Y-42037000D02*
X71374000Y-46863000D01*
X73406000Y-42037000D02*
X73533000Y-41910000D01*
X73406000Y-42037000D02*
X73406000Y-46863000D01*
X71247000Y-41529000D02*
X71247000Y-41910000D01*
X73533000Y-41529000D02*
X73533000Y-41910000D01*
X73279000Y-41275000D02*
X71501000Y-41275000D01*
D10*
G36*
X72694800Y-41275000D02*
X72694800Y-40411400D01*
X72085200Y-40411400D01*
X72085200Y-41275000D01*
X72694800Y-41275000D01*
G37*
G36*
X72694800Y-48488600D02*
X72694800Y-47625000D01*
X72085200Y-47625000D01*
X72085200Y-48488600D01*
X72694800Y-48488600D01*
G37*
D11*
X89027000Y-65151000D02*
G75*
G03X89281000Y-65405000I254000J0D01*
G01*
X91313000Y-65151000D02*
G75*
G02X91059000Y-65405000I-254000J0D01*
G01*
X91059000Y-59055000D02*
G75*
G02X91313000Y-59309000I0J-254000D01*
G01*
X89281000Y-59055000D02*
G75*
G03X89027000Y-59309000I0J-254000D01*
G01*
X89027000Y-65151000D02*
X89027000Y-64770000D01*
X89154000Y-64643000D02*
X89027000Y-64770000D01*
X91313000Y-65151000D02*
X91313000Y-64770000D01*
X91186000Y-64643000D02*
X91313000Y-64770000D01*
X89154000Y-59817000D02*
X89027000Y-59690000D01*
X89154000Y-59817000D02*
X89154000Y-64643000D01*
X91186000Y-59817000D02*
X91313000Y-59690000D01*
X91186000Y-59817000D02*
X91186000Y-64643000D01*
X89027000Y-59309000D02*
X89027000Y-59690000D01*
X91313000Y-59309000D02*
X91313000Y-59690000D01*
X64871600Y-100431600D02*
X64871600Y-102768400D01*
X69748400Y-102768400D02*
X69748400Y-101904800D01*
X69748400Y-101904800D02*
X69748400Y-101295200D01*
X69748400Y-101295200D02*
X69748400Y-100431600D01*
D10*
X69748400Y-101295200D02*
G75*
G03X69748400Y-101904800I0J-304800D01*
G01*
D11*
X108153200Y-84988400D02*
X108153200Y-87325200D01*
X113030000Y-87325200D02*
X113030000Y-86461600D01*
X113030000Y-86461600D02*
X113030000Y-85852000D01*
X113030000Y-85852000D02*
X113030000Y-84988400D01*
D10*
X113030000Y-85852000D02*
G75*
G03X113030000Y-86461600I0J-304800D01*
G01*
D11*
X107924600Y-100050600D02*
X107924600Y-102387400D01*
X112801400Y-102387400D02*
X112801400Y-101523800D01*
X112801400Y-101523800D02*
X112801400Y-100914200D01*
X112801400Y-100914200D02*
X112801400Y-100050600D01*
D10*
X112801400Y-100914200D02*
G75*
G03X112801400Y-101523800I0J-304800D01*
G01*
D11*
X69748400Y-87528400D02*
X69748400Y-85191600D01*
X64871600Y-85191600D02*
X64871600Y-86055200D01*
X64871600Y-86055200D02*
X64871600Y-86664800D01*
X64871600Y-86664800D02*
X64871600Y-87528400D01*
D10*
X64871600Y-86664800D02*
G75*
G03X64871600Y-86055200I0J304800D01*
G01*
D11*
X64871600Y-43281600D02*
X64871600Y-45618400D01*
X69748400Y-45618400D02*
X69748400Y-44754800D01*
X69748400Y-44754800D02*
X69748400Y-44145200D01*
X69748400Y-44145200D02*
X69748400Y-43281600D01*
D10*
X69748400Y-44145200D02*
G75*
G03X69748400Y-44754800I0J-304800D01*
G01*
D11*
X107924600Y-113766600D02*
X107924600Y-116103400D01*
X112801400Y-116103400D02*
X112801400Y-115239800D01*
X112801400Y-115239800D02*
X112801400Y-114630200D01*
X112801400Y-114630200D02*
X112801400Y-113766600D01*
D10*
X112801400Y-114630200D02*
G75*
G03X112801400Y-115239800I0J-304800D01*
G01*
D11*
X126619000Y-88493600D02*
X126619000Y-90830400D01*
X131495800Y-90830400D02*
X131495800Y-89966800D01*
X131495800Y-89966800D02*
X131495800Y-89357200D01*
X131495800Y-89357200D02*
X131495800Y-88493600D01*
D10*
X131495800Y-89357200D02*
G75*
G03X131495800Y-89966800I0J-304800D01*
G01*
D11*
X111150400Y-129590800D02*
X111150400Y-131927600D01*
X116027200Y-131927600D02*
X116027200Y-131064000D01*
X116027200Y-131064000D02*
X116027200Y-130454400D01*
X116027200Y-130454400D02*
X116027200Y-129590800D01*
D10*
X116027200Y-130454400D02*
G75*
G03X116027200Y-131064000I0J-304800D01*
G01*
D11*
X64871600Y-114401600D02*
X64871600Y-116738400D01*
X69748400Y-116738400D02*
X69748400Y-115874800D01*
X69748400Y-115874800D02*
X69748400Y-115265200D01*
X69748400Y-115265200D02*
X69748400Y-114401600D01*
D10*
X69748400Y-115265200D02*
G75*
G03X69748400Y-115874800I0J-304800D01*
G01*
D11*
X64871600Y-128371600D02*
X64871600Y-130708400D01*
X69748400Y-130708400D02*
X69748400Y-129844800D01*
X69748400Y-129844800D02*
X69748400Y-129235200D01*
X69748400Y-129235200D02*
X69748400Y-128371600D01*
D10*
X69748400Y-129235200D02*
G75*
G03X69748400Y-129844800I0J-304800D01*
G01*
D11*
X64871600Y-57251600D02*
X64871600Y-59588400D01*
X69748400Y-59588400D02*
X69748400Y-58724800D01*
X69748400Y-58724800D02*
X69748400Y-58115200D01*
X69748400Y-58115200D02*
X69748400Y-57251600D01*
D10*
X69748400Y-58115200D02*
G75*
G03X69748400Y-58724800I0J-304800D01*
G01*
D11*
X88620600Y-93319600D02*
X88620600Y-95656400D01*
X93497400Y-95656400D02*
X93497400Y-94792800D01*
X93497400Y-94792800D02*
X93497400Y-94183200D01*
X93497400Y-94183200D02*
X93497400Y-93319600D01*
D10*
X93497400Y-94183200D02*
G75*
G03X93497400Y-94792800I0J-304800D01*
G01*
D11*
X86918800Y-106502200D02*
X86918800Y-108839000D01*
X91795600Y-108839000D02*
X91795600Y-107975400D01*
X91795600Y-107975400D02*
X91795600Y-107365800D01*
X91795600Y-107365800D02*
X91795600Y-106502200D01*
D10*
X91795600Y-107365800D02*
G75*
G03X91795600Y-107975400I0J-304800D01*
G01*
D11*
X88544400Y-80213200D02*
X88544400Y-82550000D01*
X93421200Y-82550000D02*
X93421200Y-81686400D01*
X93421200Y-81686400D02*
X93421200Y-81076800D01*
X93421200Y-81076800D02*
X93421200Y-80213200D01*
D10*
X93421200Y-81076800D02*
G75*
G03X93421200Y-81686400I0J-304800D01*
G01*
D11*
X64871600Y-71221600D02*
X64871600Y-73558400D01*
X69748400Y-73558400D02*
X69748400Y-72694800D01*
X69748400Y-72694800D02*
X69748400Y-72085200D01*
X69748400Y-72085200D02*
X69748400Y-71221600D01*
D10*
X69748400Y-72085200D02*
G75*
G03X69748400Y-72694800I0J-304800D01*
G01*
D11*
X91160600Y-122402600D02*
X91160600Y-124739400D01*
X96037400Y-124739400D02*
X96037400Y-123875800D01*
X96037400Y-123875800D02*
X96037400Y-123266200D01*
X96037400Y-123266200D02*
X96037400Y-122402600D01*
D10*
X96037400Y-123266200D02*
G75*
G03X96037400Y-123875800I0J-304800D01*
G01*
D11*
X92938600Y-143814800D02*
X93954600Y-143814800D01*
X101625400Y-143205200D02*
X102641400Y-143205200D01*
X99796600Y-137591800D02*
X99796600Y-137261600D01*
X95783400Y-146888200D02*
X95783400Y-147218400D01*
X95783400Y-147218400D02*
X99796600Y-147218400D01*
X99796600Y-147218400D02*
X99796600Y-146888200D01*
X99796600Y-137261600D02*
X98094800Y-137261600D01*
X98094800Y-137261600D02*
X97485200Y-137261600D01*
X97485200Y-137261600D02*
X95783400Y-137261600D01*
X95783400Y-137261600D02*
X95783400Y-137591800D01*
X97485200Y-137261600D02*
G75*
G03X98094800Y-137261600I304800J0D01*
G01*
X161544000Y-73964800D02*
X161544000Y-72948800D01*
X164846000Y-84531200D02*
X164846000Y-83515200D01*
X166801800Y-81534000D02*
X166801800Y-75946000D01*
X158318200Y-75946000D02*
X158318200Y-78435200D01*
X158318200Y-78435200D02*
X158318200Y-79044800D01*
X158318200Y-79044800D02*
X158318200Y-81534000D01*
X158318200Y-79044800D02*
G75*
G03X158318200Y-78435200I0J304800D01*
G01*
X185674000Y-127304800D02*
X185674000Y-126288800D01*
X188976000Y-137871200D02*
X188976000Y-136855200D01*
X190931800Y-134874000D02*
X190931800Y-129286000D01*
X182448200Y-129286000D02*
X182448200Y-131775200D01*
X182448200Y-131775200D02*
X182448200Y-132384800D01*
X182448200Y-132384800D02*
X182448200Y-134874000D01*
X182448200Y-132384800D02*
G75*
G03X182448200Y-131775200I0J304800D01*
G01*
D14*
X179664118Y-81723290D02*
X181265890Y-81723290D01*
X181454334Y-81629069D01*
X181548556Y-81534847D01*
X181642778Y-81346403D01*
X181642778Y-80969515D01*
X181548556Y-80781071D01*
X181454334Y-80686850D01*
X181265890Y-80592628D01*
X179664118Y-80592628D01*
X179852562Y-79744630D02*
X179758340Y-79650408D01*
X179664118Y-79461965D01*
X179664118Y-78990855D01*
X179758340Y-78802411D01*
X179852562Y-78708189D01*
X180041006Y-78613968D01*
X180229450Y-78613968D01*
X180512115Y-78708189D01*
X181642778Y-79838852D01*
X181642778Y-78613968D01*
D15*
X181539848Y-82725381D02*
X181827110Y-82725381D01*
X181712205Y-83012643D02*
X181827110Y-82725381D01*
X181712205Y-82438119D01*
X182056919Y-82897738D02*
X181827110Y-82725381D01*
X182056919Y-82553024D01*
D14*
X152994118Y-135063290D02*
X154595890Y-135063290D01*
X154784334Y-134969069D01*
X154878556Y-134874847D01*
X154972778Y-134686403D01*
X154972778Y-134309515D01*
X154878556Y-134121071D01*
X154784334Y-134026850D01*
X154595890Y-133932628D01*
X152994118Y-133932628D01*
X152994118Y-132048189D02*
X152994118Y-132990408D01*
X153936337Y-133084630D01*
X153842115Y-132990408D01*
X153747893Y-132801965D01*
X153747893Y-132330855D01*
X153842115Y-132142411D01*
X153936337Y-132048189D01*
X154124781Y-131953968D01*
X154595890Y-131953968D01*
X154784334Y-132048189D01*
X154878556Y-132142411D01*
X154972778Y-132330855D01*
X154972778Y-132801965D01*
X154878556Y-132990408D01*
X154784334Y-133084630D01*
D15*
X155473098Y-136525000D02*
X155760360Y-136525000D01*
X155645455Y-136812262D02*
X155760360Y-136525000D01*
X155645455Y-136237738D01*
X155990169Y-136697357D02*
X155760360Y-136525000D01*
X155990169Y-136352643D01*
D13*
X114749943Y-142933058D02*
X114807395Y-142990510D01*
X114864848Y-143162867D01*
X114864848Y-143277772D01*
X114807395Y-143450129D01*
X114692490Y-143565034D01*
X114577586Y-143622486D01*
X114347776Y-143679938D01*
X114175419Y-143679938D01*
X113945610Y-143622486D01*
X113830705Y-143565034D01*
X113715800Y-143450129D01*
X113658348Y-143277772D01*
X113658348Y-143162867D01*
X113715800Y-142990510D01*
X113773252Y-142933058D01*
X113658348Y-142530891D02*
X113658348Y-141784010D01*
X114117967Y-142186177D01*
X114117967Y-142013819D01*
X114175419Y-141898915D01*
X114232871Y-141841462D01*
X114347776Y-141784010D01*
X114635038Y-141784010D01*
X114749943Y-141841462D01*
X114807395Y-141898915D01*
X114864848Y-142013819D01*
X114864848Y-142358534D01*
X114807395Y-142473438D01*
X114749943Y-142530891D01*
X119118743Y-143060058D02*
X119176195Y-143117510D01*
X119233648Y-143289867D01*
X119233648Y-143404772D01*
X119176195Y-143577129D01*
X119061290Y-143692034D01*
X118946386Y-143749486D01*
X118716576Y-143806938D01*
X118544219Y-143806938D01*
X118314410Y-143749486D01*
X118199505Y-143692034D01*
X118084600Y-143577129D01*
X118027148Y-143404772D01*
X118027148Y-143289867D01*
X118084600Y-143117510D01*
X118142052Y-143060058D01*
X118429314Y-142025915D02*
X119233648Y-142025915D01*
X117969695Y-142313177D02*
X118831481Y-142600438D01*
X118831481Y-141853558D01*
D16*
X117311714Y-57029048D02*
X117311714Y-55822548D01*
X118001142Y-57029048D02*
X117484071Y-56339619D01*
X118001142Y-55822548D02*
X117311714Y-56511976D01*
X119150190Y-57029048D02*
X118460762Y-57029048D01*
X118805476Y-57029048D02*
X118805476Y-55822548D01*
X118690571Y-55994905D01*
X118575666Y-56109810D01*
X118460762Y-56167262D01*
X171329048Y-73188286D02*
X170122548Y-73188286D01*
X171329048Y-72498858D02*
X170639619Y-73015929D01*
X170122548Y-72498858D02*
X170811976Y-73188286D01*
X170237452Y-72039238D02*
X170180000Y-71981786D01*
X170122548Y-71866881D01*
X170122548Y-71579619D01*
X170180000Y-71464715D01*
X170237452Y-71407262D01*
X170352357Y-71349810D01*
X170467262Y-71349810D01*
X170639619Y-71407262D01*
X171329048Y-72096691D01*
X171329048Y-71349810D01*
X170122548Y-136872738D02*
X168916048Y-136872738D01*
X170122548Y-136183310D02*
X169433119Y-136700381D01*
X168916048Y-136183310D02*
X169605476Y-136872738D01*
X168916048Y-135781143D02*
X168916048Y-135034262D01*
X169375667Y-135436429D01*
X169375667Y-135264071D01*
X169433119Y-135149167D01*
X169490571Y-135091714D01*
X169605476Y-135034262D01*
X169892738Y-135034262D01*
X170007643Y-135091714D01*
X170065095Y-135149167D01*
X170122548Y-135264071D01*
X170122548Y-135608786D01*
X170065095Y-135723690D01*
X170007643Y-135781143D01*
X106967262Y-153612548D02*
X106967262Y-152406048D01*
X107656690Y-153612548D02*
X107139619Y-152923119D01*
X107656690Y-152406048D02*
X106967262Y-153095476D01*
X108690833Y-152808214D02*
X108690833Y-153612548D01*
X108403571Y-152348595D02*
X108116310Y-153210381D01*
X108863190Y-153210381D01*
D13*
X92716048Y-44316954D02*
X92141524Y-44719120D01*
X92716048Y-45006382D02*
X91509548Y-45006382D01*
X91509548Y-44546763D01*
X91567000Y-44431858D01*
X91624452Y-44374406D01*
X91739357Y-44316954D01*
X91911714Y-44316954D01*
X92026619Y-44374406D01*
X92084071Y-44431858D01*
X92141524Y-44546763D01*
X92141524Y-45006382D01*
X92716048Y-43167906D02*
X92716048Y-43857334D01*
X92716048Y-43512620D02*
X91509548Y-43512620D01*
X91681905Y-43627525D01*
X91796810Y-43742430D01*
X91854262Y-43857334D01*
X91509548Y-42421025D02*
X91509548Y-42306120D01*
X91567000Y-42191215D01*
X91624452Y-42133763D01*
X91739357Y-42076310D01*
X91969167Y-42018858D01*
X92256429Y-42018858D01*
X92486238Y-42076310D01*
X92601143Y-42133763D01*
X92658595Y-42191215D01*
X92716048Y-42306120D01*
X92716048Y-42421025D01*
X92658595Y-42535929D01*
X92601143Y-42593382D01*
X92486238Y-42650834D01*
X92256429Y-42708286D01*
X91969167Y-42708286D01*
X91739357Y-42650834D01*
X91624452Y-42593382D01*
X91567000Y-42535929D01*
X91509548Y-42421025D01*
X91509548Y-41271977D02*
X91509548Y-41157072D01*
X91567000Y-41042167D01*
X91624452Y-40984715D01*
X91739357Y-40927262D01*
X91969167Y-40869810D01*
X92256429Y-40869810D01*
X92486238Y-40927262D01*
X92601143Y-40984715D01*
X92658595Y-41042167D01*
X92716048Y-41157072D01*
X92716048Y-41271977D01*
X92658595Y-41386881D01*
X92601143Y-41444334D01*
X92486238Y-41501786D01*
X92256429Y-41559238D01*
X91969167Y-41559238D01*
X91739357Y-41501786D01*
X91624452Y-41444334D01*
X91567000Y-41386881D01*
X91509548Y-41271977D01*
X92525548Y-63793310D02*
X91951024Y-64195476D01*
X92525548Y-64482738D02*
X91319048Y-64482738D01*
X91319048Y-64023119D01*
X91376500Y-63908214D01*
X91433952Y-63850762D01*
X91548857Y-63793310D01*
X91721214Y-63793310D01*
X91836119Y-63850762D01*
X91893571Y-63908214D01*
X91951024Y-64023119D01*
X91951024Y-64482738D01*
X92525548Y-62644262D02*
X92525548Y-63333690D01*
X92525548Y-62988976D02*
X91319048Y-62988976D01*
X91491405Y-63103881D01*
X91606310Y-63218786D01*
X91663762Y-63333690D01*
X91319048Y-61897381D02*
X91319048Y-61782476D01*
X91376500Y-61667571D01*
X91433952Y-61610119D01*
X91548857Y-61552666D01*
X91778667Y-61495214D01*
X92065929Y-61495214D01*
X92295738Y-61552666D01*
X92410643Y-61610119D01*
X92468095Y-61667571D01*
X92525548Y-61782476D01*
X92525548Y-61897381D01*
X92468095Y-62012285D01*
X92410643Y-62069738D01*
X92295738Y-62127190D01*
X92065929Y-62184642D01*
X91778667Y-62184642D01*
X91548857Y-62127190D01*
X91433952Y-62069738D01*
X91376500Y-62012285D01*
X91319048Y-61897381D01*
X92525548Y-60346166D02*
X92525548Y-61035594D01*
X92525548Y-60690880D02*
X91319048Y-60690880D01*
X91491405Y-60805785D01*
X91606310Y-60920690D01*
X91663762Y-61035594D01*
X96526048Y-44316954D02*
X95951524Y-44719120D01*
X96526048Y-45006382D02*
X95319548Y-45006382D01*
X95319548Y-44546763D01*
X95377000Y-44431858D01*
X95434452Y-44374406D01*
X95549357Y-44316954D01*
X95721714Y-44316954D01*
X95836619Y-44374406D01*
X95894071Y-44431858D01*
X95951524Y-44546763D01*
X95951524Y-45006382D01*
X96526048Y-43167906D02*
X96526048Y-43857334D01*
X96526048Y-43512620D02*
X95319548Y-43512620D01*
X95491905Y-43627525D01*
X95606810Y-43742430D01*
X95664262Y-43857334D01*
X95319548Y-42421025D02*
X95319548Y-42306120D01*
X95377000Y-42191215D01*
X95434452Y-42133763D01*
X95549357Y-42076310D01*
X95779167Y-42018858D01*
X96066429Y-42018858D01*
X96296238Y-42076310D01*
X96411143Y-42133763D01*
X96468595Y-42191215D01*
X96526048Y-42306120D01*
X96526048Y-42421025D01*
X96468595Y-42535929D01*
X96411143Y-42593382D01*
X96296238Y-42650834D01*
X96066429Y-42708286D01*
X95779167Y-42708286D01*
X95549357Y-42650834D01*
X95434452Y-42593382D01*
X95377000Y-42535929D01*
X95319548Y-42421025D01*
X95434452Y-41559238D02*
X95377000Y-41501786D01*
X95319548Y-41386881D01*
X95319548Y-41099619D01*
X95377000Y-40984715D01*
X95434452Y-40927262D01*
X95549357Y-40869810D01*
X95664262Y-40869810D01*
X95836619Y-40927262D01*
X96526048Y-41616691D01*
X96526048Y-40869810D01*
X97605548Y-63793310D02*
X97031024Y-64195476D01*
X97605548Y-64482738D02*
X96399048Y-64482738D01*
X96399048Y-64023119D01*
X96456500Y-63908214D01*
X96513952Y-63850762D01*
X96628857Y-63793310D01*
X96801214Y-63793310D01*
X96916119Y-63850762D01*
X96973571Y-63908214D01*
X97031024Y-64023119D01*
X97031024Y-64482738D01*
X97605548Y-62644262D02*
X97605548Y-63333690D01*
X97605548Y-62988976D02*
X96399048Y-62988976D01*
X96571405Y-63103881D01*
X96686310Y-63218786D01*
X96743762Y-63333690D01*
X96399048Y-61897381D02*
X96399048Y-61782476D01*
X96456500Y-61667571D01*
X96513952Y-61610119D01*
X96628857Y-61552666D01*
X96858667Y-61495214D01*
X97145929Y-61495214D01*
X97375738Y-61552666D01*
X97490643Y-61610119D01*
X97548095Y-61667571D01*
X97605548Y-61782476D01*
X97605548Y-61897381D01*
X97548095Y-62012285D01*
X97490643Y-62069738D01*
X97375738Y-62127190D01*
X97145929Y-62184642D01*
X96858667Y-62184642D01*
X96628857Y-62127190D01*
X96513952Y-62069738D01*
X96456500Y-62012285D01*
X96399048Y-61897381D01*
X96399048Y-61093047D02*
X96399048Y-60346166D01*
X96858667Y-60748333D01*
X96858667Y-60575975D01*
X96916119Y-60461071D01*
X96973571Y-60403618D01*
X97088476Y-60346166D01*
X97375738Y-60346166D01*
X97490643Y-60403618D01*
X97548095Y-60461071D01*
X97605548Y-60575975D01*
X97605548Y-60920690D01*
X97548095Y-61035594D01*
X97490643Y-61093047D01*
X100336048Y-44316954D02*
X99761524Y-44719120D01*
X100336048Y-45006382D02*
X99129548Y-45006382D01*
X99129548Y-44546763D01*
X99187000Y-44431858D01*
X99244452Y-44374406D01*
X99359357Y-44316954D01*
X99531714Y-44316954D01*
X99646619Y-44374406D01*
X99704071Y-44431858D01*
X99761524Y-44546763D01*
X99761524Y-45006382D01*
X100336048Y-43167906D02*
X100336048Y-43857334D01*
X100336048Y-43512620D02*
X99129548Y-43512620D01*
X99301905Y-43627525D01*
X99416810Y-43742430D01*
X99474262Y-43857334D01*
X99129548Y-42421025D02*
X99129548Y-42306120D01*
X99187000Y-42191215D01*
X99244452Y-42133763D01*
X99359357Y-42076310D01*
X99589167Y-42018858D01*
X99876429Y-42018858D01*
X100106238Y-42076310D01*
X100221143Y-42133763D01*
X100278595Y-42191215D01*
X100336048Y-42306120D01*
X100336048Y-42421025D01*
X100278595Y-42535929D01*
X100221143Y-42593382D01*
X100106238Y-42650834D01*
X99876429Y-42708286D01*
X99589167Y-42708286D01*
X99359357Y-42650834D01*
X99244452Y-42593382D01*
X99187000Y-42535929D01*
X99129548Y-42421025D01*
X99531714Y-40984715D02*
X100336048Y-40984715D01*
X99072095Y-41271977D02*
X99933881Y-41559238D01*
X99933881Y-40812358D01*
X101415548Y-63793310D02*
X100841024Y-64195476D01*
X101415548Y-64482738D02*
X100209048Y-64482738D01*
X100209048Y-64023119D01*
X100266500Y-63908214D01*
X100323952Y-63850762D01*
X100438857Y-63793310D01*
X100611214Y-63793310D01*
X100726119Y-63850762D01*
X100783571Y-63908214D01*
X100841024Y-64023119D01*
X100841024Y-64482738D01*
X101415548Y-62644262D02*
X101415548Y-63333690D01*
X101415548Y-62988976D02*
X100209048Y-62988976D01*
X100381405Y-63103881D01*
X100496310Y-63218786D01*
X100553762Y-63333690D01*
X100209048Y-61897381D02*
X100209048Y-61782476D01*
X100266500Y-61667571D01*
X100323952Y-61610119D01*
X100438857Y-61552666D01*
X100668667Y-61495214D01*
X100955929Y-61495214D01*
X101185738Y-61552666D01*
X101300643Y-61610119D01*
X101358095Y-61667571D01*
X101415548Y-61782476D01*
X101415548Y-61897381D01*
X101358095Y-62012285D01*
X101300643Y-62069738D01*
X101185738Y-62127190D01*
X100955929Y-62184642D01*
X100668667Y-62184642D01*
X100438857Y-62127190D01*
X100323952Y-62069738D01*
X100266500Y-62012285D01*
X100209048Y-61897381D01*
X100209048Y-60403618D02*
X100209048Y-60978142D01*
X100783571Y-61035594D01*
X100726119Y-60978142D01*
X100668667Y-60863237D01*
X100668667Y-60575975D01*
X100726119Y-60461071D01*
X100783571Y-60403618D01*
X100898476Y-60346166D01*
X101185738Y-60346166D01*
X101300643Y-60403618D01*
X101358095Y-60461071D01*
X101415548Y-60575975D01*
X101415548Y-60863237D01*
X101358095Y-60978142D01*
X101300643Y-61035594D01*
X104146048Y-44316954D02*
X103571524Y-44719120D01*
X104146048Y-45006382D02*
X102939548Y-45006382D01*
X102939548Y-44546763D01*
X102997000Y-44431858D01*
X103054452Y-44374406D01*
X103169357Y-44316954D01*
X103341714Y-44316954D01*
X103456619Y-44374406D01*
X103514071Y-44431858D01*
X103571524Y-44546763D01*
X103571524Y-45006382D01*
X104146048Y-43167906D02*
X104146048Y-43857334D01*
X104146048Y-43512620D02*
X102939548Y-43512620D01*
X103111905Y-43627525D01*
X103226810Y-43742430D01*
X103284262Y-43857334D01*
X102939548Y-42421025D02*
X102939548Y-42306120D01*
X102997000Y-42191215D01*
X103054452Y-42133763D01*
X103169357Y-42076310D01*
X103399167Y-42018858D01*
X103686429Y-42018858D01*
X103916238Y-42076310D01*
X104031143Y-42133763D01*
X104088595Y-42191215D01*
X104146048Y-42306120D01*
X104146048Y-42421025D01*
X104088595Y-42535929D01*
X104031143Y-42593382D01*
X103916238Y-42650834D01*
X103686429Y-42708286D01*
X103399167Y-42708286D01*
X103169357Y-42650834D01*
X103054452Y-42593382D01*
X102997000Y-42535929D01*
X102939548Y-42421025D01*
X102939548Y-40984715D02*
X102939548Y-41214524D01*
X102997000Y-41329429D01*
X103054452Y-41386881D01*
X103226810Y-41501786D01*
X103456619Y-41559238D01*
X103916238Y-41559238D01*
X104031143Y-41501786D01*
X104088595Y-41444334D01*
X104146048Y-41329429D01*
X104146048Y-41099619D01*
X104088595Y-40984715D01*
X104031143Y-40927262D01*
X103916238Y-40869810D01*
X103628976Y-40869810D01*
X103514071Y-40927262D01*
X103456619Y-40984715D01*
X103399167Y-41099619D01*
X103399167Y-41329429D01*
X103456619Y-41444334D01*
X103514071Y-41501786D01*
X103628976Y-41559238D01*
X105225548Y-63793310D02*
X104651024Y-64195476D01*
X105225548Y-64482738D02*
X104019048Y-64482738D01*
X104019048Y-64023119D01*
X104076500Y-63908214D01*
X104133952Y-63850762D01*
X104248857Y-63793310D01*
X104421214Y-63793310D01*
X104536119Y-63850762D01*
X104593571Y-63908214D01*
X104651024Y-64023119D01*
X104651024Y-64482738D01*
X105225548Y-62644262D02*
X105225548Y-63333690D01*
X105225548Y-62988976D02*
X104019048Y-62988976D01*
X104191405Y-63103881D01*
X104306310Y-63218786D01*
X104363762Y-63333690D01*
X104019048Y-61897381D02*
X104019048Y-61782476D01*
X104076500Y-61667571D01*
X104133952Y-61610119D01*
X104248857Y-61552666D01*
X104478667Y-61495214D01*
X104765929Y-61495214D01*
X104995738Y-61552666D01*
X105110643Y-61610119D01*
X105168095Y-61667571D01*
X105225548Y-61782476D01*
X105225548Y-61897381D01*
X105168095Y-62012285D01*
X105110643Y-62069738D01*
X104995738Y-62127190D01*
X104765929Y-62184642D01*
X104478667Y-62184642D01*
X104248857Y-62127190D01*
X104133952Y-62069738D01*
X104076500Y-62012285D01*
X104019048Y-61897381D01*
X104019048Y-61093047D02*
X104019048Y-60288714D01*
X105225548Y-60805785D01*
X107956048Y-44316954D02*
X107381524Y-44719120D01*
X107956048Y-45006382D02*
X106749548Y-45006382D01*
X106749548Y-44546763D01*
X106807000Y-44431858D01*
X106864452Y-44374406D01*
X106979357Y-44316954D01*
X107151714Y-44316954D01*
X107266619Y-44374406D01*
X107324071Y-44431858D01*
X107381524Y-44546763D01*
X107381524Y-45006382D01*
X107956048Y-43167906D02*
X107956048Y-43857334D01*
X107956048Y-43512620D02*
X106749548Y-43512620D01*
X106921905Y-43627525D01*
X107036810Y-43742430D01*
X107094262Y-43857334D01*
X106749548Y-42421025D02*
X106749548Y-42306120D01*
X106807000Y-42191215D01*
X106864452Y-42133763D01*
X106979357Y-42076310D01*
X107209167Y-42018858D01*
X107496429Y-42018858D01*
X107726238Y-42076310D01*
X107841143Y-42133763D01*
X107898595Y-42191215D01*
X107956048Y-42306120D01*
X107956048Y-42421025D01*
X107898595Y-42535929D01*
X107841143Y-42593382D01*
X107726238Y-42650834D01*
X107496429Y-42708286D01*
X107209167Y-42708286D01*
X106979357Y-42650834D01*
X106864452Y-42593382D01*
X106807000Y-42535929D01*
X106749548Y-42421025D01*
X107266619Y-41329429D02*
X107209167Y-41444334D01*
X107151714Y-41501786D01*
X107036810Y-41559238D01*
X106979357Y-41559238D01*
X106864452Y-41501786D01*
X106807000Y-41444334D01*
X106749548Y-41329429D01*
X106749548Y-41099619D01*
X106807000Y-40984715D01*
X106864452Y-40927262D01*
X106979357Y-40869810D01*
X107036810Y-40869810D01*
X107151714Y-40927262D01*
X107209167Y-40984715D01*
X107266619Y-41099619D01*
X107266619Y-41329429D01*
X107324071Y-41444334D01*
X107381524Y-41501786D01*
X107496429Y-41559238D01*
X107726238Y-41559238D01*
X107841143Y-41501786D01*
X107898595Y-41444334D01*
X107956048Y-41329429D01*
X107956048Y-41099619D01*
X107898595Y-40984715D01*
X107841143Y-40927262D01*
X107726238Y-40869810D01*
X107496429Y-40869810D01*
X107381524Y-40927262D01*
X107324071Y-40984715D01*
X107266619Y-41099619D01*
X109035548Y-63793310D02*
X108461024Y-64195476D01*
X109035548Y-64482738D02*
X107829048Y-64482738D01*
X107829048Y-64023119D01*
X107886500Y-63908214D01*
X107943952Y-63850762D01*
X108058857Y-63793310D01*
X108231214Y-63793310D01*
X108346119Y-63850762D01*
X108403571Y-63908214D01*
X108461024Y-64023119D01*
X108461024Y-64482738D01*
X109035548Y-62644262D02*
X109035548Y-63333690D01*
X109035548Y-62988976D02*
X107829048Y-62988976D01*
X108001405Y-63103881D01*
X108116310Y-63218786D01*
X108173762Y-63333690D01*
X107829048Y-61897381D02*
X107829048Y-61782476D01*
X107886500Y-61667571D01*
X107943952Y-61610119D01*
X108058857Y-61552666D01*
X108288667Y-61495214D01*
X108575929Y-61495214D01*
X108805738Y-61552666D01*
X108920643Y-61610119D01*
X108978095Y-61667571D01*
X109035548Y-61782476D01*
X109035548Y-61897381D01*
X108978095Y-62012285D01*
X108920643Y-62069738D01*
X108805738Y-62127190D01*
X108575929Y-62184642D01*
X108288667Y-62184642D01*
X108058857Y-62127190D01*
X107943952Y-62069738D01*
X107886500Y-62012285D01*
X107829048Y-61897381D01*
X109035548Y-60920690D02*
X109035548Y-60690880D01*
X108978095Y-60575975D01*
X108920643Y-60518523D01*
X108748286Y-60403618D01*
X108518476Y-60346166D01*
X108058857Y-60346166D01*
X107943952Y-60403618D01*
X107886500Y-60461071D01*
X107829048Y-60575975D01*
X107829048Y-60805785D01*
X107886500Y-60920690D01*
X107943952Y-60978142D01*
X108058857Y-61035594D01*
X108346119Y-61035594D01*
X108461024Y-60978142D01*
X108518476Y-60920690D01*
X108575929Y-60805785D01*
X108575929Y-60575975D01*
X108518476Y-60461071D01*
X108461024Y-60403618D01*
X108346119Y-60346166D01*
X111766048Y-44316954D02*
X111191524Y-44719120D01*
X111766048Y-45006382D02*
X110559548Y-45006382D01*
X110559548Y-44546763D01*
X110617000Y-44431858D01*
X110674452Y-44374406D01*
X110789357Y-44316954D01*
X110961714Y-44316954D01*
X111076619Y-44374406D01*
X111134071Y-44431858D01*
X111191524Y-44546763D01*
X111191524Y-45006382D01*
X111766048Y-43167906D02*
X111766048Y-43857334D01*
X111766048Y-43512620D02*
X110559548Y-43512620D01*
X110731905Y-43627525D01*
X110846810Y-43742430D01*
X110904262Y-43857334D01*
X111766048Y-42018858D02*
X111766048Y-42708286D01*
X111766048Y-42363572D02*
X110559548Y-42363572D01*
X110731905Y-42478477D01*
X110846810Y-42593382D01*
X110904262Y-42708286D01*
X110559548Y-41271977D02*
X110559548Y-41157072D01*
X110617000Y-41042167D01*
X110674452Y-40984715D01*
X110789357Y-40927262D01*
X111019167Y-40869810D01*
X111306429Y-40869810D01*
X111536238Y-40927262D01*
X111651143Y-40984715D01*
X111708595Y-41042167D01*
X111766048Y-41157072D01*
X111766048Y-41271977D01*
X111708595Y-41386881D01*
X111651143Y-41444334D01*
X111536238Y-41501786D01*
X111306429Y-41559238D01*
X111019167Y-41559238D01*
X110789357Y-41501786D01*
X110674452Y-41444334D01*
X110617000Y-41386881D01*
X110559548Y-41271977D01*
X112845548Y-63793310D02*
X112271024Y-64195476D01*
X112845548Y-64482738D02*
X111639048Y-64482738D01*
X111639048Y-64023119D01*
X111696500Y-63908214D01*
X111753952Y-63850762D01*
X111868857Y-63793310D01*
X112041214Y-63793310D01*
X112156119Y-63850762D01*
X112213571Y-63908214D01*
X112271024Y-64023119D01*
X112271024Y-64482738D01*
X112845548Y-62644262D02*
X112845548Y-63333690D01*
X112845548Y-62988976D02*
X111639048Y-62988976D01*
X111811405Y-63103881D01*
X111926310Y-63218786D01*
X111983762Y-63333690D01*
X112845548Y-61495214D02*
X112845548Y-62184642D01*
X112845548Y-61839928D02*
X111639048Y-61839928D01*
X111811405Y-61954833D01*
X111926310Y-62069738D01*
X111983762Y-62184642D01*
X112845548Y-60346166D02*
X112845548Y-61035594D01*
X112845548Y-60690880D02*
X111639048Y-60690880D01*
X111811405Y-60805785D01*
X111926310Y-60920690D01*
X111983762Y-61035594D01*
X115576048Y-44316954D02*
X115001524Y-44719120D01*
X115576048Y-45006382D02*
X114369548Y-45006382D01*
X114369548Y-44546763D01*
X114427000Y-44431858D01*
X114484452Y-44374406D01*
X114599357Y-44316954D01*
X114771714Y-44316954D01*
X114886619Y-44374406D01*
X114944071Y-44431858D01*
X115001524Y-44546763D01*
X115001524Y-45006382D01*
X115576048Y-43167906D02*
X115576048Y-43857334D01*
X115576048Y-43512620D02*
X114369548Y-43512620D01*
X114541905Y-43627525D01*
X114656810Y-43742430D01*
X114714262Y-43857334D01*
X115576048Y-42018858D02*
X115576048Y-42708286D01*
X115576048Y-42363572D02*
X114369548Y-42363572D01*
X114541905Y-42478477D01*
X114656810Y-42593382D01*
X114714262Y-42708286D01*
X114484452Y-41559238D02*
X114427000Y-41501786D01*
X114369548Y-41386881D01*
X114369548Y-41099619D01*
X114427000Y-40984715D01*
X114484452Y-40927262D01*
X114599357Y-40869810D01*
X114714262Y-40869810D01*
X114886619Y-40927262D01*
X115576048Y-41616691D01*
X115576048Y-40869810D01*
X116655548Y-63793310D02*
X116081024Y-64195476D01*
X116655548Y-64482738D02*
X115449048Y-64482738D01*
X115449048Y-64023119D01*
X115506500Y-63908214D01*
X115563952Y-63850762D01*
X115678857Y-63793310D01*
X115851214Y-63793310D01*
X115966119Y-63850762D01*
X116023571Y-63908214D01*
X116081024Y-64023119D01*
X116081024Y-64482738D01*
X116655548Y-62644262D02*
X116655548Y-63333690D01*
X116655548Y-62988976D02*
X115449048Y-62988976D01*
X115621405Y-63103881D01*
X115736310Y-63218786D01*
X115793762Y-63333690D01*
X116655548Y-61495214D02*
X116655548Y-62184642D01*
X116655548Y-61839928D02*
X115449048Y-61839928D01*
X115621405Y-61954833D01*
X115736310Y-62069738D01*
X115793762Y-62184642D01*
X115449048Y-61093047D02*
X115449048Y-60346166D01*
X115908667Y-60748333D01*
X115908667Y-60575975D01*
X115966119Y-60461071D01*
X116023571Y-60403618D01*
X116138476Y-60346166D01*
X116425738Y-60346166D01*
X116540643Y-60403618D01*
X116598095Y-60461071D01*
X116655548Y-60575975D01*
X116655548Y-60920690D01*
X116598095Y-61035594D01*
X116540643Y-61093047D01*
X119386048Y-44316954D02*
X118811524Y-44719120D01*
X119386048Y-45006382D02*
X118179548Y-45006382D01*
X118179548Y-44546763D01*
X118237000Y-44431858D01*
X118294452Y-44374406D01*
X118409357Y-44316954D01*
X118581714Y-44316954D01*
X118696619Y-44374406D01*
X118754071Y-44431858D01*
X118811524Y-44546763D01*
X118811524Y-45006382D01*
X119386048Y-43167906D02*
X119386048Y-43857334D01*
X119386048Y-43512620D02*
X118179548Y-43512620D01*
X118351905Y-43627525D01*
X118466810Y-43742430D01*
X118524262Y-43857334D01*
X119386048Y-42018858D02*
X119386048Y-42708286D01*
X119386048Y-42363572D02*
X118179548Y-42363572D01*
X118351905Y-42478477D01*
X118466810Y-42593382D01*
X118524262Y-42708286D01*
X118581714Y-40984715D02*
X119386048Y-40984715D01*
X118122095Y-41271977D02*
X118983881Y-41559238D01*
X118983881Y-40812358D01*
X120465548Y-63793310D02*
X119891024Y-64195476D01*
X120465548Y-64482738D02*
X119259048Y-64482738D01*
X119259048Y-64023119D01*
X119316500Y-63908214D01*
X119373952Y-63850762D01*
X119488857Y-63793310D01*
X119661214Y-63793310D01*
X119776119Y-63850762D01*
X119833571Y-63908214D01*
X119891024Y-64023119D01*
X119891024Y-64482738D01*
X120465548Y-62644262D02*
X120465548Y-63333690D01*
X120465548Y-62988976D02*
X119259048Y-62988976D01*
X119431405Y-63103881D01*
X119546310Y-63218786D01*
X119603762Y-63333690D01*
X120465548Y-61495214D02*
X120465548Y-62184642D01*
X120465548Y-61839928D02*
X119259048Y-61839928D01*
X119431405Y-61954833D01*
X119546310Y-62069738D01*
X119603762Y-62184642D01*
X119259048Y-60403618D02*
X119259048Y-60978142D01*
X119833571Y-61035594D01*
X119776119Y-60978142D01*
X119718667Y-60863237D01*
X119718667Y-60575975D01*
X119776119Y-60461071D01*
X119833571Y-60403618D01*
X119948476Y-60346166D01*
X120235738Y-60346166D01*
X120350643Y-60403618D01*
X120408095Y-60461071D01*
X120465548Y-60575975D01*
X120465548Y-60863237D01*
X120408095Y-60978142D01*
X120350643Y-61035594D01*
X123196048Y-44316954D02*
X122621524Y-44719120D01*
X123196048Y-45006382D02*
X121989548Y-45006382D01*
X121989548Y-44546763D01*
X122047000Y-44431858D01*
X122104452Y-44374406D01*
X122219357Y-44316954D01*
X122391714Y-44316954D01*
X122506619Y-44374406D01*
X122564071Y-44431858D01*
X122621524Y-44546763D01*
X122621524Y-45006382D01*
X123196048Y-43167906D02*
X123196048Y-43857334D01*
X123196048Y-43512620D02*
X121989548Y-43512620D01*
X122161905Y-43627525D01*
X122276810Y-43742430D01*
X122334262Y-43857334D01*
X123196048Y-42018858D02*
X123196048Y-42708286D01*
X123196048Y-42363572D02*
X121989548Y-42363572D01*
X122161905Y-42478477D01*
X122276810Y-42593382D01*
X122334262Y-42708286D01*
X121989548Y-40984715D02*
X121989548Y-41214524D01*
X122047000Y-41329429D01*
X122104452Y-41386881D01*
X122276810Y-41501786D01*
X122506619Y-41559238D01*
X122966238Y-41559238D01*
X123081143Y-41501786D01*
X123138595Y-41444334D01*
X123196048Y-41329429D01*
X123196048Y-41099619D01*
X123138595Y-40984715D01*
X123081143Y-40927262D01*
X122966238Y-40869810D01*
X122678976Y-40869810D01*
X122564071Y-40927262D01*
X122506619Y-40984715D01*
X122449167Y-41099619D01*
X122449167Y-41329429D01*
X122506619Y-41444334D01*
X122564071Y-41501786D01*
X122678976Y-41559238D01*
X124275548Y-63793310D02*
X123701024Y-64195476D01*
X124275548Y-64482738D02*
X123069048Y-64482738D01*
X123069048Y-64023119D01*
X123126500Y-63908214D01*
X123183952Y-63850762D01*
X123298857Y-63793310D01*
X123471214Y-63793310D01*
X123586119Y-63850762D01*
X123643571Y-63908214D01*
X123701024Y-64023119D01*
X123701024Y-64482738D01*
X124275548Y-62644262D02*
X124275548Y-63333690D01*
X124275548Y-62988976D02*
X123069048Y-62988976D01*
X123241405Y-63103881D01*
X123356310Y-63218786D01*
X123413762Y-63333690D01*
X124275548Y-61495214D02*
X124275548Y-62184642D01*
X124275548Y-61839928D02*
X123069048Y-61839928D01*
X123241405Y-61954833D01*
X123356310Y-62069738D01*
X123413762Y-62184642D01*
X123069048Y-61093047D02*
X123069048Y-60288714D01*
X124275548Y-60805785D01*
X127006048Y-44316954D02*
X126431524Y-44719120D01*
X127006048Y-45006382D02*
X125799548Y-45006382D01*
X125799548Y-44546763D01*
X125857000Y-44431858D01*
X125914452Y-44374406D01*
X126029357Y-44316954D01*
X126201714Y-44316954D01*
X126316619Y-44374406D01*
X126374071Y-44431858D01*
X126431524Y-44546763D01*
X126431524Y-45006382D01*
X127006048Y-43167906D02*
X127006048Y-43857334D01*
X127006048Y-43512620D02*
X125799548Y-43512620D01*
X125971905Y-43627525D01*
X126086810Y-43742430D01*
X126144262Y-43857334D01*
X127006048Y-42018858D02*
X127006048Y-42708286D01*
X127006048Y-42363572D02*
X125799548Y-42363572D01*
X125971905Y-42478477D01*
X126086810Y-42593382D01*
X126144262Y-42708286D01*
X126316619Y-41329429D02*
X126259167Y-41444334D01*
X126201714Y-41501786D01*
X126086810Y-41559238D01*
X126029357Y-41559238D01*
X125914452Y-41501786D01*
X125857000Y-41444334D01*
X125799548Y-41329429D01*
X125799548Y-41099619D01*
X125857000Y-40984715D01*
X125914452Y-40927262D01*
X126029357Y-40869810D01*
X126086810Y-40869810D01*
X126201714Y-40927262D01*
X126259167Y-40984715D01*
X126316619Y-41099619D01*
X126316619Y-41329429D01*
X126374071Y-41444334D01*
X126431524Y-41501786D01*
X126546429Y-41559238D01*
X126776238Y-41559238D01*
X126891143Y-41501786D01*
X126948595Y-41444334D01*
X127006048Y-41329429D01*
X127006048Y-41099619D01*
X126948595Y-40984715D01*
X126891143Y-40927262D01*
X126776238Y-40869810D01*
X126546429Y-40869810D01*
X126431524Y-40927262D01*
X126374071Y-40984715D01*
X126316619Y-41099619D01*
X128085548Y-63793310D02*
X127511024Y-64195476D01*
X128085548Y-64482738D02*
X126879048Y-64482738D01*
X126879048Y-64023119D01*
X126936500Y-63908214D01*
X126993952Y-63850762D01*
X127108857Y-63793310D01*
X127281214Y-63793310D01*
X127396119Y-63850762D01*
X127453571Y-63908214D01*
X127511024Y-64023119D01*
X127511024Y-64482738D01*
X128085548Y-62644262D02*
X128085548Y-63333690D01*
X128085548Y-62988976D02*
X126879048Y-62988976D01*
X127051405Y-63103881D01*
X127166310Y-63218786D01*
X127223762Y-63333690D01*
X128085548Y-61495214D02*
X128085548Y-62184642D01*
X128085548Y-61839928D02*
X126879048Y-61839928D01*
X127051405Y-61954833D01*
X127166310Y-62069738D01*
X127223762Y-62184642D01*
X128085548Y-60920690D02*
X128085548Y-60690880D01*
X128028095Y-60575975D01*
X127970643Y-60518523D01*
X127798286Y-60403618D01*
X127568476Y-60346166D01*
X127108857Y-60346166D01*
X126993952Y-60403618D01*
X126936500Y-60461071D01*
X126879048Y-60575975D01*
X126879048Y-60805785D01*
X126936500Y-60920690D01*
X126993952Y-60978142D01*
X127108857Y-61035594D01*
X127396119Y-61035594D01*
X127511024Y-60978142D01*
X127568476Y-60920690D01*
X127625929Y-60805785D01*
X127625929Y-60575975D01*
X127568476Y-60461071D01*
X127511024Y-60403618D01*
X127396119Y-60346166D01*
X130816048Y-44316954D02*
X130241524Y-44719120D01*
X130816048Y-45006382D02*
X129609548Y-45006382D01*
X129609548Y-44546763D01*
X129667000Y-44431858D01*
X129724452Y-44374406D01*
X129839357Y-44316954D01*
X130011714Y-44316954D01*
X130126619Y-44374406D01*
X130184071Y-44431858D01*
X130241524Y-44546763D01*
X130241524Y-45006382D01*
X130816048Y-43167906D02*
X130816048Y-43857334D01*
X130816048Y-43512620D02*
X129609548Y-43512620D01*
X129781905Y-43627525D01*
X129896810Y-43742430D01*
X129954262Y-43857334D01*
X129724452Y-42708286D02*
X129667000Y-42650834D01*
X129609548Y-42535929D01*
X129609548Y-42248667D01*
X129667000Y-42133763D01*
X129724452Y-42076310D01*
X129839357Y-42018858D01*
X129954262Y-42018858D01*
X130126619Y-42076310D01*
X130816048Y-42765739D01*
X130816048Y-42018858D01*
X129609548Y-41271977D02*
X129609548Y-41157072D01*
X129667000Y-41042167D01*
X129724452Y-40984715D01*
X129839357Y-40927262D01*
X130069167Y-40869810D01*
X130356429Y-40869810D01*
X130586238Y-40927262D01*
X130701143Y-40984715D01*
X130758595Y-41042167D01*
X130816048Y-41157072D01*
X130816048Y-41271977D01*
X130758595Y-41386881D01*
X130701143Y-41444334D01*
X130586238Y-41501786D01*
X130356429Y-41559238D01*
X130069167Y-41559238D01*
X129839357Y-41501786D01*
X129724452Y-41444334D01*
X129667000Y-41386881D01*
X129609548Y-41271977D01*
X131895548Y-63793310D02*
X131321024Y-64195476D01*
X131895548Y-64482738D02*
X130689048Y-64482738D01*
X130689048Y-64023119D01*
X130746500Y-63908214D01*
X130803952Y-63850762D01*
X130918857Y-63793310D01*
X131091214Y-63793310D01*
X131206119Y-63850762D01*
X131263571Y-63908214D01*
X131321024Y-64023119D01*
X131321024Y-64482738D01*
X131895548Y-62644262D02*
X131895548Y-63333690D01*
X131895548Y-62988976D02*
X130689048Y-62988976D01*
X130861405Y-63103881D01*
X130976310Y-63218786D01*
X131033762Y-63333690D01*
X130803952Y-62184642D02*
X130746500Y-62127190D01*
X130689048Y-62012285D01*
X130689048Y-61725023D01*
X130746500Y-61610119D01*
X130803952Y-61552666D01*
X130918857Y-61495214D01*
X131033762Y-61495214D01*
X131206119Y-61552666D01*
X131895548Y-62242095D01*
X131895548Y-61495214D01*
X131895548Y-60346166D02*
X131895548Y-61035594D01*
X131895548Y-60690880D02*
X130689048Y-60690880D01*
X130861405Y-60805785D01*
X130976310Y-60920690D01*
X131033762Y-61035594D01*
X134626048Y-44316954D02*
X134051524Y-44719120D01*
X134626048Y-45006382D02*
X133419548Y-45006382D01*
X133419548Y-44546763D01*
X133477000Y-44431858D01*
X133534452Y-44374406D01*
X133649357Y-44316954D01*
X133821714Y-44316954D01*
X133936619Y-44374406D01*
X133994071Y-44431858D01*
X134051524Y-44546763D01*
X134051524Y-45006382D01*
X134626048Y-43167906D02*
X134626048Y-43857334D01*
X134626048Y-43512620D02*
X133419548Y-43512620D01*
X133591905Y-43627525D01*
X133706810Y-43742430D01*
X133764262Y-43857334D01*
X133534452Y-42708286D02*
X133477000Y-42650834D01*
X133419548Y-42535929D01*
X133419548Y-42248667D01*
X133477000Y-42133763D01*
X133534452Y-42076310D01*
X133649357Y-42018858D01*
X133764262Y-42018858D01*
X133936619Y-42076310D01*
X134626048Y-42765739D01*
X134626048Y-42018858D01*
X133534452Y-41559238D02*
X133477000Y-41501786D01*
X133419548Y-41386881D01*
X133419548Y-41099619D01*
X133477000Y-40984715D01*
X133534452Y-40927262D01*
X133649357Y-40869810D01*
X133764262Y-40869810D01*
X133936619Y-40927262D01*
X134626048Y-41616691D01*
X134626048Y-40869810D01*
X135705548Y-63793310D02*
X135131024Y-64195476D01*
X135705548Y-64482738D02*
X134499048Y-64482738D01*
X134499048Y-64023119D01*
X134556500Y-63908214D01*
X134613952Y-63850762D01*
X134728857Y-63793310D01*
X134901214Y-63793310D01*
X135016119Y-63850762D01*
X135073571Y-63908214D01*
X135131024Y-64023119D01*
X135131024Y-64482738D01*
X135705548Y-62644262D02*
X135705548Y-63333690D01*
X135705548Y-62988976D02*
X134499048Y-62988976D01*
X134671405Y-63103881D01*
X134786310Y-63218786D01*
X134843762Y-63333690D01*
X134613952Y-62184642D02*
X134556500Y-62127190D01*
X134499048Y-62012285D01*
X134499048Y-61725023D01*
X134556500Y-61610119D01*
X134613952Y-61552666D01*
X134728857Y-61495214D01*
X134843762Y-61495214D01*
X135016119Y-61552666D01*
X135705548Y-62242095D01*
X135705548Y-61495214D01*
X134499048Y-61093047D02*
X134499048Y-60346166D01*
X134958667Y-60748333D01*
X134958667Y-60575975D01*
X135016119Y-60461071D01*
X135073571Y-60403618D01*
X135188476Y-60346166D01*
X135475738Y-60346166D01*
X135590643Y-60403618D01*
X135648095Y-60461071D01*
X135705548Y-60575975D01*
X135705548Y-60920690D01*
X135648095Y-61035594D01*
X135590643Y-61093047D01*
X138436048Y-44316954D02*
X137861524Y-44719120D01*
X138436048Y-45006382D02*
X137229548Y-45006382D01*
X137229548Y-44546763D01*
X137287000Y-44431858D01*
X137344452Y-44374406D01*
X137459357Y-44316954D01*
X137631714Y-44316954D01*
X137746619Y-44374406D01*
X137804071Y-44431858D01*
X137861524Y-44546763D01*
X137861524Y-45006382D01*
X138436048Y-43167906D02*
X138436048Y-43857334D01*
X138436048Y-43512620D02*
X137229548Y-43512620D01*
X137401905Y-43627525D01*
X137516810Y-43742430D01*
X137574262Y-43857334D01*
X137344452Y-42708286D02*
X137287000Y-42650834D01*
X137229548Y-42535929D01*
X137229548Y-42248667D01*
X137287000Y-42133763D01*
X137344452Y-42076310D01*
X137459357Y-42018858D01*
X137574262Y-42018858D01*
X137746619Y-42076310D01*
X138436048Y-42765739D01*
X138436048Y-42018858D01*
X137631714Y-40984715D02*
X138436048Y-40984715D01*
X137172095Y-41271977D02*
X138033881Y-41559238D01*
X138033881Y-40812358D01*
X139515548Y-63793310D02*
X138941024Y-64195476D01*
X139515548Y-64482738D02*
X138309048Y-64482738D01*
X138309048Y-64023119D01*
X138366500Y-63908214D01*
X138423952Y-63850762D01*
X138538857Y-63793310D01*
X138711214Y-63793310D01*
X138826119Y-63850762D01*
X138883571Y-63908214D01*
X138941024Y-64023119D01*
X138941024Y-64482738D01*
X139515548Y-62644262D02*
X139515548Y-63333690D01*
X139515548Y-62988976D02*
X138309048Y-62988976D01*
X138481405Y-63103881D01*
X138596310Y-63218786D01*
X138653762Y-63333690D01*
X138423952Y-62184642D02*
X138366500Y-62127190D01*
X138309048Y-62012285D01*
X138309048Y-61725023D01*
X138366500Y-61610119D01*
X138423952Y-61552666D01*
X138538857Y-61495214D01*
X138653762Y-61495214D01*
X138826119Y-61552666D01*
X139515548Y-62242095D01*
X139515548Y-61495214D01*
X138309048Y-60403618D02*
X138309048Y-60978142D01*
X138883571Y-61035594D01*
X138826119Y-60978142D01*
X138768667Y-60863237D01*
X138768667Y-60575975D01*
X138826119Y-60461071D01*
X138883571Y-60403618D01*
X138998476Y-60346166D01*
X139285738Y-60346166D01*
X139400643Y-60403618D01*
X139458095Y-60461071D01*
X139515548Y-60575975D01*
X139515548Y-60863237D01*
X139458095Y-60978142D01*
X139400643Y-61035594D01*
X142246048Y-44316954D02*
X141671524Y-44719120D01*
X142246048Y-45006382D02*
X141039548Y-45006382D01*
X141039548Y-44546763D01*
X141097000Y-44431858D01*
X141154452Y-44374406D01*
X141269357Y-44316954D01*
X141441714Y-44316954D01*
X141556619Y-44374406D01*
X141614071Y-44431858D01*
X141671524Y-44546763D01*
X141671524Y-45006382D01*
X142246048Y-43167906D02*
X142246048Y-43857334D01*
X142246048Y-43512620D02*
X141039548Y-43512620D01*
X141211905Y-43627525D01*
X141326810Y-43742430D01*
X141384262Y-43857334D01*
X141154452Y-42708286D02*
X141097000Y-42650834D01*
X141039548Y-42535929D01*
X141039548Y-42248667D01*
X141097000Y-42133763D01*
X141154452Y-42076310D01*
X141269357Y-42018858D01*
X141384262Y-42018858D01*
X141556619Y-42076310D01*
X142246048Y-42765739D01*
X142246048Y-42018858D01*
X141039548Y-40984715D02*
X141039548Y-41214524D01*
X141097000Y-41329429D01*
X141154452Y-41386881D01*
X141326810Y-41501786D01*
X141556619Y-41559238D01*
X142016238Y-41559238D01*
X142131143Y-41501786D01*
X142188595Y-41444334D01*
X142246048Y-41329429D01*
X142246048Y-41099619D01*
X142188595Y-40984715D01*
X142131143Y-40927262D01*
X142016238Y-40869810D01*
X141728976Y-40869810D01*
X141614071Y-40927262D01*
X141556619Y-40984715D01*
X141499167Y-41099619D01*
X141499167Y-41329429D01*
X141556619Y-41444334D01*
X141614071Y-41501786D01*
X141728976Y-41559238D01*
X143325548Y-63793310D02*
X142751024Y-64195476D01*
X143325548Y-64482738D02*
X142119048Y-64482738D01*
X142119048Y-64023119D01*
X142176500Y-63908214D01*
X142233952Y-63850762D01*
X142348857Y-63793310D01*
X142521214Y-63793310D01*
X142636119Y-63850762D01*
X142693571Y-63908214D01*
X142751024Y-64023119D01*
X142751024Y-64482738D01*
X143325548Y-62644262D02*
X143325548Y-63333690D01*
X143325548Y-62988976D02*
X142119048Y-62988976D01*
X142291405Y-63103881D01*
X142406310Y-63218786D01*
X142463762Y-63333690D01*
X142233952Y-62184642D02*
X142176500Y-62127190D01*
X142119048Y-62012285D01*
X142119048Y-61725023D01*
X142176500Y-61610119D01*
X142233952Y-61552666D01*
X142348857Y-61495214D01*
X142463762Y-61495214D01*
X142636119Y-61552666D01*
X143325548Y-62242095D01*
X143325548Y-61495214D01*
X142119048Y-61093047D02*
X142119048Y-60288714D01*
X143325548Y-60805785D01*
X146056048Y-44316954D02*
X145481524Y-44719120D01*
X146056048Y-45006382D02*
X144849548Y-45006382D01*
X144849548Y-44546763D01*
X144907000Y-44431858D01*
X144964452Y-44374406D01*
X145079357Y-44316954D01*
X145251714Y-44316954D01*
X145366619Y-44374406D01*
X145424071Y-44431858D01*
X145481524Y-44546763D01*
X145481524Y-45006382D01*
X146056048Y-43167906D02*
X146056048Y-43857334D01*
X146056048Y-43512620D02*
X144849548Y-43512620D01*
X145021905Y-43627525D01*
X145136810Y-43742430D01*
X145194262Y-43857334D01*
X144964452Y-42708286D02*
X144907000Y-42650834D01*
X144849548Y-42535929D01*
X144849548Y-42248667D01*
X144907000Y-42133763D01*
X144964452Y-42076310D01*
X145079357Y-42018858D01*
X145194262Y-42018858D01*
X145366619Y-42076310D01*
X146056048Y-42765739D01*
X146056048Y-42018858D01*
X145366619Y-41329429D02*
X145309167Y-41444334D01*
X145251714Y-41501786D01*
X145136810Y-41559238D01*
X145079357Y-41559238D01*
X144964452Y-41501786D01*
X144907000Y-41444334D01*
X144849548Y-41329429D01*
X144849548Y-41099619D01*
X144907000Y-40984715D01*
X144964452Y-40927262D01*
X145079357Y-40869810D01*
X145136810Y-40869810D01*
X145251714Y-40927262D01*
X145309167Y-40984715D01*
X145366619Y-41099619D01*
X145366619Y-41329429D01*
X145424071Y-41444334D01*
X145481524Y-41501786D01*
X145596429Y-41559238D01*
X145826238Y-41559238D01*
X145941143Y-41501786D01*
X145998595Y-41444334D01*
X146056048Y-41329429D01*
X146056048Y-41099619D01*
X145998595Y-40984715D01*
X145941143Y-40927262D01*
X145826238Y-40869810D01*
X145596429Y-40869810D01*
X145481524Y-40927262D01*
X145424071Y-40984715D01*
X145366619Y-41099619D01*
X148342048Y-68446954D02*
X147767524Y-68849120D01*
X148342048Y-69136382D02*
X147135548Y-69136382D01*
X147135548Y-68676763D01*
X147193000Y-68561858D01*
X147250452Y-68504406D01*
X147365357Y-68446954D01*
X147537714Y-68446954D01*
X147652619Y-68504406D01*
X147710071Y-68561858D01*
X147767524Y-68676763D01*
X147767524Y-69136382D01*
X148342048Y-67297906D02*
X148342048Y-67987334D01*
X148342048Y-67642620D02*
X147135548Y-67642620D01*
X147307905Y-67757525D01*
X147422810Y-67872430D01*
X147480262Y-67987334D01*
X147250452Y-66838286D02*
X147193000Y-66780834D01*
X147135548Y-66665929D01*
X147135548Y-66378667D01*
X147193000Y-66263763D01*
X147250452Y-66206310D01*
X147365357Y-66148858D01*
X147480262Y-66148858D01*
X147652619Y-66206310D01*
X148342048Y-66895739D01*
X148342048Y-66148858D01*
X148342048Y-65574334D02*
X148342048Y-65344524D01*
X148284595Y-65229619D01*
X148227143Y-65172167D01*
X148054786Y-65057262D01*
X147824976Y-64999810D01*
X147365357Y-64999810D01*
X147250452Y-65057262D01*
X147193000Y-65114715D01*
X147135548Y-65229619D01*
X147135548Y-65459429D01*
X147193000Y-65574334D01*
X147250452Y-65631786D01*
X147365357Y-65689238D01*
X147652619Y-65689238D01*
X147767524Y-65631786D01*
X147824976Y-65574334D01*
X147882429Y-65459429D01*
X147882429Y-65229619D01*
X147824976Y-65114715D01*
X147767524Y-65057262D01*
X147652619Y-64999810D01*
X149866048Y-44316954D02*
X149291524Y-44719120D01*
X149866048Y-45006382D02*
X148659548Y-45006382D01*
X148659548Y-44546763D01*
X148717000Y-44431858D01*
X148774452Y-44374406D01*
X148889357Y-44316954D01*
X149061714Y-44316954D01*
X149176619Y-44374406D01*
X149234071Y-44431858D01*
X149291524Y-44546763D01*
X149291524Y-45006382D01*
X149866048Y-43167906D02*
X149866048Y-43857334D01*
X149866048Y-43512620D02*
X148659548Y-43512620D01*
X148831905Y-43627525D01*
X148946810Y-43742430D01*
X149004262Y-43857334D01*
X148659548Y-42765739D02*
X148659548Y-42018858D01*
X149119167Y-42421025D01*
X149119167Y-42248667D01*
X149176619Y-42133763D01*
X149234071Y-42076310D01*
X149348976Y-42018858D01*
X149636238Y-42018858D01*
X149751143Y-42076310D01*
X149808595Y-42133763D01*
X149866048Y-42248667D01*
X149866048Y-42593382D01*
X149808595Y-42708286D01*
X149751143Y-42765739D01*
X148659548Y-41271977D02*
X148659548Y-41157072D01*
X148717000Y-41042167D01*
X148774452Y-40984715D01*
X148889357Y-40927262D01*
X149119167Y-40869810D01*
X149406429Y-40869810D01*
X149636238Y-40927262D01*
X149751143Y-40984715D01*
X149808595Y-41042167D01*
X149866048Y-41157072D01*
X149866048Y-41271977D01*
X149808595Y-41386881D01*
X149751143Y-41444334D01*
X149636238Y-41501786D01*
X149406429Y-41559238D01*
X149119167Y-41559238D01*
X148889357Y-41501786D01*
X148774452Y-41444334D01*
X148717000Y-41386881D01*
X148659548Y-41271977D01*
X109340348Y-127242510D02*
X108765824Y-127644676D01*
X109340348Y-127931938D02*
X108133848Y-127931938D01*
X108133848Y-127472319D01*
X108191300Y-127357414D01*
X108248752Y-127299962D01*
X108363657Y-127242510D01*
X108536014Y-127242510D01*
X108650919Y-127299962D01*
X108708371Y-127357414D01*
X108765824Y-127472319D01*
X108765824Y-127931938D01*
X108133848Y-126208367D02*
X108133848Y-126438176D01*
X108191300Y-126553081D01*
X108248752Y-126610533D01*
X108421110Y-126725438D01*
X108650919Y-126782890D01*
X109110538Y-126782890D01*
X109225443Y-126725438D01*
X109282895Y-126667986D01*
X109340348Y-126553081D01*
X109340348Y-126323271D01*
X109282895Y-126208367D01*
X109225443Y-126150914D01*
X109110538Y-126093462D01*
X108823276Y-126093462D01*
X108708371Y-126150914D01*
X108650919Y-126208367D01*
X108593467Y-126323271D01*
X108593467Y-126553081D01*
X108650919Y-126667986D01*
X108708371Y-126725438D01*
X108823276Y-126782890D01*
X108133848Y-125691295D02*
X108133848Y-124886962D01*
X109340348Y-125404033D01*
X120871948Y-127039310D02*
X120297424Y-127441476D01*
X120871948Y-127728738D02*
X119665448Y-127728738D01*
X119665448Y-127269119D01*
X119722900Y-127154214D01*
X119780352Y-127096762D01*
X119895257Y-127039310D01*
X120067614Y-127039310D01*
X120182519Y-127096762D01*
X120239971Y-127154214D01*
X120297424Y-127269119D01*
X120297424Y-127728738D01*
X119665448Y-126005167D02*
X119665448Y-126234976D01*
X119722900Y-126349881D01*
X119780352Y-126407333D01*
X119952710Y-126522238D01*
X120182519Y-126579690D01*
X120642138Y-126579690D01*
X120757043Y-126522238D01*
X120814495Y-126464786D01*
X120871948Y-126349881D01*
X120871948Y-126120071D01*
X120814495Y-126005167D01*
X120757043Y-125947714D01*
X120642138Y-125890262D01*
X120354876Y-125890262D01*
X120239971Y-125947714D01*
X120182519Y-126005167D01*
X120125067Y-126120071D01*
X120125067Y-126349881D01*
X120182519Y-126464786D01*
X120239971Y-126522238D01*
X120354876Y-126579690D01*
X120182519Y-125200833D02*
X120125067Y-125315738D01*
X120067614Y-125373190D01*
X119952710Y-125430642D01*
X119895257Y-125430642D01*
X119780352Y-125373190D01*
X119722900Y-125315738D01*
X119665448Y-125200833D01*
X119665448Y-124971023D01*
X119722900Y-124856119D01*
X119780352Y-124798666D01*
X119895257Y-124741214D01*
X119952710Y-124741214D01*
X120067614Y-124798666D01*
X120125067Y-124856119D01*
X120182519Y-124971023D01*
X120182519Y-125200833D01*
X120239971Y-125315738D01*
X120297424Y-125373190D01*
X120412329Y-125430642D01*
X120642138Y-125430642D01*
X120757043Y-125373190D01*
X120814495Y-125315738D01*
X120871948Y-125200833D01*
X120871948Y-124971023D01*
X120814495Y-124856119D01*
X120757043Y-124798666D01*
X120642138Y-124741214D01*
X120412329Y-124741214D01*
X120297424Y-124798666D01*
X120239971Y-124856119D01*
X120182519Y-124971023D01*
X124986748Y-85357910D02*
X124412224Y-85760076D01*
X124986748Y-86047338D02*
X123780248Y-86047338D01*
X123780248Y-85587719D01*
X123837700Y-85472814D01*
X123895152Y-85415362D01*
X124010057Y-85357910D01*
X124182414Y-85357910D01*
X124297319Y-85415362D01*
X124354771Y-85472814D01*
X124412224Y-85587719D01*
X124412224Y-86047338D01*
X123780248Y-84323767D02*
X123780248Y-84553576D01*
X123837700Y-84668481D01*
X123895152Y-84725933D01*
X124067510Y-84840838D01*
X124297319Y-84898290D01*
X124756938Y-84898290D01*
X124871843Y-84840838D01*
X124929295Y-84783386D01*
X124986748Y-84668481D01*
X124986748Y-84438671D01*
X124929295Y-84323767D01*
X124871843Y-84266314D01*
X124756938Y-84208862D01*
X124469676Y-84208862D01*
X124354771Y-84266314D01*
X124297319Y-84323767D01*
X124239867Y-84438671D01*
X124239867Y-84668481D01*
X124297319Y-84783386D01*
X124354771Y-84840838D01*
X124469676Y-84898290D01*
X124986748Y-83634338D02*
X124986748Y-83404528D01*
X124929295Y-83289623D01*
X124871843Y-83232171D01*
X124699486Y-83117266D01*
X124469676Y-83059814D01*
X124010057Y-83059814D01*
X123895152Y-83117266D01*
X123837700Y-83174719D01*
X123780248Y-83289623D01*
X123780248Y-83519433D01*
X123837700Y-83634338D01*
X123895152Y-83691790D01*
X124010057Y-83749242D01*
X124297319Y-83749242D01*
X124412224Y-83691790D01*
X124469676Y-83634338D01*
X124527129Y-83519433D01*
X124527129Y-83289623D01*
X124469676Y-83174719D01*
X124412224Y-83117266D01*
X124297319Y-83059814D01*
X133825948Y-91174510D02*
X133251424Y-91576676D01*
X133825948Y-91863938D02*
X132619448Y-91863938D01*
X132619448Y-91404319D01*
X132676900Y-91289414D01*
X132734352Y-91231962D01*
X132849257Y-91174510D01*
X133021614Y-91174510D01*
X133136519Y-91231962D01*
X133193971Y-91289414D01*
X133251424Y-91404319D01*
X133251424Y-91863938D01*
X132619448Y-90772343D02*
X132619448Y-89968010D01*
X133825948Y-90485081D01*
X132619448Y-89278581D02*
X132619448Y-89163676D01*
X132676900Y-89048771D01*
X132734352Y-88991319D01*
X132849257Y-88933866D01*
X133079067Y-88876414D01*
X133366329Y-88876414D01*
X133596138Y-88933866D01*
X133711043Y-88991319D01*
X133768495Y-89048771D01*
X133825948Y-89163676D01*
X133825948Y-89278581D01*
X133768495Y-89393485D01*
X133711043Y-89450938D01*
X133596138Y-89508390D01*
X133366329Y-89565842D01*
X133079067Y-89565842D01*
X132849257Y-89508390D01*
X132734352Y-89450938D01*
X132676900Y-89393485D01*
X132619448Y-89278581D01*
X107067048Y-115176906D02*
X106492524Y-115579072D01*
X107067048Y-115866334D02*
X105860548Y-115866334D01*
X105860548Y-115406715D01*
X105918000Y-115291810D01*
X105975452Y-115234358D01*
X106090357Y-115176906D01*
X106262714Y-115176906D01*
X106377619Y-115234358D01*
X106435071Y-115291810D01*
X106492524Y-115406715D01*
X106492524Y-115866334D01*
X105860548Y-114774739D02*
X105860548Y-113970406D01*
X107067048Y-114487477D01*
X107067048Y-112878810D02*
X107067048Y-113568238D01*
X107067048Y-113223524D02*
X105860548Y-113223524D01*
X106032905Y-113338429D01*
X106147810Y-113453334D01*
X106205262Y-113568238D01*
X118179548Y-111545310D02*
X117605024Y-111947476D01*
X118179548Y-112234738D02*
X116973048Y-112234738D01*
X116973048Y-111775119D01*
X117030500Y-111660214D01*
X117087952Y-111602762D01*
X117202857Y-111545310D01*
X117375214Y-111545310D01*
X117490119Y-111602762D01*
X117547571Y-111660214D01*
X117605024Y-111775119D01*
X117605024Y-112234738D01*
X116973048Y-111143143D02*
X116973048Y-110338810D01*
X118179548Y-110855881D01*
X117087952Y-109936642D02*
X117030500Y-109879190D01*
X116973048Y-109764285D01*
X116973048Y-109477023D01*
X117030500Y-109362119D01*
X117087952Y-109304666D01*
X117202857Y-109247214D01*
X117317762Y-109247214D01*
X117490119Y-109304666D01*
X118179548Y-109994095D01*
X118179548Y-109247214D01*
X60648548Y-88431310D02*
X60074024Y-88833476D01*
X60648548Y-89120738D02*
X59442048Y-89120738D01*
X59442048Y-88661119D01*
X59499500Y-88546214D01*
X59556952Y-88488762D01*
X59671857Y-88431310D01*
X59844214Y-88431310D01*
X59959119Y-88488762D01*
X60016571Y-88546214D01*
X60074024Y-88661119D01*
X60074024Y-89120738D01*
X59442048Y-88029143D02*
X59442048Y-87224810D01*
X60648548Y-87741881D01*
X59442048Y-86880095D02*
X59442048Y-86133214D01*
X59901667Y-86535381D01*
X59901667Y-86363023D01*
X59959119Y-86248119D01*
X60016571Y-86190666D01*
X60131476Y-86133214D01*
X60418738Y-86133214D01*
X60533643Y-86190666D01*
X60591095Y-86248119D01*
X60648548Y-86363023D01*
X60648548Y-86707738D01*
X60591095Y-86822642D01*
X60533643Y-86880095D01*
X73856548Y-82335310D02*
X73282024Y-82737476D01*
X73856548Y-83024738D02*
X72650048Y-83024738D01*
X72650048Y-82565119D01*
X72707500Y-82450214D01*
X72764952Y-82392762D01*
X72879857Y-82335310D01*
X73052214Y-82335310D01*
X73167119Y-82392762D01*
X73224571Y-82450214D01*
X73282024Y-82565119D01*
X73282024Y-83024738D01*
X72650048Y-81933143D02*
X72650048Y-81128810D01*
X73856548Y-81645881D01*
X73052214Y-80152119D02*
X73856548Y-80152119D01*
X72592595Y-80439381D02*
X73454381Y-80726642D01*
X73454381Y-79979762D01*
X105860548Y-97448310D02*
X105286024Y-97850476D01*
X105860548Y-98137738D02*
X104654048Y-98137738D01*
X104654048Y-97678119D01*
X104711500Y-97563214D01*
X104768952Y-97505762D01*
X104883857Y-97448310D01*
X105056214Y-97448310D01*
X105171119Y-97505762D01*
X105228571Y-97563214D01*
X105286024Y-97678119D01*
X105286024Y-98137738D01*
X104654048Y-97046143D02*
X104654048Y-96241810D01*
X105860548Y-96758881D01*
X104654048Y-95207666D02*
X104654048Y-95782190D01*
X105228571Y-95839642D01*
X105171119Y-95782190D01*
X105113667Y-95667285D01*
X105113667Y-95380023D01*
X105171119Y-95265119D01*
X105228571Y-95207666D01*
X105343476Y-95150214D01*
X105630738Y-95150214D01*
X105745643Y-95207666D01*
X105803095Y-95265119D01*
X105860548Y-95380023D01*
X105860548Y-95667285D01*
X105803095Y-95782190D01*
X105745643Y-95839642D01*
X119386048Y-100571906D02*
X118811524Y-100974072D01*
X119386048Y-101261334D02*
X118179548Y-101261334D01*
X118179548Y-100801715D01*
X118237000Y-100686810D01*
X118294452Y-100629358D01*
X118409357Y-100571906D01*
X118581714Y-100571906D01*
X118696619Y-100629358D01*
X118754071Y-100686810D01*
X118811524Y-100801715D01*
X118811524Y-101261334D01*
X118179548Y-100169739D02*
X118179548Y-99365406D01*
X119386048Y-99882477D01*
X118179548Y-98388715D02*
X118179548Y-98618524D01*
X118237000Y-98733429D01*
X118294452Y-98790881D01*
X118466810Y-98905786D01*
X118696619Y-98963238D01*
X119156238Y-98963238D01*
X119271143Y-98905786D01*
X119328595Y-98848334D01*
X119386048Y-98733429D01*
X119386048Y-98503619D01*
X119328595Y-98388715D01*
X119271143Y-98331262D01*
X119156238Y-98273810D01*
X118868976Y-98273810D01*
X118754071Y-98331262D01*
X118696619Y-98388715D01*
X118639167Y-98503619D01*
X118639167Y-98733429D01*
X118696619Y-98848334D01*
X118754071Y-98905786D01*
X118868976Y-98963238D01*
X105962148Y-82335310D02*
X105387624Y-82737476D01*
X105962148Y-83024738D02*
X104755648Y-83024738D01*
X104755648Y-82565119D01*
X104813100Y-82450214D01*
X104870552Y-82392762D01*
X104985457Y-82335310D01*
X105157814Y-82335310D01*
X105272719Y-82392762D01*
X105330171Y-82450214D01*
X105387624Y-82565119D01*
X105387624Y-83024738D01*
X104755648Y-81933143D02*
X104755648Y-81128810D01*
X105962148Y-81645881D01*
X104755648Y-80784095D02*
X104755648Y-79979762D01*
X105962148Y-80496833D01*
X115106148Y-88431310D02*
X114531624Y-88833476D01*
X115106148Y-89120738D02*
X113899648Y-89120738D01*
X113899648Y-88661119D01*
X113957100Y-88546214D01*
X114014552Y-88488762D01*
X114129457Y-88431310D01*
X114301814Y-88431310D01*
X114416719Y-88488762D01*
X114474171Y-88546214D01*
X114531624Y-88661119D01*
X114531624Y-89120738D01*
X113899648Y-88029143D02*
X113899648Y-87224810D01*
X115106148Y-87741881D01*
X114416719Y-86592833D02*
X114359267Y-86707738D01*
X114301814Y-86765190D01*
X114186910Y-86822642D01*
X114129457Y-86822642D01*
X114014552Y-86765190D01*
X113957100Y-86707738D01*
X113899648Y-86592833D01*
X113899648Y-86363023D01*
X113957100Y-86248119D01*
X114014552Y-86190666D01*
X114129457Y-86133214D01*
X114186910Y-86133214D01*
X114301814Y-86190666D01*
X114359267Y-86248119D01*
X114416719Y-86363023D01*
X114416719Y-86592833D01*
X114474171Y-86707738D01*
X114531624Y-86765190D01*
X114646529Y-86822642D01*
X114876338Y-86822642D01*
X114991243Y-86765190D01*
X115048695Y-86707738D01*
X115106148Y-86592833D01*
X115106148Y-86363023D01*
X115048695Y-86248119D01*
X114991243Y-86190666D01*
X114876338Y-86133214D01*
X114646529Y-86133214D01*
X114531624Y-86190666D01*
X114474171Y-86248119D01*
X114416719Y-86363023D01*
X91192048Y-122796906D02*
X90617524Y-123199072D01*
X91192048Y-123486334D02*
X89985548Y-123486334D01*
X89985548Y-123026715D01*
X90043000Y-122911810D01*
X90100452Y-122854358D01*
X90215357Y-122796906D01*
X90387714Y-122796906D01*
X90502619Y-122854358D01*
X90560071Y-122911810D01*
X90617524Y-123026715D01*
X90617524Y-123486334D01*
X89985548Y-122394739D02*
X89985548Y-121590406D01*
X91192048Y-122107477D01*
X91192048Y-121073334D02*
X91192048Y-120843524D01*
X91134595Y-120728619D01*
X91077143Y-120671167D01*
X90904786Y-120556262D01*
X90674976Y-120498810D01*
X90215357Y-120498810D01*
X90100452Y-120556262D01*
X90043000Y-120613715D01*
X89985548Y-120728619D01*
X89985548Y-120958429D01*
X90043000Y-121073334D01*
X90100452Y-121130786D01*
X90215357Y-121188238D01*
X90502619Y-121188238D01*
X90617524Y-121130786D01*
X90674976Y-121073334D01*
X90732429Y-120958429D01*
X90732429Y-120728619D01*
X90674976Y-120613715D01*
X90617524Y-120556262D01*
X90502619Y-120498810D01*
X101733048Y-123050906D02*
X101158524Y-123453072D01*
X101733048Y-123740334D02*
X100526548Y-123740334D01*
X100526548Y-123280715D01*
X100584000Y-123165810D01*
X100641452Y-123108358D01*
X100756357Y-123050906D01*
X100928714Y-123050906D01*
X101043619Y-123108358D01*
X101101071Y-123165810D01*
X101158524Y-123280715D01*
X101158524Y-123740334D01*
X101043619Y-122361477D02*
X100986167Y-122476382D01*
X100928714Y-122533834D01*
X100813810Y-122591286D01*
X100756357Y-122591286D01*
X100641452Y-122533834D01*
X100584000Y-122476382D01*
X100526548Y-122361477D01*
X100526548Y-122131667D01*
X100584000Y-122016763D01*
X100641452Y-121959310D01*
X100756357Y-121901858D01*
X100813810Y-121901858D01*
X100928714Y-121959310D01*
X100986167Y-122016763D01*
X101043619Y-122131667D01*
X101043619Y-122361477D01*
X101101071Y-122476382D01*
X101158524Y-122533834D01*
X101273429Y-122591286D01*
X101503238Y-122591286D01*
X101618143Y-122533834D01*
X101675595Y-122476382D01*
X101733048Y-122361477D01*
X101733048Y-122131667D01*
X101675595Y-122016763D01*
X101618143Y-121959310D01*
X101503238Y-121901858D01*
X101273429Y-121901858D01*
X101158524Y-121959310D01*
X101101071Y-122016763D01*
X101043619Y-122131667D01*
X100526548Y-121154977D02*
X100526548Y-121040072D01*
X100584000Y-120925167D01*
X100641452Y-120867715D01*
X100756357Y-120810262D01*
X100986167Y-120752810D01*
X101273429Y-120752810D01*
X101503238Y-120810262D01*
X101618143Y-120867715D01*
X101675595Y-120925167D01*
X101733048Y-121040072D01*
X101733048Y-121154977D01*
X101675595Y-121269881D01*
X101618143Y-121327334D01*
X101503238Y-121384786D01*
X101273429Y-121442238D01*
X100986167Y-121442238D01*
X100756357Y-121384786D01*
X100641452Y-121327334D01*
X100584000Y-121269881D01*
X100526548Y-121154977D01*
X64903048Y-71869906D02*
X64328524Y-72272072D01*
X64903048Y-72559334D02*
X63696548Y-72559334D01*
X63696548Y-72099715D01*
X63754000Y-71984810D01*
X63811452Y-71927358D01*
X63926357Y-71869906D01*
X64098714Y-71869906D01*
X64213619Y-71927358D01*
X64271071Y-71984810D01*
X64328524Y-72099715D01*
X64328524Y-72559334D01*
X64213619Y-71180477D02*
X64156167Y-71295382D01*
X64098714Y-71352834D01*
X63983810Y-71410286D01*
X63926357Y-71410286D01*
X63811452Y-71352834D01*
X63754000Y-71295382D01*
X63696548Y-71180477D01*
X63696548Y-70950667D01*
X63754000Y-70835763D01*
X63811452Y-70778310D01*
X63926357Y-70720858D01*
X63983810Y-70720858D01*
X64098714Y-70778310D01*
X64156167Y-70835763D01*
X64213619Y-70950667D01*
X64213619Y-71180477D01*
X64271071Y-71295382D01*
X64328524Y-71352834D01*
X64443429Y-71410286D01*
X64673238Y-71410286D01*
X64788143Y-71352834D01*
X64845595Y-71295382D01*
X64903048Y-71180477D01*
X64903048Y-70950667D01*
X64845595Y-70835763D01*
X64788143Y-70778310D01*
X64673238Y-70720858D01*
X64443429Y-70720858D01*
X64328524Y-70778310D01*
X64271071Y-70835763D01*
X64213619Y-70950667D01*
X64903048Y-69571810D02*
X64903048Y-70261238D01*
X64903048Y-69916524D02*
X63696548Y-69916524D01*
X63868905Y-70031429D01*
X63983810Y-70146334D01*
X64041262Y-70261238D01*
X73856548Y-68365310D02*
X73282024Y-68767476D01*
X73856548Y-69054738D02*
X72650048Y-69054738D01*
X72650048Y-68595119D01*
X72707500Y-68480214D01*
X72764952Y-68422762D01*
X72879857Y-68365310D01*
X73052214Y-68365310D01*
X73167119Y-68422762D01*
X73224571Y-68480214D01*
X73282024Y-68595119D01*
X73282024Y-69054738D01*
X73167119Y-67675881D02*
X73109667Y-67790786D01*
X73052214Y-67848238D01*
X72937310Y-67905690D01*
X72879857Y-67905690D01*
X72764952Y-67848238D01*
X72707500Y-67790786D01*
X72650048Y-67675881D01*
X72650048Y-67446071D01*
X72707500Y-67331167D01*
X72764952Y-67273714D01*
X72879857Y-67216262D01*
X72937310Y-67216262D01*
X73052214Y-67273714D01*
X73109667Y-67331167D01*
X73167119Y-67446071D01*
X73167119Y-67675881D01*
X73224571Y-67790786D01*
X73282024Y-67848238D01*
X73396929Y-67905690D01*
X73626738Y-67905690D01*
X73741643Y-67848238D01*
X73799095Y-67790786D01*
X73856548Y-67675881D01*
X73856548Y-67446071D01*
X73799095Y-67331167D01*
X73741643Y-67273714D01*
X73626738Y-67216262D01*
X73396929Y-67216262D01*
X73282024Y-67273714D01*
X73224571Y-67331167D01*
X73167119Y-67446071D01*
X72764952Y-66756642D02*
X72707500Y-66699190D01*
X72650048Y-66584285D01*
X72650048Y-66297023D01*
X72707500Y-66182119D01*
X72764952Y-66124666D01*
X72879857Y-66067214D01*
X72994762Y-66067214D01*
X73167119Y-66124666D01*
X73856548Y-66814095D01*
X73856548Y-66067214D01*
X64903048Y-101079906D02*
X64328524Y-101482072D01*
X64903048Y-101769334D02*
X63696548Y-101769334D01*
X63696548Y-101309715D01*
X63754000Y-101194810D01*
X63811452Y-101137358D01*
X63926357Y-101079906D01*
X64098714Y-101079906D01*
X64213619Y-101137358D01*
X64271071Y-101194810D01*
X64328524Y-101309715D01*
X64328524Y-101769334D01*
X64213619Y-100390477D02*
X64156167Y-100505382D01*
X64098714Y-100562834D01*
X63983810Y-100620286D01*
X63926357Y-100620286D01*
X63811452Y-100562834D01*
X63754000Y-100505382D01*
X63696548Y-100390477D01*
X63696548Y-100160667D01*
X63754000Y-100045763D01*
X63811452Y-99988310D01*
X63926357Y-99930858D01*
X63983810Y-99930858D01*
X64098714Y-99988310D01*
X64156167Y-100045763D01*
X64213619Y-100160667D01*
X64213619Y-100390477D01*
X64271071Y-100505382D01*
X64328524Y-100562834D01*
X64443429Y-100620286D01*
X64673238Y-100620286D01*
X64788143Y-100562834D01*
X64845595Y-100505382D01*
X64903048Y-100390477D01*
X64903048Y-100160667D01*
X64845595Y-100045763D01*
X64788143Y-99988310D01*
X64673238Y-99930858D01*
X64443429Y-99930858D01*
X64328524Y-99988310D01*
X64271071Y-100045763D01*
X64213619Y-100160667D01*
X63696548Y-99528691D02*
X63696548Y-98781810D01*
X64156167Y-99183977D01*
X64156167Y-99011619D01*
X64213619Y-98896715D01*
X64271071Y-98839262D01*
X64385976Y-98781810D01*
X64673238Y-98781810D01*
X64788143Y-98839262D01*
X64845595Y-98896715D01*
X64903048Y-99011619D01*
X64903048Y-99356334D01*
X64845595Y-99471238D01*
X64788143Y-99528691D01*
X72015048Y-107175906D02*
X71440524Y-107578072D01*
X72015048Y-107865334D02*
X70808548Y-107865334D01*
X70808548Y-107405715D01*
X70866000Y-107290810D01*
X70923452Y-107233358D01*
X71038357Y-107175906D01*
X71210714Y-107175906D01*
X71325619Y-107233358D01*
X71383071Y-107290810D01*
X71440524Y-107405715D01*
X71440524Y-107865334D01*
X71325619Y-106486477D02*
X71268167Y-106601382D01*
X71210714Y-106658834D01*
X71095810Y-106716286D01*
X71038357Y-106716286D01*
X70923452Y-106658834D01*
X70866000Y-106601382D01*
X70808548Y-106486477D01*
X70808548Y-106256667D01*
X70866000Y-106141763D01*
X70923452Y-106084310D01*
X71038357Y-106026858D01*
X71095810Y-106026858D01*
X71210714Y-106084310D01*
X71268167Y-106141763D01*
X71325619Y-106256667D01*
X71325619Y-106486477D01*
X71383071Y-106601382D01*
X71440524Y-106658834D01*
X71555429Y-106716286D01*
X71785238Y-106716286D01*
X71900143Y-106658834D01*
X71957595Y-106601382D01*
X72015048Y-106486477D01*
X72015048Y-106256667D01*
X71957595Y-106141763D01*
X71900143Y-106084310D01*
X71785238Y-106026858D01*
X71555429Y-106026858D01*
X71440524Y-106084310D01*
X71383071Y-106141763D01*
X71325619Y-106256667D01*
X71210714Y-104992715D02*
X72015048Y-104992715D01*
X70751095Y-105279977D02*
X71612881Y-105567238D01*
X71612881Y-104820358D01*
X63696548Y-111545310D02*
X63122024Y-111947476D01*
X63696548Y-112234738D02*
X62490048Y-112234738D01*
X62490048Y-111775119D01*
X62547500Y-111660214D01*
X62604952Y-111602762D01*
X62719857Y-111545310D01*
X62892214Y-111545310D01*
X63007119Y-111602762D01*
X63064571Y-111660214D01*
X63122024Y-111775119D01*
X63122024Y-112234738D01*
X63007119Y-110855881D02*
X62949667Y-110970786D01*
X62892214Y-111028238D01*
X62777310Y-111085690D01*
X62719857Y-111085690D01*
X62604952Y-111028238D01*
X62547500Y-110970786D01*
X62490048Y-110855881D01*
X62490048Y-110626071D01*
X62547500Y-110511167D01*
X62604952Y-110453714D01*
X62719857Y-110396262D01*
X62777310Y-110396262D01*
X62892214Y-110453714D01*
X62949667Y-110511167D01*
X63007119Y-110626071D01*
X63007119Y-110855881D01*
X63064571Y-110970786D01*
X63122024Y-111028238D01*
X63236929Y-111085690D01*
X63466738Y-111085690D01*
X63581643Y-111028238D01*
X63639095Y-110970786D01*
X63696548Y-110855881D01*
X63696548Y-110626071D01*
X63639095Y-110511167D01*
X63581643Y-110453714D01*
X63466738Y-110396262D01*
X63236929Y-110396262D01*
X63122024Y-110453714D01*
X63064571Y-110511167D01*
X63007119Y-110626071D01*
X62490048Y-109304666D02*
X62490048Y-109879190D01*
X63064571Y-109936642D01*
X63007119Y-109879190D01*
X62949667Y-109764285D01*
X62949667Y-109477023D01*
X63007119Y-109362119D01*
X63064571Y-109304666D01*
X63179476Y-109247214D01*
X63466738Y-109247214D01*
X63581643Y-109304666D01*
X63639095Y-109362119D01*
X63696548Y-109477023D01*
X63696548Y-109764285D01*
X63639095Y-109879190D01*
X63581643Y-109936642D01*
X73856548Y-111545310D02*
X73282024Y-111947476D01*
X73856548Y-112234738D02*
X72650048Y-112234738D01*
X72650048Y-111775119D01*
X72707500Y-111660214D01*
X72764952Y-111602762D01*
X72879857Y-111545310D01*
X73052214Y-111545310D01*
X73167119Y-111602762D01*
X73224571Y-111660214D01*
X73282024Y-111775119D01*
X73282024Y-112234738D01*
X73167119Y-110855881D02*
X73109667Y-110970786D01*
X73052214Y-111028238D01*
X72937310Y-111085690D01*
X72879857Y-111085690D01*
X72764952Y-111028238D01*
X72707500Y-110970786D01*
X72650048Y-110855881D01*
X72650048Y-110626071D01*
X72707500Y-110511167D01*
X72764952Y-110453714D01*
X72879857Y-110396262D01*
X72937310Y-110396262D01*
X73052214Y-110453714D01*
X73109667Y-110511167D01*
X73167119Y-110626071D01*
X73167119Y-110855881D01*
X73224571Y-110970786D01*
X73282024Y-111028238D01*
X73396929Y-111085690D01*
X73626738Y-111085690D01*
X73741643Y-111028238D01*
X73799095Y-110970786D01*
X73856548Y-110855881D01*
X73856548Y-110626071D01*
X73799095Y-110511167D01*
X73741643Y-110453714D01*
X73626738Y-110396262D01*
X73396929Y-110396262D01*
X73282024Y-110453714D01*
X73224571Y-110511167D01*
X73167119Y-110626071D01*
X72650048Y-109362119D02*
X72650048Y-109591928D01*
X72707500Y-109706833D01*
X72764952Y-109764285D01*
X72937310Y-109879190D01*
X73167119Y-109936642D01*
X73626738Y-109936642D01*
X73741643Y-109879190D01*
X73799095Y-109821738D01*
X73856548Y-109706833D01*
X73856548Y-109477023D01*
X73799095Y-109362119D01*
X73741643Y-109304666D01*
X73626738Y-109247214D01*
X73339476Y-109247214D01*
X73224571Y-109304666D01*
X73167119Y-109362119D01*
X73109667Y-109477023D01*
X73109667Y-109706833D01*
X73167119Y-109821738D01*
X73224571Y-109879190D01*
X73339476Y-109936642D01*
X64903048Y-129019906D02*
X64328524Y-129422072D01*
X64903048Y-129709334D02*
X63696548Y-129709334D01*
X63696548Y-129249715D01*
X63754000Y-129134810D01*
X63811452Y-129077358D01*
X63926357Y-129019906D01*
X64098714Y-129019906D01*
X64213619Y-129077358D01*
X64271071Y-129134810D01*
X64328524Y-129249715D01*
X64328524Y-129709334D01*
X64213619Y-128330477D02*
X64156167Y-128445382D01*
X64098714Y-128502834D01*
X63983810Y-128560286D01*
X63926357Y-128560286D01*
X63811452Y-128502834D01*
X63754000Y-128445382D01*
X63696548Y-128330477D01*
X63696548Y-128100667D01*
X63754000Y-127985763D01*
X63811452Y-127928310D01*
X63926357Y-127870858D01*
X63983810Y-127870858D01*
X64098714Y-127928310D01*
X64156167Y-127985763D01*
X64213619Y-128100667D01*
X64213619Y-128330477D01*
X64271071Y-128445382D01*
X64328524Y-128502834D01*
X64443429Y-128560286D01*
X64673238Y-128560286D01*
X64788143Y-128502834D01*
X64845595Y-128445382D01*
X64903048Y-128330477D01*
X64903048Y-128100667D01*
X64845595Y-127985763D01*
X64788143Y-127928310D01*
X64673238Y-127870858D01*
X64443429Y-127870858D01*
X64328524Y-127928310D01*
X64271071Y-127985763D01*
X64213619Y-128100667D01*
X63696548Y-127468691D02*
X63696548Y-126664358D01*
X64903048Y-127181429D01*
X73856548Y-125515310D02*
X73282024Y-125917476D01*
X73856548Y-126204738D02*
X72650048Y-126204738D01*
X72650048Y-125745119D01*
X72707500Y-125630214D01*
X72764952Y-125572762D01*
X72879857Y-125515310D01*
X73052214Y-125515310D01*
X73167119Y-125572762D01*
X73224571Y-125630214D01*
X73282024Y-125745119D01*
X73282024Y-126204738D01*
X73167119Y-124825881D02*
X73109667Y-124940786D01*
X73052214Y-124998238D01*
X72937310Y-125055690D01*
X72879857Y-125055690D01*
X72764952Y-124998238D01*
X72707500Y-124940786D01*
X72650048Y-124825881D01*
X72650048Y-124596071D01*
X72707500Y-124481167D01*
X72764952Y-124423714D01*
X72879857Y-124366262D01*
X72937310Y-124366262D01*
X73052214Y-124423714D01*
X73109667Y-124481167D01*
X73167119Y-124596071D01*
X73167119Y-124825881D01*
X73224571Y-124940786D01*
X73282024Y-124998238D01*
X73396929Y-125055690D01*
X73626738Y-125055690D01*
X73741643Y-124998238D01*
X73799095Y-124940786D01*
X73856548Y-124825881D01*
X73856548Y-124596071D01*
X73799095Y-124481167D01*
X73741643Y-124423714D01*
X73626738Y-124366262D01*
X73396929Y-124366262D01*
X73282024Y-124423714D01*
X73224571Y-124481167D01*
X73167119Y-124596071D01*
X73167119Y-123676833D02*
X73109667Y-123791738D01*
X73052214Y-123849190D01*
X72937310Y-123906642D01*
X72879857Y-123906642D01*
X72764952Y-123849190D01*
X72707500Y-123791738D01*
X72650048Y-123676833D01*
X72650048Y-123447023D01*
X72707500Y-123332119D01*
X72764952Y-123274666D01*
X72879857Y-123217214D01*
X72937310Y-123217214D01*
X73052214Y-123274666D01*
X73109667Y-123332119D01*
X73167119Y-123447023D01*
X73167119Y-123676833D01*
X73224571Y-123791738D01*
X73282024Y-123849190D01*
X73396929Y-123906642D01*
X73626738Y-123906642D01*
X73741643Y-123849190D01*
X73799095Y-123791738D01*
X73856548Y-123676833D01*
X73856548Y-123447023D01*
X73799095Y-123332119D01*
X73741643Y-123274666D01*
X73626738Y-123217214D01*
X73396929Y-123217214D01*
X73282024Y-123274666D01*
X73224571Y-123332119D01*
X73167119Y-123447023D01*
X64903048Y-57899906D02*
X64328524Y-58302072D01*
X64903048Y-58589334D02*
X63696548Y-58589334D01*
X63696548Y-58129715D01*
X63754000Y-58014810D01*
X63811452Y-57957358D01*
X63926357Y-57899906D01*
X64098714Y-57899906D01*
X64213619Y-57957358D01*
X64271071Y-58014810D01*
X64328524Y-58129715D01*
X64328524Y-58589334D01*
X64213619Y-57210477D02*
X64156167Y-57325382D01*
X64098714Y-57382834D01*
X63983810Y-57440286D01*
X63926357Y-57440286D01*
X63811452Y-57382834D01*
X63754000Y-57325382D01*
X63696548Y-57210477D01*
X63696548Y-56980667D01*
X63754000Y-56865763D01*
X63811452Y-56808310D01*
X63926357Y-56750858D01*
X63983810Y-56750858D01*
X64098714Y-56808310D01*
X64156167Y-56865763D01*
X64213619Y-56980667D01*
X64213619Y-57210477D01*
X64271071Y-57325382D01*
X64328524Y-57382834D01*
X64443429Y-57440286D01*
X64673238Y-57440286D01*
X64788143Y-57382834D01*
X64845595Y-57325382D01*
X64903048Y-57210477D01*
X64903048Y-56980667D01*
X64845595Y-56865763D01*
X64788143Y-56808310D01*
X64673238Y-56750858D01*
X64443429Y-56750858D01*
X64328524Y-56808310D01*
X64271071Y-56865763D01*
X64213619Y-56980667D01*
X64903048Y-56176334D02*
X64903048Y-55946524D01*
X64845595Y-55831619D01*
X64788143Y-55774167D01*
X64615786Y-55659262D01*
X64385976Y-55601810D01*
X63926357Y-55601810D01*
X63811452Y-55659262D01*
X63754000Y-55716715D01*
X63696548Y-55831619D01*
X63696548Y-56061429D01*
X63754000Y-56176334D01*
X63811452Y-56233786D01*
X63926357Y-56291238D01*
X64213619Y-56291238D01*
X64328524Y-56233786D01*
X64385976Y-56176334D01*
X64443429Y-56061429D01*
X64443429Y-55831619D01*
X64385976Y-55716715D01*
X64328524Y-55659262D01*
X64213619Y-55601810D01*
X73856548Y-54395310D02*
X73282024Y-54797476D01*
X73856548Y-55084738D02*
X72650048Y-55084738D01*
X72650048Y-54625119D01*
X72707500Y-54510214D01*
X72764952Y-54452762D01*
X72879857Y-54395310D01*
X73052214Y-54395310D01*
X73167119Y-54452762D01*
X73224571Y-54510214D01*
X73282024Y-54625119D01*
X73282024Y-55084738D01*
X73856548Y-53820786D02*
X73856548Y-53590976D01*
X73799095Y-53476071D01*
X73741643Y-53418619D01*
X73569286Y-53303714D01*
X73339476Y-53246262D01*
X72879857Y-53246262D01*
X72764952Y-53303714D01*
X72707500Y-53361167D01*
X72650048Y-53476071D01*
X72650048Y-53705881D01*
X72707500Y-53820786D01*
X72764952Y-53878238D01*
X72879857Y-53935690D01*
X73167119Y-53935690D01*
X73282024Y-53878238D01*
X73339476Y-53820786D01*
X73396929Y-53705881D01*
X73396929Y-53476071D01*
X73339476Y-53361167D01*
X73282024Y-53303714D01*
X73167119Y-53246262D01*
X72650048Y-52499381D02*
X72650048Y-52384476D01*
X72707500Y-52269571D01*
X72764952Y-52212119D01*
X72879857Y-52154666D01*
X73109667Y-52097214D01*
X73396929Y-52097214D01*
X73626738Y-52154666D01*
X73741643Y-52212119D01*
X73799095Y-52269571D01*
X73856548Y-52384476D01*
X73856548Y-52499381D01*
X73799095Y-52614285D01*
X73741643Y-52671738D01*
X73626738Y-52729190D01*
X73396929Y-52786642D01*
X73109667Y-52786642D01*
X72879857Y-52729190D01*
X72764952Y-52671738D01*
X72707500Y-52614285D01*
X72650048Y-52499381D01*
X89058448Y-94501306D02*
X88483924Y-94903472D01*
X89058448Y-95190734D02*
X87851948Y-95190734D01*
X87851948Y-94731115D01*
X87909400Y-94616210D01*
X87966852Y-94558758D01*
X88081757Y-94501306D01*
X88254114Y-94501306D01*
X88369019Y-94558758D01*
X88426471Y-94616210D01*
X88483924Y-94731115D01*
X88483924Y-95190734D01*
X89058448Y-93926782D02*
X89058448Y-93696972D01*
X89000995Y-93582067D01*
X88943543Y-93524615D01*
X88771186Y-93409710D01*
X88541376Y-93352258D01*
X88081757Y-93352258D01*
X87966852Y-93409710D01*
X87909400Y-93467163D01*
X87851948Y-93582067D01*
X87851948Y-93811877D01*
X87909400Y-93926782D01*
X87966852Y-93984234D01*
X88081757Y-94041686D01*
X88369019Y-94041686D01*
X88483924Y-93984234D01*
X88541376Y-93926782D01*
X88598829Y-93811877D01*
X88598829Y-93582067D01*
X88541376Y-93467163D01*
X88483924Y-93409710D01*
X88369019Y-93352258D01*
X89058448Y-92203210D02*
X89058448Y-92892638D01*
X89058448Y-92547924D02*
X87851948Y-92547924D01*
X88024305Y-92662829D01*
X88139210Y-92777734D01*
X88196662Y-92892638D01*
X98278648Y-94425106D02*
X97704124Y-94827272D01*
X98278648Y-95114534D02*
X97072148Y-95114534D01*
X97072148Y-94654915D01*
X97129600Y-94540010D01*
X97187052Y-94482558D01*
X97301957Y-94425106D01*
X97474314Y-94425106D01*
X97589219Y-94482558D01*
X97646671Y-94540010D01*
X97704124Y-94654915D01*
X97704124Y-95114534D01*
X98278648Y-93850582D02*
X98278648Y-93620772D01*
X98221195Y-93505867D01*
X98163743Y-93448415D01*
X97991386Y-93333510D01*
X97761576Y-93276058D01*
X97301957Y-93276058D01*
X97187052Y-93333510D01*
X97129600Y-93390963D01*
X97072148Y-93505867D01*
X97072148Y-93735677D01*
X97129600Y-93850582D01*
X97187052Y-93908034D01*
X97301957Y-93965486D01*
X97589219Y-93965486D01*
X97704124Y-93908034D01*
X97761576Y-93850582D01*
X97819029Y-93735677D01*
X97819029Y-93505867D01*
X97761576Y-93390963D01*
X97704124Y-93333510D01*
X97589219Y-93276058D01*
X97187052Y-92816438D02*
X97129600Y-92758986D01*
X97072148Y-92644081D01*
X97072148Y-92356819D01*
X97129600Y-92241915D01*
X97187052Y-92184462D01*
X97301957Y-92127010D01*
X97416862Y-92127010D01*
X97589219Y-92184462D01*
X98278648Y-92873891D01*
X98278648Y-92127010D01*
X85413548Y-103569710D02*
X84839024Y-103971876D01*
X85413548Y-104259138D02*
X84207048Y-104259138D01*
X84207048Y-103799519D01*
X84264500Y-103684614D01*
X84321952Y-103627162D01*
X84436857Y-103569710D01*
X84609214Y-103569710D01*
X84724119Y-103627162D01*
X84781571Y-103684614D01*
X84839024Y-103799519D01*
X84839024Y-104259138D01*
X85413548Y-102995186D02*
X85413548Y-102765376D01*
X85356095Y-102650471D01*
X85298643Y-102593019D01*
X85126286Y-102478114D01*
X84896476Y-102420662D01*
X84436857Y-102420662D01*
X84321952Y-102478114D01*
X84264500Y-102535567D01*
X84207048Y-102650471D01*
X84207048Y-102880281D01*
X84264500Y-102995186D01*
X84321952Y-103052638D01*
X84436857Y-103110090D01*
X84724119Y-103110090D01*
X84839024Y-103052638D01*
X84896476Y-102995186D01*
X84953929Y-102880281D01*
X84953929Y-102650471D01*
X84896476Y-102535567D01*
X84839024Y-102478114D01*
X84724119Y-102420662D01*
X84207048Y-102018495D02*
X84207048Y-101271614D01*
X84666667Y-101673781D01*
X84666667Y-101501423D01*
X84724119Y-101386519D01*
X84781571Y-101329066D01*
X84896476Y-101271614D01*
X85183738Y-101271614D01*
X85298643Y-101329066D01*
X85356095Y-101386519D01*
X85413548Y-101501423D01*
X85413548Y-101846138D01*
X85356095Y-101961042D01*
X85298643Y-102018495D01*
X97021348Y-103925310D02*
X96446824Y-104327476D01*
X97021348Y-104614738D02*
X95814848Y-104614738D01*
X95814848Y-104155119D01*
X95872300Y-104040214D01*
X95929752Y-103982762D01*
X96044657Y-103925310D01*
X96217014Y-103925310D01*
X96331919Y-103982762D01*
X96389371Y-104040214D01*
X96446824Y-104155119D01*
X96446824Y-104614738D01*
X97021348Y-103350786D02*
X97021348Y-103120976D01*
X96963895Y-103006071D01*
X96906443Y-102948619D01*
X96734086Y-102833714D01*
X96504276Y-102776262D01*
X96044657Y-102776262D01*
X95929752Y-102833714D01*
X95872300Y-102891167D01*
X95814848Y-103006071D01*
X95814848Y-103235881D01*
X95872300Y-103350786D01*
X95929752Y-103408238D01*
X96044657Y-103465690D01*
X96331919Y-103465690D01*
X96446824Y-103408238D01*
X96504276Y-103350786D01*
X96561729Y-103235881D01*
X96561729Y-103006071D01*
X96504276Y-102891167D01*
X96446824Y-102833714D01*
X96331919Y-102776262D01*
X96217014Y-101742119D02*
X97021348Y-101742119D01*
X95757395Y-102029381D02*
X96619181Y-102316642D01*
X96619181Y-101569762D01*
X88982248Y-80836106D02*
X88407724Y-81238272D01*
X88982248Y-81525534D02*
X87775748Y-81525534D01*
X87775748Y-81065915D01*
X87833200Y-80951010D01*
X87890652Y-80893558D01*
X88005557Y-80836106D01*
X88177914Y-80836106D01*
X88292819Y-80893558D01*
X88350271Y-80951010D01*
X88407724Y-81065915D01*
X88407724Y-81525534D01*
X88982248Y-80261582D02*
X88982248Y-80031772D01*
X88924795Y-79916867D01*
X88867343Y-79859415D01*
X88694986Y-79744510D01*
X88465176Y-79687058D01*
X88005557Y-79687058D01*
X87890652Y-79744510D01*
X87833200Y-79801963D01*
X87775748Y-79916867D01*
X87775748Y-80146677D01*
X87833200Y-80261582D01*
X87890652Y-80319034D01*
X88005557Y-80376486D01*
X88292819Y-80376486D01*
X88407724Y-80319034D01*
X88465176Y-80261582D01*
X88522629Y-80146677D01*
X88522629Y-79916867D01*
X88465176Y-79801963D01*
X88407724Y-79744510D01*
X88292819Y-79687058D01*
X87775748Y-78595462D02*
X87775748Y-79169986D01*
X88350271Y-79227438D01*
X88292819Y-79169986D01*
X88235367Y-79055081D01*
X88235367Y-78767819D01*
X88292819Y-78652915D01*
X88350271Y-78595462D01*
X88465176Y-78538010D01*
X88752438Y-78538010D01*
X88867343Y-78595462D01*
X88924795Y-78652915D01*
X88982248Y-78767819D01*
X88982248Y-79055081D01*
X88924795Y-79169986D01*
X88867343Y-79227438D01*
X94024148Y-83579910D02*
X93449624Y-83982076D01*
X94024148Y-84269338D02*
X92817648Y-84269338D01*
X92817648Y-83809719D01*
X92875100Y-83694814D01*
X92932552Y-83637362D01*
X93047457Y-83579910D01*
X93219814Y-83579910D01*
X93334719Y-83637362D01*
X93392171Y-83694814D01*
X93449624Y-83809719D01*
X93449624Y-84269338D01*
X94024148Y-83005386D02*
X94024148Y-82775576D01*
X93966695Y-82660671D01*
X93909243Y-82603219D01*
X93736886Y-82488314D01*
X93507076Y-82430862D01*
X93047457Y-82430862D01*
X92932552Y-82488314D01*
X92875100Y-82545767D01*
X92817648Y-82660671D01*
X92817648Y-82890481D01*
X92875100Y-83005386D01*
X92932552Y-83062838D01*
X93047457Y-83120290D01*
X93334719Y-83120290D01*
X93449624Y-83062838D01*
X93507076Y-83005386D01*
X93564529Y-82890481D01*
X93564529Y-82660671D01*
X93507076Y-82545767D01*
X93449624Y-82488314D01*
X93334719Y-82430862D01*
X92817648Y-81396719D02*
X92817648Y-81626528D01*
X92875100Y-81741433D01*
X92932552Y-81798885D01*
X93104910Y-81913790D01*
X93334719Y-81971242D01*
X93794338Y-81971242D01*
X93909243Y-81913790D01*
X93966695Y-81856338D01*
X94024148Y-81741433D01*
X94024148Y-81511623D01*
X93966695Y-81396719D01*
X93909243Y-81339266D01*
X93794338Y-81281814D01*
X93507076Y-81281814D01*
X93392171Y-81339266D01*
X93334719Y-81396719D01*
X93277267Y-81511623D01*
X93277267Y-81741433D01*
X93334719Y-81856338D01*
X93392171Y-81913790D01*
X93507076Y-81971242D01*
X64903048Y-43929906D02*
X64328524Y-44332072D01*
X64903048Y-44619334D02*
X63696548Y-44619334D01*
X63696548Y-44159715D01*
X63754000Y-44044810D01*
X63811452Y-43987358D01*
X63926357Y-43929906D01*
X64098714Y-43929906D01*
X64213619Y-43987358D01*
X64271071Y-44044810D01*
X64328524Y-44159715D01*
X64328524Y-44619334D01*
X64903048Y-43355382D02*
X64903048Y-43125572D01*
X64845595Y-43010667D01*
X64788143Y-42953215D01*
X64615786Y-42838310D01*
X64385976Y-42780858D01*
X63926357Y-42780858D01*
X63811452Y-42838310D01*
X63754000Y-42895763D01*
X63696548Y-43010667D01*
X63696548Y-43240477D01*
X63754000Y-43355382D01*
X63811452Y-43412834D01*
X63926357Y-43470286D01*
X64213619Y-43470286D01*
X64328524Y-43412834D01*
X64385976Y-43355382D01*
X64443429Y-43240477D01*
X64443429Y-43010667D01*
X64385976Y-42895763D01*
X64328524Y-42838310D01*
X64213619Y-42780858D01*
X63696548Y-42378691D02*
X63696548Y-41574358D01*
X64903048Y-42091429D01*
X72015048Y-50025906D02*
X71440524Y-50428072D01*
X72015048Y-50715334D02*
X70808548Y-50715334D01*
X70808548Y-50255715D01*
X70866000Y-50140810D01*
X70923452Y-50083358D01*
X71038357Y-50025906D01*
X71210714Y-50025906D01*
X71325619Y-50083358D01*
X71383071Y-50140810D01*
X71440524Y-50255715D01*
X71440524Y-50715334D01*
X72015048Y-49451382D02*
X72015048Y-49221572D01*
X71957595Y-49106667D01*
X71900143Y-49049215D01*
X71727786Y-48934310D01*
X71497976Y-48876858D01*
X71038357Y-48876858D01*
X70923452Y-48934310D01*
X70866000Y-48991763D01*
X70808548Y-49106667D01*
X70808548Y-49336477D01*
X70866000Y-49451382D01*
X70923452Y-49508834D01*
X71038357Y-49566286D01*
X71325619Y-49566286D01*
X71440524Y-49508834D01*
X71497976Y-49451382D01*
X71555429Y-49336477D01*
X71555429Y-49106667D01*
X71497976Y-48991763D01*
X71440524Y-48934310D01*
X71325619Y-48876858D01*
X71325619Y-48187429D02*
X71268167Y-48302334D01*
X71210714Y-48359786D01*
X71095810Y-48417238D01*
X71038357Y-48417238D01*
X70923452Y-48359786D01*
X70866000Y-48302334D01*
X70808548Y-48187429D01*
X70808548Y-47957619D01*
X70866000Y-47842715D01*
X70923452Y-47785262D01*
X71038357Y-47727810D01*
X71095810Y-47727810D01*
X71210714Y-47785262D01*
X71268167Y-47842715D01*
X71325619Y-47957619D01*
X71325619Y-48187429D01*
X71383071Y-48302334D01*
X71440524Y-48359786D01*
X71555429Y-48417238D01*
X71785238Y-48417238D01*
X71900143Y-48359786D01*
X71957595Y-48302334D01*
X72015048Y-48187429D01*
X72015048Y-47957619D01*
X71957595Y-47842715D01*
X71900143Y-47785262D01*
X71785238Y-47727810D01*
X71555429Y-47727810D01*
X71440524Y-47785262D01*
X71383071Y-47842715D01*
X71325619Y-47957619D01*
X88715548Y-63793310D02*
X88141024Y-64195476D01*
X88715548Y-64482738D02*
X87509048Y-64482738D01*
X87509048Y-64023119D01*
X87566500Y-63908214D01*
X87623952Y-63850762D01*
X87738857Y-63793310D01*
X87911214Y-63793310D01*
X88026119Y-63850762D01*
X88083571Y-63908214D01*
X88141024Y-64023119D01*
X88141024Y-64482738D01*
X88715548Y-63218786D02*
X88715548Y-62988976D01*
X88658095Y-62874071D01*
X88600643Y-62816619D01*
X88428286Y-62701714D01*
X88198476Y-62644262D01*
X87738857Y-62644262D01*
X87623952Y-62701714D01*
X87566500Y-62759167D01*
X87509048Y-62874071D01*
X87509048Y-63103881D01*
X87566500Y-63218786D01*
X87623952Y-63276238D01*
X87738857Y-63333690D01*
X88026119Y-63333690D01*
X88141024Y-63276238D01*
X88198476Y-63218786D01*
X88255929Y-63103881D01*
X88255929Y-62874071D01*
X88198476Y-62759167D01*
X88141024Y-62701714D01*
X88026119Y-62644262D01*
X88715548Y-62069738D02*
X88715548Y-61839928D01*
X88658095Y-61725023D01*
X88600643Y-61667571D01*
X88428286Y-61552666D01*
X88198476Y-61495214D01*
X87738857Y-61495214D01*
X87623952Y-61552666D01*
X87566500Y-61610119D01*
X87509048Y-61725023D01*
X87509048Y-61954833D01*
X87566500Y-62069738D01*
X87623952Y-62127190D01*
X87738857Y-62184642D01*
X88026119Y-62184642D01*
X88141024Y-62127190D01*
X88198476Y-62069738D01*
X88255929Y-61954833D01*
X88255929Y-61725023D01*
X88198476Y-61610119D01*
X88141024Y-61552666D01*
X88026119Y-61495214D01*
D14*
X68132718Y-96607690D02*
X69734490Y-96607690D01*
X69922934Y-96513469D01*
X70017156Y-96419247D01*
X70111378Y-96230803D01*
X70111378Y-95853915D01*
X70017156Y-95665471D01*
X69922934Y-95571250D01*
X69734490Y-95477028D01*
X68132718Y-95477028D01*
X70017156Y-94629030D02*
X70111378Y-94346365D01*
X70111378Y-93875255D01*
X70017156Y-93686811D01*
X69922934Y-93592589D01*
X69734490Y-93498368D01*
X69546047Y-93498368D01*
X69357603Y-93592589D01*
X69263381Y-93686811D01*
X69169159Y-93875255D01*
X69074937Y-94252143D01*
X68980715Y-94440587D01*
X68886493Y-94534808D01*
X68698050Y-94629030D01*
X68509606Y-94629030D01*
X68321162Y-94534808D01*
X68226940Y-94440587D01*
X68132718Y-94252143D01*
X68132718Y-93781033D01*
X68226940Y-93498368D01*
X67850052Y-94063699D02*
X70394044Y-94063699D01*
X70111378Y-91613930D02*
X70111378Y-92744592D01*
X70111378Y-92179261D02*
X68132718Y-92179261D01*
X68415384Y-92367705D01*
X68603828Y-92556149D01*
X68698050Y-92744592D01*
D15*
X68382848Y-97939981D02*
X68670110Y-97939981D01*
X68555205Y-98227243D02*
X68670110Y-97939981D01*
X68555205Y-97652719D01*
X68899919Y-98112338D02*
X68670110Y-97939981D01*
X68899919Y-97767624D01*
D14*
X111414318Y-81164490D02*
X113016090Y-81164490D01*
X113204534Y-81070269D01*
X113298756Y-80976047D01*
X113392978Y-80787603D01*
X113392978Y-80410715D01*
X113298756Y-80222271D01*
X113204534Y-80128050D01*
X113016090Y-80033828D01*
X111414318Y-80033828D01*
X113298756Y-79185830D02*
X113392978Y-78903165D01*
X113392978Y-78432055D01*
X113298756Y-78243611D01*
X113204534Y-78149389D01*
X113016090Y-78055168D01*
X112827647Y-78055168D01*
X112639203Y-78149389D01*
X112544981Y-78243611D01*
X112450759Y-78432055D01*
X112356537Y-78808943D01*
X112262315Y-78997387D01*
X112168093Y-79091608D01*
X111979650Y-79185830D01*
X111791206Y-79185830D01*
X111602762Y-79091608D01*
X111508540Y-78997387D01*
X111414318Y-78808943D01*
X111414318Y-78337833D01*
X111508540Y-78055168D01*
X111131652Y-78620499D02*
X113675644Y-78620499D01*
X113392978Y-76170730D02*
X113392978Y-77301392D01*
X113392978Y-76736061D02*
X111414318Y-76736061D01*
X111696984Y-76924505D01*
X111885428Y-77112949D01*
X111979650Y-77301392D01*
X111414318Y-74945845D02*
X111414318Y-74757401D01*
X111508540Y-74568957D01*
X111602762Y-74474735D01*
X111791206Y-74380513D01*
X112168093Y-74286292D01*
X112639203Y-74286292D01*
X113016090Y-74380513D01*
X113204534Y-74474735D01*
X113298756Y-74568957D01*
X113392978Y-74757401D01*
X113392978Y-74945845D01*
X113298756Y-75134289D01*
X113204534Y-75228511D01*
X113016090Y-75322732D01*
X112639203Y-75416954D01*
X112168093Y-75416954D01*
X111791206Y-75322732D01*
X111602762Y-75228511D01*
X111508540Y-75134289D01*
X111414318Y-74945845D01*
D15*
X112267698Y-82956400D02*
X112554960Y-82956400D01*
X112440055Y-83243662D02*
X112554960Y-82956400D01*
X112440055Y-82669138D01*
X112784769Y-83128757D02*
X112554960Y-82956400D01*
X112784769Y-82784043D01*
D14*
X111185718Y-96226690D02*
X112787490Y-96226690D01*
X112975934Y-96132469D01*
X113070156Y-96038247D01*
X113164378Y-95849803D01*
X113164378Y-95472915D01*
X113070156Y-95284471D01*
X112975934Y-95190250D01*
X112787490Y-95096028D01*
X111185718Y-95096028D01*
X113070156Y-94248030D02*
X113164378Y-93965365D01*
X113164378Y-93494255D01*
X113070156Y-93305811D01*
X112975934Y-93211589D01*
X112787490Y-93117368D01*
X112599047Y-93117368D01*
X112410603Y-93211589D01*
X112316381Y-93305811D01*
X112222159Y-93494255D01*
X112127937Y-93871143D01*
X112033715Y-94059587D01*
X111939493Y-94153808D01*
X111751050Y-94248030D01*
X111562606Y-94248030D01*
X111374162Y-94153808D01*
X111279940Y-94059587D01*
X111185718Y-93871143D01*
X111185718Y-93400033D01*
X111279940Y-93117368D01*
X110903052Y-93682699D02*
X113447044Y-93682699D01*
X113164378Y-91232930D02*
X113164378Y-92363592D01*
X113164378Y-91798261D02*
X111185718Y-91798261D01*
X111468384Y-91986705D01*
X111656828Y-92175149D01*
X111751050Y-92363592D01*
X113164378Y-89348492D02*
X113164378Y-90479154D01*
X113164378Y-89913823D02*
X111185718Y-89913823D01*
X111468384Y-90102267D01*
X111656828Y-90290711D01*
X111751050Y-90479154D01*
D15*
X112039098Y-98018600D02*
X112326360Y-98018600D01*
X112211455Y-98305862D02*
X112326360Y-98018600D01*
X112211455Y-97731338D01*
X112556169Y-98190957D02*
X112326360Y-98018600D01*
X112556169Y-97846243D01*
D14*
X62341518Y-90410090D02*
X63943290Y-90410090D01*
X64131734Y-90315869D01*
X64225956Y-90221647D01*
X64320178Y-90033203D01*
X64320178Y-89656315D01*
X64225956Y-89467871D01*
X64131734Y-89373650D01*
X63943290Y-89279428D01*
X62341518Y-89279428D01*
X64225956Y-88431430D02*
X64320178Y-88148765D01*
X64320178Y-87677655D01*
X64225956Y-87489211D01*
X64131734Y-87394989D01*
X63943290Y-87300768D01*
X63754847Y-87300768D01*
X63566403Y-87394989D01*
X63472181Y-87489211D01*
X63377959Y-87677655D01*
X63283737Y-88054543D01*
X63189515Y-88242987D01*
X63095293Y-88337208D01*
X62906850Y-88431430D01*
X62718406Y-88431430D01*
X62529962Y-88337208D01*
X62435740Y-88242987D01*
X62341518Y-88054543D01*
X62341518Y-87583433D01*
X62435740Y-87300768D01*
X62058852Y-87866099D02*
X64602844Y-87866099D01*
X64320178Y-85416330D02*
X64320178Y-86546992D01*
X64320178Y-85981661D02*
X62341518Y-85981661D01*
X62624184Y-86170105D01*
X62812628Y-86358549D01*
X62906850Y-86546992D01*
X62529962Y-84662554D02*
X62435740Y-84568332D01*
X62341518Y-84379889D01*
X62341518Y-83908779D01*
X62435740Y-83720335D01*
X62529962Y-83626113D01*
X62718406Y-83531892D01*
X62906850Y-83531892D01*
X63189515Y-83626113D01*
X64320178Y-84756776D01*
X64320178Y-83531892D01*
D15*
X64312498Y-89560400D02*
X64599760Y-89560400D01*
X64484855Y-89847662D02*
X64599760Y-89560400D01*
X64484855Y-89273138D01*
X64829569Y-89732757D02*
X64599760Y-89560400D01*
X64829569Y-89388043D01*
D14*
X74127118Y-46518890D02*
X75728890Y-46518890D01*
X75917334Y-46424669D01*
X76011556Y-46330447D01*
X76105778Y-46142003D01*
X76105778Y-45765115D01*
X76011556Y-45576671D01*
X75917334Y-45482450D01*
X75728890Y-45388228D01*
X74127118Y-45388228D01*
X76011556Y-44540230D02*
X76105778Y-44257565D01*
X76105778Y-43786455D01*
X76011556Y-43598011D01*
X75917334Y-43503789D01*
X75728890Y-43409568D01*
X75540447Y-43409568D01*
X75352003Y-43503789D01*
X75257781Y-43598011D01*
X75163559Y-43786455D01*
X75069337Y-44163343D01*
X74975115Y-44351787D01*
X74880893Y-44446008D01*
X74692450Y-44540230D01*
X74504006Y-44540230D01*
X74315562Y-44446008D01*
X74221340Y-44351787D01*
X74127118Y-44163343D01*
X74127118Y-43692233D01*
X74221340Y-43409568D01*
X73844452Y-43974899D02*
X76388444Y-43974899D01*
X76105778Y-41525130D02*
X76105778Y-42655792D01*
X76105778Y-42090461D02*
X74127118Y-42090461D01*
X74409784Y-42278905D01*
X74598228Y-42467349D01*
X74692450Y-42655792D01*
X74127118Y-40865576D02*
X74127118Y-39640692D01*
X74880893Y-40300245D01*
X74880893Y-40017579D01*
X74975115Y-39829135D01*
X75069337Y-39734913D01*
X75257781Y-39640692D01*
X75728890Y-39640692D01*
X75917334Y-39734913D01*
X76011556Y-39829135D01*
X76105778Y-40017579D01*
X76105778Y-40582911D01*
X76011556Y-40771354D01*
X75917334Y-40865576D01*
D15*
X68986098Y-41249600D02*
X69273360Y-41249600D01*
X69158455Y-41536862D02*
X69273360Y-41249600D01*
X69158455Y-40962338D01*
X69503169Y-41421957D02*
X69273360Y-41249600D01*
X69503169Y-41077243D01*
D14*
X111185718Y-109942690D02*
X112787490Y-109942690D01*
X112975934Y-109848469D01*
X113070156Y-109754247D01*
X113164378Y-109565803D01*
X113164378Y-109188915D01*
X113070156Y-109000471D01*
X112975934Y-108906250D01*
X112787490Y-108812028D01*
X111185718Y-108812028D01*
X113070156Y-107964030D02*
X113164378Y-107681365D01*
X113164378Y-107210255D01*
X113070156Y-107021811D01*
X112975934Y-106927589D01*
X112787490Y-106833368D01*
X112599047Y-106833368D01*
X112410603Y-106927589D01*
X112316381Y-107021811D01*
X112222159Y-107210255D01*
X112127937Y-107587143D01*
X112033715Y-107775587D01*
X111939493Y-107869808D01*
X111751050Y-107964030D01*
X111562606Y-107964030D01*
X111374162Y-107869808D01*
X111279940Y-107775587D01*
X111185718Y-107587143D01*
X111185718Y-107116033D01*
X111279940Y-106833368D01*
X110903052Y-107398699D02*
X113447044Y-107398699D01*
X113164378Y-104948930D02*
X113164378Y-106079592D01*
X113164378Y-105514261D02*
X111185718Y-105514261D01*
X111468384Y-105702705D01*
X111656828Y-105891149D01*
X111751050Y-106079592D01*
X111845271Y-103252935D02*
X113164378Y-103252935D01*
X111091496Y-103724045D02*
X112504825Y-104195154D01*
X112504825Y-102970270D01*
D15*
X112039098Y-111734600D02*
X112326360Y-111734600D01*
X112211455Y-112021862D02*
X112326360Y-111734600D01*
X112211455Y-111447338D01*
X112556169Y-111906957D02*
X112326360Y-111734600D01*
X112556169Y-111562243D01*
D14*
X129880118Y-84669690D02*
X131481890Y-84669690D01*
X131670334Y-84575469D01*
X131764556Y-84481247D01*
X131858778Y-84292803D01*
X131858778Y-83915915D01*
X131764556Y-83727471D01*
X131670334Y-83633250D01*
X131481890Y-83539028D01*
X129880118Y-83539028D01*
X131764556Y-82691030D02*
X131858778Y-82408365D01*
X131858778Y-81937255D01*
X131764556Y-81748811D01*
X131670334Y-81654589D01*
X131481890Y-81560368D01*
X131293447Y-81560368D01*
X131105003Y-81654589D01*
X131010781Y-81748811D01*
X130916559Y-81937255D01*
X130822337Y-82314143D01*
X130728115Y-82502587D01*
X130633893Y-82596808D01*
X130445450Y-82691030D01*
X130257006Y-82691030D01*
X130068562Y-82596808D01*
X129974340Y-82502587D01*
X129880118Y-82314143D01*
X129880118Y-81843033D01*
X129974340Y-81560368D01*
X129597452Y-82125699D02*
X132141444Y-82125699D01*
X131858778Y-79675930D02*
X131858778Y-80806592D01*
X131858778Y-80241261D02*
X129880118Y-80241261D01*
X130162784Y-80429705D01*
X130351228Y-80618149D01*
X130445450Y-80806592D01*
X129880118Y-77885713D02*
X129880118Y-78827932D01*
X130822337Y-78922154D01*
X130728115Y-78827932D01*
X130633893Y-78639489D01*
X130633893Y-78168379D01*
X130728115Y-77979935D01*
X130822337Y-77885713D01*
X131010781Y-77791492D01*
X131481890Y-77791492D01*
X131670334Y-77885713D01*
X131764556Y-77979935D01*
X131858778Y-78168379D01*
X131858778Y-78639489D01*
X131764556Y-78827932D01*
X131670334Y-78922154D01*
D15*
X130733498Y-86461600D02*
X131020760Y-86461600D01*
X130905855Y-86748862D02*
X131020760Y-86461600D01*
X130905855Y-86174338D01*
X131250569Y-86633957D02*
X131020760Y-86461600D01*
X131250569Y-86289243D01*
D14*
X114411518Y-125766890D02*
X116013290Y-125766890D01*
X116201734Y-125672669D01*
X116295956Y-125578447D01*
X116390178Y-125390003D01*
X116390178Y-125013115D01*
X116295956Y-124824671D01*
X116201734Y-124730450D01*
X116013290Y-124636228D01*
X114411518Y-124636228D01*
X116295956Y-123788230D02*
X116390178Y-123505565D01*
X116390178Y-123034455D01*
X116295956Y-122846011D01*
X116201734Y-122751789D01*
X116013290Y-122657568D01*
X115824847Y-122657568D01*
X115636403Y-122751789D01*
X115542181Y-122846011D01*
X115447959Y-123034455D01*
X115353737Y-123411343D01*
X115259515Y-123599787D01*
X115165293Y-123694008D01*
X114976850Y-123788230D01*
X114788406Y-123788230D01*
X114599962Y-123694008D01*
X114505740Y-123599787D01*
X114411518Y-123411343D01*
X114411518Y-122940233D01*
X114505740Y-122657568D01*
X114128852Y-123222899D02*
X116672844Y-123222899D01*
X116390178Y-120773130D02*
X116390178Y-121903792D01*
X116390178Y-121338461D02*
X114411518Y-121338461D01*
X114694184Y-121526905D01*
X114882628Y-121715349D01*
X114976850Y-121903792D01*
X114411518Y-119077135D02*
X114411518Y-119454023D01*
X114505740Y-119642467D01*
X114599962Y-119736689D01*
X114882628Y-119925132D01*
X115259515Y-120019354D01*
X116013290Y-120019354D01*
X116201734Y-119925132D01*
X116295956Y-119830911D01*
X116390178Y-119642467D01*
X116390178Y-119265579D01*
X116295956Y-119077135D01*
X116201734Y-118982913D01*
X116013290Y-118888692D01*
X115542181Y-118888692D01*
X115353737Y-118982913D01*
X115259515Y-119077135D01*
X115165293Y-119265579D01*
X115165293Y-119642467D01*
X115259515Y-119830911D01*
X115353737Y-119925132D01*
X115542181Y-120019354D01*
D15*
X115264898Y-127558800D02*
X115552160Y-127558800D01*
X115437255Y-127846062D02*
X115552160Y-127558800D01*
X115437255Y-127271538D01*
X115781969Y-127731157D02*
X115552160Y-127558800D01*
X115781969Y-127386443D01*
D14*
X68132718Y-110577690D02*
X69734490Y-110577690D01*
X69922934Y-110483469D01*
X70017156Y-110389247D01*
X70111378Y-110200803D01*
X70111378Y-109823915D01*
X70017156Y-109635471D01*
X69922934Y-109541250D01*
X69734490Y-109447028D01*
X68132718Y-109447028D01*
X70017156Y-108599030D02*
X70111378Y-108316365D01*
X70111378Y-107845255D01*
X70017156Y-107656811D01*
X69922934Y-107562589D01*
X69734490Y-107468368D01*
X69546047Y-107468368D01*
X69357603Y-107562589D01*
X69263381Y-107656811D01*
X69169159Y-107845255D01*
X69074937Y-108222143D01*
X68980715Y-108410587D01*
X68886493Y-108504808D01*
X68698050Y-108599030D01*
X68509606Y-108599030D01*
X68321162Y-108504808D01*
X68226940Y-108410587D01*
X68132718Y-108222143D01*
X68132718Y-107751033D01*
X68226940Y-107468368D01*
X67850052Y-108033699D02*
X70394044Y-108033699D01*
X68321162Y-106714592D02*
X68226940Y-106620370D01*
X68132718Y-106431927D01*
X68132718Y-105960817D01*
X68226940Y-105772373D01*
X68321162Y-105678151D01*
X68509606Y-105583930D01*
X68698050Y-105583930D01*
X68980715Y-105678151D01*
X70111378Y-106808814D01*
X70111378Y-105583930D01*
D15*
X68382848Y-111909981D02*
X68670110Y-111909981D01*
X68555205Y-112197243D02*
X68670110Y-111909981D01*
X68555205Y-111622719D01*
X68899919Y-112082338D02*
X68670110Y-111909981D01*
X68899919Y-111737624D01*
D14*
X68132718Y-124547690D02*
X69734490Y-124547690D01*
X69922934Y-124453469D01*
X70017156Y-124359247D01*
X70111378Y-124170803D01*
X70111378Y-123793915D01*
X70017156Y-123605471D01*
X69922934Y-123511250D01*
X69734490Y-123417028D01*
X68132718Y-123417028D01*
X70017156Y-122569030D02*
X70111378Y-122286365D01*
X70111378Y-121815255D01*
X70017156Y-121626811D01*
X69922934Y-121532589D01*
X69734490Y-121438368D01*
X69546047Y-121438368D01*
X69357603Y-121532589D01*
X69263381Y-121626811D01*
X69169159Y-121815255D01*
X69074937Y-122192143D01*
X68980715Y-122380587D01*
X68886493Y-122474808D01*
X68698050Y-122569030D01*
X68509606Y-122569030D01*
X68321162Y-122474808D01*
X68226940Y-122380587D01*
X68132718Y-122192143D01*
X68132718Y-121721033D01*
X68226940Y-121438368D01*
X67850052Y-122003699D02*
X70394044Y-122003699D01*
X68132718Y-120778814D02*
X68132718Y-119553930D01*
X68886493Y-120213483D01*
X68886493Y-119930817D01*
X68980715Y-119742373D01*
X69074937Y-119648151D01*
X69263381Y-119553930D01*
X69734490Y-119553930D01*
X69922934Y-119648151D01*
X70017156Y-119742373D01*
X70111378Y-119930817D01*
X70111378Y-120496149D01*
X70017156Y-120684592D01*
X69922934Y-120778814D01*
D15*
X68382848Y-125879981D02*
X68670110Y-125879981D01*
X68555205Y-126167243D02*
X68670110Y-125879981D01*
X68555205Y-125592719D01*
X68899919Y-126052338D02*
X68670110Y-125879981D01*
X68899919Y-125707624D01*
D14*
X68132718Y-53427690D02*
X69734490Y-53427690D01*
X69922934Y-53333469D01*
X70017156Y-53239247D01*
X70111378Y-53050803D01*
X70111378Y-52673915D01*
X70017156Y-52485471D01*
X69922934Y-52391250D01*
X69734490Y-52297028D01*
X68132718Y-52297028D01*
X70017156Y-51449030D02*
X70111378Y-51166365D01*
X70111378Y-50695255D01*
X70017156Y-50506811D01*
X69922934Y-50412589D01*
X69734490Y-50318368D01*
X69546047Y-50318368D01*
X69357603Y-50412589D01*
X69263381Y-50506811D01*
X69169159Y-50695255D01*
X69074937Y-51072143D01*
X68980715Y-51260587D01*
X68886493Y-51354808D01*
X68698050Y-51449030D01*
X68509606Y-51449030D01*
X68321162Y-51354808D01*
X68226940Y-51260587D01*
X68132718Y-51072143D01*
X68132718Y-50601033D01*
X68226940Y-50318368D01*
X67850052Y-50883699D02*
X70394044Y-50883699D01*
X68792271Y-48622373D02*
X70111378Y-48622373D01*
X68038496Y-49093483D02*
X69451825Y-49564592D01*
X69451825Y-48339708D01*
D15*
X68986098Y-55219600D02*
X69273360Y-55219600D01*
X69158455Y-55506862D02*
X69273360Y-55219600D01*
X69158455Y-54932338D01*
X69503169Y-55391957D02*
X69273360Y-55219600D01*
X69503169Y-55047243D01*
D14*
X91881718Y-89495690D02*
X93483490Y-89495690D01*
X93671934Y-89401469D01*
X93766156Y-89307247D01*
X93860378Y-89118803D01*
X93860378Y-88741915D01*
X93766156Y-88553471D01*
X93671934Y-88459250D01*
X93483490Y-88365028D01*
X91881718Y-88365028D01*
X93766156Y-87517030D02*
X93860378Y-87234365D01*
X93860378Y-86763255D01*
X93766156Y-86574811D01*
X93671934Y-86480589D01*
X93483490Y-86386368D01*
X93295047Y-86386368D01*
X93106603Y-86480589D01*
X93012381Y-86574811D01*
X92918159Y-86763255D01*
X92823937Y-87140143D01*
X92729715Y-87328587D01*
X92635493Y-87422808D01*
X92447050Y-87517030D01*
X92258606Y-87517030D01*
X92070162Y-87422808D01*
X91975940Y-87328587D01*
X91881718Y-87140143D01*
X91881718Y-86669033D01*
X91975940Y-86386368D01*
X91599052Y-86951699D02*
X94143044Y-86951699D01*
X91881718Y-84596151D02*
X91881718Y-85538370D01*
X92823937Y-85632592D01*
X92729715Y-85538370D01*
X92635493Y-85349927D01*
X92635493Y-84878817D01*
X92729715Y-84690373D01*
X92823937Y-84596151D01*
X93012381Y-84501930D01*
X93483490Y-84501930D01*
X93671934Y-84596151D01*
X93766156Y-84690373D01*
X93860378Y-84878817D01*
X93860378Y-85349927D01*
X93766156Y-85538370D01*
X93671934Y-85632592D01*
D15*
X92131848Y-90827981D02*
X92419110Y-90827981D01*
X92304205Y-91115243D02*
X92419110Y-90827981D01*
X92304205Y-90540719D01*
X92648919Y-91000338D02*
X92419110Y-90827981D01*
X92648919Y-90655624D01*
D14*
X90179918Y-102678290D02*
X91781690Y-102678290D01*
X91970134Y-102584069D01*
X92064356Y-102489847D01*
X92158578Y-102301403D01*
X92158578Y-101924515D01*
X92064356Y-101736071D01*
X91970134Y-101641850D01*
X91781690Y-101547628D01*
X90179918Y-101547628D01*
X92064356Y-100699630D02*
X92158578Y-100416965D01*
X92158578Y-99945855D01*
X92064356Y-99757411D01*
X91970134Y-99663189D01*
X91781690Y-99568968D01*
X91593247Y-99568968D01*
X91404803Y-99663189D01*
X91310581Y-99757411D01*
X91216359Y-99945855D01*
X91122137Y-100322743D01*
X91027915Y-100511187D01*
X90933693Y-100605408D01*
X90745250Y-100699630D01*
X90556806Y-100699630D01*
X90368362Y-100605408D01*
X90274140Y-100511187D01*
X90179918Y-100322743D01*
X90179918Y-99851633D01*
X90274140Y-99568968D01*
X89897252Y-100134299D02*
X92441244Y-100134299D01*
X90179918Y-97872973D02*
X90179918Y-98249861D01*
X90274140Y-98438305D01*
X90368362Y-98532527D01*
X90651028Y-98720970D01*
X91027915Y-98815192D01*
X91781690Y-98815192D01*
X91970134Y-98720970D01*
X92064356Y-98626749D01*
X92158578Y-98438305D01*
X92158578Y-98061417D01*
X92064356Y-97872973D01*
X91970134Y-97778751D01*
X91781690Y-97684530D01*
X91310581Y-97684530D01*
X91122137Y-97778751D01*
X91027915Y-97872973D01*
X90933693Y-98061417D01*
X90933693Y-98438305D01*
X91027915Y-98626749D01*
X91122137Y-98720970D01*
X91310581Y-98815192D01*
D15*
X90430048Y-104010581D02*
X90717310Y-104010581D01*
X90602405Y-104297843D02*
X90717310Y-104010581D01*
X90602405Y-103723319D01*
X90947119Y-104182938D02*
X90717310Y-104010581D01*
X90947119Y-103838224D01*
D14*
X91805518Y-76389290D02*
X93407290Y-76389290D01*
X93595734Y-76295069D01*
X93689956Y-76200847D01*
X93784178Y-76012403D01*
X93784178Y-75635515D01*
X93689956Y-75447071D01*
X93595734Y-75352850D01*
X93407290Y-75258628D01*
X91805518Y-75258628D01*
X93689956Y-74410630D02*
X93784178Y-74127965D01*
X93784178Y-73656855D01*
X93689956Y-73468411D01*
X93595734Y-73374189D01*
X93407290Y-73279968D01*
X93218847Y-73279968D01*
X93030403Y-73374189D01*
X92936181Y-73468411D01*
X92841959Y-73656855D01*
X92747737Y-74033743D01*
X92653515Y-74222187D01*
X92559293Y-74316408D01*
X92370850Y-74410630D01*
X92182406Y-74410630D01*
X91993962Y-74316408D01*
X91899740Y-74222187D01*
X91805518Y-74033743D01*
X91805518Y-73562633D01*
X91899740Y-73279968D01*
X91522852Y-73845299D02*
X94066844Y-73845299D01*
X91805518Y-72620414D02*
X91805518Y-71301308D01*
X93784178Y-72149305D01*
D15*
X92055648Y-77721581D02*
X92342910Y-77721581D01*
X92228005Y-78008843D02*
X92342910Y-77721581D01*
X92228005Y-77434319D01*
X92572719Y-77893938D02*
X92342910Y-77721581D01*
X92572719Y-77549224D01*
D14*
X68132718Y-67397690D02*
X69734490Y-67397690D01*
X69922934Y-67303469D01*
X70017156Y-67209247D01*
X70111378Y-67020803D01*
X70111378Y-66643915D01*
X70017156Y-66455471D01*
X69922934Y-66361250D01*
X69734490Y-66267028D01*
X68132718Y-66267028D01*
X70017156Y-65419030D02*
X70111378Y-65136365D01*
X70111378Y-64665255D01*
X70017156Y-64476811D01*
X69922934Y-64382589D01*
X69734490Y-64288368D01*
X69546047Y-64288368D01*
X69357603Y-64382589D01*
X69263381Y-64476811D01*
X69169159Y-64665255D01*
X69074937Y-65042143D01*
X68980715Y-65230587D01*
X68886493Y-65324808D01*
X68698050Y-65419030D01*
X68509606Y-65419030D01*
X68321162Y-65324808D01*
X68226940Y-65230587D01*
X68132718Y-65042143D01*
X68132718Y-64571033D01*
X68226940Y-64288368D01*
X67850052Y-64853699D02*
X70394044Y-64853699D01*
X68980715Y-63157705D02*
X68886493Y-63346149D01*
X68792271Y-63440370D01*
X68603828Y-63534592D01*
X68509606Y-63534592D01*
X68321162Y-63440370D01*
X68226940Y-63346149D01*
X68132718Y-63157705D01*
X68132718Y-62780817D01*
X68226940Y-62592373D01*
X68321162Y-62498151D01*
X68509606Y-62403930D01*
X68603828Y-62403930D01*
X68792271Y-62498151D01*
X68886493Y-62592373D01*
X68980715Y-62780817D01*
X68980715Y-63157705D01*
X69074937Y-63346149D01*
X69169159Y-63440370D01*
X69357603Y-63534592D01*
X69734490Y-63534592D01*
X69922934Y-63440370D01*
X70017156Y-63346149D01*
X70111378Y-63157705D01*
X70111378Y-62780817D01*
X70017156Y-62592373D01*
X69922934Y-62498151D01*
X69734490Y-62403930D01*
X69357603Y-62403930D01*
X69169159Y-62498151D01*
X69074937Y-62592373D01*
X68980715Y-62780817D01*
D15*
X68986098Y-69189600D02*
X69273360Y-69189600D01*
X69158455Y-69476862D02*
X69273360Y-69189600D01*
X69158455Y-68902338D01*
X69503169Y-69361957D02*
X69273360Y-69189600D01*
X69503169Y-69017243D01*
D14*
X94421718Y-118578690D02*
X96023490Y-118578690D01*
X96211934Y-118484469D01*
X96306156Y-118390247D01*
X96400378Y-118201803D01*
X96400378Y-117824915D01*
X96306156Y-117636471D01*
X96211934Y-117542250D01*
X96023490Y-117448028D01*
X94421718Y-117448028D01*
X96306156Y-116600030D02*
X96400378Y-116317365D01*
X96400378Y-115846255D01*
X96306156Y-115657811D01*
X96211934Y-115563589D01*
X96023490Y-115469368D01*
X95835047Y-115469368D01*
X95646603Y-115563589D01*
X95552381Y-115657811D01*
X95458159Y-115846255D01*
X95363937Y-116223143D01*
X95269715Y-116411587D01*
X95175493Y-116505808D01*
X94987050Y-116600030D01*
X94798606Y-116600030D01*
X94610162Y-116505808D01*
X94515940Y-116411587D01*
X94421718Y-116223143D01*
X94421718Y-115752033D01*
X94515940Y-115469368D01*
X94139052Y-116034699D02*
X96683044Y-116034699D01*
X96400378Y-114527149D02*
X96400378Y-114150261D01*
X96306156Y-113961817D01*
X96211934Y-113867595D01*
X95929269Y-113679151D01*
X95552381Y-113584930D01*
X94798606Y-113584930D01*
X94610162Y-113679151D01*
X94515940Y-113773373D01*
X94421718Y-113961817D01*
X94421718Y-114338705D01*
X94515940Y-114527149D01*
X94610162Y-114621370D01*
X94798606Y-114715592D01*
X95269715Y-114715592D01*
X95458159Y-114621370D01*
X95552381Y-114527149D01*
X95646603Y-114338705D01*
X95646603Y-113961817D01*
X95552381Y-113773373D01*
X95458159Y-113679151D01*
X95269715Y-113584930D01*
D15*
X95275098Y-120370600D02*
X95562360Y-120370600D01*
X95447455Y-120657862D02*
X95562360Y-120370600D01*
X95447455Y-120083338D01*
X95792169Y-120542957D02*
X95562360Y-120370600D01*
X95792169Y-120198243D01*
D14*
X94806710Y-134452118D02*
X94806710Y-136053890D01*
X94900931Y-136242334D01*
X94995153Y-136336556D01*
X95183597Y-136430778D01*
X95560485Y-136430778D01*
X95748929Y-136336556D01*
X95843150Y-136242334D01*
X95937372Y-136053890D01*
X95937372Y-134452118D01*
X97916032Y-136430778D02*
X96785370Y-136430778D01*
X97350701Y-136430778D02*
X97350701Y-134452118D01*
X97162257Y-134734784D01*
X96973813Y-134923228D01*
X96785370Y-135017450D01*
D15*
X94488000Y-137210498D02*
X94488000Y-137497760D01*
X94200738Y-137382855D02*
X94488000Y-137497760D01*
X94775262Y-137382855D01*
X94315643Y-137727569D02*
X94488000Y-137497760D01*
X94660357Y-137727569D01*
D14*
X155534118Y-81723290D02*
X157135890Y-81723290D01*
X157324334Y-81629069D01*
X157418556Y-81534847D01*
X157512778Y-81346403D01*
X157512778Y-80969515D01*
X157418556Y-80781071D01*
X157324334Y-80686850D01*
X157135890Y-80592628D01*
X155534118Y-80592628D01*
X155534118Y-79838852D02*
X155534118Y-78613968D01*
X156287893Y-79273521D01*
X156287893Y-78990855D01*
X156382115Y-78802411D01*
X156476337Y-78708189D01*
X156664781Y-78613968D01*
X157135890Y-78613968D01*
X157324334Y-78708189D01*
X157418556Y-78802411D01*
X157512778Y-78990855D01*
X157512778Y-79556187D01*
X157418556Y-79744630D01*
X157324334Y-79838852D01*
D15*
X157409848Y-82725381D02*
X157697110Y-82725381D01*
X157582205Y-83012643D02*
X157697110Y-82725381D01*
X157582205Y-82438119D01*
X157926919Y-82897738D02*
X157697110Y-82725381D01*
X157926919Y-82553024D01*
D14*
X179664118Y-135063290D02*
X181265890Y-135063290D01*
X181454334Y-134969069D01*
X181548556Y-134874847D01*
X181642778Y-134686403D01*
X181642778Y-134309515D01*
X181548556Y-134121071D01*
X181454334Y-134026850D01*
X181265890Y-133932628D01*
X179664118Y-133932628D01*
X180323671Y-132142411D02*
X181642778Y-132142411D01*
X179569896Y-132613521D02*
X180983225Y-133084630D01*
X180983225Y-131859746D01*
D15*
X181539848Y-136065381D02*
X181827110Y-136065381D01*
X181712205Y-136352643D02*
X181827110Y-136065381D01*
X181712205Y-135778119D01*
X182056919Y-136237738D02*
X181827110Y-136065381D01*
X182056919Y-135893024D01*
M02*
